%TF.GenerationSoftware,KiCad,Pcbnew,9.0.6*%
%TF.CreationDate,2025-11-23T22:05:43-07:00*%
%TF.ProjectId,ChuaCircuit,43687561-4369-4726-9375-69742e6b6963,rev?*%
%TF.SameCoordinates,Original*%
%TF.FileFunction,Copper,L2,Bot*%
%TF.FilePolarity,Positive*%
%FSLAX46Y46*%
G04 Gerber Fmt 4.6, Leading zero omitted, Abs format (unit mm)*
G04 Created by KiCad (PCBNEW 9.0.6) date 2025-11-23 22:05:43*
%MOMM*%
%LPD*%
G01*
G04 APERTURE LIST*
%ADD10C,0.100000*%
%ADD11C,0.150000*%
%ADD12C,0.300000*%
%ADD13C,0.400000*%
%TA.AperFunction,ComponentPad*%
%ADD14R,1.700000X1.700000*%
%TD*%
%TA.AperFunction,ComponentPad*%
%ADD15C,1.700000*%
%TD*%
%TA.AperFunction,ViaPad*%
%ADD16C,0.600000*%
%TD*%
%TA.AperFunction,Conductor*%
%ADD17C,0.200000*%
%TD*%
G04 APERTURE END LIST*
D10*
D11*
X177002200Y-166007200D02*
X285002200Y-166007200D01*
X285002200Y-198007200D01*
X177002200Y-198007200D01*
X177002200Y-166007200D01*
D10*
D11*
X10000000Y-10000000D02*
X287002200Y-10000000D01*
X287002200Y-200007200D01*
X10000000Y-200007200D01*
X10000000Y-10000000D01*
D10*
D11*
X12000000Y-12000000D02*
X285002200Y-12000000D01*
X285002200Y-198007200D01*
X12000000Y-198007200D01*
X12000000Y-12000000D01*
D10*
D11*
X60000000Y-12000000D02*
X60000000Y-10000000D01*
D10*
D11*
X110000000Y-12000000D02*
X110000000Y-10000000D01*
D10*
D11*
X160000000Y-12000000D02*
X160000000Y-10000000D01*
D10*
D11*
X210000000Y-12000000D02*
X210000000Y-10000000D01*
D10*
D11*
X260000000Y-12000000D02*
X260000000Y-10000000D01*
D10*
D11*
X36089160Y-11593604D02*
X35346303Y-11593604D01*
X35717731Y-11593604D02*
X35717731Y-10293604D01*
X35717731Y-10293604D02*
X35593922Y-10479319D01*
X35593922Y-10479319D02*
X35470112Y-10603128D01*
X35470112Y-10603128D02*
X35346303Y-10665033D01*
D10*
D11*
X85346303Y-10417414D02*
X85408207Y-10355509D01*
X85408207Y-10355509D02*
X85532017Y-10293604D01*
X85532017Y-10293604D02*
X85841541Y-10293604D01*
X85841541Y-10293604D02*
X85965350Y-10355509D01*
X85965350Y-10355509D02*
X86027255Y-10417414D01*
X86027255Y-10417414D02*
X86089160Y-10541223D01*
X86089160Y-10541223D02*
X86089160Y-10665033D01*
X86089160Y-10665033D02*
X86027255Y-10850747D01*
X86027255Y-10850747D02*
X85284398Y-11593604D01*
X85284398Y-11593604D02*
X86089160Y-11593604D01*
D10*
D11*
X135284398Y-10293604D02*
X136089160Y-10293604D01*
X136089160Y-10293604D02*
X135655826Y-10788842D01*
X135655826Y-10788842D02*
X135841541Y-10788842D01*
X135841541Y-10788842D02*
X135965350Y-10850747D01*
X135965350Y-10850747D02*
X136027255Y-10912652D01*
X136027255Y-10912652D02*
X136089160Y-11036461D01*
X136089160Y-11036461D02*
X136089160Y-11345985D01*
X136089160Y-11345985D02*
X136027255Y-11469795D01*
X136027255Y-11469795D02*
X135965350Y-11531700D01*
X135965350Y-11531700D02*
X135841541Y-11593604D01*
X135841541Y-11593604D02*
X135470112Y-11593604D01*
X135470112Y-11593604D02*
X135346303Y-11531700D01*
X135346303Y-11531700D02*
X135284398Y-11469795D01*
D10*
D11*
X185965350Y-10726938D02*
X185965350Y-11593604D01*
X185655826Y-10231700D02*
X185346303Y-11160271D01*
X185346303Y-11160271D02*
X186151064Y-11160271D01*
D10*
D11*
X236027255Y-10293604D02*
X235408207Y-10293604D01*
X235408207Y-10293604D02*
X235346303Y-10912652D01*
X235346303Y-10912652D02*
X235408207Y-10850747D01*
X235408207Y-10850747D02*
X235532017Y-10788842D01*
X235532017Y-10788842D02*
X235841541Y-10788842D01*
X235841541Y-10788842D02*
X235965350Y-10850747D01*
X235965350Y-10850747D02*
X236027255Y-10912652D01*
X236027255Y-10912652D02*
X236089160Y-11036461D01*
X236089160Y-11036461D02*
X236089160Y-11345985D01*
X236089160Y-11345985D02*
X236027255Y-11469795D01*
X236027255Y-11469795D02*
X235965350Y-11531700D01*
X235965350Y-11531700D02*
X235841541Y-11593604D01*
X235841541Y-11593604D02*
X235532017Y-11593604D01*
X235532017Y-11593604D02*
X235408207Y-11531700D01*
X235408207Y-11531700D02*
X235346303Y-11469795D01*
D10*
D11*
X285965350Y-10293604D02*
X285717731Y-10293604D01*
X285717731Y-10293604D02*
X285593922Y-10355509D01*
X285593922Y-10355509D02*
X285532017Y-10417414D01*
X285532017Y-10417414D02*
X285408207Y-10603128D01*
X285408207Y-10603128D02*
X285346303Y-10850747D01*
X285346303Y-10850747D02*
X285346303Y-11345985D01*
X285346303Y-11345985D02*
X285408207Y-11469795D01*
X285408207Y-11469795D02*
X285470112Y-11531700D01*
X285470112Y-11531700D02*
X285593922Y-11593604D01*
X285593922Y-11593604D02*
X285841541Y-11593604D01*
X285841541Y-11593604D02*
X285965350Y-11531700D01*
X285965350Y-11531700D02*
X286027255Y-11469795D01*
X286027255Y-11469795D02*
X286089160Y-11345985D01*
X286089160Y-11345985D02*
X286089160Y-11036461D01*
X286089160Y-11036461D02*
X286027255Y-10912652D01*
X286027255Y-10912652D02*
X285965350Y-10850747D01*
X285965350Y-10850747D02*
X285841541Y-10788842D01*
X285841541Y-10788842D02*
X285593922Y-10788842D01*
X285593922Y-10788842D02*
X285470112Y-10850747D01*
X285470112Y-10850747D02*
X285408207Y-10912652D01*
X285408207Y-10912652D02*
X285346303Y-11036461D01*
D10*
D11*
X60000000Y-198007200D02*
X60000000Y-200007200D01*
D10*
D11*
X110000000Y-198007200D02*
X110000000Y-200007200D01*
D10*
D11*
X160000000Y-198007200D02*
X160000000Y-200007200D01*
D10*
D11*
X210000000Y-198007200D02*
X210000000Y-200007200D01*
D10*
D11*
X260000000Y-198007200D02*
X260000000Y-200007200D01*
D10*
D11*
X36089160Y-199600804D02*
X35346303Y-199600804D01*
X35717731Y-199600804D02*
X35717731Y-198300804D01*
X35717731Y-198300804D02*
X35593922Y-198486519D01*
X35593922Y-198486519D02*
X35470112Y-198610328D01*
X35470112Y-198610328D02*
X35346303Y-198672233D01*
D10*
D11*
X85346303Y-198424614D02*
X85408207Y-198362709D01*
X85408207Y-198362709D02*
X85532017Y-198300804D01*
X85532017Y-198300804D02*
X85841541Y-198300804D01*
X85841541Y-198300804D02*
X85965350Y-198362709D01*
X85965350Y-198362709D02*
X86027255Y-198424614D01*
X86027255Y-198424614D02*
X86089160Y-198548423D01*
X86089160Y-198548423D02*
X86089160Y-198672233D01*
X86089160Y-198672233D02*
X86027255Y-198857947D01*
X86027255Y-198857947D02*
X85284398Y-199600804D01*
X85284398Y-199600804D02*
X86089160Y-199600804D01*
D10*
D11*
X135284398Y-198300804D02*
X136089160Y-198300804D01*
X136089160Y-198300804D02*
X135655826Y-198796042D01*
X135655826Y-198796042D02*
X135841541Y-198796042D01*
X135841541Y-198796042D02*
X135965350Y-198857947D01*
X135965350Y-198857947D02*
X136027255Y-198919852D01*
X136027255Y-198919852D02*
X136089160Y-199043661D01*
X136089160Y-199043661D02*
X136089160Y-199353185D01*
X136089160Y-199353185D02*
X136027255Y-199476995D01*
X136027255Y-199476995D02*
X135965350Y-199538900D01*
X135965350Y-199538900D02*
X135841541Y-199600804D01*
X135841541Y-199600804D02*
X135470112Y-199600804D01*
X135470112Y-199600804D02*
X135346303Y-199538900D01*
X135346303Y-199538900D02*
X135284398Y-199476995D01*
D10*
D11*
X185965350Y-198734138D02*
X185965350Y-199600804D01*
X185655826Y-198238900D02*
X185346303Y-199167471D01*
X185346303Y-199167471D02*
X186151064Y-199167471D01*
D10*
D11*
X236027255Y-198300804D02*
X235408207Y-198300804D01*
X235408207Y-198300804D02*
X235346303Y-198919852D01*
X235346303Y-198919852D02*
X235408207Y-198857947D01*
X235408207Y-198857947D02*
X235532017Y-198796042D01*
X235532017Y-198796042D02*
X235841541Y-198796042D01*
X235841541Y-198796042D02*
X235965350Y-198857947D01*
X235965350Y-198857947D02*
X236027255Y-198919852D01*
X236027255Y-198919852D02*
X236089160Y-199043661D01*
X236089160Y-199043661D02*
X236089160Y-199353185D01*
X236089160Y-199353185D02*
X236027255Y-199476995D01*
X236027255Y-199476995D02*
X235965350Y-199538900D01*
X235965350Y-199538900D02*
X235841541Y-199600804D01*
X235841541Y-199600804D02*
X235532017Y-199600804D01*
X235532017Y-199600804D02*
X235408207Y-199538900D01*
X235408207Y-199538900D02*
X235346303Y-199476995D01*
D10*
D11*
X285965350Y-198300804D02*
X285717731Y-198300804D01*
X285717731Y-198300804D02*
X285593922Y-198362709D01*
X285593922Y-198362709D02*
X285532017Y-198424614D01*
X285532017Y-198424614D02*
X285408207Y-198610328D01*
X285408207Y-198610328D02*
X285346303Y-198857947D01*
X285346303Y-198857947D02*
X285346303Y-199353185D01*
X285346303Y-199353185D02*
X285408207Y-199476995D01*
X285408207Y-199476995D02*
X285470112Y-199538900D01*
X285470112Y-199538900D02*
X285593922Y-199600804D01*
X285593922Y-199600804D02*
X285841541Y-199600804D01*
X285841541Y-199600804D02*
X285965350Y-199538900D01*
X285965350Y-199538900D02*
X286027255Y-199476995D01*
X286027255Y-199476995D02*
X286089160Y-199353185D01*
X286089160Y-199353185D02*
X286089160Y-199043661D01*
X286089160Y-199043661D02*
X286027255Y-198919852D01*
X286027255Y-198919852D02*
X285965350Y-198857947D01*
X285965350Y-198857947D02*
X285841541Y-198796042D01*
X285841541Y-198796042D02*
X285593922Y-198796042D01*
X285593922Y-198796042D02*
X285470112Y-198857947D01*
X285470112Y-198857947D02*
X285408207Y-198919852D01*
X285408207Y-198919852D02*
X285346303Y-199043661D01*
D10*
D11*
X10000000Y-60000000D02*
X12000000Y-60000000D01*
D10*
D11*
X10000000Y-110000000D02*
X12000000Y-110000000D01*
D10*
D11*
X10000000Y-160000000D02*
X12000000Y-160000000D01*
D10*
D11*
X10690476Y-35222176D02*
X11309523Y-35222176D01*
X10566666Y-35593604D02*
X10999999Y-34293604D01*
X10999999Y-34293604D02*
X11433333Y-35593604D01*
D10*
D11*
X11092857Y-84912652D02*
X11278571Y-84974557D01*
X11278571Y-84974557D02*
X11340476Y-85036461D01*
X11340476Y-85036461D02*
X11402380Y-85160271D01*
X11402380Y-85160271D02*
X11402380Y-85345985D01*
X11402380Y-85345985D02*
X11340476Y-85469795D01*
X11340476Y-85469795D02*
X11278571Y-85531700D01*
X11278571Y-85531700D02*
X11154761Y-85593604D01*
X11154761Y-85593604D02*
X10659523Y-85593604D01*
X10659523Y-85593604D02*
X10659523Y-84293604D01*
X10659523Y-84293604D02*
X11092857Y-84293604D01*
X11092857Y-84293604D02*
X11216666Y-84355509D01*
X11216666Y-84355509D02*
X11278571Y-84417414D01*
X11278571Y-84417414D02*
X11340476Y-84541223D01*
X11340476Y-84541223D02*
X11340476Y-84665033D01*
X11340476Y-84665033D02*
X11278571Y-84788842D01*
X11278571Y-84788842D02*
X11216666Y-84850747D01*
X11216666Y-84850747D02*
X11092857Y-84912652D01*
X11092857Y-84912652D02*
X10659523Y-84912652D01*
D10*
D11*
X11402380Y-135469795D02*
X11340476Y-135531700D01*
X11340476Y-135531700D02*
X11154761Y-135593604D01*
X11154761Y-135593604D02*
X11030952Y-135593604D01*
X11030952Y-135593604D02*
X10845238Y-135531700D01*
X10845238Y-135531700D02*
X10721428Y-135407890D01*
X10721428Y-135407890D02*
X10659523Y-135284080D01*
X10659523Y-135284080D02*
X10597619Y-135036461D01*
X10597619Y-135036461D02*
X10597619Y-134850747D01*
X10597619Y-134850747D02*
X10659523Y-134603128D01*
X10659523Y-134603128D02*
X10721428Y-134479319D01*
X10721428Y-134479319D02*
X10845238Y-134355509D01*
X10845238Y-134355509D02*
X11030952Y-134293604D01*
X11030952Y-134293604D02*
X11154761Y-134293604D01*
X11154761Y-134293604D02*
X11340476Y-134355509D01*
X11340476Y-134355509D02*
X11402380Y-134417414D01*
D10*
D11*
X10659523Y-185593604D02*
X10659523Y-184293604D01*
X10659523Y-184293604D02*
X10969047Y-184293604D01*
X10969047Y-184293604D02*
X11154761Y-184355509D01*
X11154761Y-184355509D02*
X11278571Y-184479319D01*
X11278571Y-184479319D02*
X11340476Y-184603128D01*
X11340476Y-184603128D02*
X11402380Y-184850747D01*
X11402380Y-184850747D02*
X11402380Y-185036461D01*
X11402380Y-185036461D02*
X11340476Y-185284080D01*
X11340476Y-185284080D02*
X11278571Y-185407890D01*
X11278571Y-185407890D02*
X11154761Y-185531700D01*
X11154761Y-185531700D02*
X10969047Y-185593604D01*
X10969047Y-185593604D02*
X10659523Y-185593604D01*
D10*
D11*
X287002200Y-60000000D02*
X285002200Y-60000000D01*
D10*
D11*
X287002200Y-110000000D02*
X285002200Y-110000000D01*
D10*
D11*
X287002200Y-160000000D02*
X285002200Y-160000000D01*
D10*
D11*
X285692676Y-35222176D02*
X286311723Y-35222176D01*
X285568866Y-35593604D02*
X286002199Y-34293604D01*
X286002199Y-34293604D02*
X286435533Y-35593604D01*
D10*
D11*
X286095057Y-84912652D02*
X286280771Y-84974557D01*
X286280771Y-84974557D02*
X286342676Y-85036461D01*
X286342676Y-85036461D02*
X286404580Y-85160271D01*
X286404580Y-85160271D02*
X286404580Y-85345985D01*
X286404580Y-85345985D02*
X286342676Y-85469795D01*
X286342676Y-85469795D02*
X286280771Y-85531700D01*
X286280771Y-85531700D02*
X286156961Y-85593604D01*
X286156961Y-85593604D02*
X285661723Y-85593604D01*
X285661723Y-85593604D02*
X285661723Y-84293604D01*
X285661723Y-84293604D02*
X286095057Y-84293604D01*
X286095057Y-84293604D02*
X286218866Y-84355509D01*
X286218866Y-84355509D02*
X286280771Y-84417414D01*
X286280771Y-84417414D02*
X286342676Y-84541223D01*
X286342676Y-84541223D02*
X286342676Y-84665033D01*
X286342676Y-84665033D02*
X286280771Y-84788842D01*
X286280771Y-84788842D02*
X286218866Y-84850747D01*
X286218866Y-84850747D02*
X286095057Y-84912652D01*
X286095057Y-84912652D02*
X285661723Y-84912652D01*
D10*
D11*
X286404580Y-135469795D02*
X286342676Y-135531700D01*
X286342676Y-135531700D02*
X286156961Y-135593604D01*
X286156961Y-135593604D02*
X286033152Y-135593604D01*
X286033152Y-135593604D02*
X285847438Y-135531700D01*
X285847438Y-135531700D02*
X285723628Y-135407890D01*
X285723628Y-135407890D02*
X285661723Y-135284080D01*
X285661723Y-135284080D02*
X285599819Y-135036461D01*
X285599819Y-135036461D02*
X285599819Y-134850747D01*
X285599819Y-134850747D02*
X285661723Y-134603128D01*
X285661723Y-134603128D02*
X285723628Y-134479319D01*
X285723628Y-134479319D02*
X285847438Y-134355509D01*
X285847438Y-134355509D02*
X286033152Y-134293604D01*
X286033152Y-134293604D02*
X286156961Y-134293604D01*
X286156961Y-134293604D02*
X286342676Y-134355509D01*
X286342676Y-134355509D02*
X286404580Y-134417414D01*
D10*
D11*
X285661723Y-185593604D02*
X285661723Y-184293604D01*
X285661723Y-184293604D02*
X285971247Y-184293604D01*
X285971247Y-184293604D02*
X286156961Y-184355509D01*
X286156961Y-184355509D02*
X286280771Y-184479319D01*
X286280771Y-184479319D02*
X286342676Y-184603128D01*
X286342676Y-184603128D02*
X286404580Y-184850747D01*
X286404580Y-184850747D02*
X286404580Y-185036461D01*
X286404580Y-185036461D02*
X286342676Y-185284080D01*
X286342676Y-185284080D02*
X286280771Y-185407890D01*
X286280771Y-185407890D02*
X286156961Y-185531700D01*
X286156961Y-185531700D02*
X285971247Y-185593604D01*
X285971247Y-185593604D02*
X285661723Y-185593604D01*
D10*
D11*
X200458026Y-193793328D02*
X200458026Y-192293328D01*
X200458026Y-192293328D02*
X200815169Y-192293328D01*
X200815169Y-192293328D02*
X201029455Y-192364757D01*
X201029455Y-192364757D02*
X201172312Y-192507614D01*
X201172312Y-192507614D02*
X201243741Y-192650471D01*
X201243741Y-192650471D02*
X201315169Y-192936185D01*
X201315169Y-192936185D02*
X201315169Y-193150471D01*
X201315169Y-193150471D02*
X201243741Y-193436185D01*
X201243741Y-193436185D02*
X201172312Y-193579042D01*
X201172312Y-193579042D02*
X201029455Y-193721900D01*
X201029455Y-193721900D02*
X200815169Y-193793328D01*
X200815169Y-193793328D02*
X200458026Y-193793328D01*
X202600884Y-193793328D02*
X202600884Y-193007614D01*
X202600884Y-193007614D02*
X202529455Y-192864757D01*
X202529455Y-192864757D02*
X202386598Y-192793328D01*
X202386598Y-192793328D02*
X202100884Y-192793328D01*
X202100884Y-192793328D02*
X201958026Y-192864757D01*
X202600884Y-193721900D02*
X202458026Y-193793328D01*
X202458026Y-193793328D02*
X202100884Y-193793328D01*
X202100884Y-193793328D02*
X201958026Y-193721900D01*
X201958026Y-193721900D02*
X201886598Y-193579042D01*
X201886598Y-193579042D02*
X201886598Y-193436185D01*
X201886598Y-193436185D02*
X201958026Y-193293328D01*
X201958026Y-193293328D02*
X202100884Y-193221900D01*
X202100884Y-193221900D02*
X202458026Y-193221900D01*
X202458026Y-193221900D02*
X202600884Y-193150471D01*
X203100884Y-192793328D02*
X203672312Y-192793328D01*
X203315169Y-192293328D02*
X203315169Y-193579042D01*
X203315169Y-193579042D02*
X203386598Y-193721900D01*
X203386598Y-193721900D02*
X203529455Y-193793328D01*
X203529455Y-193793328D02*
X203672312Y-193793328D01*
X204743741Y-193721900D02*
X204600884Y-193793328D01*
X204600884Y-193793328D02*
X204315170Y-193793328D01*
X204315170Y-193793328D02*
X204172312Y-193721900D01*
X204172312Y-193721900D02*
X204100884Y-193579042D01*
X204100884Y-193579042D02*
X204100884Y-193007614D01*
X204100884Y-193007614D02*
X204172312Y-192864757D01*
X204172312Y-192864757D02*
X204315170Y-192793328D01*
X204315170Y-192793328D02*
X204600884Y-192793328D01*
X204600884Y-192793328D02*
X204743741Y-192864757D01*
X204743741Y-192864757D02*
X204815170Y-193007614D01*
X204815170Y-193007614D02*
X204815170Y-193150471D01*
X204815170Y-193150471D02*
X204100884Y-193293328D01*
X205458026Y-193650471D02*
X205529455Y-193721900D01*
X205529455Y-193721900D02*
X205458026Y-193793328D01*
X205458026Y-193793328D02*
X205386598Y-193721900D01*
X205386598Y-193721900D02*
X205458026Y-193650471D01*
X205458026Y-193650471D02*
X205458026Y-193793328D01*
X205458026Y-192864757D02*
X205529455Y-192936185D01*
X205529455Y-192936185D02*
X205458026Y-193007614D01*
X205458026Y-193007614D02*
X205386598Y-192936185D01*
X205386598Y-192936185D02*
X205458026Y-192864757D01*
X205458026Y-192864757D02*
X205458026Y-193007614D01*
D10*
D11*
X177002200Y-194507200D02*
X285002200Y-194507200D01*
D10*
D11*
X178458026Y-196593328D02*
X178458026Y-195093328D01*
X179315169Y-196593328D02*
X178672312Y-195736185D01*
X179315169Y-195093328D02*
X178458026Y-195950471D01*
X179958026Y-196593328D02*
X179958026Y-195593328D01*
X179958026Y-195093328D02*
X179886598Y-195164757D01*
X179886598Y-195164757D02*
X179958026Y-195236185D01*
X179958026Y-195236185D02*
X180029455Y-195164757D01*
X180029455Y-195164757D02*
X179958026Y-195093328D01*
X179958026Y-195093328D02*
X179958026Y-195236185D01*
X181529455Y-196450471D02*
X181458027Y-196521900D01*
X181458027Y-196521900D02*
X181243741Y-196593328D01*
X181243741Y-196593328D02*
X181100884Y-196593328D01*
X181100884Y-196593328D02*
X180886598Y-196521900D01*
X180886598Y-196521900D02*
X180743741Y-196379042D01*
X180743741Y-196379042D02*
X180672312Y-196236185D01*
X180672312Y-196236185D02*
X180600884Y-195950471D01*
X180600884Y-195950471D02*
X180600884Y-195736185D01*
X180600884Y-195736185D02*
X180672312Y-195450471D01*
X180672312Y-195450471D02*
X180743741Y-195307614D01*
X180743741Y-195307614D02*
X180886598Y-195164757D01*
X180886598Y-195164757D02*
X181100884Y-195093328D01*
X181100884Y-195093328D02*
X181243741Y-195093328D01*
X181243741Y-195093328D02*
X181458027Y-195164757D01*
X181458027Y-195164757D02*
X181529455Y-195236185D01*
X182815170Y-196593328D02*
X182815170Y-195807614D01*
X182815170Y-195807614D02*
X182743741Y-195664757D01*
X182743741Y-195664757D02*
X182600884Y-195593328D01*
X182600884Y-195593328D02*
X182315170Y-195593328D01*
X182315170Y-195593328D02*
X182172312Y-195664757D01*
X182815170Y-196521900D02*
X182672312Y-196593328D01*
X182672312Y-196593328D02*
X182315170Y-196593328D01*
X182315170Y-196593328D02*
X182172312Y-196521900D01*
X182172312Y-196521900D02*
X182100884Y-196379042D01*
X182100884Y-196379042D02*
X182100884Y-196236185D01*
X182100884Y-196236185D02*
X182172312Y-196093328D01*
X182172312Y-196093328D02*
X182315170Y-196021900D01*
X182315170Y-196021900D02*
X182672312Y-196021900D01*
X182672312Y-196021900D02*
X182815170Y-195950471D01*
X184172313Y-196593328D02*
X184172313Y-195093328D01*
X184172313Y-196521900D02*
X184029455Y-196593328D01*
X184029455Y-196593328D02*
X183743741Y-196593328D01*
X183743741Y-196593328D02*
X183600884Y-196521900D01*
X183600884Y-196521900D02*
X183529455Y-196450471D01*
X183529455Y-196450471D02*
X183458027Y-196307614D01*
X183458027Y-196307614D02*
X183458027Y-195879042D01*
X183458027Y-195879042D02*
X183529455Y-195736185D01*
X183529455Y-195736185D02*
X183600884Y-195664757D01*
X183600884Y-195664757D02*
X183743741Y-195593328D01*
X183743741Y-195593328D02*
X184029455Y-195593328D01*
X184029455Y-195593328D02*
X184172313Y-195664757D01*
X186029455Y-195807614D02*
X186529455Y-195807614D01*
X186743741Y-196593328D02*
X186029455Y-196593328D01*
X186029455Y-196593328D02*
X186029455Y-195093328D01*
X186029455Y-195093328D02*
X186743741Y-195093328D01*
X187386598Y-196450471D02*
X187458027Y-196521900D01*
X187458027Y-196521900D02*
X187386598Y-196593328D01*
X187386598Y-196593328D02*
X187315170Y-196521900D01*
X187315170Y-196521900D02*
X187386598Y-196450471D01*
X187386598Y-196450471D02*
X187386598Y-196593328D01*
X188100884Y-196593328D02*
X188100884Y-195093328D01*
X188100884Y-195093328D02*
X188458027Y-195093328D01*
X188458027Y-195093328D02*
X188672313Y-195164757D01*
X188672313Y-195164757D02*
X188815170Y-195307614D01*
X188815170Y-195307614D02*
X188886599Y-195450471D01*
X188886599Y-195450471D02*
X188958027Y-195736185D01*
X188958027Y-195736185D02*
X188958027Y-195950471D01*
X188958027Y-195950471D02*
X188886599Y-196236185D01*
X188886599Y-196236185D02*
X188815170Y-196379042D01*
X188815170Y-196379042D02*
X188672313Y-196521900D01*
X188672313Y-196521900D02*
X188458027Y-196593328D01*
X188458027Y-196593328D02*
X188100884Y-196593328D01*
X189600884Y-196450471D02*
X189672313Y-196521900D01*
X189672313Y-196521900D02*
X189600884Y-196593328D01*
X189600884Y-196593328D02*
X189529456Y-196521900D01*
X189529456Y-196521900D02*
X189600884Y-196450471D01*
X189600884Y-196450471D02*
X189600884Y-196593328D01*
X190243742Y-196164757D02*
X190958028Y-196164757D01*
X190100885Y-196593328D02*
X190600885Y-195093328D01*
X190600885Y-195093328D02*
X191100885Y-196593328D01*
X191600884Y-196450471D02*
X191672313Y-196521900D01*
X191672313Y-196521900D02*
X191600884Y-196593328D01*
X191600884Y-196593328D02*
X191529456Y-196521900D01*
X191529456Y-196521900D02*
X191600884Y-196450471D01*
X191600884Y-196450471D02*
X191600884Y-196593328D01*
X193529456Y-196593328D02*
X193815170Y-196593328D01*
X193815170Y-196593328D02*
X193958027Y-196521900D01*
X193958027Y-196521900D02*
X194029456Y-196450471D01*
X194029456Y-196450471D02*
X194172313Y-196236185D01*
X194172313Y-196236185D02*
X194243742Y-195950471D01*
X194243742Y-195950471D02*
X194243742Y-195379042D01*
X194243742Y-195379042D02*
X194172313Y-195236185D01*
X194172313Y-195236185D02*
X194100885Y-195164757D01*
X194100885Y-195164757D02*
X193958027Y-195093328D01*
X193958027Y-195093328D02*
X193672313Y-195093328D01*
X193672313Y-195093328D02*
X193529456Y-195164757D01*
X193529456Y-195164757D02*
X193458027Y-195236185D01*
X193458027Y-195236185D02*
X193386599Y-195379042D01*
X193386599Y-195379042D02*
X193386599Y-195736185D01*
X193386599Y-195736185D02*
X193458027Y-195879042D01*
X193458027Y-195879042D02*
X193529456Y-195950471D01*
X193529456Y-195950471D02*
X193672313Y-196021900D01*
X193672313Y-196021900D02*
X193958027Y-196021900D01*
X193958027Y-196021900D02*
X194100885Y-195950471D01*
X194100885Y-195950471D02*
X194172313Y-195879042D01*
X194172313Y-195879042D02*
X194243742Y-195736185D01*
X194886598Y-196450471D02*
X194958027Y-196521900D01*
X194958027Y-196521900D02*
X194886598Y-196593328D01*
X194886598Y-196593328D02*
X194815170Y-196521900D01*
X194815170Y-196521900D02*
X194886598Y-196450471D01*
X194886598Y-196450471D02*
X194886598Y-196593328D01*
X195886599Y-195093328D02*
X196029456Y-195093328D01*
X196029456Y-195093328D02*
X196172313Y-195164757D01*
X196172313Y-195164757D02*
X196243742Y-195236185D01*
X196243742Y-195236185D02*
X196315170Y-195379042D01*
X196315170Y-195379042D02*
X196386599Y-195664757D01*
X196386599Y-195664757D02*
X196386599Y-196021900D01*
X196386599Y-196021900D02*
X196315170Y-196307614D01*
X196315170Y-196307614D02*
X196243742Y-196450471D01*
X196243742Y-196450471D02*
X196172313Y-196521900D01*
X196172313Y-196521900D02*
X196029456Y-196593328D01*
X196029456Y-196593328D02*
X195886599Y-196593328D01*
X195886599Y-196593328D02*
X195743742Y-196521900D01*
X195743742Y-196521900D02*
X195672313Y-196450471D01*
X195672313Y-196450471D02*
X195600884Y-196307614D01*
X195600884Y-196307614D02*
X195529456Y-196021900D01*
X195529456Y-196021900D02*
X195529456Y-195664757D01*
X195529456Y-195664757D02*
X195600884Y-195379042D01*
X195600884Y-195379042D02*
X195672313Y-195236185D01*
X195672313Y-195236185D02*
X195743742Y-195164757D01*
X195743742Y-195164757D02*
X195886599Y-195093328D01*
X197029455Y-196450471D02*
X197100884Y-196521900D01*
X197100884Y-196521900D02*
X197029455Y-196593328D01*
X197029455Y-196593328D02*
X196958027Y-196521900D01*
X196958027Y-196521900D02*
X197029455Y-196450471D01*
X197029455Y-196450471D02*
X197029455Y-196593328D01*
X198386599Y-195093328D02*
X198100884Y-195093328D01*
X198100884Y-195093328D02*
X197958027Y-195164757D01*
X197958027Y-195164757D02*
X197886599Y-195236185D01*
X197886599Y-195236185D02*
X197743741Y-195450471D01*
X197743741Y-195450471D02*
X197672313Y-195736185D01*
X197672313Y-195736185D02*
X197672313Y-196307614D01*
X197672313Y-196307614D02*
X197743741Y-196450471D01*
X197743741Y-196450471D02*
X197815170Y-196521900D01*
X197815170Y-196521900D02*
X197958027Y-196593328D01*
X197958027Y-196593328D02*
X198243741Y-196593328D01*
X198243741Y-196593328D02*
X198386599Y-196521900D01*
X198386599Y-196521900D02*
X198458027Y-196450471D01*
X198458027Y-196450471D02*
X198529456Y-196307614D01*
X198529456Y-196307614D02*
X198529456Y-195950471D01*
X198529456Y-195950471D02*
X198458027Y-195807614D01*
X198458027Y-195807614D02*
X198386599Y-195736185D01*
X198386599Y-195736185D02*
X198243741Y-195664757D01*
X198243741Y-195664757D02*
X197958027Y-195664757D01*
X197958027Y-195664757D02*
X197815170Y-195736185D01*
X197815170Y-195736185D02*
X197743741Y-195807614D01*
X197743741Y-195807614D02*
X197672313Y-195950471D01*
D10*
D11*
X177002200Y-191507200D02*
X285002200Y-191507200D01*
D10*
D12*
X264413853Y-193785528D02*
X263913853Y-193071242D01*
X263556710Y-193785528D02*
X263556710Y-192285528D01*
X263556710Y-192285528D02*
X264128139Y-192285528D01*
X264128139Y-192285528D02*
X264270996Y-192356957D01*
X264270996Y-192356957D02*
X264342425Y-192428385D01*
X264342425Y-192428385D02*
X264413853Y-192571242D01*
X264413853Y-192571242D02*
X264413853Y-192785528D01*
X264413853Y-192785528D02*
X264342425Y-192928385D01*
X264342425Y-192928385D02*
X264270996Y-192999814D01*
X264270996Y-192999814D02*
X264128139Y-193071242D01*
X264128139Y-193071242D02*
X263556710Y-193071242D01*
X265628139Y-193714100D02*
X265485282Y-193785528D01*
X265485282Y-193785528D02*
X265199568Y-193785528D01*
X265199568Y-193785528D02*
X265056710Y-193714100D01*
X265056710Y-193714100D02*
X264985282Y-193571242D01*
X264985282Y-193571242D02*
X264985282Y-192999814D01*
X264985282Y-192999814D02*
X265056710Y-192856957D01*
X265056710Y-192856957D02*
X265199568Y-192785528D01*
X265199568Y-192785528D02*
X265485282Y-192785528D01*
X265485282Y-192785528D02*
X265628139Y-192856957D01*
X265628139Y-192856957D02*
X265699568Y-192999814D01*
X265699568Y-192999814D02*
X265699568Y-193142671D01*
X265699568Y-193142671D02*
X264985282Y-193285528D01*
X266199567Y-192785528D02*
X266556710Y-193785528D01*
X266556710Y-193785528D02*
X266913853Y-192785528D01*
X267485281Y-193642671D02*
X267556710Y-193714100D01*
X267556710Y-193714100D02*
X267485281Y-193785528D01*
X267485281Y-193785528D02*
X267413853Y-193714100D01*
X267413853Y-193714100D02*
X267485281Y-193642671D01*
X267485281Y-193642671D02*
X267485281Y-193785528D01*
X267485281Y-192856957D02*
X267556710Y-192928385D01*
X267556710Y-192928385D02*
X267485281Y-192999814D01*
X267485281Y-192999814D02*
X267413853Y-192928385D01*
X267413853Y-192928385D02*
X267485281Y-192856957D01*
X267485281Y-192856957D02*
X267485281Y-192999814D01*
D10*
D11*
X178386598Y-193721900D02*
X178600884Y-193793328D01*
X178600884Y-193793328D02*
X178958026Y-193793328D01*
X178958026Y-193793328D02*
X179100884Y-193721900D01*
X179100884Y-193721900D02*
X179172312Y-193650471D01*
X179172312Y-193650471D02*
X179243741Y-193507614D01*
X179243741Y-193507614D02*
X179243741Y-193364757D01*
X179243741Y-193364757D02*
X179172312Y-193221900D01*
X179172312Y-193221900D02*
X179100884Y-193150471D01*
X179100884Y-193150471D02*
X178958026Y-193079042D01*
X178958026Y-193079042D02*
X178672312Y-193007614D01*
X178672312Y-193007614D02*
X178529455Y-192936185D01*
X178529455Y-192936185D02*
X178458026Y-192864757D01*
X178458026Y-192864757D02*
X178386598Y-192721900D01*
X178386598Y-192721900D02*
X178386598Y-192579042D01*
X178386598Y-192579042D02*
X178458026Y-192436185D01*
X178458026Y-192436185D02*
X178529455Y-192364757D01*
X178529455Y-192364757D02*
X178672312Y-192293328D01*
X178672312Y-192293328D02*
X179029455Y-192293328D01*
X179029455Y-192293328D02*
X179243741Y-192364757D01*
X179886597Y-193793328D02*
X179886597Y-192793328D01*
X179886597Y-192293328D02*
X179815169Y-192364757D01*
X179815169Y-192364757D02*
X179886597Y-192436185D01*
X179886597Y-192436185D02*
X179958026Y-192364757D01*
X179958026Y-192364757D02*
X179886597Y-192293328D01*
X179886597Y-192293328D02*
X179886597Y-192436185D01*
X180458026Y-192793328D02*
X181243741Y-192793328D01*
X181243741Y-192793328D02*
X180458026Y-193793328D01*
X180458026Y-193793328D02*
X181243741Y-193793328D01*
X182386598Y-193721900D02*
X182243741Y-193793328D01*
X182243741Y-193793328D02*
X181958027Y-193793328D01*
X181958027Y-193793328D02*
X181815169Y-193721900D01*
X181815169Y-193721900D02*
X181743741Y-193579042D01*
X181743741Y-193579042D02*
X181743741Y-193007614D01*
X181743741Y-193007614D02*
X181815169Y-192864757D01*
X181815169Y-192864757D02*
X181958027Y-192793328D01*
X181958027Y-192793328D02*
X182243741Y-192793328D01*
X182243741Y-192793328D02*
X182386598Y-192864757D01*
X182386598Y-192864757D02*
X182458027Y-193007614D01*
X182458027Y-193007614D02*
X182458027Y-193150471D01*
X182458027Y-193150471D02*
X181743741Y-193293328D01*
X183100883Y-193650471D02*
X183172312Y-193721900D01*
X183172312Y-193721900D02*
X183100883Y-193793328D01*
X183100883Y-193793328D02*
X183029455Y-193721900D01*
X183029455Y-193721900D02*
X183100883Y-193650471D01*
X183100883Y-193650471D02*
X183100883Y-193793328D01*
X183100883Y-192864757D02*
X183172312Y-192936185D01*
X183172312Y-192936185D02*
X183100883Y-193007614D01*
X183100883Y-193007614D02*
X183029455Y-192936185D01*
X183029455Y-192936185D02*
X183100883Y-192864757D01*
X183100883Y-192864757D02*
X183100883Y-193007614D01*
X184886598Y-193364757D02*
X185600884Y-193364757D01*
X184743741Y-193793328D02*
X185243741Y-192293328D01*
X185243741Y-192293328D02*
X185743741Y-193793328D01*
X186886598Y-192793328D02*
X186886598Y-193793328D01*
X186529455Y-192221900D02*
X186172312Y-193293328D01*
X186172312Y-193293328D02*
X187100883Y-193293328D01*
D10*
D11*
X263458026Y-196593328D02*
X263458026Y-195093328D01*
X264815170Y-196593328D02*
X264815170Y-195093328D01*
X264815170Y-196521900D02*
X264672312Y-196593328D01*
X264672312Y-196593328D02*
X264386598Y-196593328D01*
X264386598Y-196593328D02*
X264243741Y-196521900D01*
X264243741Y-196521900D02*
X264172312Y-196450471D01*
X264172312Y-196450471D02*
X264100884Y-196307614D01*
X264100884Y-196307614D02*
X264100884Y-195879042D01*
X264100884Y-195879042D02*
X264172312Y-195736185D01*
X264172312Y-195736185D02*
X264243741Y-195664757D01*
X264243741Y-195664757D02*
X264386598Y-195593328D01*
X264386598Y-195593328D02*
X264672312Y-195593328D01*
X264672312Y-195593328D02*
X264815170Y-195664757D01*
X265529455Y-196450471D02*
X265600884Y-196521900D01*
X265600884Y-196521900D02*
X265529455Y-196593328D01*
X265529455Y-196593328D02*
X265458027Y-196521900D01*
X265458027Y-196521900D02*
X265529455Y-196450471D01*
X265529455Y-196450471D02*
X265529455Y-196593328D01*
X265529455Y-195664757D02*
X265600884Y-195736185D01*
X265600884Y-195736185D02*
X265529455Y-195807614D01*
X265529455Y-195807614D02*
X265458027Y-195736185D01*
X265458027Y-195736185D02*
X265529455Y-195664757D01*
X265529455Y-195664757D02*
X265529455Y-195807614D01*
X267315170Y-195236185D02*
X267386598Y-195164757D01*
X267386598Y-195164757D02*
X267529456Y-195093328D01*
X267529456Y-195093328D02*
X267886598Y-195093328D01*
X267886598Y-195093328D02*
X268029456Y-195164757D01*
X268029456Y-195164757D02*
X268100884Y-195236185D01*
X268100884Y-195236185D02*
X268172313Y-195379042D01*
X268172313Y-195379042D02*
X268172313Y-195521900D01*
X268172313Y-195521900D02*
X268100884Y-195736185D01*
X268100884Y-195736185D02*
X267243741Y-196593328D01*
X267243741Y-196593328D02*
X268172313Y-196593328D01*
X269886598Y-195021900D02*
X268600884Y-196950471D01*
X270458027Y-196593328D02*
X270743741Y-196593328D01*
X270743741Y-196593328D02*
X270886598Y-196521900D01*
X270886598Y-196521900D02*
X270958027Y-196450471D01*
X270958027Y-196450471D02*
X271100884Y-196236185D01*
X271100884Y-196236185D02*
X271172313Y-195950471D01*
X271172313Y-195950471D02*
X271172313Y-195379042D01*
X271172313Y-195379042D02*
X271100884Y-195236185D01*
X271100884Y-195236185D02*
X271029456Y-195164757D01*
X271029456Y-195164757D02*
X270886598Y-195093328D01*
X270886598Y-195093328D02*
X270600884Y-195093328D01*
X270600884Y-195093328D02*
X270458027Y-195164757D01*
X270458027Y-195164757D02*
X270386598Y-195236185D01*
X270386598Y-195236185D02*
X270315170Y-195379042D01*
X270315170Y-195379042D02*
X270315170Y-195736185D01*
X270315170Y-195736185D02*
X270386598Y-195879042D01*
X270386598Y-195879042D02*
X270458027Y-195950471D01*
X270458027Y-195950471D02*
X270600884Y-196021900D01*
X270600884Y-196021900D02*
X270886598Y-196021900D01*
X270886598Y-196021900D02*
X271029456Y-195950471D01*
X271029456Y-195950471D02*
X271100884Y-195879042D01*
X271100884Y-195879042D02*
X271172313Y-195736185D01*
D10*
D11*
X177002200Y-187507200D02*
X285002200Y-187507200D01*
D10*
D13*
X178693928Y-188211638D02*
X179836785Y-188211638D01*
X179015357Y-190211638D02*
X179265357Y-188211638D01*
X180253452Y-190211638D02*
X180420119Y-188878304D01*
X180503452Y-188211638D02*
X180396309Y-188306876D01*
X180396309Y-188306876D02*
X180479643Y-188402114D01*
X180479643Y-188402114D02*
X180586786Y-188306876D01*
X180586786Y-188306876D02*
X180503452Y-188211638D01*
X180503452Y-188211638D02*
X180479643Y-188402114D01*
X181086786Y-188878304D02*
X181848690Y-188878304D01*
X181455833Y-188211638D02*
X181241548Y-189925923D01*
X181241548Y-189925923D02*
X181312976Y-190116400D01*
X181312976Y-190116400D02*
X181491548Y-190211638D01*
X181491548Y-190211638D02*
X181682024Y-190211638D01*
X182634405Y-190211638D02*
X182455833Y-190116400D01*
X182455833Y-190116400D02*
X182384405Y-189925923D01*
X182384405Y-189925923D02*
X182598690Y-188211638D01*
X184170119Y-190116400D02*
X183967738Y-190211638D01*
X183967738Y-190211638D02*
X183586785Y-190211638D01*
X183586785Y-190211638D02*
X183408214Y-190116400D01*
X183408214Y-190116400D02*
X183336785Y-189925923D01*
X183336785Y-189925923D02*
X183432024Y-189164019D01*
X183432024Y-189164019D02*
X183551071Y-188973542D01*
X183551071Y-188973542D02*
X183753452Y-188878304D01*
X183753452Y-188878304D02*
X184134404Y-188878304D01*
X184134404Y-188878304D02*
X184312976Y-188973542D01*
X184312976Y-188973542D02*
X184384404Y-189164019D01*
X184384404Y-189164019D02*
X184360595Y-189354495D01*
X184360595Y-189354495D02*
X183384404Y-189544971D01*
X185134405Y-190021161D02*
X185217738Y-190116400D01*
X185217738Y-190116400D02*
X185110595Y-190211638D01*
X185110595Y-190211638D02*
X185027262Y-190116400D01*
X185027262Y-190116400D02*
X185134405Y-190021161D01*
X185134405Y-190021161D02*
X185110595Y-190211638D01*
X185265357Y-188973542D02*
X185348690Y-189068780D01*
X185348690Y-189068780D02*
X185241548Y-189164019D01*
X185241548Y-189164019D02*
X185158214Y-189068780D01*
X185158214Y-189068780D02*
X185265357Y-188973542D01*
X185265357Y-188973542D02*
X185241548Y-189164019D01*
D10*
D11*
X178958026Y-185607614D02*
X178458026Y-185607614D01*
X178458026Y-186393328D02*
X178458026Y-184893328D01*
X178458026Y-184893328D02*
X179172312Y-184893328D01*
X179743740Y-186393328D02*
X179743740Y-185393328D01*
X179743740Y-184893328D02*
X179672312Y-184964757D01*
X179672312Y-184964757D02*
X179743740Y-185036185D01*
X179743740Y-185036185D02*
X179815169Y-184964757D01*
X179815169Y-184964757D02*
X179743740Y-184893328D01*
X179743740Y-184893328D02*
X179743740Y-185036185D01*
X180672312Y-186393328D02*
X180529455Y-186321900D01*
X180529455Y-186321900D02*
X180458026Y-186179042D01*
X180458026Y-186179042D02*
X180458026Y-184893328D01*
X181815169Y-186321900D02*
X181672312Y-186393328D01*
X181672312Y-186393328D02*
X181386598Y-186393328D01*
X181386598Y-186393328D02*
X181243740Y-186321900D01*
X181243740Y-186321900D02*
X181172312Y-186179042D01*
X181172312Y-186179042D02*
X181172312Y-185607614D01*
X181172312Y-185607614D02*
X181243740Y-185464757D01*
X181243740Y-185464757D02*
X181386598Y-185393328D01*
X181386598Y-185393328D02*
X181672312Y-185393328D01*
X181672312Y-185393328D02*
X181815169Y-185464757D01*
X181815169Y-185464757D02*
X181886598Y-185607614D01*
X181886598Y-185607614D02*
X181886598Y-185750471D01*
X181886598Y-185750471D02*
X181172312Y-185893328D01*
X182529454Y-186250471D02*
X182600883Y-186321900D01*
X182600883Y-186321900D02*
X182529454Y-186393328D01*
X182529454Y-186393328D02*
X182458026Y-186321900D01*
X182458026Y-186321900D02*
X182529454Y-186250471D01*
X182529454Y-186250471D02*
X182529454Y-186393328D01*
X182529454Y-185464757D02*
X182600883Y-185536185D01*
X182600883Y-185536185D02*
X182529454Y-185607614D01*
X182529454Y-185607614D02*
X182458026Y-185536185D01*
X182458026Y-185536185D02*
X182529454Y-185464757D01*
X182529454Y-185464757D02*
X182529454Y-185607614D01*
X185243740Y-186250471D02*
X185172312Y-186321900D01*
X185172312Y-186321900D02*
X184958026Y-186393328D01*
X184958026Y-186393328D02*
X184815169Y-186393328D01*
X184815169Y-186393328D02*
X184600883Y-186321900D01*
X184600883Y-186321900D02*
X184458026Y-186179042D01*
X184458026Y-186179042D02*
X184386597Y-186036185D01*
X184386597Y-186036185D02*
X184315169Y-185750471D01*
X184315169Y-185750471D02*
X184315169Y-185536185D01*
X184315169Y-185536185D02*
X184386597Y-185250471D01*
X184386597Y-185250471D02*
X184458026Y-185107614D01*
X184458026Y-185107614D02*
X184600883Y-184964757D01*
X184600883Y-184964757D02*
X184815169Y-184893328D01*
X184815169Y-184893328D02*
X184958026Y-184893328D01*
X184958026Y-184893328D02*
X185172312Y-184964757D01*
X185172312Y-184964757D02*
X185243740Y-185036185D01*
X185886597Y-186393328D02*
X185886597Y-184893328D01*
X186529455Y-186393328D02*
X186529455Y-185607614D01*
X186529455Y-185607614D02*
X186458026Y-185464757D01*
X186458026Y-185464757D02*
X186315169Y-185393328D01*
X186315169Y-185393328D02*
X186100883Y-185393328D01*
X186100883Y-185393328D02*
X185958026Y-185464757D01*
X185958026Y-185464757D02*
X185886597Y-185536185D01*
X187886598Y-185393328D02*
X187886598Y-186393328D01*
X187243740Y-185393328D02*
X187243740Y-186179042D01*
X187243740Y-186179042D02*
X187315169Y-186321900D01*
X187315169Y-186321900D02*
X187458026Y-186393328D01*
X187458026Y-186393328D02*
X187672312Y-186393328D01*
X187672312Y-186393328D02*
X187815169Y-186321900D01*
X187815169Y-186321900D02*
X187886598Y-186250471D01*
X189243741Y-186393328D02*
X189243741Y-185607614D01*
X189243741Y-185607614D02*
X189172312Y-185464757D01*
X189172312Y-185464757D02*
X189029455Y-185393328D01*
X189029455Y-185393328D02*
X188743741Y-185393328D01*
X188743741Y-185393328D02*
X188600883Y-185464757D01*
X189243741Y-186321900D02*
X189100883Y-186393328D01*
X189100883Y-186393328D02*
X188743741Y-186393328D01*
X188743741Y-186393328D02*
X188600883Y-186321900D01*
X188600883Y-186321900D02*
X188529455Y-186179042D01*
X188529455Y-186179042D02*
X188529455Y-186036185D01*
X188529455Y-186036185D02*
X188600883Y-185893328D01*
X188600883Y-185893328D02*
X188743741Y-185821900D01*
X188743741Y-185821900D02*
X189100883Y-185821900D01*
X189100883Y-185821900D02*
X189243741Y-185750471D01*
X190815169Y-186250471D02*
X190743741Y-186321900D01*
X190743741Y-186321900D02*
X190529455Y-186393328D01*
X190529455Y-186393328D02*
X190386598Y-186393328D01*
X190386598Y-186393328D02*
X190172312Y-186321900D01*
X190172312Y-186321900D02*
X190029455Y-186179042D01*
X190029455Y-186179042D02*
X189958026Y-186036185D01*
X189958026Y-186036185D02*
X189886598Y-185750471D01*
X189886598Y-185750471D02*
X189886598Y-185536185D01*
X189886598Y-185536185D02*
X189958026Y-185250471D01*
X189958026Y-185250471D02*
X190029455Y-185107614D01*
X190029455Y-185107614D02*
X190172312Y-184964757D01*
X190172312Y-184964757D02*
X190386598Y-184893328D01*
X190386598Y-184893328D02*
X190529455Y-184893328D01*
X190529455Y-184893328D02*
X190743741Y-184964757D01*
X190743741Y-184964757D02*
X190815169Y-185036185D01*
X191458026Y-186393328D02*
X191458026Y-185393328D01*
X191458026Y-184893328D02*
X191386598Y-184964757D01*
X191386598Y-184964757D02*
X191458026Y-185036185D01*
X191458026Y-185036185D02*
X191529455Y-184964757D01*
X191529455Y-184964757D02*
X191458026Y-184893328D01*
X191458026Y-184893328D02*
X191458026Y-185036185D01*
X192172312Y-186393328D02*
X192172312Y-185393328D01*
X192172312Y-185679042D02*
X192243741Y-185536185D01*
X192243741Y-185536185D02*
X192315170Y-185464757D01*
X192315170Y-185464757D02*
X192458027Y-185393328D01*
X192458027Y-185393328D02*
X192600884Y-185393328D01*
X193743741Y-186321900D02*
X193600883Y-186393328D01*
X193600883Y-186393328D02*
X193315169Y-186393328D01*
X193315169Y-186393328D02*
X193172312Y-186321900D01*
X193172312Y-186321900D02*
X193100883Y-186250471D01*
X193100883Y-186250471D02*
X193029455Y-186107614D01*
X193029455Y-186107614D02*
X193029455Y-185679042D01*
X193029455Y-185679042D02*
X193100883Y-185536185D01*
X193100883Y-185536185D02*
X193172312Y-185464757D01*
X193172312Y-185464757D02*
X193315169Y-185393328D01*
X193315169Y-185393328D02*
X193600883Y-185393328D01*
X193600883Y-185393328D02*
X193743741Y-185464757D01*
X195029455Y-185393328D02*
X195029455Y-186393328D01*
X194386597Y-185393328D02*
X194386597Y-186179042D01*
X194386597Y-186179042D02*
X194458026Y-186321900D01*
X194458026Y-186321900D02*
X194600883Y-186393328D01*
X194600883Y-186393328D02*
X194815169Y-186393328D01*
X194815169Y-186393328D02*
X194958026Y-186321900D01*
X194958026Y-186321900D02*
X195029455Y-186250471D01*
X195743740Y-186393328D02*
X195743740Y-185393328D01*
X195743740Y-184893328D02*
X195672312Y-184964757D01*
X195672312Y-184964757D02*
X195743740Y-185036185D01*
X195743740Y-185036185D02*
X195815169Y-184964757D01*
X195815169Y-184964757D02*
X195743740Y-184893328D01*
X195743740Y-184893328D02*
X195743740Y-185036185D01*
X196243741Y-185393328D02*
X196815169Y-185393328D01*
X196458026Y-184893328D02*
X196458026Y-186179042D01*
X196458026Y-186179042D02*
X196529455Y-186321900D01*
X196529455Y-186321900D02*
X196672312Y-186393328D01*
X196672312Y-186393328D02*
X196815169Y-186393328D01*
X197315169Y-186250471D02*
X197386598Y-186321900D01*
X197386598Y-186321900D02*
X197315169Y-186393328D01*
X197315169Y-186393328D02*
X197243741Y-186321900D01*
X197243741Y-186321900D02*
X197315169Y-186250471D01*
X197315169Y-186250471D02*
X197315169Y-186393328D01*
X198029455Y-186393328D02*
X198029455Y-184893328D01*
X198172313Y-185821900D02*
X198600884Y-186393328D01*
X198600884Y-185393328D02*
X198029455Y-185964757D01*
X199243741Y-186393328D02*
X199243741Y-185393328D01*
X199243741Y-184893328D02*
X199172313Y-184964757D01*
X199172313Y-184964757D02*
X199243741Y-185036185D01*
X199243741Y-185036185D02*
X199315170Y-184964757D01*
X199315170Y-184964757D02*
X199243741Y-184893328D01*
X199243741Y-184893328D02*
X199243741Y-185036185D01*
X200600885Y-186321900D02*
X200458027Y-186393328D01*
X200458027Y-186393328D02*
X200172313Y-186393328D01*
X200172313Y-186393328D02*
X200029456Y-186321900D01*
X200029456Y-186321900D02*
X199958027Y-186250471D01*
X199958027Y-186250471D02*
X199886599Y-186107614D01*
X199886599Y-186107614D02*
X199886599Y-185679042D01*
X199886599Y-185679042D02*
X199958027Y-185536185D01*
X199958027Y-185536185D02*
X200029456Y-185464757D01*
X200029456Y-185464757D02*
X200172313Y-185393328D01*
X200172313Y-185393328D02*
X200458027Y-185393328D01*
X200458027Y-185393328D02*
X200600885Y-185464757D01*
X201886599Y-186393328D02*
X201886599Y-185607614D01*
X201886599Y-185607614D02*
X201815170Y-185464757D01*
X201815170Y-185464757D02*
X201672313Y-185393328D01*
X201672313Y-185393328D02*
X201386599Y-185393328D01*
X201386599Y-185393328D02*
X201243741Y-185464757D01*
X201886599Y-186321900D02*
X201743741Y-186393328D01*
X201743741Y-186393328D02*
X201386599Y-186393328D01*
X201386599Y-186393328D02*
X201243741Y-186321900D01*
X201243741Y-186321900D02*
X201172313Y-186179042D01*
X201172313Y-186179042D02*
X201172313Y-186036185D01*
X201172313Y-186036185D02*
X201243741Y-185893328D01*
X201243741Y-185893328D02*
X201386599Y-185821900D01*
X201386599Y-185821900D02*
X201743741Y-185821900D01*
X201743741Y-185821900D02*
X201886599Y-185750471D01*
X203243742Y-186393328D02*
X203243742Y-184893328D01*
X203243742Y-186321900D02*
X203100884Y-186393328D01*
X203100884Y-186393328D02*
X202815170Y-186393328D01*
X202815170Y-186393328D02*
X202672313Y-186321900D01*
X202672313Y-186321900D02*
X202600884Y-186250471D01*
X202600884Y-186250471D02*
X202529456Y-186107614D01*
X202529456Y-186107614D02*
X202529456Y-185679042D01*
X202529456Y-185679042D02*
X202600884Y-185536185D01*
X202600884Y-185536185D02*
X202672313Y-185464757D01*
X202672313Y-185464757D02*
X202815170Y-185393328D01*
X202815170Y-185393328D02*
X203100884Y-185393328D01*
X203100884Y-185393328D02*
X203243742Y-185464757D01*
X203600885Y-186536185D02*
X204743742Y-186536185D01*
X205100884Y-185393328D02*
X205100884Y-186893328D01*
X205100884Y-185464757D02*
X205243742Y-185393328D01*
X205243742Y-185393328D02*
X205529456Y-185393328D01*
X205529456Y-185393328D02*
X205672313Y-185464757D01*
X205672313Y-185464757D02*
X205743742Y-185536185D01*
X205743742Y-185536185D02*
X205815170Y-185679042D01*
X205815170Y-185679042D02*
X205815170Y-186107614D01*
X205815170Y-186107614D02*
X205743742Y-186250471D01*
X205743742Y-186250471D02*
X205672313Y-186321900D01*
X205672313Y-186321900D02*
X205529456Y-186393328D01*
X205529456Y-186393328D02*
X205243742Y-186393328D01*
X205243742Y-186393328D02*
X205100884Y-186321900D01*
X207100885Y-186321900D02*
X206958027Y-186393328D01*
X206958027Y-186393328D02*
X206672313Y-186393328D01*
X206672313Y-186393328D02*
X206529456Y-186321900D01*
X206529456Y-186321900D02*
X206458027Y-186250471D01*
X206458027Y-186250471D02*
X206386599Y-186107614D01*
X206386599Y-186107614D02*
X206386599Y-185679042D01*
X206386599Y-185679042D02*
X206458027Y-185536185D01*
X206458027Y-185536185D02*
X206529456Y-185464757D01*
X206529456Y-185464757D02*
X206672313Y-185393328D01*
X206672313Y-185393328D02*
X206958027Y-185393328D01*
X206958027Y-185393328D02*
X207100885Y-185464757D01*
X207743741Y-186393328D02*
X207743741Y-184893328D01*
X207743741Y-185464757D02*
X207886599Y-185393328D01*
X207886599Y-185393328D02*
X208172313Y-185393328D01*
X208172313Y-185393328D02*
X208315170Y-185464757D01*
X208315170Y-185464757D02*
X208386599Y-185536185D01*
X208386599Y-185536185D02*
X208458027Y-185679042D01*
X208458027Y-185679042D02*
X208458027Y-186107614D01*
X208458027Y-186107614D02*
X208386599Y-186250471D01*
X208386599Y-186250471D02*
X208315170Y-186321900D01*
X208315170Y-186321900D02*
X208172313Y-186393328D01*
X208172313Y-186393328D02*
X207886599Y-186393328D01*
X207886599Y-186393328D02*
X207743741Y-186321900D01*
D10*
D11*
X177002200Y-181507200D02*
X285002200Y-181507200D01*
D10*
D11*
X178386598Y-183621900D02*
X178600884Y-183693328D01*
X178600884Y-183693328D02*
X178958026Y-183693328D01*
X178958026Y-183693328D02*
X179100884Y-183621900D01*
X179100884Y-183621900D02*
X179172312Y-183550471D01*
X179172312Y-183550471D02*
X179243741Y-183407614D01*
X179243741Y-183407614D02*
X179243741Y-183264757D01*
X179243741Y-183264757D02*
X179172312Y-183121900D01*
X179172312Y-183121900D02*
X179100884Y-183050471D01*
X179100884Y-183050471D02*
X178958026Y-182979042D01*
X178958026Y-182979042D02*
X178672312Y-182907614D01*
X178672312Y-182907614D02*
X178529455Y-182836185D01*
X178529455Y-182836185D02*
X178458026Y-182764757D01*
X178458026Y-182764757D02*
X178386598Y-182621900D01*
X178386598Y-182621900D02*
X178386598Y-182479042D01*
X178386598Y-182479042D02*
X178458026Y-182336185D01*
X178458026Y-182336185D02*
X178529455Y-182264757D01*
X178529455Y-182264757D02*
X178672312Y-182193328D01*
X178672312Y-182193328D02*
X179029455Y-182193328D01*
X179029455Y-182193328D02*
X179243741Y-182264757D01*
X179886597Y-183693328D02*
X179886597Y-182193328D01*
X180529455Y-183693328D02*
X180529455Y-182907614D01*
X180529455Y-182907614D02*
X180458026Y-182764757D01*
X180458026Y-182764757D02*
X180315169Y-182693328D01*
X180315169Y-182693328D02*
X180100883Y-182693328D01*
X180100883Y-182693328D02*
X179958026Y-182764757D01*
X179958026Y-182764757D02*
X179886597Y-182836185D01*
X181815169Y-183621900D02*
X181672312Y-183693328D01*
X181672312Y-183693328D02*
X181386598Y-183693328D01*
X181386598Y-183693328D02*
X181243740Y-183621900D01*
X181243740Y-183621900D02*
X181172312Y-183479042D01*
X181172312Y-183479042D02*
X181172312Y-182907614D01*
X181172312Y-182907614D02*
X181243740Y-182764757D01*
X181243740Y-182764757D02*
X181386598Y-182693328D01*
X181386598Y-182693328D02*
X181672312Y-182693328D01*
X181672312Y-182693328D02*
X181815169Y-182764757D01*
X181815169Y-182764757D02*
X181886598Y-182907614D01*
X181886598Y-182907614D02*
X181886598Y-183050471D01*
X181886598Y-183050471D02*
X181172312Y-183193328D01*
X183100883Y-183621900D02*
X182958026Y-183693328D01*
X182958026Y-183693328D02*
X182672312Y-183693328D01*
X182672312Y-183693328D02*
X182529454Y-183621900D01*
X182529454Y-183621900D02*
X182458026Y-183479042D01*
X182458026Y-183479042D02*
X182458026Y-182907614D01*
X182458026Y-182907614D02*
X182529454Y-182764757D01*
X182529454Y-182764757D02*
X182672312Y-182693328D01*
X182672312Y-182693328D02*
X182958026Y-182693328D01*
X182958026Y-182693328D02*
X183100883Y-182764757D01*
X183100883Y-182764757D02*
X183172312Y-182907614D01*
X183172312Y-182907614D02*
X183172312Y-183050471D01*
X183172312Y-183050471D02*
X182458026Y-183193328D01*
X183600883Y-182693328D02*
X184172311Y-182693328D01*
X183815168Y-182193328D02*
X183815168Y-183479042D01*
X183815168Y-183479042D02*
X183886597Y-183621900D01*
X183886597Y-183621900D02*
X184029454Y-183693328D01*
X184029454Y-183693328D02*
X184172311Y-183693328D01*
X184672311Y-183550471D02*
X184743740Y-183621900D01*
X184743740Y-183621900D02*
X184672311Y-183693328D01*
X184672311Y-183693328D02*
X184600883Y-183621900D01*
X184600883Y-183621900D02*
X184672311Y-183550471D01*
X184672311Y-183550471D02*
X184672311Y-183693328D01*
X184672311Y-182764757D02*
X184743740Y-182836185D01*
X184743740Y-182836185D02*
X184672311Y-182907614D01*
X184672311Y-182907614D02*
X184600883Y-182836185D01*
X184600883Y-182836185D02*
X184672311Y-182764757D01*
X184672311Y-182764757D02*
X184672311Y-182907614D01*
D10*
D11*
X197002200Y-191507200D02*
X197002200Y-194507200D01*
D10*
D11*
X261002200Y-191507200D02*
X261002200Y-198007200D01*
D14*
X126500000Y-102000000D03*
X150500000Y-92500000D03*
X131000000Y-92500000D03*
X150500000Y-101000000D03*
D15*
X150500000Y-103540000D03*
X150500000Y-106080000D03*
D14*
X126500000Y-112000000D03*
X150500000Y-112500000D03*
D15*
X150500000Y-115040000D03*
X150500000Y-117580000D03*
D14*
X126500000Y-92500000D03*
X126500000Y-117000000D03*
X126500000Y-107000000D03*
D16*
X139099800Y-92213000D03*
X139000000Y-113293600D03*
X145000000Y-110483400D03*
X145089900Y-106649900D03*
X133500700Y-110415000D03*
X144629500Y-108000000D03*
X136096400Y-97899300D03*
X142922900Y-112783700D03*
X130020800Y-96931400D03*
X133006600Y-98774600D03*
X145675000Y-95990600D03*
D17*
X149061300Y-92213000D02*
X149348300Y-92500000D01*
X139099800Y-92213000D02*
X149061300Y-92213000D01*
X150500000Y-92500000D02*
X149348300Y-92500000D01*
X137706400Y-112000000D02*
X139000000Y-113293600D01*
X126500000Y-112000000D02*
X137706400Y-112000000D01*
X141810200Y-110483400D02*
X139000000Y-113293600D01*
X145000000Y-110483400D02*
X141810200Y-110483400D01*
X137265800Y-106649900D02*
X133500700Y-110415000D01*
X145089900Y-106649900D02*
X137265800Y-106649900D01*
X144848300Y-108000000D02*
X144629500Y-108000000D01*
X149348300Y-112500000D02*
X144848300Y-108000000D01*
X150500000Y-112500000D02*
X149348300Y-112500000D01*
X126500000Y-107000000D02*
X127651700Y-107000000D01*
X128603500Y-106048200D02*
X127651700Y-107000000D01*
X150468200Y-106048200D02*
X128603500Y-106048200D01*
X150500000Y-106080000D02*
X150468200Y-106048200D01*
X141737100Y-103540000D02*
X150500000Y-103540000D01*
X136096400Y-97899300D02*
X141737100Y-103540000D01*
X138706600Y-117000000D02*
X142922900Y-112783700D01*
X126500000Y-117000000D02*
X138706600Y-117000000D01*
X130020800Y-97327500D02*
X130020800Y-96931400D01*
X126500000Y-100848300D02*
X130020800Y-97327500D01*
X126500000Y-102000000D02*
X126500000Y-100848300D01*
X135790600Y-95990600D02*
X133006600Y-98774600D01*
X145675000Y-95990600D02*
X135790600Y-95990600D01*
%TA.AperFunction,Conductor*%
G36*
X152442539Y-89520185D02*
G01*
X152488294Y-89572989D01*
X152499500Y-89624500D01*
X152499500Y-119375500D01*
X152479815Y-119442539D01*
X152427011Y-119488294D01*
X152375500Y-119499500D01*
X124124500Y-119499500D01*
X124057461Y-119479815D01*
X124011706Y-119427011D01*
X124000500Y-119375500D01*
X124000500Y-116102135D01*
X125149500Y-116102135D01*
X125149500Y-117897870D01*
X125149501Y-117897876D01*
X125155908Y-117957483D01*
X125206202Y-118092328D01*
X125206206Y-118092335D01*
X125292452Y-118207544D01*
X125292455Y-118207547D01*
X125407664Y-118293793D01*
X125407671Y-118293797D01*
X125542517Y-118344091D01*
X125542516Y-118344091D01*
X125549444Y-118344835D01*
X125602127Y-118350500D01*
X127397872Y-118350499D01*
X127457483Y-118344091D01*
X127592331Y-118293796D01*
X127707546Y-118207546D01*
X127793796Y-118092331D01*
X127844091Y-117957483D01*
X127850500Y-117897873D01*
X127850500Y-117724500D01*
X127870185Y-117657461D01*
X127922989Y-117611706D01*
X127974500Y-117600500D01*
X138619931Y-117600500D01*
X138619947Y-117600501D01*
X138627543Y-117600501D01*
X138785654Y-117600501D01*
X138785657Y-117600501D01*
X138938385Y-117559577D01*
X138988504Y-117530639D01*
X139075316Y-117480520D01*
X139187120Y-117368716D01*
X139187121Y-117368713D01*
X142937564Y-113618271D01*
X142998885Y-113584788D01*
X143001052Y-113584337D01*
X143001741Y-113584200D01*
X143001742Y-113584200D01*
X143156397Y-113553437D01*
X143302079Y-113493094D01*
X143433189Y-113405489D01*
X143544689Y-113293989D01*
X143632294Y-113162879D01*
X143692637Y-113017197D01*
X143723400Y-112862542D01*
X143723400Y-112704858D01*
X143723400Y-112704855D01*
X143723399Y-112704853D01*
X143704871Y-112611706D01*
X143692637Y-112550203D01*
X143692635Y-112550198D01*
X143632297Y-112404527D01*
X143632290Y-112404514D01*
X143544689Y-112273411D01*
X143544686Y-112273407D01*
X143433192Y-112161913D01*
X143433188Y-112161910D01*
X143302085Y-112074309D01*
X143302072Y-112074302D01*
X143156401Y-112013964D01*
X143156389Y-112013961D01*
X143001745Y-111983200D01*
X143001742Y-111983200D01*
X142844058Y-111983200D01*
X142844055Y-111983200D01*
X142689410Y-112013961D01*
X142689398Y-112013964D01*
X142543727Y-112074302D01*
X142543714Y-112074309D01*
X142412611Y-112161910D01*
X142412607Y-112161913D01*
X142301113Y-112273407D01*
X142301110Y-112273411D01*
X142213509Y-112404514D01*
X142213502Y-112404527D01*
X142153164Y-112550198D01*
X142153161Y-112550208D01*
X142122262Y-112705548D01*
X142089877Y-112767459D01*
X142088326Y-112769037D01*
X138494184Y-116363181D01*
X138432861Y-116396666D01*
X138406503Y-116399500D01*
X127974499Y-116399500D01*
X127907460Y-116379815D01*
X127861705Y-116327011D01*
X127850499Y-116275500D01*
X127850499Y-116102129D01*
X127850498Y-116102123D01*
X127850497Y-116102116D01*
X127844091Y-116042517D01*
X127793796Y-115907669D01*
X127793795Y-115907668D01*
X127793793Y-115907664D01*
X127707547Y-115792455D01*
X127707544Y-115792452D01*
X127592335Y-115706206D01*
X127592328Y-115706202D01*
X127457482Y-115655908D01*
X127457483Y-115655908D01*
X127397883Y-115649501D01*
X127397881Y-115649500D01*
X127397873Y-115649500D01*
X127397864Y-115649500D01*
X125602129Y-115649500D01*
X125602123Y-115649501D01*
X125542516Y-115655908D01*
X125407671Y-115706202D01*
X125407664Y-115706206D01*
X125292455Y-115792452D01*
X125292452Y-115792455D01*
X125206206Y-115907664D01*
X125206202Y-115907671D01*
X125155908Y-116042517D01*
X125149501Y-116102116D01*
X125149501Y-116102123D01*
X125149500Y-116102135D01*
X124000500Y-116102135D01*
X124000500Y-106102135D01*
X125149500Y-106102135D01*
X125149500Y-107897870D01*
X125149501Y-107897876D01*
X125155908Y-107957483D01*
X125206202Y-108092328D01*
X125206206Y-108092335D01*
X125292452Y-108207544D01*
X125292455Y-108207547D01*
X125407664Y-108293793D01*
X125407671Y-108293797D01*
X125542517Y-108344091D01*
X125542516Y-108344091D01*
X125549444Y-108344835D01*
X125602127Y-108350500D01*
X127397872Y-108350499D01*
X127457483Y-108344091D01*
X127592331Y-108293796D01*
X127707546Y-108207546D01*
X127793796Y-108092331D01*
X127844091Y-107957483D01*
X127850500Y-107897873D01*
X127850499Y-107650211D01*
X127870183Y-107583173D01*
X127912497Y-107542826D01*
X127952933Y-107519481D01*
X128020416Y-107480520D01*
X128132220Y-107368716D01*
X128132220Y-107368714D01*
X128142424Y-107358511D01*
X128142427Y-107358506D01*
X128815916Y-106685019D01*
X128877239Y-106651534D01*
X128903597Y-106648700D01*
X136118403Y-106648700D01*
X136185442Y-106668385D01*
X136231197Y-106721189D01*
X136241141Y-106790347D01*
X136212116Y-106853903D01*
X136206084Y-106860381D01*
X133486039Y-109580425D01*
X133424716Y-109613910D01*
X133422550Y-109614361D01*
X133267208Y-109645261D01*
X133267198Y-109645264D01*
X133121527Y-109705602D01*
X133121514Y-109705609D01*
X132990411Y-109793210D01*
X132990407Y-109793213D01*
X132878913Y-109904707D01*
X132878910Y-109904711D01*
X132791309Y-110035814D01*
X132791302Y-110035827D01*
X132730964Y-110181498D01*
X132730961Y-110181510D01*
X132700200Y-110336153D01*
X132700200Y-110493846D01*
X132730961Y-110648489D01*
X132730964Y-110648501D01*
X132791302Y-110794172D01*
X132791309Y-110794185D01*
X132878910Y-110925288D01*
X132878913Y-110925292D01*
X132990407Y-111036786D01*
X132990411Y-111036789D01*
X133121514Y-111124390D01*
X133121527Y-111124397D01*
X133209748Y-111160939D01*
X133264152Y-111204780D01*
X133286217Y-111271074D01*
X133268938Y-111338773D01*
X133217801Y-111386384D01*
X133162296Y-111399500D01*
X127974499Y-111399500D01*
X127907460Y-111379815D01*
X127861705Y-111327011D01*
X127850499Y-111275500D01*
X127850499Y-111102129D01*
X127850498Y-111102123D01*
X127850497Y-111102116D01*
X127844091Y-111042517D01*
X127841953Y-111036786D01*
X127793797Y-110907671D01*
X127793793Y-110907664D01*
X127707547Y-110792455D01*
X127707544Y-110792452D01*
X127592335Y-110706206D01*
X127592328Y-110706202D01*
X127457482Y-110655908D01*
X127457483Y-110655908D01*
X127397883Y-110649501D01*
X127397881Y-110649500D01*
X127397873Y-110649500D01*
X127397864Y-110649500D01*
X125602129Y-110649500D01*
X125602123Y-110649501D01*
X125542516Y-110655908D01*
X125407671Y-110706202D01*
X125407664Y-110706206D01*
X125292455Y-110792452D01*
X125292452Y-110792455D01*
X125206206Y-110907664D01*
X125206202Y-110907671D01*
X125155908Y-111042517D01*
X125151155Y-111086734D01*
X125149501Y-111102123D01*
X125149500Y-111102135D01*
X125149500Y-112897870D01*
X125149501Y-112897876D01*
X125155908Y-112957483D01*
X125206202Y-113092328D01*
X125206206Y-113092335D01*
X125292452Y-113207544D01*
X125292455Y-113207547D01*
X125407664Y-113293793D01*
X125407671Y-113293797D01*
X125542517Y-113344091D01*
X125542516Y-113344091D01*
X125549444Y-113344835D01*
X125602127Y-113350500D01*
X127397872Y-113350499D01*
X127457483Y-113344091D01*
X127592331Y-113293796D01*
X127707546Y-113207546D01*
X127793796Y-113092331D01*
X127844091Y-112957483D01*
X127850500Y-112897873D01*
X127850500Y-112724500D01*
X127870185Y-112657461D01*
X127922989Y-112611706D01*
X127974500Y-112600500D01*
X137406303Y-112600500D01*
X137473342Y-112620185D01*
X137493984Y-112636819D01*
X138165425Y-113308260D01*
X138198910Y-113369583D01*
X138199361Y-113371749D01*
X138230261Y-113527091D01*
X138230264Y-113527101D01*
X138290602Y-113672772D01*
X138290609Y-113672785D01*
X138378210Y-113803888D01*
X138378213Y-113803892D01*
X138489707Y-113915386D01*
X138489711Y-113915389D01*
X138620814Y-114002990D01*
X138620827Y-114002997D01*
X138766498Y-114063335D01*
X138766503Y-114063337D01*
X138921153Y-114094099D01*
X138921156Y-114094100D01*
X138921158Y-114094100D01*
X139078844Y-114094100D01*
X139078845Y-114094099D01*
X139233497Y-114063337D01*
X139379179Y-114002994D01*
X139510289Y-113915389D01*
X139621789Y-113803889D01*
X139709394Y-113672779D01*
X139769737Y-113527097D01*
X139789113Y-113429685D01*
X139800638Y-113371750D01*
X139833023Y-113309839D01*
X139834518Y-113308316D01*
X142022616Y-111120219D01*
X142083939Y-111086734D01*
X142110297Y-111083900D01*
X144420234Y-111083900D01*
X144487273Y-111103585D01*
X144489125Y-111104798D01*
X144620814Y-111192790D01*
X144620827Y-111192797D01*
X144766498Y-111253135D01*
X144766503Y-111253137D01*
X144878929Y-111275500D01*
X144921153Y-111283899D01*
X144921156Y-111283900D01*
X144921158Y-111283900D01*
X145078844Y-111283900D01*
X145078845Y-111283899D01*
X145233497Y-111253137D01*
X145350242Y-111204780D01*
X145379172Y-111192797D01*
X145379172Y-111192796D01*
X145379179Y-111192794D01*
X145510289Y-111105189D01*
X145621789Y-110993689D01*
X145709394Y-110862579D01*
X145769737Y-110716897D01*
X145800500Y-110562242D01*
X145800500Y-110404558D01*
X145800500Y-110404555D01*
X145800499Y-110404553D01*
X145769738Y-110249910D01*
X145769737Y-110249903D01*
X145713728Y-110114684D01*
X145709397Y-110104227D01*
X145709390Y-110104214D01*
X145622468Y-109974127D01*
X145622467Y-109974126D01*
X145621789Y-109973111D01*
X145510289Y-109861611D01*
X145509273Y-109860932D01*
X145509272Y-109860931D01*
X145379185Y-109774009D01*
X145379172Y-109774002D01*
X145233501Y-109713664D01*
X145233489Y-109713661D01*
X145078845Y-109682900D01*
X145078842Y-109682900D01*
X144921158Y-109682900D01*
X144921155Y-109682900D01*
X144766510Y-109713661D01*
X144766498Y-109713664D01*
X144620827Y-109774002D01*
X144620814Y-109774009D01*
X144489125Y-109862002D01*
X144422447Y-109882880D01*
X144420234Y-109882900D01*
X141896869Y-109882900D01*
X141896853Y-109882899D01*
X141889257Y-109882899D01*
X141731143Y-109882899D01*
X141623787Y-109911665D01*
X141578410Y-109923824D01*
X141578409Y-109923825D01*
X141528296Y-109952759D01*
X141528295Y-109952760D01*
X141493046Y-109973111D01*
X141441485Y-110002879D01*
X141441482Y-110002881D01*
X141329678Y-110114686D01*
X139087680Y-112356683D01*
X139026357Y-112390168D01*
X138956665Y-112385184D01*
X138912320Y-112356684D01*
X138193989Y-111638354D01*
X138193988Y-111638352D01*
X138075117Y-111519481D01*
X138075116Y-111519480D01*
X137988304Y-111469360D01*
X137988304Y-111469359D01*
X137988300Y-111469358D01*
X137938185Y-111440423D01*
X137785457Y-111399499D01*
X137627343Y-111399499D01*
X137619747Y-111399499D01*
X137619731Y-111399500D01*
X133839104Y-111399500D01*
X133772065Y-111379815D01*
X133726310Y-111327011D01*
X133716366Y-111257853D01*
X133745391Y-111194297D01*
X133791652Y-111160939D01*
X133879872Y-111124397D01*
X133879872Y-111124396D01*
X133879879Y-111124394D01*
X134010989Y-111036789D01*
X134122489Y-110925289D01*
X134210094Y-110794179D01*
X134270437Y-110648497D01*
X134289813Y-110551085D01*
X134301338Y-110493150D01*
X134333723Y-110431239D01*
X134335218Y-110429716D01*
X137478216Y-107286719D01*
X137539539Y-107253234D01*
X137565897Y-107250400D01*
X143947659Y-107250400D01*
X144014698Y-107270085D01*
X144060453Y-107322889D01*
X144070397Y-107392047D01*
X144041372Y-107455603D01*
X144035340Y-107462081D01*
X144007713Y-107489707D01*
X144007710Y-107489711D01*
X143920109Y-107620814D01*
X143920102Y-107620827D01*
X143859764Y-107766498D01*
X143859761Y-107766510D01*
X143829000Y-107921153D01*
X143829000Y-108078846D01*
X143859761Y-108233489D01*
X143859764Y-108233501D01*
X143920102Y-108379172D01*
X143920109Y-108379185D01*
X144007710Y-108510288D01*
X144007713Y-108510292D01*
X144119207Y-108621786D01*
X144119211Y-108621789D01*
X144250314Y-108709390D01*
X144250327Y-108709397D01*
X144395998Y-108769735D01*
X144396003Y-108769737D01*
X144539578Y-108798296D01*
X144550653Y-108800499D01*
X144550656Y-108800500D01*
X144550658Y-108800500D01*
X144708339Y-108800500D01*
X144708342Y-108800500D01*
X144719419Y-108798296D01*
X144789007Y-108804519D01*
X144831296Y-108832231D01*
X148863439Y-112864374D01*
X148863449Y-112864385D01*
X148867779Y-112868715D01*
X148867780Y-112868716D01*
X148979584Y-112980520D01*
X149043111Y-113017197D01*
X149087500Y-113042825D01*
X149135716Y-113093392D01*
X149149500Y-113150212D01*
X149149500Y-113397869D01*
X149149501Y-113397876D01*
X149155908Y-113457483D01*
X149206202Y-113592328D01*
X149206206Y-113592335D01*
X149292452Y-113707544D01*
X149292455Y-113707547D01*
X149407664Y-113793793D01*
X149407671Y-113793797D01*
X149434738Y-113803892D01*
X149542517Y-113844091D01*
X149602127Y-113850500D01*
X149612685Y-113850499D01*
X149679723Y-113870179D01*
X149700372Y-113886818D01*
X150370591Y-114557037D01*
X150307007Y-114574075D01*
X150192993Y-114639901D01*
X150099901Y-114732993D01*
X150034075Y-114847007D01*
X150017037Y-114910591D01*
X149384728Y-114278282D01*
X149384727Y-114278282D01*
X149345380Y-114332439D01*
X149248904Y-114521782D01*
X149183242Y-114723869D01*
X149183242Y-114723872D01*
X149150000Y-114933753D01*
X149150000Y-115146246D01*
X149183242Y-115356127D01*
X149183242Y-115356130D01*
X149248904Y-115558217D01*
X149345375Y-115747550D01*
X149384728Y-115801716D01*
X150017037Y-115169408D01*
X150034075Y-115232993D01*
X150099901Y-115347007D01*
X150192993Y-115440099D01*
X150307007Y-115505925D01*
X150370590Y-115522962D01*
X149738282Y-116155269D01*
X149738282Y-116155270D01*
X149792452Y-116194626D01*
X149802048Y-116199516D01*
X149852844Y-116247491D01*
X149869638Y-116315312D01*
X149847100Y-116381447D01*
X149802051Y-116420483D01*
X149792440Y-116425380D01*
X149738282Y-116464727D01*
X149738282Y-116464728D01*
X150370591Y-117097037D01*
X150307007Y-117114075D01*
X150192993Y-117179901D01*
X150099901Y-117272993D01*
X150034075Y-117387007D01*
X150017037Y-117450591D01*
X149384728Y-116818282D01*
X149384727Y-116818282D01*
X149345380Y-116872439D01*
X149248904Y-117061782D01*
X149183242Y-117263869D01*
X149183242Y-117263872D01*
X149150000Y-117473753D01*
X149150000Y-117686246D01*
X149183242Y-117896127D01*
X149183242Y-117896130D01*
X149248904Y-118098217D01*
X149345375Y-118287550D01*
X149384728Y-118341716D01*
X150017037Y-117709408D01*
X150034075Y-117772993D01*
X150099901Y-117887007D01*
X150192993Y-117980099D01*
X150307007Y-118045925D01*
X150370590Y-118062962D01*
X149738282Y-118695269D01*
X149738282Y-118695270D01*
X149792449Y-118734624D01*
X149981782Y-118831095D01*
X150183870Y-118896757D01*
X150393754Y-118930000D01*
X150606246Y-118930000D01*
X150816127Y-118896757D01*
X150816130Y-118896757D01*
X151018217Y-118831095D01*
X151207554Y-118734622D01*
X151261716Y-118695270D01*
X151261717Y-118695270D01*
X150629408Y-118062962D01*
X150692993Y-118045925D01*
X150807007Y-117980099D01*
X150900099Y-117887007D01*
X150965925Y-117772993D01*
X150982962Y-117709409D01*
X151615270Y-118341717D01*
X151615270Y-118341716D01*
X151654622Y-118287554D01*
X151751095Y-118098217D01*
X151816757Y-117896130D01*
X151816757Y-117896127D01*
X151850000Y-117686246D01*
X151850000Y-117473753D01*
X151816757Y-117263872D01*
X151816757Y-117263869D01*
X151751095Y-117061782D01*
X151654624Y-116872449D01*
X151615270Y-116818282D01*
X151615269Y-116818282D01*
X150982962Y-117450590D01*
X150965925Y-117387007D01*
X150900099Y-117272993D01*
X150807007Y-117179901D01*
X150692993Y-117114075D01*
X150629409Y-117097037D01*
X151261716Y-116464728D01*
X151207550Y-116425375D01*
X151197954Y-116420486D01*
X151147157Y-116372512D01*
X151130361Y-116304692D01*
X151152897Y-116238556D01*
X151197954Y-116199514D01*
X151207554Y-116194622D01*
X151261716Y-116155270D01*
X151261717Y-116155270D01*
X150629408Y-115522962D01*
X150692993Y-115505925D01*
X150807007Y-115440099D01*
X150900099Y-115347007D01*
X150965925Y-115232993D01*
X150982962Y-115169409D01*
X151615270Y-115801717D01*
X151615270Y-115801716D01*
X151654622Y-115747554D01*
X151751095Y-115558217D01*
X151816757Y-115356130D01*
X151816757Y-115356127D01*
X151850000Y-115146246D01*
X151850000Y-114933753D01*
X151816757Y-114723872D01*
X151816757Y-114723869D01*
X151751095Y-114521782D01*
X151654624Y-114332449D01*
X151615270Y-114278282D01*
X151615269Y-114278282D01*
X150982962Y-114910590D01*
X150965925Y-114847007D01*
X150900099Y-114732993D01*
X150807007Y-114639901D01*
X150692993Y-114574075D01*
X150629409Y-114557037D01*
X151299627Y-113886818D01*
X151360950Y-113853333D01*
X151387307Y-113850499D01*
X151397872Y-113850499D01*
X151457483Y-113844091D01*
X151592331Y-113793796D01*
X151707546Y-113707546D01*
X151793796Y-113592331D01*
X151844091Y-113457483D01*
X151850500Y-113397873D01*
X151850499Y-111602128D01*
X151844091Y-111542517D01*
X151835498Y-111519479D01*
X151793797Y-111407671D01*
X151793793Y-111407664D01*
X151707547Y-111292455D01*
X151707544Y-111292452D01*
X151592335Y-111206206D01*
X151592328Y-111206202D01*
X151457482Y-111155908D01*
X151457483Y-111155908D01*
X151397883Y-111149501D01*
X151397881Y-111149500D01*
X151397873Y-111149500D01*
X151397864Y-111149500D01*
X149602129Y-111149500D01*
X149602123Y-111149501D01*
X149542516Y-111155908D01*
X149407671Y-111206202D01*
X149407664Y-111206206D01*
X149292455Y-111292452D01*
X149248722Y-111350871D01*
X149192787Y-111392742D01*
X149123095Y-111397725D01*
X149061775Y-111364240D01*
X145370857Y-107673322D01*
X145351439Y-107648137D01*
X145347198Y-107640869D01*
X145338894Y-107620821D01*
X145312094Y-107580712D01*
X145310194Y-107577456D01*
X145302669Y-107547055D01*
X145293313Y-107517174D01*
X145294343Y-107513417D01*
X145293407Y-107509633D01*
X145303513Y-107479989D01*
X145311797Y-107449794D01*
X145314696Y-107447189D01*
X145315954Y-107443501D01*
X145340476Y-107424031D01*
X145363776Y-107403103D01*
X145369796Y-107400417D01*
X145469079Y-107359294D01*
X145600189Y-107271689D01*
X145711689Y-107160189D01*
X145799294Y-107029079D01*
X145859637Y-106883397D01*
X145878649Y-106787819D01*
X145886469Y-106748508D01*
X145918854Y-106686597D01*
X145979570Y-106652023D01*
X146008086Y-106648700D01*
X149198078Y-106648700D01*
X149265117Y-106668385D01*
X149308563Y-106716405D01*
X149344951Y-106787819D01*
X149469890Y-106959786D01*
X149620213Y-107110109D01*
X149792179Y-107235048D01*
X149792181Y-107235049D01*
X149792184Y-107235051D01*
X149981588Y-107331557D01*
X150183757Y-107397246D01*
X150393713Y-107430500D01*
X150393714Y-107430500D01*
X150606286Y-107430500D01*
X150606287Y-107430500D01*
X150816243Y-107397246D01*
X151018412Y-107331557D01*
X151207816Y-107235051D01*
X151229789Y-107219086D01*
X151379786Y-107110109D01*
X151379788Y-107110106D01*
X151379792Y-107110104D01*
X151530104Y-106959792D01*
X151530106Y-106959788D01*
X151530109Y-106959786D01*
X151655048Y-106787820D01*
X151655049Y-106787819D01*
X151655051Y-106787816D01*
X151751557Y-106598412D01*
X151817246Y-106396243D01*
X151850500Y-106186287D01*
X151850500Y-105973713D01*
X151817246Y-105763757D01*
X151751557Y-105561588D01*
X151655051Y-105372184D01*
X151655049Y-105372181D01*
X151655048Y-105372179D01*
X151530109Y-105200213D01*
X151379786Y-105049890D01*
X151207820Y-104924951D01*
X151207115Y-104924591D01*
X151199054Y-104920485D01*
X151148259Y-104872512D01*
X151131463Y-104804692D01*
X151153999Y-104738556D01*
X151199054Y-104699515D01*
X151207816Y-104695051D01*
X151229789Y-104679086D01*
X151379786Y-104570109D01*
X151379788Y-104570106D01*
X151379792Y-104570104D01*
X151530104Y-104419792D01*
X151530106Y-104419788D01*
X151530109Y-104419786D01*
X151655048Y-104247820D01*
X151655047Y-104247820D01*
X151655051Y-104247816D01*
X151751557Y-104058412D01*
X151817246Y-103856243D01*
X151850500Y-103646287D01*
X151850500Y-103433713D01*
X151817246Y-103223757D01*
X151751557Y-103021588D01*
X151655051Y-102832184D01*
X151655049Y-102832181D01*
X151655048Y-102832179D01*
X151530109Y-102660213D01*
X151416569Y-102546673D01*
X151383084Y-102485350D01*
X151388068Y-102415658D01*
X151429940Y-102359725D01*
X151460915Y-102342810D01*
X151592331Y-102293796D01*
X151707546Y-102207546D01*
X151793796Y-102092331D01*
X151844091Y-101957483D01*
X151850500Y-101897873D01*
X151850499Y-100102128D01*
X151844091Y-100042517D01*
X151793796Y-99907669D01*
X151793795Y-99907668D01*
X151793793Y-99907664D01*
X151707547Y-99792455D01*
X151707544Y-99792452D01*
X151592335Y-99706206D01*
X151592328Y-99706202D01*
X151457482Y-99655908D01*
X151457483Y-99655908D01*
X151397883Y-99649501D01*
X151397881Y-99649500D01*
X151397873Y-99649500D01*
X151397864Y-99649500D01*
X149602129Y-99649500D01*
X149602123Y-99649501D01*
X149542516Y-99655908D01*
X149407671Y-99706202D01*
X149407664Y-99706206D01*
X149292455Y-99792452D01*
X149292452Y-99792455D01*
X149206206Y-99907664D01*
X149206202Y-99907671D01*
X149155908Y-100042517D01*
X149149501Y-100102116D01*
X149149501Y-100102123D01*
X149149500Y-100102135D01*
X149149500Y-101897870D01*
X149149501Y-101897876D01*
X149155908Y-101957483D01*
X149206202Y-102092328D01*
X149206206Y-102092335D01*
X149292452Y-102207544D01*
X149292455Y-102207547D01*
X149407664Y-102293793D01*
X149407671Y-102293797D01*
X149539082Y-102342810D01*
X149595016Y-102384681D01*
X149619433Y-102450145D01*
X149604582Y-102518418D01*
X149583431Y-102546673D01*
X149469889Y-102660215D01*
X149344948Y-102832184D01*
X149344947Y-102832185D01*
X149324765Y-102871795D01*
X149276791Y-102922591D01*
X149214281Y-102939500D01*
X142037197Y-102939500D01*
X141970158Y-102919815D01*
X141949516Y-102903181D01*
X136930974Y-97884639D01*
X136897489Y-97823316D01*
X136897038Y-97821149D01*
X136866138Y-97665810D01*
X136866137Y-97665803D01*
X136825384Y-97567416D01*
X136805797Y-97520127D01*
X136805790Y-97520114D01*
X136718189Y-97389011D01*
X136718186Y-97389007D01*
X136606692Y-97277513D01*
X136606688Y-97277510D01*
X136475585Y-97189909D01*
X136475572Y-97189902D01*
X136329901Y-97129564D01*
X136329889Y-97129561D01*
X136175245Y-97098800D01*
X136175242Y-97098800D01*
X136017558Y-97098800D01*
X136017555Y-97098800D01*
X135862910Y-97129561D01*
X135862903Y-97129563D01*
X135820813Y-97146997D01*
X135751344Y-97154465D01*
X135688865Y-97123189D01*
X135653213Y-97063100D01*
X135655708Y-96993275D01*
X135685679Y-96944756D01*
X136003017Y-96627419D01*
X136064340Y-96593934D01*
X136090698Y-96591100D01*
X145095234Y-96591100D01*
X145162273Y-96610785D01*
X145164125Y-96611998D01*
X145295814Y-96699990D01*
X145295827Y-96699997D01*
X145441498Y-96760335D01*
X145441503Y-96760337D01*
X145596153Y-96791099D01*
X145596156Y-96791100D01*
X145596158Y-96791100D01*
X145753844Y-96791100D01*
X145753845Y-96791099D01*
X145908497Y-96760337D01*
X146054179Y-96699994D01*
X146185289Y-96612389D01*
X146296789Y-96500889D01*
X146384394Y-96369779D01*
X146444737Y-96224097D01*
X146475500Y-96069442D01*
X146475500Y-95911758D01*
X146475500Y-95911755D01*
X146475499Y-95911753D01*
X146444738Y-95757110D01*
X146444737Y-95757103D01*
X146444735Y-95757098D01*
X146384397Y-95611427D01*
X146384390Y-95611414D01*
X146296789Y-95480311D01*
X146296786Y-95480307D01*
X146185292Y-95368813D01*
X146185288Y-95368810D01*
X146054185Y-95281209D01*
X146054172Y-95281202D01*
X145908501Y-95220864D01*
X145908489Y-95220861D01*
X145753845Y-95190100D01*
X145753842Y-95190100D01*
X145596158Y-95190100D01*
X145596155Y-95190100D01*
X145441510Y-95220861D01*
X145441498Y-95220864D01*
X145295827Y-95281202D01*
X145295814Y-95281209D01*
X145164125Y-95369202D01*
X145097447Y-95390080D01*
X145095234Y-95390100D01*
X135877270Y-95390100D01*
X135877254Y-95390099D01*
X135869658Y-95390099D01*
X135711543Y-95390099D01*
X135635179Y-95410561D01*
X135558814Y-95431023D01*
X135558809Y-95431026D01*
X135421890Y-95510075D01*
X135421882Y-95510081D01*
X132991939Y-97940025D01*
X132930616Y-97973510D01*
X132928450Y-97973961D01*
X132773108Y-98004861D01*
X132773098Y-98004864D01*
X132627427Y-98065202D01*
X132627414Y-98065209D01*
X132496311Y-98152810D01*
X132496307Y-98152813D01*
X132384813Y-98264307D01*
X132384810Y-98264311D01*
X132297209Y-98395414D01*
X132297202Y-98395427D01*
X132236864Y-98541098D01*
X132236861Y-98541110D01*
X132206100Y-98695753D01*
X132206100Y-98853446D01*
X132236861Y-99008089D01*
X132236864Y-99008101D01*
X132297202Y-99153772D01*
X132297209Y-99153785D01*
X132384810Y-99284888D01*
X132384813Y-99284892D01*
X132496307Y-99396386D01*
X132496311Y-99396389D01*
X132627414Y-99483990D01*
X132627427Y-99483997D01*
X132773098Y-99544335D01*
X132773103Y-99544337D01*
X132927753Y-99575099D01*
X132927756Y-99575100D01*
X132927758Y-99575100D01*
X133085444Y-99575100D01*
X133085445Y-99575099D01*
X133240097Y-99544337D01*
X133385779Y-99483994D01*
X133516889Y-99396389D01*
X133628389Y-99284889D01*
X133715994Y-99153779D01*
X133776337Y-99008097D01*
X133795713Y-98910685D01*
X133807238Y-98852750D01*
X133839623Y-98790839D01*
X133841117Y-98789317D01*
X135141855Y-97488580D01*
X135203177Y-97455096D01*
X135272869Y-97460080D01*
X135328802Y-97501952D01*
X135353219Y-97567416D01*
X135344097Y-97623713D01*
X135326663Y-97665803D01*
X135326661Y-97665810D01*
X135295900Y-97820453D01*
X135295900Y-97978146D01*
X135326661Y-98132789D01*
X135326664Y-98132801D01*
X135387002Y-98278472D01*
X135387009Y-98278485D01*
X135474610Y-98409588D01*
X135474613Y-98409592D01*
X135586107Y-98521086D01*
X135586111Y-98521089D01*
X135717214Y-98608690D01*
X135717227Y-98608697D01*
X135862898Y-98669035D01*
X135862903Y-98669037D01*
X135927547Y-98681895D01*
X136018249Y-98699938D01*
X136080160Y-98732323D01*
X136081739Y-98733874D01*
X141252239Y-103904374D01*
X141252249Y-103904385D01*
X141256579Y-103908715D01*
X141256580Y-103908716D01*
X141368384Y-104020520D01*
X141368386Y-104020521D01*
X141368390Y-104020524D01*
X141505309Y-104099573D01*
X141505316Y-104099577D01*
X141617119Y-104129534D01*
X141658042Y-104140500D01*
X141658043Y-104140500D01*
X149214281Y-104140500D01*
X149281320Y-104160185D01*
X149324765Y-104208205D01*
X149344947Y-104247814D01*
X149344948Y-104247815D01*
X149469890Y-104419786D01*
X149620213Y-104570109D01*
X149792182Y-104695050D01*
X149800946Y-104699516D01*
X149851742Y-104747491D01*
X149868536Y-104815312D01*
X149845998Y-104881447D01*
X149800946Y-104920484D01*
X149792182Y-104924949D01*
X149620213Y-105049890D01*
X149469890Y-105200213D01*
X149344956Y-105372173D01*
X149344950Y-105372181D01*
X149343425Y-105375174D01*
X149340969Y-105379994D01*
X149292997Y-105430790D01*
X149230485Y-105447700D01*
X128524440Y-105447700D01*
X128483519Y-105458664D01*
X128483519Y-105458665D01*
X128446251Y-105468651D01*
X128371714Y-105488623D01*
X128371709Y-105488626D01*
X128234790Y-105567675D01*
X128234782Y-105567681D01*
X128122978Y-105679486D01*
X127938223Y-105864240D01*
X127876900Y-105897725D01*
X127807208Y-105892741D01*
X127751277Y-105850872D01*
X127707546Y-105792454D01*
X127707544Y-105792452D01*
X127707543Y-105792451D01*
X127592335Y-105706206D01*
X127592328Y-105706202D01*
X127457482Y-105655908D01*
X127457483Y-105655908D01*
X127397883Y-105649501D01*
X127397881Y-105649500D01*
X127397873Y-105649500D01*
X127397864Y-105649500D01*
X125602129Y-105649500D01*
X125602123Y-105649501D01*
X125542516Y-105655908D01*
X125407671Y-105706202D01*
X125407664Y-105706206D01*
X125292455Y-105792452D01*
X125292452Y-105792455D01*
X125206206Y-105907664D01*
X125206202Y-105907671D01*
X125155908Y-106042517D01*
X125149501Y-106102116D01*
X125149500Y-106102135D01*
X124000500Y-106102135D01*
X124000500Y-101102155D01*
X125150000Y-101102155D01*
X125150000Y-101750000D01*
X126066988Y-101750000D01*
X126034075Y-101807007D01*
X126000000Y-101934174D01*
X126000000Y-102065826D01*
X126034075Y-102192993D01*
X126066988Y-102250000D01*
X125150000Y-102250000D01*
X125150000Y-102897844D01*
X125156401Y-102957372D01*
X125156403Y-102957379D01*
X125206645Y-103092086D01*
X125206649Y-103092093D01*
X125292809Y-103207187D01*
X125292812Y-103207190D01*
X125407906Y-103293350D01*
X125407913Y-103293354D01*
X125542620Y-103343596D01*
X125542627Y-103343598D01*
X125602155Y-103349999D01*
X125602172Y-103350000D01*
X126250000Y-103350000D01*
X126250000Y-102433012D01*
X126307007Y-102465925D01*
X126434174Y-102500000D01*
X126565826Y-102500000D01*
X126692993Y-102465925D01*
X126750000Y-102433012D01*
X126750000Y-103350000D01*
X127397828Y-103350000D01*
X127397844Y-103349999D01*
X127457372Y-103343598D01*
X127457379Y-103343596D01*
X127592086Y-103293354D01*
X127592093Y-103293350D01*
X127707187Y-103207190D01*
X127707190Y-103207187D01*
X127793350Y-103092093D01*
X127793354Y-103092086D01*
X127843596Y-102957379D01*
X127843598Y-102957372D01*
X127849999Y-102897844D01*
X127850000Y-102897827D01*
X127850000Y-102250000D01*
X126933012Y-102250000D01*
X126965925Y-102192993D01*
X127000000Y-102065826D01*
X127000000Y-101934174D01*
X126965925Y-101807007D01*
X126933012Y-101750000D01*
X127850000Y-101750000D01*
X127850000Y-101102172D01*
X127849999Y-101102155D01*
X127843598Y-101042627D01*
X127843596Y-101042620D01*
X127793354Y-100907913D01*
X127793350Y-100907906D01*
X127707190Y-100792812D01*
X127707187Y-100792809D01*
X127592093Y-100706649D01*
X127592086Y-100706645D01*
X127457379Y-100656403D01*
X127457372Y-100656401D01*
X127397844Y-100650000D01*
X126750000Y-100650000D01*
X126750000Y-101566988D01*
X126692993Y-101534075D01*
X126565826Y-101500000D01*
X126434174Y-101500000D01*
X126307007Y-101534075D01*
X126250000Y-101566988D01*
X126250000Y-100650000D01*
X125602155Y-100650000D01*
X125542627Y-100656401D01*
X125542620Y-100656403D01*
X125407913Y-100706645D01*
X125407906Y-100706649D01*
X125292812Y-100792809D01*
X125292809Y-100792812D01*
X125206649Y-100907906D01*
X125206645Y-100907913D01*
X125156403Y-101042620D01*
X125156401Y-101042627D01*
X125150000Y-101102155D01*
X124000500Y-101102155D01*
X124000500Y-91602135D01*
X125149500Y-91602135D01*
X125149500Y-93397870D01*
X125149501Y-93397876D01*
X125155908Y-93457483D01*
X125206202Y-93592328D01*
X125206206Y-93592335D01*
X125292452Y-93707544D01*
X125292455Y-93707547D01*
X125407664Y-93793793D01*
X125407671Y-93793797D01*
X125542517Y-93844091D01*
X125542516Y-93844091D01*
X125549444Y-93844835D01*
X125602127Y-93850500D01*
X127397872Y-93850499D01*
X127457483Y-93844091D01*
X127592331Y-93793796D01*
X127707546Y-93707546D01*
X127793796Y-93592331D01*
X127844091Y-93457483D01*
X127850500Y-93397873D01*
X127850499Y-91602135D01*
X129649500Y-91602135D01*
X129649500Y-93397870D01*
X129649501Y-93397876D01*
X129655908Y-93457483D01*
X129706202Y-93592328D01*
X129706206Y-93592335D01*
X129792452Y-93707544D01*
X129792455Y-93707547D01*
X129907664Y-93793793D01*
X129907671Y-93793797D01*
X130042517Y-93844091D01*
X130042516Y-93844091D01*
X130049444Y-93844835D01*
X130102127Y-93850500D01*
X131897872Y-93850499D01*
X131957483Y-93844091D01*
X132092331Y-93793796D01*
X132207546Y-93707546D01*
X132293796Y-93592331D01*
X132344091Y-93457483D01*
X132350500Y-93397873D01*
X132350499Y-92134153D01*
X138299300Y-92134153D01*
X138299300Y-92291846D01*
X138330061Y-92446489D01*
X138330064Y-92446501D01*
X138390402Y-92592172D01*
X138390409Y-92592185D01*
X138478010Y-92723288D01*
X138478013Y-92723292D01*
X138589507Y-92834786D01*
X138589511Y-92834789D01*
X138720614Y-92922390D01*
X138720627Y-92922397D01*
X138860953Y-92980521D01*
X138866303Y-92982737D01*
X139020953Y-93013499D01*
X139020956Y-93013500D01*
X139020958Y-93013500D01*
X139178644Y-93013500D01*
X139178645Y-93013499D01*
X139333297Y-92982737D01*
X139478979Y-92922394D01*
X139559314Y-92868716D01*
X139610675Y-92834398D01*
X139677353Y-92813520D01*
X139679566Y-92813500D01*
X148761203Y-92813500D01*
X148790643Y-92822144D01*
X148820630Y-92828668D01*
X148825645Y-92832422D01*
X148828242Y-92833185D01*
X148848884Y-92849819D01*
X148863439Y-92864374D01*
X148863449Y-92864385D01*
X148867779Y-92868715D01*
X148867780Y-92868716D01*
X148979584Y-92980520D01*
X148979586Y-92980521D01*
X149036708Y-93013500D01*
X149036710Y-93013501D01*
X149087501Y-93042826D01*
X149135716Y-93093393D01*
X149149500Y-93150212D01*
X149149500Y-93397869D01*
X149149501Y-93397876D01*
X149155908Y-93457483D01*
X149206202Y-93592328D01*
X149206206Y-93592335D01*
X149292452Y-93707544D01*
X149292455Y-93707547D01*
X149407664Y-93793793D01*
X149407671Y-93793797D01*
X149542517Y-93844091D01*
X149542516Y-93844091D01*
X149549444Y-93844835D01*
X149602127Y-93850500D01*
X151397872Y-93850499D01*
X151457483Y-93844091D01*
X151592331Y-93793796D01*
X151707546Y-93707546D01*
X151793796Y-93592331D01*
X151844091Y-93457483D01*
X151850500Y-93397873D01*
X151850499Y-91602128D01*
X151844091Y-91542517D01*
X151829579Y-91503609D01*
X151793797Y-91407671D01*
X151793793Y-91407664D01*
X151707547Y-91292455D01*
X151707544Y-91292452D01*
X151592335Y-91206206D01*
X151592328Y-91206202D01*
X151457482Y-91155908D01*
X151457483Y-91155908D01*
X151397883Y-91149501D01*
X151397881Y-91149500D01*
X151397873Y-91149500D01*
X151397864Y-91149500D01*
X149602129Y-91149500D01*
X149602123Y-91149501D01*
X149542516Y-91155908D01*
X149407671Y-91206202D01*
X149407664Y-91206206D01*
X149292455Y-91292452D01*
X149292452Y-91292455D01*
X149206206Y-91407664D01*
X149206202Y-91407671D01*
X149159894Y-91531832D01*
X149146623Y-91549559D01*
X149137426Y-91569700D01*
X149126095Y-91576982D01*
X149118023Y-91587766D01*
X149097276Y-91595504D01*
X149078649Y-91607476D01*
X149056729Y-91610627D01*
X149052559Y-91612183D01*
X149043714Y-91612499D01*
X148982243Y-91612499D01*
X148982239Y-91612499D01*
X148974633Y-91612500D01*
X148974632Y-91612499D01*
X148974631Y-91612500D01*
X139679566Y-91612500D01*
X139612527Y-91592815D01*
X139610675Y-91591602D01*
X139478985Y-91503609D01*
X139478972Y-91503602D01*
X139333301Y-91443264D01*
X139333289Y-91443261D01*
X139178645Y-91412500D01*
X139178642Y-91412500D01*
X139020958Y-91412500D01*
X139020955Y-91412500D01*
X138866310Y-91443261D01*
X138866298Y-91443264D01*
X138720627Y-91503602D01*
X138720614Y-91503609D01*
X138589511Y-91591210D01*
X138589507Y-91591213D01*
X138478013Y-91702707D01*
X138478010Y-91702711D01*
X138390409Y-91833814D01*
X138390402Y-91833827D01*
X138330064Y-91979498D01*
X138330061Y-91979510D01*
X138299300Y-92134153D01*
X132350499Y-92134153D01*
X132350499Y-91602128D01*
X132344091Y-91542517D01*
X132329579Y-91503609D01*
X132293797Y-91407671D01*
X132293793Y-91407664D01*
X132207547Y-91292455D01*
X132207544Y-91292452D01*
X132092335Y-91206206D01*
X132092328Y-91206202D01*
X131957482Y-91155908D01*
X131957483Y-91155908D01*
X131897883Y-91149501D01*
X131897881Y-91149500D01*
X131897873Y-91149500D01*
X131897864Y-91149500D01*
X130102129Y-91149500D01*
X130102123Y-91149501D01*
X130042516Y-91155908D01*
X129907671Y-91206202D01*
X129907664Y-91206206D01*
X129792455Y-91292452D01*
X129792452Y-91292455D01*
X129706206Y-91407664D01*
X129706202Y-91407671D01*
X129655908Y-91542517D01*
X129650501Y-91592815D01*
X129649501Y-91602123D01*
X129649500Y-91602135D01*
X127850499Y-91602135D01*
X127850499Y-91602128D01*
X127844091Y-91542517D01*
X127829579Y-91503609D01*
X127793797Y-91407671D01*
X127793793Y-91407664D01*
X127707547Y-91292455D01*
X127707544Y-91292452D01*
X127592335Y-91206206D01*
X127592328Y-91206202D01*
X127457482Y-91155908D01*
X127457483Y-91155908D01*
X127397883Y-91149501D01*
X127397881Y-91149500D01*
X127397873Y-91149500D01*
X127397864Y-91149500D01*
X125602129Y-91149500D01*
X125602123Y-91149501D01*
X125542516Y-91155908D01*
X125407671Y-91206202D01*
X125407664Y-91206206D01*
X125292455Y-91292452D01*
X125292452Y-91292455D01*
X125206206Y-91407664D01*
X125206202Y-91407671D01*
X125155908Y-91542517D01*
X125150501Y-91592815D01*
X125149501Y-91602123D01*
X125149500Y-91602135D01*
X124000500Y-91602135D01*
X124000500Y-89624500D01*
X124020185Y-89557461D01*
X124072989Y-89511706D01*
X124124500Y-89500500D01*
X152375500Y-89500500D01*
X152442539Y-89520185D01*
G37*
%TD.AperFunction*%
M02*
