M48
; DRILL file {KiCad 9.0.6} date 2025-11-23T22:05:46-0700
; FORMAT={-:-/ absolute / metric / decimal}
; #@! TF.CreationDate,2025-11-23T22:05:46-07:00
; #@! TF.GenerationSoftware,Kicad,Pcbnew,9.0.6
; #@! TF.FileFunction,Plated,1,2,PTH
FMAT,2
METRIC
; #@! TA.AperFunction,Plated,PTH,ViaDrill
T1C0.300
; #@! TA.AperFunction,Plated,PTH,ComponentDrill
T2C1.000
%
G90
G05
T1
X130.021Y-96.931
X133.007Y-98.775
X133.501Y-110.415
X136.096Y-97.899
X139.0Y-113.294
X139.1Y-92.213
X142.923Y-112.784
X144.63Y-108.0
X145.0Y-110.483
X145.09Y-106.65
X145.675Y-95.991
T2
X126.5Y-92.5
X126.5Y-102.0
X126.5Y-107.0
X126.5Y-112.0
X126.5Y-117.0
X131.0Y-92.5
X150.5Y-92.5
X150.5Y-101.0
X150.5Y-103.54
X150.5Y-106.08
X150.5Y-112.5
X150.5Y-115.04
X150.5Y-117.58
M30
