%TF.GenerationSoftware,KiCad,Pcbnew,9.0.6*%
%TF.CreationDate,2025-11-23T22:05:46-07:00*%
%TF.ProjectId,ChuaCircuit,43687561-4369-4726-9375-69742e6b6963,rev?*%
%TF.SameCoordinates,Original*%
%TF.FileFunction,Drillmap*%
%TF.FilePolarity,Positive*%
%FSLAX45Y45*%
G04 Gerber Fmt 4.5, Leading zero omitted, Abs format (unit mm)*
G04 Created by KiCad (PCBNEW 9.0.6) date 2025-11-23 22:05:46*
%MOMM*%
%LPD*%
G01*
G04 APERTURE LIST*
%ADD10C,0.050000*%
%ADD11C,0.200000*%
%ADD12C,0.100000*%
G04 APERTURE END LIST*
D10*
X12350000Y-12000000D02*
X12350000Y-8900000D01*
X15300000Y-8900000D02*
X12350000Y-8900000D01*
X15300000Y-12000000D02*
X15300000Y-8900000D01*
X15300000Y-12000000D02*
X12350000Y-12000000D01*
D11*
D12*
X12987080Y-9678140D02*
X13017080Y-9708140D01*
X13017080Y-9678140D02*
X12987080Y-9708140D01*
X13285660Y-9862460D02*
X13315660Y-9892460D01*
X13315660Y-9862460D02*
X13285660Y-9892460D01*
X13335070Y-11026500D02*
X13365070Y-11056500D01*
X13365070Y-11026500D02*
X13335070Y-11056500D01*
X13594640Y-9774930D02*
X13624640Y-9804930D01*
X13624640Y-9774930D02*
X13594640Y-9804930D01*
X13885000Y-11314360D02*
X13915000Y-11344360D01*
X13915000Y-11314360D02*
X13885000Y-11344360D01*
X13894980Y-9206300D02*
X13924980Y-9236300D01*
X13924980Y-9206300D02*
X13894980Y-9236300D01*
X14277290Y-11263370D02*
X14307290Y-11293370D01*
X14307290Y-11263370D02*
X14277290Y-11293370D01*
X14447950Y-10785000D02*
X14477950Y-10815000D01*
X14477950Y-10785000D02*
X14447950Y-10815000D01*
X14485000Y-11033340D02*
X14515000Y-11063340D01*
X14515000Y-11033340D02*
X14485000Y-11063340D01*
X14493990Y-10649990D02*
X14523990Y-10679990D01*
X14523990Y-10649990D02*
X14493990Y-10679990D01*
X14552500Y-9584060D02*
X14582500Y-9614060D01*
X14582500Y-9584060D02*
X14552500Y-9614060D01*
X12700000Y-9250000D02*
G75*
G02*
X12600000Y-9250000I-50000J0D01*
G01*
X12600000Y-9250000D02*
G75*
G02*
X12700000Y-9250000I50000J0D01*
G01*
X12700000Y-10200000D02*
G75*
G02*
X12600000Y-10200000I-50000J0D01*
G01*
X12600000Y-10200000D02*
G75*
G02*
X12700000Y-10200000I50000J0D01*
G01*
X12700000Y-10700000D02*
G75*
G02*
X12600000Y-10700000I-50000J0D01*
G01*
X12600000Y-10700000D02*
G75*
G02*
X12700000Y-10700000I50000J0D01*
G01*
X12700000Y-11200000D02*
G75*
G02*
X12600000Y-11200000I-50000J0D01*
G01*
X12600000Y-11200000D02*
G75*
G02*
X12700000Y-11200000I50000J0D01*
G01*
X12700000Y-11700000D02*
G75*
G02*
X12600000Y-11700000I-50000J0D01*
G01*
X12600000Y-11700000D02*
G75*
G02*
X12700000Y-11700000I50000J0D01*
G01*
X13150000Y-9250000D02*
G75*
G02*
X13050000Y-9250000I-50000J0D01*
G01*
X13050000Y-9250000D02*
G75*
G02*
X13150000Y-9250000I50000J0D01*
G01*
X15100000Y-9250000D02*
G75*
G02*
X15000000Y-9250000I-50000J0D01*
G01*
X15000000Y-9250000D02*
G75*
G02*
X15100000Y-9250000I50000J0D01*
G01*
X15100000Y-10100000D02*
G75*
G02*
X15000000Y-10100000I-50000J0D01*
G01*
X15000000Y-10100000D02*
G75*
G02*
X15100000Y-10100000I50000J0D01*
G01*
X15100000Y-10354000D02*
G75*
G02*
X15000000Y-10354000I-50000J0D01*
G01*
X15000000Y-10354000D02*
G75*
G02*
X15100000Y-10354000I50000J0D01*
G01*
X15100000Y-10608000D02*
G75*
G02*
X15000000Y-10608000I-50000J0D01*
G01*
X15000000Y-10608000D02*
G75*
G02*
X15100000Y-10608000I50000J0D01*
G01*
X15100000Y-11250000D02*
G75*
G02*
X15000000Y-11250000I-50000J0D01*
G01*
X15000000Y-11250000D02*
G75*
G02*
X15100000Y-11250000I50000J0D01*
G01*
X15100000Y-11504000D02*
G75*
G02*
X15000000Y-11504000I-50000J0D01*
G01*
X15000000Y-11504000D02*
G75*
G02*
X15100000Y-11504000I50000J0D01*
G01*
X15100000Y-11758000D02*
G75*
G02*
X15000000Y-11758000I-50000J0D01*
G01*
X15000000Y-11758000D02*
G75*
G02*
X15100000Y-11758000I50000J0D01*
G01*
D11*
X12608277Y-12313984D02*
X12608277Y-12113984D01*
X12608277Y-12113984D02*
X12655896Y-12113984D01*
X12655896Y-12113984D02*
X12684467Y-12123508D01*
X12684467Y-12123508D02*
X12703515Y-12142555D01*
X12703515Y-12142555D02*
X12713039Y-12161603D01*
X12713039Y-12161603D02*
X12722562Y-12199698D01*
X12722562Y-12199698D02*
X12722562Y-12228269D01*
X12722562Y-12228269D02*
X12713039Y-12266365D01*
X12713039Y-12266365D02*
X12703515Y-12285412D01*
X12703515Y-12285412D02*
X12684467Y-12304460D01*
X12684467Y-12304460D02*
X12655896Y-12313984D01*
X12655896Y-12313984D02*
X12608277Y-12313984D01*
X12808277Y-12313984D02*
X12808277Y-12180650D01*
X12808277Y-12218746D02*
X12817801Y-12199698D01*
X12817801Y-12199698D02*
X12827324Y-12190174D01*
X12827324Y-12190174D02*
X12846372Y-12180650D01*
X12846372Y-12180650D02*
X12865420Y-12180650D01*
X12932086Y-12313984D02*
X12932086Y-12180650D01*
X12932086Y-12113984D02*
X12922562Y-12123508D01*
X12922562Y-12123508D02*
X12932086Y-12133031D01*
X12932086Y-12133031D02*
X12941610Y-12123508D01*
X12941610Y-12123508D02*
X12932086Y-12113984D01*
X12932086Y-12113984D02*
X12932086Y-12133031D01*
X13055896Y-12313984D02*
X13036848Y-12304460D01*
X13036848Y-12304460D02*
X13027324Y-12285412D01*
X13027324Y-12285412D02*
X13027324Y-12113984D01*
X13160658Y-12313984D02*
X13141610Y-12304460D01*
X13141610Y-12304460D02*
X13132086Y-12285412D01*
X13132086Y-12285412D02*
X13132086Y-12113984D01*
X13389229Y-12313984D02*
X13389229Y-12113984D01*
X13389229Y-12113984D02*
X13455896Y-12256841D01*
X13455896Y-12256841D02*
X13522562Y-12113984D01*
X13522562Y-12113984D02*
X13522562Y-12313984D01*
X13703515Y-12313984D02*
X13703515Y-12209222D01*
X13703515Y-12209222D02*
X13693991Y-12190174D01*
X13693991Y-12190174D02*
X13674943Y-12180650D01*
X13674943Y-12180650D02*
X13636848Y-12180650D01*
X13636848Y-12180650D02*
X13617801Y-12190174D01*
X13703515Y-12304460D02*
X13684467Y-12313984D01*
X13684467Y-12313984D02*
X13636848Y-12313984D01*
X13636848Y-12313984D02*
X13617801Y-12304460D01*
X13617801Y-12304460D02*
X13608277Y-12285412D01*
X13608277Y-12285412D02*
X13608277Y-12266365D01*
X13608277Y-12266365D02*
X13617801Y-12247317D01*
X13617801Y-12247317D02*
X13636848Y-12237793D01*
X13636848Y-12237793D02*
X13684467Y-12237793D01*
X13684467Y-12237793D02*
X13703515Y-12228269D01*
X13798753Y-12180650D02*
X13798753Y-12380650D01*
X13798753Y-12190174D02*
X13817801Y-12180650D01*
X13817801Y-12180650D02*
X13855896Y-12180650D01*
X13855896Y-12180650D02*
X13874943Y-12190174D01*
X13874943Y-12190174D02*
X13884467Y-12199698D01*
X13884467Y-12199698D02*
X13893991Y-12218746D01*
X13893991Y-12218746D02*
X13893991Y-12275888D01*
X13893991Y-12275888D02*
X13884467Y-12294936D01*
X13884467Y-12294936D02*
X13874943Y-12304460D01*
X13874943Y-12304460D02*
X13855896Y-12313984D01*
X13855896Y-12313984D02*
X13817801Y-12313984D01*
X13817801Y-12313984D02*
X13798753Y-12304460D01*
X13979705Y-12294936D02*
X13989229Y-12304460D01*
X13989229Y-12304460D02*
X13979705Y-12313984D01*
X13979705Y-12313984D02*
X13970182Y-12304460D01*
X13970182Y-12304460D02*
X13979705Y-12294936D01*
X13979705Y-12294936D02*
X13979705Y-12313984D01*
X13979705Y-12190174D02*
X13989229Y-12199698D01*
X13989229Y-12199698D02*
X13979705Y-12209222D01*
X13979705Y-12209222D02*
X13970182Y-12199698D01*
X13970182Y-12199698D02*
X13979705Y-12190174D01*
X13979705Y-12190174D02*
X13979705Y-12209222D01*
D12*
X12317500Y-12627500D02*
X12347500Y-12657500D01*
X12347500Y-12627500D02*
X12317500Y-12657500D01*
D11*
X12646372Y-12533984D02*
X12665420Y-12533984D01*
X12665420Y-12533984D02*
X12684467Y-12543508D01*
X12684467Y-12543508D02*
X12693991Y-12553031D01*
X12693991Y-12553031D02*
X12703515Y-12572079D01*
X12703515Y-12572079D02*
X12713039Y-12610174D01*
X12713039Y-12610174D02*
X12713039Y-12657793D01*
X12713039Y-12657793D02*
X12703515Y-12695888D01*
X12703515Y-12695888D02*
X12693991Y-12714936D01*
X12693991Y-12714936D02*
X12684467Y-12724460D01*
X12684467Y-12724460D02*
X12665420Y-12733984D01*
X12665420Y-12733984D02*
X12646372Y-12733984D01*
X12646372Y-12733984D02*
X12627324Y-12724460D01*
X12627324Y-12724460D02*
X12617801Y-12714936D01*
X12617801Y-12714936D02*
X12608277Y-12695888D01*
X12608277Y-12695888D02*
X12598753Y-12657793D01*
X12598753Y-12657793D02*
X12598753Y-12610174D01*
X12598753Y-12610174D02*
X12608277Y-12572079D01*
X12608277Y-12572079D02*
X12617801Y-12553031D01*
X12617801Y-12553031D02*
X12627324Y-12543508D01*
X12627324Y-12543508D02*
X12646372Y-12533984D01*
X12798753Y-12714936D02*
X12808277Y-12724460D01*
X12808277Y-12724460D02*
X12798753Y-12733984D01*
X12798753Y-12733984D02*
X12789229Y-12724460D01*
X12789229Y-12724460D02*
X12798753Y-12714936D01*
X12798753Y-12714936D02*
X12798753Y-12733984D01*
X12874943Y-12533984D02*
X12998753Y-12533984D01*
X12998753Y-12533984D02*
X12932086Y-12610174D01*
X12932086Y-12610174D02*
X12960658Y-12610174D01*
X12960658Y-12610174D02*
X12979705Y-12619698D01*
X12979705Y-12619698D02*
X12989229Y-12629222D01*
X12989229Y-12629222D02*
X12998753Y-12648269D01*
X12998753Y-12648269D02*
X12998753Y-12695888D01*
X12998753Y-12695888D02*
X12989229Y-12714936D01*
X12989229Y-12714936D02*
X12979705Y-12724460D01*
X12979705Y-12724460D02*
X12960658Y-12733984D01*
X12960658Y-12733984D02*
X12903515Y-12733984D01*
X12903515Y-12733984D02*
X12884467Y-12724460D01*
X12884467Y-12724460D02*
X12874943Y-12714936D01*
X13122562Y-12533984D02*
X13141610Y-12533984D01*
X13141610Y-12533984D02*
X13160658Y-12543508D01*
X13160658Y-12543508D02*
X13170182Y-12553031D01*
X13170182Y-12553031D02*
X13179705Y-12572079D01*
X13179705Y-12572079D02*
X13189229Y-12610174D01*
X13189229Y-12610174D02*
X13189229Y-12657793D01*
X13189229Y-12657793D02*
X13179705Y-12695888D01*
X13179705Y-12695888D02*
X13170182Y-12714936D01*
X13170182Y-12714936D02*
X13160658Y-12724460D01*
X13160658Y-12724460D02*
X13141610Y-12733984D01*
X13141610Y-12733984D02*
X13122562Y-12733984D01*
X13122562Y-12733984D02*
X13103515Y-12724460D01*
X13103515Y-12724460D02*
X13093991Y-12714936D01*
X13093991Y-12714936D02*
X13084467Y-12695888D01*
X13084467Y-12695888D02*
X13074943Y-12657793D01*
X13074943Y-12657793D02*
X13074943Y-12610174D01*
X13074943Y-12610174D02*
X13084467Y-12572079D01*
X13084467Y-12572079D02*
X13093991Y-12553031D01*
X13093991Y-12553031D02*
X13103515Y-12543508D01*
X13103515Y-12543508D02*
X13122562Y-12533984D01*
X13313039Y-12533984D02*
X13332086Y-12533984D01*
X13332086Y-12533984D02*
X13351134Y-12543508D01*
X13351134Y-12543508D02*
X13360658Y-12553031D01*
X13360658Y-12553031D02*
X13370182Y-12572079D01*
X13370182Y-12572079D02*
X13379705Y-12610174D01*
X13379705Y-12610174D02*
X13379705Y-12657793D01*
X13379705Y-12657793D02*
X13370182Y-12695888D01*
X13370182Y-12695888D02*
X13360658Y-12714936D01*
X13360658Y-12714936D02*
X13351134Y-12724460D01*
X13351134Y-12724460D02*
X13332086Y-12733984D01*
X13332086Y-12733984D02*
X13313039Y-12733984D01*
X13313039Y-12733984D02*
X13293991Y-12724460D01*
X13293991Y-12724460D02*
X13284467Y-12714936D01*
X13284467Y-12714936D02*
X13274943Y-12695888D01*
X13274943Y-12695888D02*
X13265420Y-12657793D01*
X13265420Y-12657793D02*
X13265420Y-12610174D01*
X13265420Y-12610174D02*
X13274943Y-12572079D01*
X13274943Y-12572079D02*
X13284467Y-12553031D01*
X13284467Y-12553031D02*
X13293991Y-12543508D01*
X13293991Y-12543508D02*
X13313039Y-12533984D01*
X13465420Y-12733984D02*
X13465420Y-12600650D01*
X13465420Y-12619698D02*
X13474943Y-12610174D01*
X13474943Y-12610174D02*
X13493991Y-12600650D01*
X13493991Y-12600650D02*
X13522563Y-12600650D01*
X13522563Y-12600650D02*
X13541610Y-12610174D01*
X13541610Y-12610174D02*
X13551134Y-12629222D01*
X13551134Y-12629222D02*
X13551134Y-12733984D01*
X13551134Y-12629222D02*
X13560658Y-12610174D01*
X13560658Y-12610174D02*
X13579705Y-12600650D01*
X13579705Y-12600650D02*
X13608277Y-12600650D01*
X13608277Y-12600650D02*
X13627324Y-12610174D01*
X13627324Y-12610174D02*
X13636848Y-12629222D01*
X13636848Y-12629222D02*
X13636848Y-12733984D01*
X13732086Y-12733984D02*
X13732086Y-12600650D01*
X13732086Y-12619698D02*
X13741610Y-12610174D01*
X13741610Y-12610174D02*
X13760658Y-12600650D01*
X13760658Y-12600650D02*
X13789229Y-12600650D01*
X13789229Y-12600650D02*
X13808277Y-12610174D01*
X13808277Y-12610174D02*
X13817801Y-12629222D01*
X13817801Y-12629222D02*
X13817801Y-12733984D01*
X13817801Y-12629222D02*
X13827324Y-12610174D01*
X13827324Y-12610174D02*
X13846372Y-12600650D01*
X13846372Y-12600650D02*
X13874943Y-12600650D01*
X13874943Y-12600650D02*
X13893991Y-12610174D01*
X13893991Y-12610174D02*
X13903515Y-12629222D01*
X13903515Y-12629222D02*
X13903515Y-12733984D01*
X14293991Y-12524460D02*
X14122563Y-12781603D01*
X14551134Y-12533984D02*
X14570182Y-12533984D01*
X14570182Y-12533984D02*
X14589229Y-12543508D01*
X14589229Y-12543508D02*
X14598753Y-12553031D01*
X14598753Y-12553031D02*
X14608277Y-12572079D01*
X14608277Y-12572079D02*
X14617801Y-12610174D01*
X14617801Y-12610174D02*
X14617801Y-12657793D01*
X14617801Y-12657793D02*
X14608277Y-12695888D01*
X14608277Y-12695888D02*
X14598753Y-12714936D01*
X14598753Y-12714936D02*
X14589229Y-12724460D01*
X14589229Y-12724460D02*
X14570182Y-12733984D01*
X14570182Y-12733984D02*
X14551134Y-12733984D01*
X14551134Y-12733984D02*
X14532086Y-12724460D01*
X14532086Y-12724460D02*
X14522563Y-12714936D01*
X14522563Y-12714936D02*
X14513039Y-12695888D01*
X14513039Y-12695888D02*
X14503515Y-12657793D01*
X14503515Y-12657793D02*
X14503515Y-12610174D01*
X14503515Y-12610174D02*
X14513039Y-12572079D01*
X14513039Y-12572079D02*
X14522563Y-12553031D01*
X14522563Y-12553031D02*
X14532086Y-12543508D01*
X14532086Y-12543508D02*
X14551134Y-12533984D01*
X14703515Y-12714936D02*
X14713039Y-12724460D01*
X14713039Y-12724460D02*
X14703515Y-12733984D01*
X14703515Y-12733984D02*
X14693991Y-12724460D01*
X14693991Y-12724460D02*
X14703515Y-12714936D01*
X14703515Y-12714936D02*
X14703515Y-12733984D01*
X14836848Y-12533984D02*
X14855896Y-12533984D01*
X14855896Y-12533984D02*
X14874944Y-12543508D01*
X14874944Y-12543508D02*
X14884467Y-12553031D01*
X14884467Y-12553031D02*
X14893991Y-12572079D01*
X14893991Y-12572079D02*
X14903515Y-12610174D01*
X14903515Y-12610174D02*
X14903515Y-12657793D01*
X14903515Y-12657793D02*
X14893991Y-12695888D01*
X14893991Y-12695888D02*
X14884467Y-12714936D01*
X14884467Y-12714936D02*
X14874944Y-12724460D01*
X14874944Y-12724460D02*
X14855896Y-12733984D01*
X14855896Y-12733984D02*
X14836848Y-12733984D01*
X14836848Y-12733984D02*
X14817801Y-12724460D01*
X14817801Y-12724460D02*
X14808277Y-12714936D01*
X14808277Y-12714936D02*
X14798753Y-12695888D01*
X14798753Y-12695888D02*
X14789229Y-12657793D01*
X14789229Y-12657793D02*
X14789229Y-12610174D01*
X14789229Y-12610174D02*
X14798753Y-12572079D01*
X14798753Y-12572079D02*
X14808277Y-12553031D01*
X14808277Y-12553031D02*
X14817801Y-12543508D01*
X14817801Y-12543508D02*
X14836848Y-12533984D01*
X15093991Y-12733984D02*
X14979706Y-12733984D01*
X15036848Y-12733984D02*
X15036848Y-12533984D01*
X15036848Y-12533984D02*
X15017801Y-12562555D01*
X15017801Y-12562555D02*
X14998753Y-12581603D01*
X14998753Y-12581603D02*
X14979706Y-12591127D01*
X15284467Y-12733984D02*
X15170182Y-12733984D01*
X15227325Y-12733984D02*
X15227325Y-12533984D01*
X15227325Y-12533984D02*
X15208277Y-12562555D01*
X15208277Y-12562555D02*
X15189229Y-12581603D01*
X15189229Y-12581603D02*
X15170182Y-12591127D01*
X15398753Y-12619698D02*
X15379706Y-12610174D01*
X15379706Y-12610174D02*
X15370182Y-12600650D01*
X15370182Y-12600650D02*
X15360658Y-12581603D01*
X15360658Y-12581603D02*
X15360658Y-12572079D01*
X15360658Y-12572079D02*
X15370182Y-12553031D01*
X15370182Y-12553031D02*
X15379706Y-12543508D01*
X15379706Y-12543508D02*
X15398753Y-12533984D01*
X15398753Y-12533984D02*
X15436848Y-12533984D01*
X15436848Y-12533984D02*
X15455896Y-12543508D01*
X15455896Y-12543508D02*
X15465420Y-12553031D01*
X15465420Y-12553031D02*
X15474944Y-12572079D01*
X15474944Y-12572079D02*
X15474944Y-12581603D01*
X15474944Y-12581603D02*
X15465420Y-12600650D01*
X15465420Y-12600650D02*
X15455896Y-12610174D01*
X15455896Y-12610174D02*
X15436848Y-12619698D01*
X15436848Y-12619698D02*
X15398753Y-12619698D01*
X15398753Y-12619698D02*
X15379706Y-12629222D01*
X15379706Y-12629222D02*
X15370182Y-12638746D01*
X15370182Y-12638746D02*
X15360658Y-12657793D01*
X15360658Y-12657793D02*
X15360658Y-12695888D01*
X15360658Y-12695888D02*
X15370182Y-12714936D01*
X15370182Y-12714936D02*
X15379706Y-12724460D01*
X15379706Y-12724460D02*
X15398753Y-12733984D01*
X15398753Y-12733984D02*
X15436848Y-12733984D01*
X15436848Y-12733984D02*
X15455896Y-12724460D01*
X15455896Y-12724460D02*
X15465420Y-12714936D01*
X15465420Y-12714936D02*
X15474944Y-12695888D01*
X15474944Y-12695888D02*
X15474944Y-12657793D01*
X15474944Y-12657793D02*
X15465420Y-12638746D01*
X15465420Y-12638746D02*
X15455896Y-12629222D01*
X15455896Y-12629222D02*
X15436848Y-12619698D01*
X15551134Y-12533984D02*
X15551134Y-12572079D01*
X15627325Y-12533984D02*
X15627325Y-12572079D01*
X15922563Y-12810174D02*
X15913039Y-12800650D01*
X15913039Y-12800650D02*
X15893991Y-12772079D01*
X15893991Y-12772079D02*
X15884468Y-12753031D01*
X15884468Y-12753031D02*
X15874944Y-12724460D01*
X15874944Y-12724460D02*
X15865420Y-12676841D01*
X15865420Y-12676841D02*
X15865420Y-12638746D01*
X15865420Y-12638746D02*
X15874944Y-12591127D01*
X15874944Y-12591127D02*
X15884468Y-12562555D01*
X15884468Y-12562555D02*
X15893991Y-12543508D01*
X15893991Y-12543508D02*
X15913039Y-12514936D01*
X15913039Y-12514936D02*
X15922563Y-12505412D01*
X16103515Y-12733984D02*
X15989229Y-12733984D01*
X16046372Y-12733984D02*
X16046372Y-12533984D01*
X16046372Y-12533984D02*
X16027325Y-12562555D01*
X16027325Y-12562555D02*
X16008277Y-12581603D01*
X16008277Y-12581603D02*
X15989229Y-12591127D01*
X16293991Y-12733984D02*
X16179706Y-12733984D01*
X16236848Y-12733984D02*
X16236848Y-12533984D01*
X16236848Y-12533984D02*
X16217801Y-12562555D01*
X16217801Y-12562555D02*
X16198753Y-12581603D01*
X16198753Y-12581603D02*
X16179706Y-12591127D01*
X16532087Y-12733984D02*
X16532087Y-12533984D01*
X16617801Y-12733984D02*
X16617801Y-12629222D01*
X16617801Y-12629222D02*
X16608277Y-12610174D01*
X16608277Y-12610174D02*
X16589230Y-12600650D01*
X16589230Y-12600650D02*
X16560658Y-12600650D01*
X16560658Y-12600650D02*
X16541610Y-12610174D01*
X16541610Y-12610174D02*
X16532087Y-12619698D01*
X16741610Y-12733984D02*
X16722563Y-12724460D01*
X16722563Y-12724460D02*
X16713039Y-12714936D01*
X16713039Y-12714936D02*
X16703515Y-12695888D01*
X16703515Y-12695888D02*
X16703515Y-12638746D01*
X16703515Y-12638746D02*
X16713039Y-12619698D01*
X16713039Y-12619698D02*
X16722563Y-12610174D01*
X16722563Y-12610174D02*
X16741610Y-12600650D01*
X16741610Y-12600650D02*
X16770182Y-12600650D01*
X16770182Y-12600650D02*
X16789230Y-12610174D01*
X16789230Y-12610174D02*
X16798753Y-12619698D01*
X16798753Y-12619698D02*
X16808277Y-12638746D01*
X16808277Y-12638746D02*
X16808277Y-12695888D01*
X16808277Y-12695888D02*
X16798753Y-12714936D01*
X16798753Y-12714936D02*
X16789230Y-12724460D01*
X16789230Y-12724460D02*
X16770182Y-12733984D01*
X16770182Y-12733984D02*
X16741610Y-12733984D01*
X16922563Y-12733984D02*
X16903515Y-12724460D01*
X16903515Y-12724460D02*
X16893992Y-12705412D01*
X16893992Y-12705412D02*
X16893992Y-12533984D01*
X17074944Y-12724460D02*
X17055896Y-12733984D01*
X17055896Y-12733984D02*
X17017801Y-12733984D01*
X17017801Y-12733984D02*
X16998753Y-12724460D01*
X16998753Y-12724460D02*
X16989230Y-12705412D01*
X16989230Y-12705412D02*
X16989230Y-12629222D01*
X16989230Y-12629222D02*
X16998753Y-12610174D01*
X16998753Y-12610174D02*
X17017801Y-12600650D01*
X17017801Y-12600650D02*
X17055896Y-12600650D01*
X17055896Y-12600650D02*
X17074944Y-12610174D01*
X17074944Y-12610174D02*
X17084468Y-12629222D01*
X17084468Y-12629222D02*
X17084468Y-12648269D01*
X17084468Y-12648269D02*
X16989230Y-12667317D01*
X17160658Y-12724460D02*
X17179706Y-12733984D01*
X17179706Y-12733984D02*
X17217801Y-12733984D01*
X17217801Y-12733984D02*
X17236849Y-12724460D01*
X17236849Y-12724460D02*
X17246373Y-12705412D01*
X17246373Y-12705412D02*
X17246373Y-12695888D01*
X17246373Y-12695888D02*
X17236849Y-12676841D01*
X17236849Y-12676841D02*
X17217801Y-12667317D01*
X17217801Y-12667317D02*
X17189230Y-12667317D01*
X17189230Y-12667317D02*
X17170182Y-12657793D01*
X17170182Y-12657793D02*
X17160658Y-12638746D01*
X17160658Y-12638746D02*
X17160658Y-12629222D01*
X17160658Y-12629222D02*
X17170182Y-12610174D01*
X17170182Y-12610174D02*
X17189230Y-12600650D01*
X17189230Y-12600650D02*
X17217801Y-12600650D01*
X17217801Y-12600650D02*
X17236849Y-12610174D01*
X17313039Y-12810174D02*
X17322563Y-12800650D01*
X17322563Y-12800650D02*
X17341611Y-12772079D01*
X17341611Y-12772079D02*
X17351134Y-12753031D01*
X17351134Y-12753031D02*
X17360658Y-12724460D01*
X17360658Y-12724460D02*
X17370182Y-12676841D01*
X17370182Y-12676841D02*
X17370182Y-12638746D01*
X17370182Y-12638746D02*
X17360658Y-12591127D01*
X17360658Y-12591127D02*
X17351134Y-12562555D01*
X17351134Y-12562555D02*
X17341611Y-12543508D01*
X17341611Y-12543508D02*
X17322563Y-12514936D01*
X17322563Y-12514936D02*
X17313039Y-12505412D01*
D12*
X12347500Y-12906500D02*
G75*
G02*
X12247500Y-12906500I-50000J0D01*
G01*
X12247500Y-12906500D02*
G75*
G02*
X12347500Y-12906500I50000J0D01*
G01*
D11*
X12713039Y-12997984D02*
X12598753Y-12997984D01*
X12655896Y-12997984D02*
X12655896Y-12797984D01*
X12655896Y-12797984D02*
X12636848Y-12826555D01*
X12636848Y-12826555D02*
X12617801Y-12845603D01*
X12617801Y-12845603D02*
X12598753Y-12855127D01*
X12798753Y-12978936D02*
X12808277Y-12988460D01*
X12808277Y-12988460D02*
X12798753Y-12997984D01*
X12798753Y-12997984D02*
X12789229Y-12988460D01*
X12789229Y-12988460D02*
X12798753Y-12978936D01*
X12798753Y-12978936D02*
X12798753Y-12997984D01*
X12932086Y-12797984D02*
X12951134Y-12797984D01*
X12951134Y-12797984D02*
X12970182Y-12807508D01*
X12970182Y-12807508D02*
X12979705Y-12817031D01*
X12979705Y-12817031D02*
X12989229Y-12836079D01*
X12989229Y-12836079D02*
X12998753Y-12874174D01*
X12998753Y-12874174D02*
X12998753Y-12921793D01*
X12998753Y-12921793D02*
X12989229Y-12959888D01*
X12989229Y-12959888D02*
X12979705Y-12978936D01*
X12979705Y-12978936D02*
X12970182Y-12988460D01*
X12970182Y-12988460D02*
X12951134Y-12997984D01*
X12951134Y-12997984D02*
X12932086Y-12997984D01*
X12932086Y-12997984D02*
X12913039Y-12988460D01*
X12913039Y-12988460D02*
X12903515Y-12978936D01*
X12903515Y-12978936D02*
X12893991Y-12959888D01*
X12893991Y-12959888D02*
X12884467Y-12921793D01*
X12884467Y-12921793D02*
X12884467Y-12874174D01*
X12884467Y-12874174D02*
X12893991Y-12836079D01*
X12893991Y-12836079D02*
X12903515Y-12817031D01*
X12903515Y-12817031D02*
X12913039Y-12807508D01*
X12913039Y-12807508D02*
X12932086Y-12797984D01*
X13122562Y-12797984D02*
X13141610Y-12797984D01*
X13141610Y-12797984D02*
X13160658Y-12807508D01*
X13160658Y-12807508D02*
X13170182Y-12817031D01*
X13170182Y-12817031D02*
X13179705Y-12836079D01*
X13179705Y-12836079D02*
X13189229Y-12874174D01*
X13189229Y-12874174D02*
X13189229Y-12921793D01*
X13189229Y-12921793D02*
X13179705Y-12959888D01*
X13179705Y-12959888D02*
X13170182Y-12978936D01*
X13170182Y-12978936D02*
X13160658Y-12988460D01*
X13160658Y-12988460D02*
X13141610Y-12997984D01*
X13141610Y-12997984D02*
X13122562Y-12997984D01*
X13122562Y-12997984D02*
X13103515Y-12988460D01*
X13103515Y-12988460D02*
X13093991Y-12978936D01*
X13093991Y-12978936D02*
X13084467Y-12959888D01*
X13084467Y-12959888D02*
X13074943Y-12921793D01*
X13074943Y-12921793D02*
X13074943Y-12874174D01*
X13074943Y-12874174D02*
X13084467Y-12836079D01*
X13084467Y-12836079D02*
X13093991Y-12817031D01*
X13093991Y-12817031D02*
X13103515Y-12807508D01*
X13103515Y-12807508D02*
X13122562Y-12797984D01*
X13313039Y-12797984D02*
X13332086Y-12797984D01*
X13332086Y-12797984D02*
X13351134Y-12807508D01*
X13351134Y-12807508D02*
X13360658Y-12817031D01*
X13360658Y-12817031D02*
X13370182Y-12836079D01*
X13370182Y-12836079D02*
X13379705Y-12874174D01*
X13379705Y-12874174D02*
X13379705Y-12921793D01*
X13379705Y-12921793D02*
X13370182Y-12959888D01*
X13370182Y-12959888D02*
X13360658Y-12978936D01*
X13360658Y-12978936D02*
X13351134Y-12988460D01*
X13351134Y-12988460D02*
X13332086Y-12997984D01*
X13332086Y-12997984D02*
X13313039Y-12997984D01*
X13313039Y-12997984D02*
X13293991Y-12988460D01*
X13293991Y-12988460D02*
X13284467Y-12978936D01*
X13284467Y-12978936D02*
X13274943Y-12959888D01*
X13274943Y-12959888D02*
X13265420Y-12921793D01*
X13265420Y-12921793D02*
X13265420Y-12874174D01*
X13265420Y-12874174D02*
X13274943Y-12836079D01*
X13274943Y-12836079D02*
X13284467Y-12817031D01*
X13284467Y-12817031D02*
X13293991Y-12807508D01*
X13293991Y-12807508D02*
X13313039Y-12797984D01*
X13465420Y-12997984D02*
X13465420Y-12864650D01*
X13465420Y-12883698D02*
X13474943Y-12874174D01*
X13474943Y-12874174D02*
X13493991Y-12864650D01*
X13493991Y-12864650D02*
X13522563Y-12864650D01*
X13522563Y-12864650D02*
X13541610Y-12874174D01*
X13541610Y-12874174D02*
X13551134Y-12893222D01*
X13551134Y-12893222D02*
X13551134Y-12997984D01*
X13551134Y-12893222D02*
X13560658Y-12874174D01*
X13560658Y-12874174D02*
X13579705Y-12864650D01*
X13579705Y-12864650D02*
X13608277Y-12864650D01*
X13608277Y-12864650D02*
X13627324Y-12874174D01*
X13627324Y-12874174D02*
X13636848Y-12893222D01*
X13636848Y-12893222D02*
X13636848Y-12997984D01*
X13732086Y-12997984D02*
X13732086Y-12864650D01*
X13732086Y-12883698D02*
X13741610Y-12874174D01*
X13741610Y-12874174D02*
X13760658Y-12864650D01*
X13760658Y-12864650D02*
X13789229Y-12864650D01*
X13789229Y-12864650D02*
X13808277Y-12874174D01*
X13808277Y-12874174D02*
X13817801Y-12893222D01*
X13817801Y-12893222D02*
X13817801Y-12997984D01*
X13817801Y-12893222D02*
X13827324Y-12874174D01*
X13827324Y-12874174D02*
X13846372Y-12864650D01*
X13846372Y-12864650D02*
X13874943Y-12864650D01*
X13874943Y-12864650D02*
X13893991Y-12874174D01*
X13893991Y-12874174D02*
X13903515Y-12893222D01*
X13903515Y-12893222D02*
X13903515Y-12997984D01*
X14293991Y-12788460D02*
X14122563Y-13045603D01*
X14551134Y-12797984D02*
X14570182Y-12797984D01*
X14570182Y-12797984D02*
X14589229Y-12807508D01*
X14589229Y-12807508D02*
X14598753Y-12817031D01*
X14598753Y-12817031D02*
X14608277Y-12836079D01*
X14608277Y-12836079D02*
X14617801Y-12874174D01*
X14617801Y-12874174D02*
X14617801Y-12921793D01*
X14617801Y-12921793D02*
X14608277Y-12959888D01*
X14608277Y-12959888D02*
X14598753Y-12978936D01*
X14598753Y-12978936D02*
X14589229Y-12988460D01*
X14589229Y-12988460D02*
X14570182Y-12997984D01*
X14570182Y-12997984D02*
X14551134Y-12997984D01*
X14551134Y-12997984D02*
X14532086Y-12988460D01*
X14532086Y-12988460D02*
X14522563Y-12978936D01*
X14522563Y-12978936D02*
X14513039Y-12959888D01*
X14513039Y-12959888D02*
X14503515Y-12921793D01*
X14503515Y-12921793D02*
X14503515Y-12874174D01*
X14503515Y-12874174D02*
X14513039Y-12836079D01*
X14513039Y-12836079D02*
X14522563Y-12817031D01*
X14522563Y-12817031D02*
X14532086Y-12807508D01*
X14532086Y-12807508D02*
X14551134Y-12797984D01*
X14703515Y-12978936D02*
X14713039Y-12988460D01*
X14713039Y-12988460D02*
X14703515Y-12997984D01*
X14703515Y-12997984D02*
X14693991Y-12988460D01*
X14693991Y-12988460D02*
X14703515Y-12978936D01*
X14703515Y-12978936D02*
X14703515Y-12997984D01*
X14836848Y-12797984D02*
X14855896Y-12797984D01*
X14855896Y-12797984D02*
X14874944Y-12807508D01*
X14874944Y-12807508D02*
X14884467Y-12817031D01*
X14884467Y-12817031D02*
X14893991Y-12836079D01*
X14893991Y-12836079D02*
X14903515Y-12874174D01*
X14903515Y-12874174D02*
X14903515Y-12921793D01*
X14903515Y-12921793D02*
X14893991Y-12959888D01*
X14893991Y-12959888D02*
X14884467Y-12978936D01*
X14884467Y-12978936D02*
X14874944Y-12988460D01*
X14874944Y-12988460D02*
X14855896Y-12997984D01*
X14855896Y-12997984D02*
X14836848Y-12997984D01*
X14836848Y-12997984D02*
X14817801Y-12988460D01*
X14817801Y-12988460D02*
X14808277Y-12978936D01*
X14808277Y-12978936D02*
X14798753Y-12959888D01*
X14798753Y-12959888D02*
X14789229Y-12921793D01*
X14789229Y-12921793D02*
X14789229Y-12874174D01*
X14789229Y-12874174D02*
X14798753Y-12836079D01*
X14798753Y-12836079D02*
X14808277Y-12817031D01*
X14808277Y-12817031D02*
X14817801Y-12807508D01*
X14817801Y-12807508D02*
X14836848Y-12797984D01*
X14970182Y-12797984D02*
X15093991Y-12797984D01*
X15093991Y-12797984D02*
X15027325Y-12874174D01*
X15027325Y-12874174D02*
X15055896Y-12874174D01*
X15055896Y-12874174D02*
X15074944Y-12883698D01*
X15074944Y-12883698D02*
X15084467Y-12893222D01*
X15084467Y-12893222D02*
X15093991Y-12912269D01*
X15093991Y-12912269D02*
X15093991Y-12959888D01*
X15093991Y-12959888D02*
X15084467Y-12978936D01*
X15084467Y-12978936D02*
X15074944Y-12988460D01*
X15074944Y-12988460D02*
X15055896Y-12997984D01*
X15055896Y-12997984D02*
X14998753Y-12997984D01*
X14998753Y-12997984D02*
X14979706Y-12988460D01*
X14979706Y-12988460D02*
X14970182Y-12978936D01*
X15189229Y-12997984D02*
X15227325Y-12997984D01*
X15227325Y-12997984D02*
X15246372Y-12988460D01*
X15246372Y-12988460D02*
X15255896Y-12978936D01*
X15255896Y-12978936D02*
X15274944Y-12950365D01*
X15274944Y-12950365D02*
X15284467Y-12912269D01*
X15284467Y-12912269D02*
X15284467Y-12836079D01*
X15284467Y-12836079D02*
X15274944Y-12817031D01*
X15274944Y-12817031D02*
X15265420Y-12807508D01*
X15265420Y-12807508D02*
X15246372Y-12797984D01*
X15246372Y-12797984D02*
X15208277Y-12797984D01*
X15208277Y-12797984D02*
X15189229Y-12807508D01*
X15189229Y-12807508D02*
X15179706Y-12817031D01*
X15179706Y-12817031D02*
X15170182Y-12836079D01*
X15170182Y-12836079D02*
X15170182Y-12883698D01*
X15170182Y-12883698D02*
X15179706Y-12902746D01*
X15179706Y-12902746D02*
X15189229Y-12912269D01*
X15189229Y-12912269D02*
X15208277Y-12921793D01*
X15208277Y-12921793D02*
X15246372Y-12921793D01*
X15246372Y-12921793D02*
X15265420Y-12912269D01*
X15265420Y-12912269D02*
X15274944Y-12902746D01*
X15274944Y-12902746D02*
X15284467Y-12883698D01*
X15455896Y-12864650D02*
X15455896Y-12997984D01*
X15408277Y-12788460D02*
X15360658Y-12931317D01*
X15360658Y-12931317D02*
X15484467Y-12931317D01*
X15551134Y-12797984D02*
X15551134Y-12836079D01*
X15627325Y-12797984D02*
X15627325Y-12836079D01*
X15922563Y-13074174D02*
X15913039Y-13064650D01*
X15913039Y-13064650D02*
X15893991Y-13036079D01*
X15893991Y-13036079D02*
X15884468Y-13017031D01*
X15884468Y-13017031D02*
X15874944Y-12988460D01*
X15874944Y-12988460D02*
X15865420Y-12940841D01*
X15865420Y-12940841D02*
X15865420Y-12902746D01*
X15865420Y-12902746D02*
X15874944Y-12855127D01*
X15874944Y-12855127D02*
X15884468Y-12826555D01*
X15884468Y-12826555D02*
X15893991Y-12807508D01*
X15893991Y-12807508D02*
X15913039Y-12778936D01*
X15913039Y-12778936D02*
X15922563Y-12769412D01*
X16103515Y-12997984D02*
X15989229Y-12997984D01*
X16046372Y-12997984D02*
X16046372Y-12797984D01*
X16046372Y-12797984D02*
X16027325Y-12826555D01*
X16027325Y-12826555D02*
X16008277Y-12845603D01*
X16008277Y-12845603D02*
X15989229Y-12855127D01*
X16170182Y-12797984D02*
X16293991Y-12797984D01*
X16293991Y-12797984D02*
X16227325Y-12874174D01*
X16227325Y-12874174D02*
X16255896Y-12874174D01*
X16255896Y-12874174D02*
X16274944Y-12883698D01*
X16274944Y-12883698D02*
X16284468Y-12893222D01*
X16284468Y-12893222D02*
X16293991Y-12912269D01*
X16293991Y-12912269D02*
X16293991Y-12959888D01*
X16293991Y-12959888D02*
X16284468Y-12978936D01*
X16284468Y-12978936D02*
X16274944Y-12988460D01*
X16274944Y-12988460D02*
X16255896Y-12997984D01*
X16255896Y-12997984D02*
X16198753Y-12997984D01*
X16198753Y-12997984D02*
X16179706Y-12988460D01*
X16179706Y-12988460D02*
X16170182Y-12978936D01*
X16532087Y-12997984D02*
X16532087Y-12797984D01*
X16617801Y-12997984D02*
X16617801Y-12893222D01*
X16617801Y-12893222D02*
X16608277Y-12874174D01*
X16608277Y-12874174D02*
X16589230Y-12864650D01*
X16589230Y-12864650D02*
X16560658Y-12864650D01*
X16560658Y-12864650D02*
X16541610Y-12874174D01*
X16541610Y-12874174D02*
X16532087Y-12883698D01*
X16741610Y-12997984D02*
X16722563Y-12988460D01*
X16722563Y-12988460D02*
X16713039Y-12978936D01*
X16713039Y-12978936D02*
X16703515Y-12959888D01*
X16703515Y-12959888D02*
X16703515Y-12902746D01*
X16703515Y-12902746D02*
X16713039Y-12883698D01*
X16713039Y-12883698D02*
X16722563Y-12874174D01*
X16722563Y-12874174D02*
X16741610Y-12864650D01*
X16741610Y-12864650D02*
X16770182Y-12864650D01*
X16770182Y-12864650D02*
X16789230Y-12874174D01*
X16789230Y-12874174D02*
X16798753Y-12883698D01*
X16798753Y-12883698D02*
X16808277Y-12902746D01*
X16808277Y-12902746D02*
X16808277Y-12959888D01*
X16808277Y-12959888D02*
X16798753Y-12978936D01*
X16798753Y-12978936D02*
X16789230Y-12988460D01*
X16789230Y-12988460D02*
X16770182Y-12997984D01*
X16770182Y-12997984D02*
X16741610Y-12997984D01*
X16922563Y-12997984D02*
X16903515Y-12988460D01*
X16903515Y-12988460D02*
X16893992Y-12969412D01*
X16893992Y-12969412D02*
X16893992Y-12797984D01*
X17074944Y-12988460D02*
X17055896Y-12997984D01*
X17055896Y-12997984D02*
X17017801Y-12997984D01*
X17017801Y-12997984D02*
X16998753Y-12988460D01*
X16998753Y-12988460D02*
X16989230Y-12969412D01*
X16989230Y-12969412D02*
X16989230Y-12893222D01*
X16989230Y-12893222D02*
X16998753Y-12874174D01*
X16998753Y-12874174D02*
X17017801Y-12864650D01*
X17017801Y-12864650D02*
X17055896Y-12864650D01*
X17055896Y-12864650D02*
X17074944Y-12874174D01*
X17074944Y-12874174D02*
X17084468Y-12893222D01*
X17084468Y-12893222D02*
X17084468Y-12912269D01*
X17084468Y-12912269D02*
X16989230Y-12931317D01*
X17160658Y-12988460D02*
X17179706Y-12997984D01*
X17179706Y-12997984D02*
X17217801Y-12997984D01*
X17217801Y-12997984D02*
X17236849Y-12988460D01*
X17236849Y-12988460D02*
X17246373Y-12969412D01*
X17246373Y-12969412D02*
X17246373Y-12959888D01*
X17246373Y-12959888D02*
X17236849Y-12940841D01*
X17236849Y-12940841D02*
X17217801Y-12931317D01*
X17217801Y-12931317D02*
X17189230Y-12931317D01*
X17189230Y-12931317D02*
X17170182Y-12921793D01*
X17170182Y-12921793D02*
X17160658Y-12902746D01*
X17160658Y-12902746D02*
X17160658Y-12893222D01*
X17160658Y-12893222D02*
X17170182Y-12874174D01*
X17170182Y-12874174D02*
X17189230Y-12864650D01*
X17189230Y-12864650D02*
X17217801Y-12864650D01*
X17217801Y-12864650D02*
X17236849Y-12874174D01*
X17313039Y-13074174D02*
X17322563Y-13064650D01*
X17322563Y-13064650D02*
X17341611Y-13036079D01*
X17341611Y-13036079D02*
X17351134Y-13017031D01*
X17351134Y-13017031D02*
X17360658Y-12988460D01*
X17360658Y-12988460D02*
X17370182Y-12940841D01*
X17370182Y-12940841D02*
X17370182Y-12902746D01*
X17370182Y-12902746D02*
X17360658Y-12855127D01*
X17360658Y-12855127D02*
X17351134Y-12826555D01*
X17351134Y-12826555D02*
X17341611Y-12807508D01*
X17341611Y-12807508D02*
X17322563Y-12778936D01*
X17322563Y-12778936D02*
X17313039Y-12769412D01*
M02*
