%TF.GenerationSoftware,KiCad,Pcbnew,9.0.6*%
%TF.CreationDate,2025-11-23T22:05:46-07:00*%
%TF.ProjectId,ChuaCircuit,43687561-4369-4726-9375-69742e6b6963,rev?*%
%TF.SameCoordinates,Original*%
%TF.FileFunction,Drillmap*%
%TF.FilePolarity,Positive*%
%FSLAX45Y45*%
G04 Gerber Fmt 4.5, Leading zero omitted, Abs format (unit mm)*
G04 Created by KiCad (PCBNEW 9.0.6) date 2025-11-23 22:05:46*
%MOMM*%
%LPD*%
G01*
G04 APERTURE LIST*
%ADD10C,0.050000*%
%ADD11C,0.200000*%
G04 APERTURE END LIST*
D10*
X12350000Y-12000000D02*
X12350000Y-8900000D01*
X15300000Y-8900000D02*
X12350000Y-8900000D01*
X15300000Y-12000000D02*
X15300000Y-8900000D01*
X15300000Y-12000000D02*
X12350000Y-12000000D01*
D11*
X12608277Y-12313984D02*
X12608277Y-12113984D01*
X12608277Y-12113984D02*
X12655896Y-12113984D01*
X12655896Y-12113984D02*
X12684467Y-12123508D01*
X12684467Y-12123508D02*
X12703515Y-12142555D01*
X12703515Y-12142555D02*
X12713039Y-12161603D01*
X12713039Y-12161603D02*
X12722562Y-12199698D01*
X12722562Y-12199698D02*
X12722562Y-12228269D01*
X12722562Y-12228269D02*
X12713039Y-12266365D01*
X12713039Y-12266365D02*
X12703515Y-12285412D01*
X12703515Y-12285412D02*
X12684467Y-12304460D01*
X12684467Y-12304460D02*
X12655896Y-12313984D01*
X12655896Y-12313984D02*
X12608277Y-12313984D01*
X12808277Y-12313984D02*
X12808277Y-12180650D01*
X12808277Y-12218746D02*
X12817801Y-12199698D01*
X12817801Y-12199698D02*
X12827324Y-12190174D01*
X12827324Y-12190174D02*
X12846372Y-12180650D01*
X12846372Y-12180650D02*
X12865420Y-12180650D01*
X12932086Y-12313984D02*
X12932086Y-12180650D01*
X12932086Y-12113984D02*
X12922562Y-12123508D01*
X12922562Y-12123508D02*
X12932086Y-12133031D01*
X12932086Y-12133031D02*
X12941610Y-12123508D01*
X12941610Y-12123508D02*
X12932086Y-12113984D01*
X12932086Y-12113984D02*
X12932086Y-12133031D01*
X13055896Y-12313984D02*
X13036848Y-12304460D01*
X13036848Y-12304460D02*
X13027324Y-12285412D01*
X13027324Y-12285412D02*
X13027324Y-12113984D01*
X13160658Y-12313984D02*
X13141610Y-12304460D01*
X13141610Y-12304460D02*
X13132086Y-12285412D01*
X13132086Y-12285412D02*
X13132086Y-12113984D01*
X13389229Y-12313984D02*
X13389229Y-12113984D01*
X13389229Y-12113984D02*
X13455896Y-12256841D01*
X13455896Y-12256841D02*
X13522562Y-12113984D01*
X13522562Y-12113984D02*
X13522562Y-12313984D01*
X13703515Y-12313984D02*
X13703515Y-12209222D01*
X13703515Y-12209222D02*
X13693991Y-12190174D01*
X13693991Y-12190174D02*
X13674943Y-12180650D01*
X13674943Y-12180650D02*
X13636848Y-12180650D01*
X13636848Y-12180650D02*
X13617801Y-12190174D01*
X13703515Y-12304460D02*
X13684467Y-12313984D01*
X13684467Y-12313984D02*
X13636848Y-12313984D01*
X13636848Y-12313984D02*
X13617801Y-12304460D01*
X13617801Y-12304460D02*
X13608277Y-12285412D01*
X13608277Y-12285412D02*
X13608277Y-12266365D01*
X13608277Y-12266365D02*
X13617801Y-12247317D01*
X13617801Y-12247317D02*
X13636848Y-12237793D01*
X13636848Y-12237793D02*
X13684467Y-12237793D01*
X13684467Y-12237793D02*
X13703515Y-12228269D01*
X13798753Y-12180650D02*
X13798753Y-12380650D01*
X13798753Y-12190174D02*
X13817801Y-12180650D01*
X13817801Y-12180650D02*
X13855896Y-12180650D01*
X13855896Y-12180650D02*
X13874943Y-12190174D01*
X13874943Y-12190174D02*
X13884467Y-12199698D01*
X13884467Y-12199698D02*
X13893991Y-12218746D01*
X13893991Y-12218746D02*
X13893991Y-12275888D01*
X13893991Y-12275888D02*
X13884467Y-12294936D01*
X13884467Y-12294936D02*
X13874943Y-12304460D01*
X13874943Y-12304460D02*
X13855896Y-12313984D01*
X13855896Y-12313984D02*
X13817801Y-12313984D01*
X13817801Y-12313984D02*
X13798753Y-12304460D01*
X13979705Y-12294936D02*
X13989229Y-12304460D01*
X13989229Y-12304460D02*
X13979705Y-12313984D01*
X13979705Y-12313984D02*
X13970182Y-12304460D01*
X13970182Y-12304460D02*
X13979705Y-12294936D01*
X13979705Y-12294936D02*
X13979705Y-12313984D01*
X13979705Y-12190174D02*
X13989229Y-12199698D01*
X13989229Y-12199698D02*
X13979705Y-12209222D01*
X13979705Y-12209222D02*
X13970182Y-12199698D01*
X13970182Y-12199698D02*
X13979705Y-12190174D01*
X13979705Y-12190174D02*
X13979705Y-12209222D01*
M02*
