%TF.GenerationSoftware,KiCad,Pcbnew,9.0.6*%
%TF.CreationDate,2025-11-23T22:05:43-07:00*%
%TF.ProjectId,ChuaCircuit,43687561-4369-4726-9375-69742e6b6963,rev?*%
%TF.SameCoordinates,Original*%
%TF.FileFunction,Copper,L1,Top*%
%TF.FilePolarity,Positive*%
%FSLAX46Y46*%
G04 Gerber Fmt 4.6, Leading zero omitted, Abs format (unit mm)*
G04 Created by KiCad (PCBNEW 9.0.6) date 2025-11-23 22:05:43*
%MOMM*%
%LPD*%
G01*
G04 APERTURE LIST*
G04 Aperture macros list*
%AMRoundRect*
0 Rectangle with rounded corners*
0 $1 Rounding radius*
0 $2 $3 $4 $5 $6 $7 $8 $9 X,Y pos of 4 corners*
0 Add a 4 corners polygon primitive as box body*
4,1,4,$2,$3,$4,$5,$6,$7,$8,$9,$2,$3,0*
0 Add four circle primitives for the rounded corners*
1,1,$1+$1,$2,$3*
1,1,$1+$1,$4,$5*
1,1,$1+$1,$6,$7*
1,1,$1+$1,$8,$9*
0 Add four rect primitives between the rounded corners*
20,1,$1+$1,$2,$3,$4,$5,0*
20,1,$1+$1,$4,$5,$6,$7,0*
20,1,$1+$1,$6,$7,$8,$9,0*
20,1,$1+$1,$8,$9,$2,$3,0*%
G04 Aperture macros list end*
%ADD10C,0.100000*%
%ADD11C,0.150000*%
%ADD12C,0.300000*%
%ADD13C,0.400000*%
%TA.AperFunction,SMDPad,CuDef*%
%ADD14R,1.525000X0.650000*%
%TD*%
%TA.AperFunction,ComponentPad*%
%ADD15R,1.700000X1.700000*%
%TD*%
%TA.AperFunction,SMDPad,CuDef*%
%ADD16R,1.525000X0.700000*%
%TD*%
%TA.AperFunction,SMDPad,CuDef*%
%ADD17RoundRect,0.225000X0.250000X-0.225000X0.250000X0.225000X-0.250000X0.225000X-0.250000X-0.225000X0*%
%TD*%
%TA.AperFunction,SMDPad,CuDef*%
%ADD18RoundRect,0.200000X-0.275000X0.200000X-0.275000X-0.200000X0.275000X-0.200000X0.275000X0.200000X0*%
%TD*%
%TA.AperFunction,SMDPad,CuDef*%
%ADD19RoundRect,0.200000X0.275000X-0.200000X0.275000X0.200000X-0.275000X0.200000X-0.275000X-0.200000X0*%
%TD*%
%TA.AperFunction,SMDPad,CuDef*%
%ADD20RoundRect,0.250000X-0.325000X-0.650000X0.325000X-0.650000X0.325000X0.650000X-0.325000X0.650000X0*%
%TD*%
%TA.AperFunction,ComponentPad*%
%ADD21C,1.700000*%
%TD*%
%TA.AperFunction,SMDPad,CuDef*%
%ADD22RoundRect,0.225000X-0.225000X-0.250000X0.225000X-0.250000X0.225000X0.250000X-0.225000X0.250000X0*%
%TD*%
%TA.AperFunction,SMDPad,CuDef*%
%ADD23RoundRect,0.250000X0.650000X-0.325000X0.650000X0.325000X-0.650000X0.325000X-0.650000X-0.325000X0*%
%TD*%
%TA.AperFunction,ViaPad*%
%ADD24C,0.600000*%
%TD*%
%TA.AperFunction,Conductor*%
%ADD25C,0.200000*%
%TD*%
G04 APERTURE END LIST*
D10*
D11*
X177002200Y-166007200D02*
X285002200Y-166007200D01*
X285002200Y-198007200D01*
X177002200Y-198007200D01*
X177002200Y-166007200D01*
D10*
D11*
X10000000Y-10000000D02*
X287002200Y-10000000D01*
X287002200Y-200007200D01*
X10000000Y-200007200D01*
X10000000Y-10000000D01*
D10*
D11*
X12000000Y-12000000D02*
X285002200Y-12000000D01*
X285002200Y-198007200D01*
X12000000Y-198007200D01*
X12000000Y-12000000D01*
D10*
D11*
X60000000Y-12000000D02*
X60000000Y-10000000D01*
D10*
D11*
X110000000Y-12000000D02*
X110000000Y-10000000D01*
D10*
D11*
X160000000Y-12000000D02*
X160000000Y-10000000D01*
D10*
D11*
X210000000Y-12000000D02*
X210000000Y-10000000D01*
D10*
D11*
X260000000Y-12000000D02*
X260000000Y-10000000D01*
D10*
D11*
X36089160Y-11593604D02*
X35346303Y-11593604D01*
X35717731Y-11593604D02*
X35717731Y-10293604D01*
X35717731Y-10293604D02*
X35593922Y-10479319D01*
X35593922Y-10479319D02*
X35470112Y-10603128D01*
X35470112Y-10603128D02*
X35346303Y-10665033D01*
D10*
D11*
X85346303Y-10417414D02*
X85408207Y-10355509D01*
X85408207Y-10355509D02*
X85532017Y-10293604D01*
X85532017Y-10293604D02*
X85841541Y-10293604D01*
X85841541Y-10293604D02*
X85965350Y-10355509D01*
X85965350Y-10355509D02*
X86027255Y-10417414D01*
X86027255Y-10417414D02*
X86089160Y-10541223D01*
X86089160Y-10541223D02*
X86089160Y-10665033D01*
X86089160Y-10665033D02*
X86027255Y-10850747D01*
X86027255Y-10850747D02*
X85284398Y-11593604D01*
X85284398Y-11593604D02*
X86089160Y-11593604D01*
D10*
D11*
X135284398Y-10293604D02*
X136089160Y-10293604D01*
X136089160Y-10293604D02*
X135655826Y-10788842D01*
X135655826Y-10788842D02*
X135841541Y-10788842D01*
X135841541Y-10788842D02*
X135965350Y-10850747D01*
X135965350Y-10850747D02*
X136027255Y-10912652D01*
X136027255Y-10912652D02*
X136089160Y-11036461D01*
X136089160Y-11036461D02*
X136089160Y-11345985D01*
X136089160Y-11345985D02*
X136027255Y-11469795D01*
X136027255Y-11469795D02*
X135965350Y-11531700D01*
X135965350Y-11531700D02*
X135841541Y-11593604D01*
X135841541Y-11593604D02*
X135470112Y-11593604D01*
X135470112Y-11593604D02*
X135346303Y-11531700D01*
X135346303Y-11531700D02*
X135284398Y-11469795D01*
D10*
D11*
X185965350Y-10726938D02*
X185965350Y-11593604D01*
X185655826Y-10231700D02*
X185346303Y-11160271D01*
X185346303Y-11160271D02*
X186151064Y-11160271D01*
D10*
D11*
X236027255Y-10293604D02*
X235408207Y-10293604D01*
X235408207Y-10293604D02*
X235346303Y-10912652D01*
X235346303Y-10912652D02*
X235408207Y-10850747D01*
X235408207Y-10850747D02*
X235532017Y-10788842D01*
X235532017Y-10788842D02*
X235841541Y-10788842D01*
X235841541Y-10788842D02*
X235965350Y-10850747D01*
X235965350Y-10850747D02*
X236027255Y-10912652D01*
X236027255Y-10912652D02*
X236089160Y-11036461D01*
X236089160Y-11036461D02*
X236089160Y-11345985D01*
X236089160Y-11345985D02*
X236027255Y-11469795D01*
X236027255Y-11469795D02*
X235965350Y-11531700D01*
X235965350Y-11531700D02*
X235841541Y-11593604D01*
X235841541Y-11593604D02*
X235532017Y-11593604D01*
X235532017Y-11593604D02*
X235408207Y-11531700D01*
X235408207Y-11531700D02*
X235346303Y-11469795D01*
D10*
D11*
X285965350Y-10293604D02*
X285717731Y-10293604D01*
X285717731Y-10293604D02*
X285593922Y-10355509D01*
X285593922Y-10355509D02*
X285532017Y-10417414D01*
X285532017Y-10417414D02*
X285408207Y-10603128D01*
X285408207Y-10603128D02*
X285346303Y-10850747D01*
X285346303Y-10850747D02*
X285346303Y-11345985D01*
X285346303Y-11345985D02*
X285408207Y-11469795D01*
X285408207Y-11469795D02*
X285470112Y-11531700D01*
X285470112Y-11531700D02*
X285593922Y-11593604D01*
X285593922Y-11593604D02*
X285841541Y-11593604D01*
X285841541Y-11593604D02*
X285965350Y-11531700D01*
X285965350Y-11531700D02*
X286027255Y-11469795D01*
X286027255Y-11469795D02*
X286089160Y-11345985D01*
X286089160Y-11345985D02*
X286089160Y-11036461D01*
X286089160Y-11036461D02*
X286027255Y-10912652D01*
X286027255Y-10912652D02*
X285965350Y-10850747D01*
X285965350Y-10850747D02*
X285841541Y-10788842D01*
X285841541Y-10788842D02*
X285593922Y-10788842D01*
X285593922Y-10788842D02*
X285470112Y-10850747D01*
X285470112Y-10850747D02*
X285408207Y-10912652D01*
X285408207Y-10912652D02*
X285346303Y-11036461D01*
D10*
D11*
X60000000Y-198007200D02*
X60000000Y-200007200D01*
D10*
D11*
X110000000Y-198007200D02*
X110000000Y-200007200D01*
D10*
D11*
X160000000Y-198007200D02*
X160000000Y-200007200D01*
D10*
D11*
X210000000Y-198007200D02*
X210000000Y-200007200D01*
D10*
D11*
X260000000Y-198007200D02*
X260000000Y-200007200D01*
D10*
D11*
X36089160Y-199600804D02*
X35346303Y-199600804D01*
X35717731Y-199600804D02*
X35717731Y-198300804D01*
X35717731Y-198300804D02*
X35593922Y-198486519D01*
X35593922Y-198486519D02*
X35470112Y-198610328D01*
X35470112Y-198610328D02*
X35346303Y-198672233D01*
D10*
D11*
X85346303Y-198424614D02*
X85408207Y-198362709D01*
X85408207Y-198362709D02*
X85532017Y-198300804D01*
X85532017Y-198300804D02*
X85841541Y-198300804D01*
X85841541Y-198300804D02*
X85965350Y-198362709D01*
X85965350Y-198362709D02*
X86027255Y-198424614D01*
X86027255Y-198424614D02*
X86089160Y-198548423D01*
X86089160Y-198548423D02*
X86089160Y-198672233D01*
X86089160Y-198672233D02*
X86027255Y-198857947D01*
X86027255Y-198857947D02*
X85284398Y-199600804D01*
X85284398Y-199600804D02*
X86089160Y-199600804D01*
D10*
D11*
X135284398Y-198300804D02*
X136089160Y-198300804D01*
X136089160Y-198300804D02*
X135655826Y-198796042D01*
X135655826Y-198796042D02*
X135841541Y-198796042D01*
X135841541Y-198796042D02*
X135965350Y-198857947D01*
X135965350Y-198857947D02*
X136027255Y-198919852D01*
X136027255Y-198919852D02*
X136089160Y-199043661D01*
X136089160Y-199043661D02*
X136089160Y-199353185D01*
X136089160Y-199353185D02*
X136027255Y-199476995D01*
X136027255Y-199476995D02*
X135965350Y-199538900D01*
X135965350Y-199538900D02*
X135841541Y-199600804D01*
X135841541Y-199600804D02*
X135470112Y-199600804D01*
X135470112Y-199600804D02*
X135346303Y-199538900D01*
X135346303Y-199538900D02*
X135284398Y-199476995D01*
D10*
D11*
X185965350Y-198734138D02*
X185965350Y-199600804D01*
X185655826Y-198238900D02*
X185346303Y-199167471D01*
X185346303Y-199167471D02*
X186151064Y-199167471D01*
D10*
D11*
X236027255Y-198300804D02*
X235408207Y-198300804D01*
X235408207Y-198300804D02*
X235346303Y-198919852D01*
X235346303Y-198919852D02*
X235408207Y-198857947D01*
X235408207Y-198857947D02*
X235532017Y-198796042D01*
X235532017Y-198796042D02*
X235841541Y-198796042D01*
X235841541Y-198796042D02*
X235965350Y-198857947D01*
X235965350Y-198857947D02*
X236027255Y-198919852D01*
X236027255Y-198919852D02*
X236089160Y-199043661D01*
X236089160Y-199043661D02*
X236089160Y-199353185D01*
X236089160Y-199353185D02*
X236027255Y-199476995D01*
X236027255Y-199476995D02*
X235965350Y-199538900D01*
X235965350Y-199538900D02*
X235841541Y-199600804D01*
X235841541Y-199600804D02*
X235532017Y-199600804D01*
X235532017Y-199600804D02*
X235408207Y-199538900D01*
X235408207Y-199538900D02*
X235346303Y-199476995D01*
D10*
D11*
X285965350Y-198300804D02*
X285717731Y-198300804D01*
X285717731Y-198300804D02*
X285593922Y-198362709D01*
X285593922Y-198362709D02*
X285532017Y-198424614D01*
X285532017Y-198424614D02*
X285408207Y-198610328D01*
X285408207Y-198610328D02*
X285346303Y-198857947D01*
X285346303Y-198857947D02*
X285346303Y-199353185D01*
X285346303Y-199353185D02*
X285408207Y-199476995D01*
X285408207Y-199476995D02*
X285470112Y-199538900D01*
X285470112Y-199538900D02*
X285593922Y-199600804D01*
X285593922Y-199600804D02*
X285841541Y-199600804D01*
X285841541Y-199600804D02*
X285965350Y-199538900D01*
X285965350Y-199538900D02*
X286027255Y-199476995D01*
X286027255Y-199476995D02*
X286089160Y-199353185D01*
X286089160Y-199353185D02*
X286089160Y-199043661D01*
X286089160Y-199043661D02*
X286027255Y-198919852D01*
X286027255Y-198919852D02*
X285965350Y-198857947D01*
X285965350Y-198857947D02*
X285841541Y-198796042D01*
X285841541Y-198796042D02*
X285593922Y-198796042D01*
X285593922Y-198796042D02*
X285470112Y-198857947D01*
X285470112Y-198857947D02*
X285408207Y-198919852D01*
X285408207Y-198919852D02*
X285346303Y-199043661D01*
D10*
D11*
X10000000Y-60000000D02*
X12000000Y-60000000D01*
D10*
D11*
X10000000Y-110000000D02*
X12000000Y-110000000D01*
D10*
D11*
X10000000Y-160000000D02*
X12000000Y-160000000D01*
D10*
D11*
X10690476Y-35222176D02*
X11309523Y-35222176D01*
X10566666Y-35593604D02*
X10999999Y-34293604D01*
X10999999Y-34293604D02*
X11433333Y-35593604D01*
D10*
D11*
X11092857Y-84912652D02*
X11278571Y-84974557D01*
X11278571Y-84974557D02*
X11340476Y-85036461D01*
X11340476Y-85036461D02*
X11402380Y-85160271D01*
X11402380Y-85160271D02*
X11402380Y-85345985D01*
X11402380Y-85345985D02*
X11340476Y-85469795D01*
X11340476Y-85469795D02*
X11278571Y-85531700D01*
X11278571Y-85531700D02*
X11154761Y-85593604D01*
X11154761Y-85593604D02*
X10659523Y-85593604D01*
X10659523Y-85593604D02*
X10659523Y-84293604D01*
X10659523Y-84293604D02*
X11092857Y-84293604D01*
X11092857Y-84293604D02*
X11216666Y-84355509D01*
X11216666Y-84355509D02*
X11278571Y-84417414D01*
X11278571Y-84417414D02*
X11340476Y-84541223D01*
X11340476Y-84541223D02*
X11340476Y-84665033D01*
X11340476Y-84665033D02*
X11278571Y-84788842D01*
X11278571Y-84788842D02*
X11216666Y-84850747D01*
X11216666Y-84850747D02*
X11092857Y-84912652D01*
X11092857Y-84912652D02*
X10659523Y-84912652D01*
D10*
D11*
X11402380Y-135469795D02*
X11340476Y-135531700D01*
X11340476Y-135531700D02*
X11154761Y-135593604D01*
X11154761Y-135593604D02*
X11030952Y-135593604D01*
X11030952Y-135593604D02*
X10845238Y-135531700D01*
X10845238Y-135531700D02*
X10721428Y-135407890D01*
X10721428Y-135407890D02*
X10659523Y-135284080D01*
X10659523Y-135284080D02*
X10597619Y-135036461D01*
X10597619Y-135036461D02*
X10597619Y-134850747D01*
X10597619Y-134850747D02*
X10659523Y-134603128D01*
X10659523Y-134603128D02*
X10721428Y-134479319D01*
X10721428Y-134479319D02*
X10845238Y-134355509D01*
X10845238Y-134355509D02*
X11030952Y-134293604D01*
X11030952Y-134293604D02*
X11154761Y-134293604D01*
X11154761Y-134293604D02*
X11340476Y-134355509D01*
X11340476Y-134355509D02*
X11402380Y-134417414D01*
D10*
D11*
X10659523Y-185593604D02*
X10659523Y-184293604D01*
X10659523Y-184293604D02*
X10969047Y-184293604D01*
X10969047Y-184293604D02*
X11154761Y-184355509D01*
X11154761Y-184355509D02*
X11278571Y-184479319D01*
X11278571Y-184479319D02*
X11340476Y-184603128D01*
X11340476Y-184603128D02*
X11402380Y-184850747D01*
X11402380Y-184850747D02*
X11402380Y-185036461D01*
X11402380Y-185036461D02*
X11340476Y-185284080D01*
X11340476Y-185284080D02*
X11278571Y-185407890D01*
X11278571Y-185407890D02*
X11154761Y-185531700D01*
X11154761Y-185531700D02*
X10969047Y-185593604D01*
X10969047Y-185593604D02*
X10659523Y-185593604D01*
D10*
D11*
X287002200Y-60000000D02*
X285002200Y-60000000D01*
D10*
D11*
X287002200Y-110000000D02*
X285002200Y-110000000D01*
D10*
D11*
X287002200Y-160000000D02*
X285002200Y-160000000D01*
D10*
D11*
X285692676Y-35222176D02*
X286311723Y-35222176D01*
X285568866Y-35593604D02*
X286002199Y-34293604D01*
X286002199Y-34293604D02*
X286435533Y-35593604D01*
D10*
D11*
X286095057Y-84912652D02*
X286280771Y-84974557D01*
X286280771Y-84974557D02*
X286342676Y-85036461D01*
X286342676Y-85036461D02*
X286404580Y-85160271D01*
X286404580Y-85160271D02*
X286404580Y-85345985D01*
X286404580Y-85345985D02*
X286342676Y-85469795D01*
X286342676Y-85469795D02*
X286280771Y-85531700D01*
X286280771Y-85531700D02*
X286156961Y-85593604D01*
X286156961Y-85593604D02*
X285661723Y-85593604D01*
X285661723Y-85593604D02*
X285661723Y-84293604D01*
X285661723Y-84293604D02*
X286095057Y-84293604D01*
X286095057Y-84293604D02*
X286218866Y-84355509D01*
X286218866Y-84355509D02*
X286280771Y-84417414D01*
X286280771Y-84417414D02*
X286342676Y-84541223D01*
X286342676Y-84541223D02*
X286342676Y-84665033D01*
X286342676Y-84665033D02*
X286280771Y-84788842D01*
X286280771Y-84788842D02*
X286218866Y-84850747D01*
X286218866Y-84850747D02*
X286095057Y-84912652D01*
X286095057Y-84912652D02*
X285661723Y-84912652D01*
D10*
D11*
X286404580Y-135469795D02*
X286342676Y-135531700D01*
X286342676Y-135531700D02*
X286156961Y-135593604D01*
X286156961Y-135593604D02*
X286033152Y-135593604D01*
X286033152Y-135593604D02*
X285847438Y-135531700D01*
X285847438Y-135531700D02*
X285723628Y-135407890D01*
X285723628Y-135407890D02*
X285661723Y-135284080D01*
X285661723Y-135284080D02*
X285599819Y-135036461D01*
X285599819Y-135036461D02*
X285599819Y-134850747D01*
X285599819Y-134850747D02*
X285661723Y-134603128D01*
X285661723Y-134603128D02*
X285723628Y-134479319D01*
X285723628Y-134479319D02*
X285847438Y-134355509D01*
X285847438Y-134355509D02*
X286033152Y-134293604D01*
X286033152Y-134293604D02*
X286156961Y-134293604D01*
X286156961Y-134293604D02*
X286342676Y-134355509D01*
X286342676Y-134355509D02*
X286404580Y-134417414D01*
D10*
D11*
X285661723Y-185593604D02*
X285661723Y-184293604D01*
X285661723Y-184293604D02*
X285971247Y-184293604D01*
X285971247Y-184293604D02*
X286156961Y-184355509D01*
X286156961Y-184355509D02*
X286280771Y-184479319D01*
X286280771Y-184479319D02*
X286342676Y-184603128D01*
X286342676Y-184603128D02*
X286404580Y-184850747D01*
X286404580Y-184850747D02*
X286404580Y-185036461D01*
X286404580Y-185036461D02*
X286342676Y-185284080D01*
X286342676Y-185284080D02*
X286280771Y-185407890D01*
X286280771Y-185407890D02*
X286156961Y-185531700D01*
X286156961Y-185531700D02*
X285971247Y-185593604D01*
X285971247Y-185593604D02*
X285661723Y-185593604D01*
D10*
D11*
X200458026Y-193793328D02*
X200458026Y-192293328D01*
X200458026Y-192293328D02*
X200815169Y-192293328D01*
X200815169Y-192293328D02*
X201029455Y-192364757D01*
X201029455Y-192364757D02*
X201172312Y-192507614D01*
X201172312Y-192507614D02*
X201243741Y-192650471D01*
X201243741Y-192650471D02*
X201315169Y-192936185D01*
X201315169Y-192936185D02*
X201315169Y-193150471D01*
X201315169Y-193150471D02*
X201243741Y-193436185D01*
X201243741Y-193436185D02*
X201172312Y-193579042D01*
X201172312Y-193579042D02*
X201029455Y-193721900D01*
X201029455Y-193721900D02*
X200815169Y-193793328D01*
X200815169Y-193793328D02*
X200458026Y-193793328D01*
X202600884Y-193793328D02*
X202600884Y-193007614D01*
X202600884Y-193007614D02*
X202529455Y-192864757D01*
X202529455Y-192864757D02*
X202386598Y-192793328D01*
X202386598Y-192793328D02*
X202100884Y-192793328D01*
X202100884Y-192793328D02*
X201958026Y-192864757D01*
X202600884Y-193721900D02*
X202458026Y-193793328D01*
X202458026Y-193793328D02*
X202100884Y-193793328D01*
X202100884Y-193793328D02*
X201958026Y-193721900D01*
X201958026Y-193721900D02*
X201886598Y-193579042D01*
X201886598Y-193579042D02*
X201886598Y-193436185D01*
X201886598Y-193436185D02*
X201958026Y-193293328D01*
X201958026Y-193293328D02*
X202100884Y-193221900D01*
X202100884Y-193221900D02*
X202458026Y-193221900D01*
X202458026Y-193221900D02*
X202600884Y-193150471D01*
X203100884Y-192793328D02*
X203672312Y-192793328D01*
X203315169Y-192293328D02*
X203315169Y-193579042D01*
X203315169Y-193579042D02*
X203386598Y-193721900D01*
X203386598Y-193721900D02*
X203529455Y-193793328D01*
X203529455Y-193793328D02*
X203672312Y-193793328D01*
X204743741Y-193721900D02*
X204600884Y-193793328D01*
X204600884Y-193793328D02*
X204315170Y-193793328D01*
X204315170Y-193793328D02*
X204172312Y-193721900D01*
X204172312Y-193721900D02*
X204100884Y-193579042D01*
X204100884Y-193579042D02*
X204100884Y-193007614D01*
X204100884Y-193007614D02*
X204172312Y-192864757D01*
X204172312Y-192864757D02*
X204315170Y-192793328D01*
X204315170Y-192793328D02*
X204600884Y-192793328D01*
X204600884Y-192793328D02*
X204743741Y-192864757D01*
X204743741Y-192864757D02*
X204815170Y-193007614D01*
X204815170Y-193007614D02*
X204815170Y-193150471D01*
X204815170Y-193150471D02*
X204100884Y-193293328D01*
X205458026Y-193650471D02*
X205529455Y-193721900D01*
X205529455Y-193721900D02*
X205458026Y-193793328D01*
X205458026Y-193793328D02*
X205386598Y-193721900D01*
X205386598Y-193721900D02*
X205458026Y-193650471D01*
X205458026Y-193650471D02*
X205458026Y-193793328D01*
X205458026Y-192864757D02*
X205529455Y-192936185D01*
X205529455Y-192936185D02*
X205458026Y-193007614D01*
X205458026Y-193007614D02*
X205386598Y-192936185D01*
X205386598Y-192936185D02*
X205458026Y-192864757D01*
X205458026Y-192864757D02*
X205458026Y-193007614D01*
D10*
D11*
X177002200Y-194507200D02*
X285002200Y-194507200D01*
D10*
D11*
X178458026Y-196593328D02*
X178458026Y-195093328D01*
X179315169Y-196593328D02*
X178672312Y-195736185D01*
X179315169Y-195093328D02*
X178458026Y-195950471D01*
X179958026Y-196593328D02*
X179958026Y-195593328D01*
X179958026Y-195093328D02*
X179886598Y-195164757D01*
X179886598Y-195164757D02*
X179958026Y-195236185D01*
X179958026Y-195236185D02*
X180029455Y-195164757D01*
X180029455Y-195164757D02*
X179958026Y-195093328D01*
X179958026Y-195093328D02*
X179958026Y-195236185D01*
X181529455Y-196450471D02*
X181458027Y-196521900D01*
X181458027Y-196521900D02*
X181243741Y-196593328D01*
X181243741Y-196593328D02*
X181100884Y-196593328D01*
X181100884Y-196593328D02*
X180886598Y-196521900D01*
X180886598Y-196521900D02*
X180743741Y-196379042D01*
X180743741Y-196379042D02*
X180672312Y-196236185D01*
X180672312Y-196236185D02*
X180600884Y-195950471D01*
X180600884Y-195950471D02*
X180600884Y-195736185D01*
X180600884Y-195736185D02*
X180672312Y-195450471D01*
X180672312Y-195450471D02*
X180743741Y-195307614D01*
X180743741Y-195307614D02*
X180886598Y-195164757D01*
X180886598Y-195164757D02*
X181100884Y-195093328D01*
X181100884Y-195093328D02*
X181243741Y-195093328D01*
X181243741Y-195093328D02*
X181458027Y-195164757D01*
X181458027Y-195164757D02*
X181529455Y-195236185D01*
X182815170Y-196593328D02*
X182815170Y-195807614D01*
X182815170Y-195807614D02*
X182743741Y-195664757D01*
X182743741Y-195664757D02*
X182600884Y-195593328D01*
X182600884Y-195593328D02*
X182315170Y-195593328D01*
X182315170Y-195593328D02*
X182172312Y-195664757D01*
X182815170Y-196521900D02*
X182672312Y-196593328D01*
X182672312Y-196593328D02*
X182315170Y-196593328D01*
X182315170Y-196593328D02*
X182172312Y-196521900D01*
X182172312Y-196521900D02*
X182100884Y-196379042D01*
X182100884Y-196379042D02*
X182100884Y-196236185D01*
X182100884Y-196236185D02*
X182172312Y-196093328D01*
X182172312Y-196093328D02*
X182315170Y-196021900D01*
X182315170Y-196021900D02*
X182672312Y-196021900D01*
X182672312Y-196021900D02*
X182815170Y-195950471D01*
X184172313Y-196593328D02*
X184172313Y-195093328D01*
X184172313Y-196521900D02*
X184029455Y-196593328D01*
X184029455Y-196593328D02*
X183743741Y-196593328D01*
X183743741Y-196593328D02*
X183600884Y-196521900D01*
X183600884Y-196521900D02*
X183529455Y-196450471D01*
X183529455Y-196450471D02*
X183458027Y-196307614D01*
X183458027Y-196307614D02*
X183458027Y-195879042D01*
X183458027Y-195879042D02*
X183529455Y-195736185D01*
X183529455Y-195736185D02*
X183600884Y-195664757D01*
X183600884Y-195664757D02*
X183743741Y-195593328D01*
X183743741Y-195593328D02*
X184029455Y-195593328D01*
X184029455Y-195593328D02*
X184172313Y-195664757D01*
X186029455Y-195807614D02*
X186529455Y-195807614D01*
X186743741Y-196593328D02*
X186029455Y-196593328D01*
X186029455Y-196593328D02*
X186029455Y-195093328D01*
X186029455Y-195093328D02*
X186743741Y-195093328D01*
X187386598Y-196450471D02*
X187458027Y-196521900D01*
X187458027Y-196521900D02*
X187386598Y-196593328D01*
X187386598Y-196593328D02*
X187315170Y-196521900D01*
X187315170Y-196521900D02*
X187386598Y-196450471D01*
X187386598Y-196450471D02*
X187386598Y-196593328D01*
X188100884Y-196593328D02*
X188100884Y-195093328D01*
X188100884Y-195093328D02*
X188458027Y-195093328D01*
X188458027Y-195093328D02*
X188672313Y-195164757D01*
X188672313Y-195164757D02*
X188815170Y-195307614D01*
X188815170Y-195307614D02*
X188886599Y-195450471D01*
X188886599Y-195450471D02*
X188958027Y-195736185D01*
X188958027Y-195736185D02*
X188958027Y-195950471D01*
X188958027Y-195950471D02*
X188886599Y-196236185D01*
X188886599Y-196236185D02*
X188815170Y-196379042D01*
X188815170Y-196379042D02*
X188672313Y-196521900D01*
X188672313Y-196521900D02*
X188458027Y-196593328D01*
X188458027Y-196593328D02*
X188100884Y-196593328D01*
X189600884Y-196450471D02*
X189672313Y-196521900D01*
X189672313Y-196521900D02*
X189600884Y-196593328D01*
X189600884Y-196593328D02*
X189529456Y-196521900D01*
X189529456Y-196521900D02*
X189600884Y-196450471D01*
X189600884Y-196450471D02*
X189600884Y-196593328D01*
X190243742Y-196164757D02*
X190958028Y-196164757D01*
X190100885Y-196593328D02*
X190600885Y-195093328D01*
X190600885Y-195093328D02*
X191100885Y-196593328D01*
X191600884Y-196450471D02*
X191672313Y-196521900D01*
X191672313Y-196521900D02*
X191600884Y-196593328D01*
X191600884Y-196593328D02*
X191529456Y-196521900D01*
X191529456Y-196521900D02*
X191600884Y-196450471D01*
X191600884Y-196450471D02*
X191600884Y-196593328D01*
X193529456Y-196593328D02*
X193815170Y-196593328D01*
X193815170Y-196593328D02*
X193958027Y-196521900D01*
X193958027Y-196521900D02*
X194029456Y-196450471D01*
X194029456Y-196450471D02*
X194172313Y-196236185D01*
X194172313Y-196236185D02*
X194243742Y-195950471D01*
X194243742Y-195950471D02*
X194243742Y-195379042D01*
X194243742Y-195379042D02*
X194172313Y-195236185D01*
X194172313Y-195236185D02*
X194100885Y-195164757D01*
X194100885Y-195164757D02*
X193958027Y-195093328D01*
X193958027Y-195093328D02*
X193672313Y-195093328D01*
X193672313Y-195093328D02*
X193529456Y-195164757D01*
X193529456Y-195164757D02*
X193458027Y-195236185D01*
X193458027Y-195236185D02*
X193386599Y-195379042D01*
X193386599Y-195379042D02*
X193386599Y-195736185D01*
X193386599Y-195736185D02*
X193458027Y-195879042D01*
X193458027Y-195879042D02*
X193529456Y-195950471D01*
X193529456Y-195950471D02*
X193672313Y-196021900D01*
X193672313Y-196021900D02*
X193958027Y-196021900D01*
X193958027Y-196021900D02*
X194100885Y-195950471D01*
X194100885Y-195950471D02*
X194172313Y-195879042D01*
X194172313Y-195879042D02*
X194243742Y-195736185D01*
X194886598Y-196450471D02*
X194958027Y-196521900D01*
X194958027Y-196521900D02*
X194886598Y-196593328D01*
X194886598Y-196593328D02*
X194815170Y-196521900D01*
X194815170Y-196521900D02*
X194886598Y-196450471D01*
X194886598Y-196450471D02*
X194886598Y-196593328D01*
X195886599Y-195093328D02*
X196029456Y-195093328D01*
X196029456Y-195093328D02*
X196172313Y-195164757D01*
X196172313Y-195164757D02*
X196243742Y-195236185D01*
X196243742Y-195236185D02*
X196315170Y-195379042D01*
X196315170Y-195379042D02*
X196386599Y-195664757D01*
X196386599Y-195664757D02*
X196386599Y-196021900D01*
X196386599Y-196021900D02*
X196315170Y-196307614D01*
X196315170Y-196307614D02*
X196243742Y-196450471D01*
X196243742Y-196450471D02*
X196172313Y-196521900D01*
X196172313Y-196521900D02*
X196029456Y-196593328D01*
X196029456Y-196593328D02*
X195886599Y-196593328D01*
X195886599Y-196593328D02*
X195743742Y-196521900D01*
X195743742Y-196521900D02*
X195672313Y-196450471D01*
X195672313Y-196450471D02*
X195600884Y-196307614D01*
X195600884Y-196307614D02*
X195529456Y-196021900D01*
X195529456Y-196021900D02*
X195529456Y-195664757D01*
X195529456Y-195664757D02*
X195600884Y-195379042D01*
X195600884Y-195379042D02*
X195672313Y-195236185D01*
X195672313Y-195236185D02*
X195743742Y-195164757D01*
X195743742Y-195164757D02*
X195886599Y-195093328D01*
X197029455Y-196450471D02*
X197100884Y-196521900D01*
X197100884Y-196521900D02*
X197029455Y-196593328D01*
X197029455Y-196593328D02*
X196958027Y-196521900D01*
X196958027Y-196521900D02*
X197029455Y-196450471D01*
X197029455Y-196450471D02*
X197029455Y-196593328D01*
X198386599Y-195093328D02*
X198100884Y-195093328D01*
X198100884Y-195093328D02*
X197958027Y-195164757D01*
X197958027Y-195164757D02*
X197886599Y-195236185D01*
X197886599Y-195236185D02*
X197743741Y-195450471D01*
X197743741Y-195450471D02*
X197672313Y-195736185D01*
X197672313Y-195736185D02*
X197672313Y-196307614D01*
X197672313Y-196307614D02*
X197743741Y-196450471D01*
X197743741Y-196450471D02*
X197815170Y-196521900D01*
X197815170Y-196521900D02*
X197958027Y-196593328D01*
X197958027Y-196593328D02*
X198243741Y-196593328D01*
X198243741Y-196593328D02*
X198386599Y-196521900D01*
X198386599Y-196521900D02*
X198458027Y-196450471D01*
X198458027Y-196450471D02*
X198529456Y-196307614D01*
X198529456Y-196307614D02*
X198529456Y-195950471D01*
X198529456Y-195950471D02*
X198458027Y-195807614D01*
X198458027Y-195807614D02*
X198386599Y-195736185D01*
X198386599Y-195736185D02*
X198243741Y-195664757D01*
X198243741Y-195664757D02*
X197958027Y-195664757D01*
X197958027Y-195664757D02*
X197815170Y-195736185D01*
X197815170Y-195736185D02*
X197743741Y-195807614D01*
X197743741Y-195807614D02*
X197672313Y-195950471D01*
D10*
D11*
X177002200Y-191507200D02*
X285002200Y-191507200D01*
D10*
D12*
X264413853Y-193785528D02*
X263913853Y-193071242D01*
X263556710Y-193785528D02*
X263556710Y-192285528D01*
X263556710Y-192285528D02*
X264128139Y-192285528D01*
X264128139Y-192285528D02*
X264270996Y-192356957D01*
X264270996Y-192356957D02*
X264342425Y-192428385D01*
X264342425Y-192428385D02*
X264413853Y-192571242D01*
X264413853Y-192571242D02*
X264413853Y-192785528D01*
X264413853Y-192785528D02*
X264342425Y-192928385D01*
X264342425Y-192928385D02*
X264270996Y-192999814D01*
X264270996Y-192999814D02*
X264128139Y-193071242D01*
X264128139Y-193071242D02*
X263556710Y-193071242D01*
X265628139Y-193714100D02*
X265485282Y-193785528D01*
X265485282Y-193785528D02*
X265199568Y-193785528D01*
X265199568Y-193785528D02*
X265056710Y-193714100D01*
X265056710Y-193714100D02*
X264985282Y-193571242D01*
X264985282Y-193571242D02*
X264985282Y-192999814D01*
X264985282Y-192999814D02*
X265056710Y-192856957D01*
X265056710Y-192856957D02*
X265199568Y-192785528D01*
X265199568Y-192785528D02*
X265485282Y-192785528D01*
X265485282Y-192785528D02*
X265628139Y-192856957D01*
X265628139Y-192856957D02*
X265699568Y-192999814D01*
X265699568Y-192999814D02*
X265699568Y-193142671D01*
X265699568Y-193142671D02*
X264985282Y-193285528D01*
X266199567Y-192785528D02*
X266556710Y-193785528D01*
X266556710Y-193785528D02*
X266913853Y-192785528D01*
X267485281Y-193642671D02*
X267556710Y-193714100D01*
X267556710Y-193714100D02*
X267485281Y-193785528D01*
X267485281Y-193785528D02*
X267413853Y-193714100D01*
X267413853Y-193714100D02*
X267485281Y-193642671D01*
X267485281Y-193642671D02*
X267485281Y-193785528D01*
X267485281Y-192856957D02*
X267556710Y-192928385D01*
X267556710Y-192928385D02*
X267485281Y-192999814D01*
X267485281Y-192999814D02*
X267413853Y-192928385D01*
X267413853Y-192928385D02*
X267485281Y-192856957D01*
X267485281Y-192856957D02*
X267485281Y-192999814D01*
D10*
D11*
X178386598Y-193721900D02*
X178600884Y-193793328D01*
X178600884Y-193793328D02*
X178958026Y-193793328D01*
X178958026Y-193793328D02*
X179100884Y-193721900D01*
X179100884Y-193721900D02*
X179172312Y-193650471D01*
X179172312Y-193650471D02*
X179243741Y-193507614D01*
X179243741Y-193507614D02*
X179243741Y-193364757D01*
X179243741Y-193364757D02*
X179172312Y-193221900D01*
X179172312Y-193221900D02*
X179100884Y-193150471D01*
X179100884Y-193150471D02*
X178958026Y-193079042D01*
X178958026Y-193079042D02*
X178672312Y-193007614D01*
X178672312Y-193007614D02*
X178529455Y-192936185D01*
X178529455Y-192936185D02*
X178458026Y-192864757D01*
X178458026Y-192864757D02*
X178386598Y-192721900D01*
X178386598Y-192721900D02*
X178386598Y-192579042D01*
X178386598Y-192579042D02*
X178458026Y-192436185D01*
X178458026Y-192436185D02*
X178529455Y-192364757D01*
X178529455Y-192364757D02*
X178672312Y-192293328D01*
X178672312Y-192293328D02*
X179029455Y-192293328D01*
X179029455Y-192293328D02*
X179243741Y-192364757D01*
X179886597Y-193793328D02*
X179886597Y-192793328D01*
X179886597Y-192293328D02*
X179815169Y-192364757D01*
X179815169Y-192364757D02*
X179886597Y-192436185D01*
X179886597Y-192436185D02*
X179958026Y-192364757D01*
X179958026Y-192364757D02*
X179886597Y-192293328D01*
X179886597Y-192293328D02*
X179886597Y-192436185D01*
X180458026Y-192793328D02*
X181243741Y-192793328D01*
X181243741Y-192793328D02*
X180458026Y-193793328D01*
X180458026Y-193793328D02*
X181243741Y-193793328D01*
X182386598Y-193721900D02*
X182243741Y-193793328D01*
X182243741Y-193793328D02*
X181958027Y-193793328D01*
X181958027Y-193793328D02*
X181815169Y-193721900D01*
X181815169Y-193721900D02*
X181743741Y-193579042D01*
X181743741Y-193579042D02*
X181743741Y-193007614D01*
X181743741Y-193007614D02*
X181815169Y-192864757D01*
X181815169Y-192864757D02*
X181958027Y-192793328D01*
X181958027Y-192793328D02*
X182243741Y-192793328D01*
X182243741Y-192793328D02*
X182386598Y-192864757D01*
X182386598Y-192864757D02*
X182458027Y-193007614D01*
X182458027Y-193007614D02*
X182458027Y-193150471D01*
X182458027Y-193150471D02*
X181743741Y-193293328D01*
X183100883Y-193650471D02*
X183172312Y-193721900D01*
X183172312Y-193721900D02*
X183100883Y-193793328D01*
X183100883Y-193793328D02*
X183029455Y-193721900D01*
X183029455Y-193721900D02*
X183100883Y-193650471D01*
X183100883Y-193650471D02*
X183100883Y-193793328D01*
X183100883Y-192864757D02*
X183172312Y-192936185D01*
X183172312Y-192936185D02*
X183100883Y-193007614D01*
X183100883Y-193007614D02*
X183029455Y-192936185D01*
X183029455Y-192936185D02*
X183100883Y-192864757D01*
X183100883Y-192864757D02*
X183100883Y-193007614D01*
X184886598Y-193364757D02*
X185600884Y-193364757D01*
X184743741Y-193793328D02*
X185243741Y-192293328D01*
X185243741Y-192293328D02*
X185743741Y-193793328D01*
X186886598Y-192793328D02*
X186886598Y-193793328D01*
X186529455Y-192221900D02*
X186172312Y-193293328D01*
X186172312Y-193293328D02*
X187100883Y-193293328D01*
D10*
D11*
X263458026Y-196593328D02*
X263458026Y-195093328D01*
X264815170Y-196593328D02*
X264815170Y-195093328D01*
X264815170Y-196521900D02*
X264672312Y-196593328D01*
X264672312Y-196593328D02*
X264386598Y-196593328D01*
X264386598Y-196593328D02*
X264243741Y-196521900D01*
X264243741Y-196521900D02*
X264172312Y-196450471D01*
X264172312Y-196450471D02*
X264100884Y-196307614D01*
X264100884Y-196307614D02*
X264100884Y-195879042D01*
X264100884Y-195879042D02*
X264172312Y-195736185D01*
X264172312Y-195736185D02*
X264243741Y-195664757D01*
X264243741Y-195664757D02*
X264386598Y-195593328D01*
X264386598Y-195593328D02*
X264672312Y-195593328D01*
X264672312Y-195593328D02*
X264815170Y-195664757D01*
X265529455Y-196450471D02*
X265600884Y-196521900D01*
X265600884Y-196521900D02*
X265529455Y-196593328D01*
X265529455Y-196593328D02*
X265458027Y-196521900D01*
X265458027Y-196521900D02*
X265529455Y-196450471D01*
X265529455Y-196450471D02*
X265529455Y-196593328D01*
X265529455Y-195664757D02*
X265600884Y-195736185D01*
X265600884Y-195736185D02*
X265529455Y-195807614D01*
X265529455Y-195807614D02*
X265458027Y-195736185D01*
X265458027Y-195736185D02*
X265529455Y-195664757D01*
X265529455Y-195664757D02*
X265529455Y-195807614D01*
X268172313Y-196593328D02*
X267315170Y-196593328D01*
X267743741Y-196593328D02*
X267743741Y-195093328D01*
X267743741Y-195093328D02*
X267600884Y-195307614D01*
X267600884Y-195307614D02*
X267458027Y-195450471D01*
X267458027Y-195450471D02*
X267315170Y-195521900D01*
X269886598Y-195021900D02*
X268600884Y-196950471D01*
X270458027Y-196593328D02*
X270743741Y-196593328D01*
X270743741Y-196593328D02*
X270886598Y-196521900D01*
X270886598Y-196521900D02*
X270958027Y-196450471D01*
X270958027Y-196450471D02*
X271100884Y-196236185D01*
X271100884Y-196236185D02*
X271172313Y-195950471D01*
X271172313Y-195950471D02*
X271172313Y-195379042D01*
X271172313Y-195379042D02*
X271100884Y-195236185D01*
X271100884Y-195236185D02*
X271029456Y-195164757D01*
X271029456Y-195164757D02*
X270886598Y-195093328D01*
X270886598Y-195093328D02*
X270600884Y-195093328D01*
X270600884Y-195093328D02*
X270458027Y-195164757D01*
X270458027Y-195164757D02*
X270386598Y-195236185D01*
X270386598Y-195236185D02*
X270315170Y-195379042D01*
X270315170Y-195379042D02*
X270315170Y-195736185D01*
X270315170Y-195736185D02*
X270386598Y-195879042D01*
X270386598Y-195879042D02*
X270458027Y-195950471D01*
X270458027Y-195950471D02*
X270600884Y-196021900D01*
X270600884Y-196021900D02*
X270886598Y-196021900D01*
X270886598Y-196021900D02*
X271029456Y-195950471D01*
X271029456Y-195950471D02*
X271100884Y-195879042D01*
X271100884Y-195879042D02*
X271172313Y-195736185D01*
D10*
D11*
X177002200Y-187507200D02*
X285002200Y-187507200D01*
D10*
D13*
X178693928Y-188211638D02*
X179836785Y-188211638D01*
X179015357Y-190211638D02*
X179265357Y-188211638D01*
X180253452Y-190211638D02*
X180420119Y-188878304D01*
X180503452Y-188211638D02*
X180396309Y-188306876D01*
X180396309Y-188306876D02*
X180479643Y-188402114D01*
X180479643Y-188402114D02*
X180586786Y-188306876D01*
X180586786Y-188306876D02*
X180503452Y-188211638D01*
X180503452Y-188211638D02*
X180479643Y-188402114D01*
X181086786Y-188878304D02*
X181848690Y-188878304D01*
X181455833Y-188211638D02*
X181241548Y-189925923D01*
X181241548Y-189925923D02*
X181312976Y-190116400D01*
X181312976Y-190116400D02*
X181491548Y-190211638D01*
X181491548Y-190211638D02*
X181682024Y-190211638D01*
X182634405Y-190211638D02*
X182455833Y-190116400D01*
X182455833Y-190116400D02*
X182384405Y-189925923D01*
X182384405Y-189925923D02*
X182598690Y-188211638D01*
X184170119Y-190116400D02*
X183967738Y-190211638D01*
X183967738Y-190211638D02*
X183586785Y-190211638D01*
X183586785Y-190211638D02*
X183408214Y-190116400D01*
X183408214Y-190116400D02*
X183336785Y-189925923D01*
X183336785Y-189925923D02*
X183432024Y-189164019D01*
X183432024Y-189164019D02*
X183551071Y-188973542D01*
X183551071Y-188973542D02*
X183753452Y-188878304D01*
X183753452Y-188878304D02*
X184134404Y-188878304D01*
X184134404Y-188878304D02*
X184312976Y-188973542D01*
X184312976Y-188973542D02*
X184384404Y-189164019D01*
X184384404Y-189164019D02*
X184360595Y-189354495D01*
X184360595Y-189354495D02*
X183384404Y-189544971D01*
X185134405Y-190021161D02*
X185217738Y-190116400D01*
X185217738Y-190116400D02*
X185110595Y-190211638D01*
X185110595Y-190211638D02*
X185027262Y-190116400D01*
X185027262Y-190116400D02*
X185134405Y-190021161D01*
X185134405Y-190021161D02*
X185110595Y-190211638D01*
X185265357Y-188973542D02*
X185348690Y-189068780D01*
X185348690Y-189068780D02*
X185241548Y-189164019D01*
X185241548Y-189164019D02*
X185158214Y-189068780D01*
X185158214Y-189068780D02*
X185265357Y-188973542D01*
X185265357Y-188973542D02*
X185241548Y-189164019D01*
D10*
D11*
X178958026Y-185607614D02*
X178458026Y-185607614D01*
X178458026Y-186393328D02*
X178458026Y-184893328D01*
X178458026Y-184893328D02*
X179172312Y-184893328D01*
X179743740Y-186393328D02*
X179743740Y-185393328D01*
X179743740Y-184893328D02*
X179672312Y-184964757D01*
X179672312Y-184964757D02*
X179743740Y-185036185D01*
X179743740Y-185036185D02*
X179815169Y-184964757D01*
X179815169Y-184964757D02*
X179743740Y-184893328D01*
X179743740Y-184893328D02*
X179743740Y-185036185D01*
X180672312Y-186393328D02*
X180529455Y-186321900D01*
X180529455Y-186321900D02*
X180458026Y-186179042D01*
X180458026Y-186179042D02*
X180458026Y-184893328D01*
X181815169Y-186321900D02*
X181672312Y-186393328D01*
X181672312Y-186393328D02*
X181386598Y-186393328D01*
X181386598Y-186393328D02*
X181243740Y-186321900D01*
X181243740Y-186321900D02*
X181172312Y-186179042D01*
X181172312Y-186179042D02*
X181172312Y-185607614D01*
X181172312Y-185607614D02*
X181243740Y-185464757D01*
X181243740Y-185464757D02*
X181386598Y-185393328D01*
X181386598Y-185393328D02*
X181672312Y-185393328D01*
X181672312Y-185393328D02*
X181815169Y-185464757D01*
X181815169Y-185464757D02*
X181886598Y-185607614D01*
X181886598Y-185607614D02*
X181886598Y-185750471D01*
X181886598Y-185750471D02*
X181172312Y-185893328D01*
X182529454Y-186250471D02*
X182600883Y-186321900D01*
X182600883Y-186321900D02*
X182529454Y-186393328D01*
X182529454Y-186393328D02*
X182458026Y-186321900D01*
X182458026Y-186321900D02*
X182529454Y-186250471D01*
X182529454Y-186250471D02*
X182529454Y-186393328D01*
X182529454Y-185464757D02*
X182600883Y-185536185D01*
X182600883Y-185536185D02*
X182529454Y-185607614D01*
X182529454Y-185607614D02*
X182458026Y-185536185D01*
X182458026Y-185536185D02*
X182529454Y-185464757D01*
X182529454Y-185464757D02*
X182529454Y-185607614D01*
X185243740Y-186250471D02*
X185172312Y-186321900D01*
X185172312Y-186321900D02*
X184958026Y-186393328D01*
X184958026Y-186393328D02*
X184815169Y-186393328D01*
X184815169Y-186393328D02*
X184600883Y-186321900D01*
X184600883Y-186321900D02*
X184458026Y-186179042D01*
X184458026Y-186179042D02*
X184386597Y-186036185D01*
X184386597Y-186036185D02*
X184315169Y-185750471D01*
X184315169Y-185750471D02*
X184315169Y-185536185D01*
X184315169Y-185536185D02*
X184386597Y-185250471D01*
X184386597Y-185250471D02*
X184458026Y-185107614D01*
X184458026Y-185107614D02*
X184600883Y-184964757D01*
X184600883Y-184964757D02*
X184815169Y-184893328D01*
X184815169Y-184893328D02*
X184958026Y-184893328D01*
X184958026Y-184893328D02*
X185172312Y-184964757D01*
X185172312Y-184964757D02*
X185243740Y-185036185D01*
X185886597Y-186393328D02*
X185886597Y-184893328D01*
X186529455Y-186393328D02*
X186529455Y-185607614D01*
X186529455Y-185607614D02*
X186458026Y-185464757D01*
X186458026Y-185464757D02*
X186315169Y-185393328D01*
X186315169Y-185393328D02*
X186100883Y-185393328D01*
X186100883Y-185393328D02*
X185958026Y-185464757D01*
X185958026Y-185464757D02*
X185886597Y-185536185D01*
X187886598Y-185393328D02*
X187886598Y-186393328D01*
X187243740Y-185393328D02*
X187243740Y-186179042D01*
X187243740Y-186179042D02*
X187315169Y-186321900D01*
X187315169Y-186321900D02*
X187458026Y-186393328D01*
X187458026Y-186393328D02*
X187672312Y-186393328D01*
X187672312Y-186393328D02*
X187815169Y-186321900D01*
X187815169Y-186321900D02*
X187886598Y-186250471D01*
X189243741Y-186393328D02*
X189243741Y-185607614D01*
X189243741Y-185607614D02*
X189172312Y-185464757D01*
X189172312Y-185464757D02*
X189029455Y-185393328D01*
X189029455Y-185393328D02*
X188743741Y-185393328D01*
X188743741Y-185393328D02*
X188600883Y-185464757D01*
X189243741Y-186321900D02*
X189100883Y-186393328D01*
X189100883Y-186393328D02*
X188743741Y-186393328D01*
X188743741Y-186393328D02*
X188600883Y-186321900D01*
X188600883Y-186321900D02*
X188529455Y-186179042D01*
X188529455Y-186179042D02*
X188529455Y-186036185D01*
X188529455Y-186036185D02*
X188600883Y-185893328D01*
X188600883Y-185893328D02*
X188743741Y-185821900D01*
X188743741Y-185821900D02*
X189100883Y-185821900D01*
X189100883Y-185821900D02*
X189243741Y-185750471D01*
X190815169Y-186250471D02*
X190743741Y-186321900D01*
X190743741Y-186321900D02*
X190529455Y-186393328D01*
X190529455Y-186393328D02*
X190386598Y-186393328D01*
X190386598Y-186393328D02*
X190172312Y-186321900D01*
X190172312Y-186321900D02*
X190029455Y-186179042D01*
X190029455Y-186179042D02*
X189958026Y-186036185D01*
X189958026Y-186036185D02*
X189886598Y-185750471D01*
X189886598Y-185750471D02*
X189886598Y-185536185D01*
X189886598Y-185536185D02*
X189958026Y-185250471D01*
X189958026Y-185250471D02*
X190029455Y-185107614D01*
X190029455Y-185107614D02*
X190172312Y-184964757D01*
X190172312Y-184964757D02*
X190386598Y-184893328D01*
X190386598Y-184893328D02*
X190529455Y-184893328D01*
X190529455Y-184893328D02*
X190743741Y-184964757D01*
X190743741Y-184964757D02*
X190815169Y-185036185D01*
X191458026Y-186393328D02*
X191458026Y-185393328D01*
X191458026Y-184893328D02*
X191386598Y-184964757D01*
X191386598Y-184964757D02*
X191458026Y-185036185D01*
X191458026Y-185036185D02*
X191529455Y-184964757D01*
X191529455Y-184964757D02*
X191458026Y-184893328D01*
X191458026Y-184893328D02*
X191458026Y-185036185D01*
X192172312Y-186393328D02*
X192172312Y-185393328D01*
X192172312Y-185679042D02*
X192243741Y-185536185D01*
X192243741Y-185536185D02*
X192315170Y-185464757D01*
X192315170Y-185464757D02*
X192458027Y-185393328D01*
X192458027Y-185393328D02*
X192600884Y-185393328D01*
X193743741Y-186321900D02*
X193600883Y-186393328D01*
X193600883Y-186393328D02*
X193315169Y-186393328D01*
X193315169Y-186393328D02*
X193172312Y-186321900D01*
X193172312Y-186321900D02*
X193100883Y-186250471D01*
X193100883Y-186250471D02*
X193029455Y-186107614D01*
X193029455Y-186107614D02*
X193029455Y-185679042D01*
X193029455Y-185679042D02*
X193100883Y-185536185D01*
X193100883Y-185536185D02*
X193172312Y-185464757D01*
X193172312Y-185464757D02*
X193315169Y-185393328D01*
X193315169Y-185393328D02*
X193600883Y-185393328D01*
X193600883Y-185393328D02*
X193743741Y-185464757D01*
X195029455Y-185393328D02*
X195029455Y-186393328D01*
X194386597Y-185393328D02*
X194386597Y-186179042D01*
X194386597Y-186179042D02*
X194458026Y-186321900D01*
X194458026Y-186321900D02*
X194600883Y-186393328D01*
X194600883Y-186393328D02*
X194815169Y-186393328D01*
X194815169Y-186393328D02*
X194958026Y-186321900D01*
X194958026Y-186321900D02*
X195029455Y-186250471D01*
X195743740Y-186393328D02*
X195743740Y-185393328D01*
X195743740Y-184893328D02*
X195672312Y-184964757D01*
X195672312Y-184964757D02*
X195743740Y-185036185D01*
X195743740Y-185036185D02*
X195815169Y-184964757D01*
X195815169Y-184964757D02*
X195743740Y-184893328D01*
X195743740Y-184893328D02*
X195743740Y-185036185D01*
X196243741Y-185393328D02*
X196815169Y-185393328D01*
X196458026Y-184893328D02*
X196458026Y-186179042D01*
X196458026Y-186179042D02*
X196529455Y-186321900D01*
X196529455Y-186321900D02*
X196672312Y-186393328D01*
X196672312Y-186393328D02*
X196815169Y-186393328D01*
X197315169Y-186250471D02*
X197386598Y-186321900D01*
X197386598Y-186321900D02*
X197315169Y-186393328D01*
X197315169Y-186393328D02*
X197243741Y-186321900D01*
X197243741Y-186321900D02*
X197315169Y-186250471D01*
X197315169Y-186250471D02*
X197315169Y-186393328D01*
X198029455Y-186393328D02*
X198029455Y-184893328D01*
X198172313Y-185821900D02*
X198600884Y-186393328D01*
X198600884Y-185393328D02*
X198029455Y-185964757D01*
X199243741Y-186393328D02*
X199243741Y-185393328D01*
X199243741Y-184893328D02*
X199172313Y-184964757D01*
X199172313Y-184964757D02*
X199243741Y-185036185D01*
X199243741Y-185036185D02*
X199315170Y-184964757D01*
X199315170Y-184964757D02*
X199243741Y-184893328D01*
X199243741Y-184893328D02*
X199243741Y-185036185D01*
X200600885Y-186321900D02*
X200458027Y-186393328D01*
X200458027Y-186393328D02*
X200172313Y-186393328D01*
X200172313Y-186393328D02*
X200029456Y-186321900D01*
X200029456Y-186321900D02*
X199958027Y-186250471D01*
X199958027Y-186250471D02*
X199886599Y-186107614D01*
X199886599Y-186107614D02*
X199886599Y-185679042D01*
X199886599Y-185679042D02*
X199958027Y-185536185D01*
X199958027Y-185536185D02*
X200029456Y-185464757D01*
X200029456Y-185464757D02*
X200172313Y-185393328D01*
X200172313Y-185393328D02*
X200458027Y-185393328D01*
X200458027Y-185393328D02*
X200600885Y-185464757D01*
X201886599Y-186393328D02*
X201886599Y-185607614D01*
X201886599Y-185607614D02*
X201815170Y-185464757D01*
X201815170Y-185464757D02*
X201672313Y-185393328D01*
X201672313Y-185393328D02*
X201386599Y-185393328D01*
X201386599Y-185393328D02*
X201243741Y-185464757D01*
X201886599Y-186321900D02*
X201743741Y-186393328D01*
X201743741Y-186393328D02*
X201386599Y-186393328D01*
X201386599Y-186393328D02*
X201243741Y-186321900D01*
X201243741Y-186321900D02*
X201172313Y-186179042D01*
X201172313Y-186179042D02*
X201172313Y-186036185D01*
X201172313Y-186036185D02*
X201243741Y-185893328D01*
X201243741Y-185893328D02*
X201386599Y-185821900D01*
X201386599Y-185821900D02*
X201743741Y-185821900D01*
X201743741Y-185821900D02*
X201886599Y-185750471D01*
X203243742Y-186393328D02*
X203243742Y-184893328D01*
X203243742Y-186321900D02*
X203100884Y-186393328D01*
X203100884Y-186393328D02*
X202815170Y-186393328D01*
X202815170Y-186393328D02*
X202672313Y-186321900D01*
X202672313Y-186321900D02*
X202600884Y-186250471D01*
X202600884Y-186250471D02*
X202529456Y-186107614D01*
X202529456Y-186107614D02*
X202529456Y-185679042D01*
X202529456Y-185679042D02*
X202600884Y-185536185D01*
X202600884Y-185536185D02*
X202672313Y-185464757D01*
X202672313Y-185464757D02*
X202815170Y-185393328D01*
X202815170Y-185393328D02*
X203100884Y-185393328D01*
X203100884Y-185393328D02*
X203243742Y-185464757D01*
X203600885Y-186536185D02*
X204743742Y-186536185D01*
X205100884Y-185393328D02*
X205100884Y-186893328D01*
X205100884Y-185464757D02*
X205243742Y-185393328D01*
X205243742Y-185393328D02*
X205529456Y-185393328D01*
X205529456Y-185393328D02*
X205672313Y-185464757D01*
X205672313Y-185464757D02*
X205743742Y-185536185D01*
X205743742Y-185536185D02*
X205815170Y-185679042D01*
X205815170Y-185679042D02*
X205815170Y-186107614D01*
X205815170Y-186107614D02*
X205743742Y-186250471D01*
X205743742Y-186250471D02*
X205672313Y-186321900D01*
X205672313Y-186321900D02*
X205529456Y-186393328D01*
X205529456Y-186393328D02*
X205243742Y-186393328D01*
X205243742Y-186393328D02*
X205100884Y-186321900D01*
X207100885Y-186321900D02*
X206958027Y-186393328D01*
X206958027Y-186393328D02*
X206672313Y-186393328D01*
X206672313Y-186393328D02*
X206529456Y-186321900D01*
X206529456Y-186321900D02*
X206458027Y-186250471D01*
X206458027Y-186250471D02*
X206386599Y-186107614D01*
X206386599Y-186107614D02*
X206386599Y-185679042D01*
X206386599Y-185679042D02*
X206458027Y-185536185D01*
X206458027Y-185536185D02*
X206529456Y-185464757D01*
X206529456Y-185464757D02*
X206672313Y-185393328D01*
X206672313Y-185393328D02*
X206958027Y-185393328D01*
X206958027Y-185393328D02*
X207100885Y-185464757D01*
X207743741Y-186393328D02*
X207743741Y-184893328D01*
X207743741Y-185464757D02*
X207886599Y-185393328D01*
X207886599Y-185393328D02*
X208172313Y-185393328D01*
X208172313Y-185393328D02*
X208315170Y-185464757D01*
X208315170Y-185464757D02*
X208386599Y-185536185D01*
X208386599Y-185536185D02*
X208458027Y-185679042D01*
X208458027Y-185679042D02*
X208458027Y-186107614D01*
X208458027Y-186107614D02*
X208386599Y-186250471D01*
X208386599Y-186250471D02*
X208315170Y-186321900D01*
X208315170Y-186321900D02*
X208172313Y-186393328D01*
X208172313Y-186393328D02*
X207886599Y-186393328D01*
X207886599Y-186393328D02*
X207743741Y-186321900D01*
D10*
D11*
X177002200Y-181507200D02*
X285002200Y-181507200D01*
D10*
D11*
X178386598Y-183621900D02*
X178600884Y-183693328D01*
X178600884Y-183693328D02*
X178958026Y-183693328D01*
X178958026Y-183693328D02*
X179100884Y-183621900D01*
X179100884Y-183621900D02*
X179172312Y-183550471D01*
X179172312Y-183550471D02*
X179243741Y-183407614D01*
X179243741Y-183407614D02*
X179243741Y-183264757D01*
X179243741Y-183264757D02*
X179172312Y-183121900D01*
X179172312Y-183121900D02*
X179100884Y-183050471D01*
X179100884Y-183050471D02*
X178958026Y-182979042D01*
X178958026Y-182979042D02*
X178672312Y-182907614D01*
X178672312Y-182907614D02*
X178529455Y-182836185D01*
X178529455Y-182836185D02*
X178458026Y-182764757D01*
X178458026Y-182764757D02*
X178386598Y-182621900D01*
X178386598Y-182621900D02*
X178386598Y-182479042D01*
X178386598Y-182479042D02*
X178458026Y-182336185D01*
X178458026Y-182336185D02*
X178529455Y-182264757D01*
X178529455Y-182264757D02*
X178672312Y-182193328D01*
X178672312Y-182193328D02*
X179029455Y-182193328D01*
X179029455Y-182193328D02*
X179243741Y-182264757D01*
X179886597Y-183693328D02*
X179886597Y-182193328D01*
X180529455Y-183693328D02*
X180529455Y-182907614D01*
X180529455Y-182907614D02*
X180458026Y-182764757D01*
X180458026Y-182764757D02*
X180315169Y-182693328D01*
X180315169Y-182693328D02*
X180100883Y-182693328D01*
X180100883Y-182693328D02*
X179958026Y-182764757D01*
X179958026Y-182764757D02*
X179886597Y-182836185D01*
X181815169Y-183621900D02*
X181672312Y-183693328D01*
X181672312Y-183693328D02*
X181386598Y-183693328D01*
X181386598Y-183693328D02*
X181243740Y-183621900D01*
X181243740Y-183621900D02*
X181172312Y-183479042D01*
X181172312Y-183479042D02*
X181172312Y-182907614D01*
X181172312Y-182907614D02*
X181243740Y-182764757D01*
X181243740Y-182764757D02*
X181386598Y-182693328D01*
X181386598Y-182693328D02*
X181672312Y-182693328D01*
X181672312Y-182693328D02*
X181815169Y-182764757D01*
X181815169Y-182764757D02*
X181886598Y-182907614D01*
X181886598Y-182907614D02*
X181886598Y-183050471D01*
X181886598Y-183050471D02*
X181172312Y-183193328D01*
X183100883Y-183621900D02*
X182958026Y-183693328D01*
X182958026Y-183693328D02*
X182672312Y-183693328D01*
X182672312Y-183693328D02*
X182529454Y-183621900D01*
X182529454Y-183621900D02*
X182458026Y-183479042D01*
X182458026Y-183479042D02*
X182458026Y-182907614D01*
X182458026Y-182907614D02*
X182529454Y-182764757D01*
X182529454Y-182764757D02*
X182672312Y-182693328D01*
X182672312Y-182693328D02*
X182958026Y-182693328D01*
X182958026Y-182693328D02*
X183100883Y-182764757D01*
X183100883Y-182764757D02*
X183172312Y-182907614D01*
X183172312Y-182907614D02*
X183172312Y-183050471D01*
X183172312Y-183050471D02*
X182458026Y-183193328D01*
X183600883Y-182693328D02*
X184172311Y-182693328D01*
X183815168Y-182193328D02*
X183815168Y-183479042D01*
X183815168Y-183479042D02*
X183886597Y-183621900D01*
X183886597Y-183621900D02*
X184029454Y-183693328D01*
X184029454Y-183693328D02*
X184172311Y-183693328D01*
X184672311Y-183550471D02*
X184743740Y-183621900D01*
X184743740Y-183621900D02*
X184672311Y-183693328D01*
X184672311Y-183693328D02*
X184600883Y-183621900D01*
X184600883Y-183621900D02*
X184672311Y-183550471D01*
X184672311Y-183550471D02*
X184672311Y-183693328D01*
X184672311Y-182764757D02*
X184743740Y-182836185D01*
X184743740Y-182836185D02*
X184672311Y-182907614D01*
X184672311Y-182907614D02*
X184600883Y-182836185D01*
X184600883Y-182836185D02*
X184672311Y-182764757D01*
X184672311Y-182764757D02*
X184672311Y-182907614D01*
D10*
D11*
X197002200Y-191507200D02*
X197002200Y-194507200D01*
D10*
D11*
X261002200Y-191507200D02*
X261002200Y-198007200D01*
D14*
X140712000Y-91095000D03*
X140712000Y-92365000D03*
X140712000Y-93635000D03*
X140712000Y-94905000D03*
X135288000Y-94905000D03*
X135288000Y-93635000D03*
X135288000Y-92365000D03*
X135288000Y-91095000D03*
D15*
X126500000Y-102000000D03*
D16*
X135288000Y-104190000D03*
X135288000Y-105460000D03*
X135288000Y-106730000D03*
X135288000Y-108000000D03*
X135288000Y-109270000D03*
X135288000Y-110540000D03*
X135288000Y-111810000D03*
X140712000Y-111810000D03*
X140712000Y-110540000D03*
X140712000Y-109270000D03*
X140712000Y-108000000D03*
X140712000Y-106730000D03*
X140712000Y-105460000D03*
X140712000Y-104190000D03*
D17*
X141000000Y-102275000D03*
X141000000Y-100725000D03*
X138000000Y-102275000D03*
X138000000Y-100725000D03*
X135000000Y-102275000D03*
X135000000Y-100725000D03*
X143000000Y-98500000D03*
X143000000Y-96950000D03*
X140000000Y-98500000D03*
X140000000Y-96950000D03*
X137000000Y-98500000D03*
X137000000Y-96950000D03*
X134000000Y-98500000D03*
X134000000Y-96950000D03*
X131000000Y-98500000D03*
X131000000Y-96950000D03*
D15*
X150500000Y-92500000D03*
D18*
X132000000Y-111025000D03*
X132000000Y-112675000D03*
X132000000Y-107350000D03*
X132000000Y-109000000D03*
D19*
X144000000Y-107150000D03*
X144000000Y-105500000D03*
D20*
X139000000Y-115500000D03*
X141950000Y-115500000D03*
D15*
X131000000Y-92500000D03*
D18*
X146000000Y-110675000D03*
X146000000Y-112325000D03*
D15*
X150500000Y-101000000D03*
D21*
X150500000Y-103540000D03*
X150500000Y-106080000D03*
D15*
X126500000Y-112000000D03*
D22*
X133950000Y-115000000D03*
X135500000Y-115000000D03*
D19*
X144000000Y-110500000D03*
X144000000Y-108850000D03*
X144000000Y-114000000D03*
X144000000Y-112350000D03*
D15*
X150500000Y-112500000D03*
D21*
X150500000Y-115040000D03*
X150500000Y-117580000D03*
D15*
X126500000Y-92500000D03*
D18*
X132000000Y-103850000D03*
X132000000Y-105500000D03*
D23*
X146500000Y-117000000D03*
X146500000Y-114050000D03*
D19*
X144000000Y-103500000D03*
X144000000Y-101850000D03*
D15*
X126500000Y-117000000D03*
D18*
X132000000Y-100350000D03*
X132000000Y-102000000D03*
D15*
X126500000Y-107000000D03*
D24*
X139099800Y-92213000D03*
X139000000Y-113293600D03*
X145000000Y-110483400D03*
X145089900Y-106649900D03*
X133500700Y-110415000D03*
X144629500Y-108000000D03*
X136096400Y-97899300D03*
X142922900Y-112783700D03*
X130020800Y-96931400D03*
X133006600Y-98774600D03*
X145675000Y-95990600D03*
D25*
X134223800Y-92365000D02*
X134223800Y-91095000D01*
X135288000Y-91095000D02*
X134223800Y-91095000D01*
X134755900Y-92365000D02*
X134223800Y-92365000D01*
X134755900Y-92365000D02*
X135288000Y-92365000D01*
X138947800Y-92365000D02*
X139099800Y-92213000D01*
X135288000Y-92365000D02*
X138947800Y-92365000D01*
X138000000Y-102275000D02*
X138811100Y-102275000D01*
X138811100Y-102275000D02*
X141000000Y-102275000D01*
X138811100Y-100313400D02*
X138811100Y-102275000D01*
X138470100Y-99972400D02*
X138811100Y-100313400D01*
X137247400Y-99972400D02*
X138470100Y-99972400D01*
X135494700Y-98219700D02*
X137247400Y-99972400D01*
X135494700Y-95111700D02*
X135494700Y-98219700D01*
X135288000Y-94905000D02*
X135494700Y-95111700D01*
X137000000Y-98500000D02*
X140000000Y-98500000D01*
X140712000Y-108000000D02*
X139647800Y-108000000D01*
X139246100Y-107598300D02*
X139647800Y-108000000D01*
X139246100Y-103530500D02*
X139246100Y-107598300D01*
X139694500Y-103082100D02*
X139246100Y-103530500D01*
X141432200Y-103082100D02*
X139694500Y-103082100D01*
X141780900Y-102733400D02*
X141432200Y-103082100D01*
X141780900Y-101810400D02*
X141780900Y-102733400D01*
X141470500Y-101500000D02*
X141780900Y-101810400D01*
X140478700Y-101500000D02*
X141470500Y-101500000D01*
X140000000Y-101021300D02*
X140478700Y-101500000D01*
X140000000Y-98500000D02*
X140000000Y-101021300D01*
X139000000Y-115500000D02*
X139000000Y-113293600D01*
X150500000Y-101000000D02*
X150500000Y-102151700D01*
X140712000Y-109270000D02*
X139647800Y-109270000D01*
X139000000Y-109917800D02*
X139647800Y-109270000D01*
X139000000Y-113293600D02*
X139000000Y-109917800D01*
X145000000Y-108926800D02*
X145000000Y-110483400D01*
X150187000Y-102151700D02*
X150500000Y-102151700D01*
X145691600Y-106647100D02*
X150187000Y-102151700D01*
X145691600Y-108081600D02*
X145691600Y-106647100D01*
X144923200Y-108850000D02*
X145691600Y-108081600D01*
X144000000Y-108850000D02*
X144923200Y-108850000D01*
X144923200Y-108850000D02*
X145000000Y-108926800D01*
X133738800Y-111025000D02*
X134223800Y-110540000D01*
X132000000Y-111025000D02*
X133738800Y-111025000D01*
X134755900Y-110540000D02*
X134223800Y-110540000D01*
X134755900Y-110540000D02*
X135288000Y-110540000D01*
X145089800Y-106649900D02*
X145089900Y-106649900D01*
X145089800Y-106589800D02*
X145089800Y-106649900D01*
X144000000Y-105500000D02*
X145089800Y-106589800D01*
X134098800Y-110415000D02*
X134223800Y-110540000D01*
X133500700Y-110415000D02*
X134098800Y-110415000D01*
X135288000Y-110540000D02*
X134223800Y-110540000D01*
X145675000Y-112325000D02*
X144000000Y-114000000D01*
X146000000Y-112325000D02*
X145675000Y-112325000D01*
X140712000Y-110540000D02*
X141776200Y-110540000D01*
X143385400Y-113385400D02*
X144000000Y-114000000D01*
X142673800Y-113385400D02*
X143385400Y-113385400D01*
X142321200Y-113032800D02*
X142673800Y-113385400D01*
X142321200Y-111085000D02*
X142321200Y-113032800D01*
X141776200Y-110540000D02*
X142321200Y-111085000D01*
X141776200Y-105460000D02*
X141776200Y-110540000D01*
X140712000Y-105460000D02*
X141776200Y-105460000D01*
X148050000Y-112500000D02*
X146500000Y-114050000D01*
X150500000Y-112500000D02*
X148050000Y-112500000D01*
X139647800Y-103715000D02*
X139647800Y-106730000D01*
X139824500Y-103538300D02*
X139647800Y-103715000D01*
X141711900Y-103538300D02*
X139824500Y-103538300D01*
X142623100Y-104449500D02*
X141711900Y-103538300D01*
X142623100Y-106751600D02*
X142623100Y-104449500D01*
X143222500Y-107351000D02*
X142623100Y-106751600D01*
X143222500Y-107628900D02*
X143222500Y-107351000D01*
X143593600Y-108000000D02*
X143222500Y-107628900D01*
X144629500Y-108000000D02*
X143593600Y-108000000D01*
X140712000Y-106730000D02*
X139647800Y-106730000D01*
X135288000Y-109270000D02*
X134223800Y-109270000D01*
X135288000Y-106730000D02*
X134223800Y-106730000D01*
X150500000Y-103540000D02*
X150500000Y-106080000D01*
X132000000Y-107350000D02*
X134223800Y-107350000D01*
X134223800Y-109270000D02*
X134223800Y-107350000D01*
X134223800Y-107350000D02*
X134223800Y-106730000D01*
X136352200Y-112597800D02*
X133950000Y-115000000D01*
X136352200Y-109270000D02*
X136352200Y-112597800D01*
X135288000Y-109270000D02*
X136352200Y-109270000D01*
X136096400Y-96053300D02*
X136096400Y-97899300D01*
X136352200Y-95797500D02*
X136096400Y-96053300D01*
X136352200Y-93635000D02*
X136352200Y-95797500D01*
X135288000Y-93635000D02*
X136352200Y-93635000D01*
X131209400Y-102790600D02*
X131209400Y-107000000D01*
X132000000Y-102000000D02*
X131209400Y-102790600D01*
X126500000Y-107000000D02*
X131209400Y-107000000D01*
X131650000Y-107000000D02*
X132000000Y-107350000D01*
X131209400Y-107000000D02*
X131650000Y-107000000D01*
X144000000Y-112350000D02*
X144000000Y-110500000D01*
X140712000Y-104190000D02*
X141776200Y-104190000D01*
X142922900Y-112783700D02*
X143678300Y-112028300D01*
X144000000Y-112350000D02*
X143678300Y-112028300D01*
X142623100Y-107547000D02*
X142787900Y-107711800D01*
X142623100Y-107547000D02*
X142787900Y-107711800D01*
X142787900Y-111137900D02*
X142787900Y-107711800D01*
X143678300Y-112028300D02*
X142787900Y-111137900D01*
X142221400Y-107145300D02*
X142623100Y-107547000D01*
X142221400Y-104635200D02*
X142221400Y-107145300D01*
X141776200Y-104190000D02*
X142221400Y-104635200D01*
X132789900Y-101139900D02*
X132789900Y-103455000D01*
X132000000Y-100350000D02*
X132789900Y-101139900D01*
X132395000Y-103455000D02*
X132789900Y-103455000D01*
X132000000Y-103850000D02*
X132395000Y-103455000D01*
X133488800Y-103455000D02*
X134223800Y-104190000D01*
X132789900Y-103455000D02*
X133488800Y-103455000D01*
X135288000Y-104190000D02*
X134223800Y-104190000D01*
X131221500Y-111709100D02*
X132000000Y-112487600D01*
X131221500Y-109778500D02*
X131221500Y-111709100D01*
X132000000Y-109000000D02*
X131221500Y-109778500D01*
X135288000Y-111810000D02*
X134223800Y-111810000D01*
X132000000Y-112487600D02*
X132000000Y-112675000D01*
X133546200Y-112487600D02*
X134223800Y-111810000D01*
X132000000Y-112487600D02*
X133546200Y-112487600D01*
X134000000Y-101275000D02*
X135000000Y-102275000D01*
X134000000Y-98500000D02*
X134000000Y-101275000D01*
X143806200Y-93125000D02*
X141776200Y-91095000D01*
X143806200Y-97693800D02*
X143806200Y-93125000D01*
X143000000Y-98500000D02*
X143806200Y-97693800D01*
X141244100Y-91095000D02*
X141776200Y-91095000D01*
X135288000Y-108000000D02*
X136352200Y-108000000D01*
X141244100Y-91095000D02*
X140712000Y-91095000D01*
X127615700Y-93651700D02*
X129380100Y-95416100D01*
X126500000Y-93651700D02*
X127615700Y-93651700D01*
X130738600Y-98500000D02*
X131000000Y-98500000D01*
X129380100Y-97141500D02*
X130738600Y-98500000D01*
X129380100Y-95416100D02*
X129380100Y-97141500D01*
X130262200Y-95416100D02*
X129380100Y-95416100D01*
X132453300Y-93225000D02*
X130262200Y-95416100D01*
X132453300Y-92289500D02*
X132453300Y-93225000D01*
X134274600Y-90468200D02*
X132453300Y-92289500D01*
X139021000Y-90468200D02*
X134274600Y-90468200D01*
X139647800Y-91095000D02*
X139021000Y-90468200D01*
X140712000Y-91095000D02*
X139647800Y-91095000D01*
X126500000Y-92500000D02*
X126500000Y-93651700D01*
X135497000Y-102275000D02*
X135000000Y-102275000D01*
X136753900Y-103531900D02*
X135497000Y-102275000D01*
X136753900Y-107598300D02*
X136753900Y-103531900D01*
X136352200Y-108000000D02*
X136753900Y-107598300D01*
X131392500Y-98107500D02*
X131000000Y-98500000D01*
X133607500Y-98107500D02*
X131392500Y-98107500D01*
X134000000Y-98500000D02*
X133607500Y-98107500D01*
X145015100Y-115515100D02*
X146500000Y-117000000D01*
X145015100Y-114705700D02*
X145015100Y-115515100D01*
X146792400Y-111467400D02*
X146000000Y-110675000D01*
X146792400Y-112720300D02*
X146792400Y-111467400D01*
X146412800Y-113099900D02*
X146792400Y-112720300D01*
X145684900Y-113099900D02*
X146412800Y-113099900D01*
X145015100Y-113769700D02*
X145684900Y-113099900D01*
X145015100Y-114705700D02*
X145015100Y-113769700D01*
X143426100Y-114705700D02*
X145015100Y-114705700D01*
X141776200Y-113055800D02*
X143426100Y-114705700D01*
X141776200Y-111810000D02*
X141776200Y-113055800D01*
X140712000Y-111810000D02*
X141776200Y-111810000D01*
X141000000Y-100725000D02*
X141000000Y-97950000D01*
X141000000Y-97950000D02*
X140000000Y-96950000D01*
X134123600Y-97073600D02*
X134000000Y-96950000D01*
X131105600Y-97055600D02*
X131000000Y-96950000D01*
X134105700Y-97055600D02*
X131105600Y-97055600D01*
X134105700Y-97055700D02*
X134105700Y-97055600D01*
X134123600Y-97073600D02*
X134105700Y-97055700D01*
X150500000Y-115040000D02*
X150500000Y-117580000D01*
X144373800Y-117923800D02*
X141950000Y-115500000D01*
X150156200Y-117923800D02*
X144373800Y-117923800D01*
X150500000Y-117580000D02*
X150156200Y-117923800D01*
X143000000Y-96950000D02*
X142000000Y-97950000D01*
X142000000Y-97950000D02*
X141000000Y-97950000D01*
X140745500Y-116704500D02*
X141950000Y-115500000D01*
X138372800Y-116704500D02*
X140745500Y-116704500D01*
X137201100Y-115532800D02*
X138372800Y-116704500D01*
X137201100Y-115000000D02*
X137201100Y-115532800D01*
X135500000Y-115000000D02*
X137201100Y-115000000D01*
X143206100Y-106356100D02*
X144000000Y-107150000D01*
X143206100Y-104293900D02*
X143206100Y-106356100D01*
X144000000Y-103500000D02*
X143206100Y-104293900D01*
X137201100Y-101523900D02*
X138000000Y-100725000D01*
X137201100Y-115000000D02*
X137201100Y-101523900D01*
X130981400Y-96931400D02*
X131000000Y-96950000D01*
X130020800Y-96931400D02*
X130981400Y-96931400D01*
X135000000Y-97950000D02*
X135000000Y-100725000D01*
X134123600Y-97073600D02*
X135000000Y-97950000D01*
X135000000Y-100725000D02*
X138000000Y-100725000D01*
X142000000Y-101356100D02*
X142000000Y-97950000D01*
X144000000Y-103356100D02*
X142000000Y-101356100D01*
X144000000Y-103500000D02*
X144000000Y-103356100D01*
X137000000Y-96950000D02*
X140000000Y-96950000D01*
X134000000Y-93392800D02*
X134000000Y-96950000D01*
X134384600Y-93008200D02*
X134000000Y-93392800D01*
X136313000Y-93008200D02*
X134384600Y-93008200D01*
X137000000Y-93695200D02*
X136313000Y-93008200D01*
X137000000Y-96950000D02*
X137000000Y-93695200D01*
X132040000Y-105460000D02*
X135288000Y-105460000D01*
X132000000Y-105500000D02*
X132040000Y-105460000D01*
X135288000Y-105460000D02*
X136352200Y-105460000D01*
X133464600Y-99232600D02*
X133006600Y-98774600D01*
X133464600Y-101967100D02*
X133464600Y-99232600D01*
X134765400Y-103267900D02*
X133464600Y-101967100D01*
X135916200Y-103267900D02*
X134765400Y-103267900D01*
X136352200Y-103703900D02*
X135916200Y-103267900D01*
X136352200Y-105460000D02*
X136352200Y-103703900D01*
X145675000Y-100175000D02*
X145675000Y-95990600D01*
X144000000Y-101850000D02*
X145675000Y-100175000D01*
%TA.AperFunction,Conductor*%
G36*
X135180745Y-98754980D02*
G01*
X136762539Y-100336774D01*
X136762549Y-100336785D01*
X136766879Y-100341115D01*
X136766880Y-100341116D01*
X136878684Y-100452920D01*
X136916929Y-100475000D01*
X136965495Y-100503039D01*
X136965497Y-100503041D01*
X137003551Y-100525011D01*
X137015615Y-100531977D01*
X137168343Y-100572900D01*
X137326457Y-100572900D01*
X137876000Y-100572900D01*
X137884685Y-100575450D01*
X137893647Y-100574162D01*
X137917687Y-100585140D01*
X137943039Y-100592585D01*
X137948966Y-100599425D01*
X137957203Y-100603187D01*
X137971492Y-100625421D01*
X137988794Y-100645389D01*
X137991081Y-100655903D01*
X137994977Y-100661965D01*
X138000000Y-100696900D01*
X138000000Y-100851000D01*
X137980315Y-100918039D01*
X137927511Y-100963794D01*
X137876000Y-100975000D01*
X137025001Y-100975000D01*
X137025001Y-100998322D01*
X137035144Y-101097607D01*
X137088452Y-101258481D01*
X137088457Y-101258492D01*
X137177424Y-101402728D01*
X137177427Y-101402732D01*
X137186660Y-101411965D01*
X137220145Y-101473288D01*
X137215161Y-101542980D01*
X137186663Y-101587324D01*
X137177033Y-101596953D01*
X137177029Y-101596959D01*
X137088001Y-101741294D01*
X137087996Y-101741305D01*
X137034651Y-101902290D01*
X137024500Y-102001647D01*
X137024500Y-102548337D01*
X137024501Y-102548355D01*
X137035150Y-102652594D01*
X137022380Y-102721287D01*
X136974499Y-102772171D01*
X136906709Y-102789091D01*
X136840533Y-102766675D01*
X136824111Y-102752876D01*
X135984590Y-101913355D01*
X135982057Y-101910822D01*
X135981999Y-101910716D01*
X135971133Y-101893099D01*
X135969097Y-101894457D01*
X135969095Y-101894454D01*
X135971131Y-101893096D01*
X135952051Y-101862163D01*
X135912003Y-101741303D01*
X135911999Y-101741297D01*
X135911998Y-101741294D01*
X135822970Y-101596959D01*
X135822967Y-101596955D01*
X135813339Y-101587327D01*
X135779854Y-101526004D01*
X135784838Y-101456312D01*
X135813345Y-101411959D01*
X135822573Y-101402731D01*
X135911542Y-101258492D01*
X135911547Y-101258481D01*
X135964855Y-101097606D01*
X135974999Y-100998322D01*
X135975000Y-100998309D01*
X135975000Y-100975000D01*
X135124000Y-100975000D01*
X135056961Y-100955315D01*
X135011206Y-100902511D01*
X135000000Y-100851000D01*
X135000000Y-100725000D01*
X134874000Y-100725000D01*
X134806961Y-100705315D01*
X134761206Y-100652511D01*
X134750000Y-100601000D01*
X134750000Y-100475000D01*
X135250000Y-100475000D01*
X135974999Y-100475000D01*
X135974999Y-100451692D01*
X135974998Y-100451677D01*
X135964855Y-100352392D01*
X135911547Y-100191518D01*
X135911542Y-100191507D01*
X135822575Y-100047271D01*
X135822572Y-100047267D01*
X135702732Y-99927427D01*
X135702728Y-99927424D01*
X135558492Y-99838457D01*
X135558481Y-99838452D01*
X135397606Y-99785144D01*
X135298322Y-99775000D01*
X135250000Y-99775000D01*
X135250000Y-100475000D01*
X134750000Y-100475000D01*
X134750000Y-99801251D01*
X134670310Y-99762532D01*
X134664715Y-99757445D01*
X134657462Y-99755316D01*
X134639221Y-99734266D01*
X134618613Y-99715529D01*
X134616656Y-99708226D01*
X134611706Y-99702513D01*
X134600500Y-99651000D01*
X134600500Y-99430424D01*
X134620185Y-99363385D01*
X134659402Y-99324886D01*
X134703044Y-99297968D01*
X134822968Y-99178044D01*
X134912003Y-99033697D01*
X134965349Y-98872708D01*
X134969706Y-98830058D01*
X134996102Y-98765367D01*
X135053283Y-98725216D01*
X135123093Y-98722352D01*
X135180745Y-98754980D01*
G37*
%TD.AperFunction*%
%TA.AperFunction,Conductor*%
G36*
X133529198Y-92150954D02*
G01*
X133542634Y-92151915D01*
X133560360Y-92165185D01*
X133580503Y-92174384D01*
X133587785Y-92185715D01*
X133598567Y-92193787D01*
X133606304Y-92214532D01*
X133618277Y-92233162D01*
X133621428Y-92255080D01*
X133622984Y-92259251D01*
X133623300Y-92268097D01*
X133623300Y-92285943D01*
X133623300Y-92444057D01*
X133662298Y-92589597D01*
X133664223Y-92596783D01*
X133664226Y-92596790D01*
X133743275Y-92733709D01*
X133743279Y-92733714D01*
X133743280Y-92733716D01*
X133855084Y-92845520D01*
X133855086Y-92845521D01*
X133855090Y-92845524D01*
X133966908Y-92910081D01*
X133992016Y-92924577D01*
X133992023Y-92924579D01*
X133999523Y-92927686D01*
X133998845Y-92929321D01*
X134049970Y-92960476D01*
X134080506Y-93023320D01*
X134074407Y-93087228D01*
X134031410Y-93202511D01*
X134031409Y-93202515D01*
X134031409Y-93202517D01*
X134025000Y-93262127D01*
X134025000Y-93262134D01*
X134025000Y-93262135D01*
X134025000Y-94007870D01*
X134025001Y-94007876D01*
X134031408Y-94067483D01*
X134081702Y-94202328D01*
X134085954Y-94210114D01*
X134082780Y-94211846D01*
X134101159Y-94261302D01*
X134086225Y-94329557D01*
X134085617Y-94330502D01*
X134081702Y-94337671D01*
X134031410Y-94472513D01*
X134031409Y-94472517D01*
X134025000Y-94532127D01*
X134025000Y-94532134D01*
X134025000Y-94532135D01*
X134025000Y-95277870D01*
X134025001Y-95277876D01*
X134031408Y-95337483D01*
X134081702Y-95472328D01*
X134081706Y-95472335D01*
X134167952Y-95587544D01*
X134167955Y-95587547D01*
X134283164Y-95673793D01*
X134283171Y-95673797D01*
X134326183Y-95689839D01*
X134418017Y-95724091D01*
X134477627Y-95730500D01*
X134770201Y-95730499D01*
X134778886Y-95733049D01*
X134787847Y-95731761D01*
X134811883Y-95742738D01*
X134837239Y-95750183D01*
X134843167Y-95757025D01*
X134851403Y-95760786D01*
X134865689Y-95783017D01*
X134882994Y-95802987D01*
X134885281Y-95813502D01*
X134889177Y-95819564D01*
X134894200Y-95854499D01*
X134894200Y-96048350D01*
X134874515Y-96115389D01*
X134821711Y-96161144D01*
X134752553Y-96171088D01*
X134705103Y-96153889D01*
X134558486Y-96063454D01*
X134558481Y-96063452D01*
X134397606Y-96010144D01*
X134298322Y-96000000D01*
X134250000Y-96000000D01*
X134250000Y-96826000D01*
X134230315Y-96893039D01*
X134177511Y-96938794D01*
X134126000Y-96950000D01*
X134000000Y-96950000D01*
X134000000Y-97076000D01*
X133980315Y-97143039D01*
X133927511Y-97188794D01*
X133876000Y-97200000D01*
X133025001Y-97200000D01*
X133025001Y-97223322D01*
X133035143Y-97322605D01*
X133042232Y-97343995D01*
X133044634Y-97413823D01*
X133008903Y-97473865D01*
X132946383Y-97505058D01*
X132924526Y-97507000D01*
X132075474Y-97507000D01*
X132008435Y-97487315D01*
X131962680Y-97434511D01*
X131952736Y-97365353D01*
X131957768Y-97343995D01*
X131964856Y-97322605D01*
X131974999Y-97223322D01*
X131975000Y-97223309D01*
X131975000Y-97200000D01*
X131124000Y-97200000D01*
X131056961Y-97180315D01*
X131011206Y-97127511D01*
X131000000Y-97076000D01*
X131000000Y-96950000D01*
X130874000Y-96950000D01*
X130806961Y-96930315D01*
X130761206Y-96877511D01*
X130750000Y-96826000D01*
X130750000Y-96700000D01*
X131250000Y-96700000D01*
X131974999Y-96700000D01*
X131974999Y-96676693D01*
X131974998Y-96676677D01*
X133025000Y-96676677D01*
X133025000Y-96700000D01*
X133750000Y-96700000D01*
X133750000Y-96000000D01*
X133749999Y-95999999D01*
X133701693Y-96000000D01*
X133701675Y-96000001D01*
X133602392Y-96010144D01*
X133441518Y-96063452D01*
X133441507Y-96063457D01*
X133297271Y-96152424D01*
X133297267Y-96152427D01*
X133177427Y-96272267D01*
X133177424Y-96272271D01*
X133088457Y-96416507D01*
X133088452Y-96416518D01*
X133035144Y-96577393D01*
X133025000Y-96676677D01*
X131974998Y-96676677D01*
X131974998Y-96676676D01*
X131964855Y-96577392D01*
X131911547Y-96416518D01*
X131911542Y-96416507D01*
X131822575Y-96272271D01*
X131822572Y-96272267D01*
X131702732Y-96152427D01*
X131702728Y-96152424D01*
X131558492Y-96063457D01*
X131558481Y-96063452D01*
X131397606Y-96010144D01*
X131298322Y-96000000D01*
X131250000Y-96000000D01*
X131250000Y-96700000D01*
X130750000Y-96700000D01*
X130750000Y-96000000D01*
X130726449Y-95976450D01*
X130692964Y-95915127D01*
X130697948Y-95845435D01*
X130697948Y-95845434D01*
X130697952Y-95845427D01*
X130726449Y-95801087D01*
X130742720Y-95784816D01*
X130742720Y-95784815D01*
X130752924Y-95774611D01*
X130752928Y-95774606D01*
X132811806Y-93715728D01*
X132811811Y-93715724D01*
X132822014Y-93705520D01*
X132822016Y-93705520D01*
X132933820Y-93593716D01*
X133012877Y-93456784D01*
X133053800Y-93304057D01*
X133053800Y-92589597D01*
X133073485Y-92522558D01*
X133090119Y-92501916D01*
X133411619Y-92180416D01*
X133431055Y-92169803D01*
X133447789Y-92155303D01*
X133461120Y-92153386D01*
X133472942Y-92146931D01*
X133495028Y-92148510D01*
X133516947Y-92145359D01*
X133529198Y-92150954D01*
G37*
%TD.AperFunction*%
%TA.AperFunction,Conductor*%
G36*
X152442539Y-89520185D02*
G01*
X152488294Y-89572989D01*
X152499500Y-89624500D01*
X152499500Y-119375500D01*
X152479815Y-119442539D01*
X152427011Y-119488294D01*
X152375500Y-119499500D01*
X124124500Y-119499500D01*
X124057461Y-119479815D01*
X124011706Y-119427011D01*
X124000500Y-119375500D01*
X124000500Y-116102135D01*
X125149500Y-116102135D01*
X125149500Y-117897870D01*
X125149501Y-117897876D01*
X125155908Y-117957483D01*
X125206202Y-118092328D01*
X125206206Y-118092335D01*
X125292452Y-118207544D01*
X125292455Y-118207547D01*
X125407664Y-118293793D01*
X125407671Y-118293797D01*
X125542517Y-118344091D01*
X125542516Y-118344091D01*
X125549444Y-118344835D01*
X125602127Y-118350500D01*
X127397872Y-118350499D01*
X127457483Y-118344091D01*
X127592331Y-118293796D01*
X127707546Y-118207546D01*
X127793796Y-118092331D01*
X127844091Y-117957483D01*
X127850500Y-117897873D01*
X127850499Y-116102128D01*
X127844091Y-116042517D01*
X127824573Y-115990187D01*
X127793797Y-115907671D01*
X127793793Y-115907664D01*
X127707546Y-115792454D01*
X127707544Y-115792452D01*
X127592335Y-115706206D01*
X127592328Y-115706202D01*
X127457482Y-115655908D01*
X127457483Y-115655908D01*
X127397883Y-115649501D01*
X127397881Y-115649500D01*
X127397873Y-115649500D01*
X127397864Y-115649500D01*
X125602129Y-115649500D01*
X125602123Y-115649501D01*
X125542516Y-115655908D01*
X125407671Y-115706202D01*
X125407664Y-115706206D01*
X125292455Y-115792452D01*
X125292454Y-115792454D01*
X125206206Y-115907664D01*
X125206202Y-115907671D01*
X125155908Y-116042517D01*
X125149501Y-116102116D01*
X125149501Y-116102123D01*
X125149500Y-116102135D01*
X124000500Y-116102135D01*
X124000500Y-111102135D01*
X125149500Y-111102135D01*
X125149500Y-112897870D01*
X125149501Y-112897876D01*
X125155908Y-112957483D01*
X125206202Y-113092328D01*
X125206206Y-113092335D01*
X125292452Y-113207544D01*
X125292455Y-113207547D01*
X125407664Y-113293793D01*
X125407671Y-113293797D01*
X125542517Y-113344091D01*
X125542516Y-113344091D01*
X125549444Y-113344835D01*
X125602127Y-113350500D01*
X127397872Y-113350499D01*
X127457483Y-113344091D01*
X127592331Y-113293796D01*
X127707546Y-113207546D01*
X127793796Y-113092331D01*
X127844091Y-112957483D01*
X127850500Y-112897873D01*
X127850499Y-111102128D01*
X127844091Y-111042517D01*
X127821724Y-110982549D01*
X127793797Y-110907671D01*
X127793793Y-110907664D01*
X127707547Y-110792455D01*
X127707544Y-110792452D01*
X127592335Y-110706206D01*
X127592328Y-110706202D01*
X127457482Y-110655908D01*
X127457483Y-110655908D01*
X127397883Y-110649501D01*
X127397881Y-110649500D01*
X127397873Y-110649500D01*
X127397864Y-110649500D01*
X125602129Y-110649500D01*
X125602123Y-110649501D01*
X125542516Y-110655908D01*
X125407671Y-110706202D01*
X125407664Y-110706206D01*
X125292455Y-110792452D01*
X125292452Y-110792455D01*
X125206206Y-110907664D01*
X125206202Y-110907671D01*
X125155908Y-111042517D01*
X125149870Y-111098684D01*
X125149501Y-111102123D01*
X125149500Y-111102135D01*
X124000500Y-111102135D01*
X124000500Y-101102155D01*
X125150000Y-101102155D01*
X125150000Y-101750000D01*
X126066988Y-101750000D01*
X126034075Y-101807007D01*
X126000000Y-101934174D01*
X126000000Y-102065826D01*
X126034075Y-102192993D01*
X126066988Y-102250000D01*
X125150000Y-102250000D01*
X125150000Y-102897844D01*
X125156401Y-102957372D01*
X125156403Y-102957379D01*
X125206645Y-103092086D01*
X125206649Y-103092093D01*
X125292809Y-103207187D01*
X125292812Y-103207190D01*
X125407906Y-103293350D01*
X125407913Y-103293354D01*
X125542620Y-103343596D01*
X125542627Y-103343598D01*
X125602155Y-103349999D01*
X125602172Y-103350000D01*
X126250000Y-103350000D01*
X126250000Y-102433012D01*
X126307007Y-102465925D01*
X126434174Y-102500000D01*
X126565826Y-102500000D01*
X126692993Y-102465925D01*
X126750000Y-102433012D01*
X126750000Y-103350000D01*
X127397828Y-103350000D01*
X127397844Y-103349999D01*
X127457372Y-103343598D01*
X127457379Y-103343596D01*
X127592086Y-103293354D01*
X127592093Y-103293350D01*
X127707187Y-103207190D01*
X127707190Y-103207187D01*
X127793350Y-103092093D01*
X127793354Y-103092086D01*
X127843596Y-102957379D01*
X127843598Y-102957372D01*
X127849999Y-102897844D01*
X127850000Y-102897827D01*
X127850000Y-102250000D01*
X126933012Y-102250000D01*
X126965925Y-102192993D01*
X127000000Y-102065826D01*
X127000000Y-101934174D01*
X126965925Y-101807007D01*
X126933012Y-101750000D01*
X127850000Y-101750000D01*
X127850000Y-101102172D01*
X127849999Y-101102155D01*
X127843598Y-101042627D01*
X127843596Y-101042620D01*
X127793354Y-100907913D01*
X127793350Y-100907906D01*
X127707190Y-100792812D01*
X127707187Y-100792809D01*
X127592093Y-100706649D01*
X127592086Y-100706645D01*
X127457379Y-100656403D01*
X127457372Y-100656401D01*
X127397844Y-100650000D01*
X126750000Y-100650000D01*
X126750000Y-101566988D01*
X126692993Y-101534075D01*
X126565826Y-101500000D01*
X126434174Y-101500000D01*
X126307007Y-101534075D01*
X126250000Y-101566988D01*
X126250000Y-100650000D01*
X125602155Y-100650000D01*
X125542627Y-100656401D01*
X125542620Y-100656403D01*
X125407913Y-100706645D01*
X125407906Y-100706649D01*
X125292812Y-100792809D01*
X125292809Y-100792812D01*
X125206649Y-100907906D01*
X125206645Y-100907913D01*
X125156403Y-101042620D01*
X125156401Y-101042627D01*
X125150000Y-101102155D01*
X124000500Y-101102155D01*
X124000500Y-91602135D01*
X125149500Y-91602135D01*
X125149500Y-93397870D01*
X125149501Y-93397876D01*
X125155908Y-93457483D01*
X125206202Y-93592328D01*
X125206206Y-93592335D01*
X125292452Y-93707544D01*
X125292455Y-93707547D01*
X125407664Y-93793793D01*
X125407671Y-93793797D01*
X125452618Y-93810561D01*
X125542517Y-93844091D01*
X125602127Y-93850500D01*
X125849787Y-93850499D01*
X125916826Y-93870183D01*
X125957174Y-93912499D01*
X126019477Y-94020412D01*
X126019479Y-94020415D01*
X126019480Y-94020416D01*
X126131284Y-94132220D01*
X126131286Y-94132221D01*
X126131290Y-94132224D01*
X126252716Y-94202328D01*
X126268216Y-94211277D01*
X126420943Y-94252200D01*
X126579057Y-94252200D01*
X127315603Y-94252200D01*
X127382642Y-94271885D01*
X127403284Y-94288519D01*
X128743281Y-95628516D01*
X128776766Y-95689839D01*
X128779600Y-95716197D01*
X128779600Y-97054830D01*
X128779599Y-97054848D01*
X128779599Y-97220554D01*
X128779598Y-97220554D01*
X128820523Y-97373286D01*
X128824902Y-97380870D01*
X128829599Y-97389004D01*
X128829601Y-97389013D01*
X128829604Y-97389012D01*
X128878593Y-97473865D01*
X128899579Y-97510214D01*
X128899581Y-97510217D01*
X129018449Y-97629085D01*
X129018455Y-97629090D01*
X129988181Y-98598816D01*
X130021666Y-98660139D01*
X130024500Y-98686496D01*
X130024500Y-98773336D01*
X130024501Y-98773355D01*
X130034650Y-98872707D01*
X130034651Y-98872710D01*
X130087996Y-99033694D01*
X130088001Y-99033705D01*
X130177029Y-99178040D01*
X130177032Y-99178044D01*
X130296955Y-99297967D01*
X130296959Y-99297970D01*
X130441294Y-99386998D01*
X130441297Y-99386999D01*
X130441303Y-99387003D01*
X130602292Y-99440349D01*
X130701655Y-99450500D01*
X131134480Y-99450499D01*
X131201519Y-99470183D01*
X131247274Y-99522987D01*
X131257218Y-99592146D01*
X131228193Y-99655702D01*
X131222162Y-99662179D01*
X131169530Y-99714811D01*
X131081522Y-99860393D01*
X131030913Y-100022807D01*
X131024500Y-100093386D01*
X131024500Y-100606613D01*
X131030913Y-100677192D01*
X131030913Y-100677194D01*
X131030914Y-100677196D01*
X131081522Y-100839606D01*
X131159961Y-100969360D01*
X131169530Y-100985188D01*
X131271661Y-101087319D01*
X131305146Y-101148642D01*
X131300162Y-101218334D01*
X131271661Y-101262681D01*
X131169531Y-101364810D01*
X131169530Y-101364811D01*
X131081522Y-101510393D01*
X131030913Y-101672807D01*
X131024500Y-101743386D01*
X131024500Y-102074902D01*
X131004815Y-102141941D01*
X130988181Y-102162583D01*
X130728881Y-102421882D01*
X130728880Y-102421884D01*
X130689781Y-102489606D01*
X130683780Y-102500000D01*
X130655873Y-102548337D01*
X130649823Y-102558815D01*
X130608899Y-102711543D01*
X130608899Y-102711545D01*
X130608899Y-102879646D01*
X130608900Y-102879659D01*
X130608900Y-106275500D01*
X130589215Y-106342539D01*
X130536411Y-106388294D01*
X130484900Y-106399500D01*
X127974499Y-106399500D01*
X127907460Y-106379815D01*
X127861705Y-106327011D01*
X127850499Y-106275500D01*
X127850499Y-106102129D01*
X127850498Y-106102123D01*
X127850497Y-106102116D01*
X127844091Y-106042517D01*
X127806043Y-105940506D01*
X127793797Y-105907671D01*
X127793793Y-105907664D01*
X127707547Y-105792455D01*
X127707544Y-105792452D01*
X127592335Y-105706206D01*
X127592328Y-105706202D01*
X127457482Y-105655908D01*
X127457483Y-105655908D01*
X127397883Y-105649501D01*
X127397881Y-105649500D01*
X127397873Y-105649500D01*
X127397864Y-105649500D01*
X125602129Y-105649500D01*
X125602123Y-105649501D01*
X125542516Y-105655908D01*
X125407671Y-105706202D01*
X125407664Y-105706206D01*
X125292455Y-105792452D01*
X125292452Y-105792455D01*
X125206206Y-105907664D01*
X125206202Y-105907671D01*
X125155908Y-106042517D01*
X125152614Y-106073162D01*
X125149501Y-106102123D01*
X125149500Y-106102135D01*
X125149500Y-107897870D01*
X125149501Y-107897876D01*
X125155908Y-107957483D01*
X125206202Y-108092328D01*
X125206206Y-108092335D01*
X125292452Y-108207544D01*
X125292455Y-108207547D01*
X125407664Y-108293793D01*
X125407671Y-108293797D01*
X125542517Y-108344091D01*
X125542516Y-108344091D01*
X125549444Y-108344835D01*
X125602127Y-108350500D01*
X127397872Y-108350499D01*
X127457483Y-108344091D01*
X127592331Y-108293796D01*
X127707546Y-108207546D01*
X127793796Y-108092331D01*
X127844091Y-107957483D01*
X127850500Y-107897873D01*
X127850500Y-107724500D01*
X127870185Y-107657461D01*
X127922989Y-107611706D01*
X127974500Y-107600500D01*
X130915774Y-107600500D01*
X130982813Y-107620185D01*
X131028568Y-107672989D01*
X131034156Y-107687602D01*
X131081522Y-107839606D01*
X131158545Y-107967017D01*
X131169530Y-107985188D01*
X131271661Y-108087319D01*
X131305146Y-108148642D01*
X131300162Y-108218334D01*
X131271661Y-108262681D01*
X131169531Y-108364810D01*
X131169530Y-108364811D01*
X131081522Y-108510393D01*
X131030913Y-108672807D01*
X131024500Y-108743386D01*
X131024500Y-109074902D01*
X131004815Y-109141941D01*
X130988181Y-109162583D01*
X130740981Y-109409782D01*
X130740975Y-109409790D01*
X130694895Y-109489605D01*
X130694895Y-109489606D01*
X130661923Y-109546715D01*
X130620999Y-109699443D01*
X130620999Y-109699445D01*
X130620999Y-109867546D01*
X130621000Y-109867559D01*
X130621000Y-111622430D01*
X130620999Y-111622448D01*
X130620999Y-111788154D01*
X130620998Y-111788154D01*
X130637753Y-111850681D01*
X130661923Y-111940885D01*
X130666745Y-111949236D01*
X130666747Y-111949245D01*
X130666750Y-111949244D01*
X130736297Y-112069705D01*
X130740979Y-112077814D01*
X130740981Y-112077817D01*
X130859849Y-112196685D01*
X130859855Y-112196690D01*
X130988306Y-112325141D01*
X131021791Y-112386464D01*
X131024254Y-112415574D01*
X131024500Y-112415574D01*
X131024500Y-112931613D01*
X131030913Y-113002192D01*
X131030913Y-113002194D01*
X131030914Y-113002196D01*
X131081522Y-113164606D01*
X131159620Y-113293796D01*
X131169530Y-113310188D01*
X131289811Y-113430469D01*
X131289813Y-113430470D01*
X131289815Y-113430472D01*
X131435394Y-113518478D01*
X131597804Y-113569086D01*
X131668384Y-113575500D01*
X131668387Y-113575500D01*
X132331613Y-113575500D01*
X132331616Y-113575500D01*
X132402196Y-113569086D01*
X132564606Y-113518478D01*
X132710185Y-113430472D01*
X132830472Y-113310185D01*
X132918478Y-113164606D01*
X132918481Y-113164595D01*
X132920005Y-113161212D01*
X132921785Y-113159134D01*
X132922358Y-113158187D01*
X132922515Y-113158282D01*
X132965468Y-113108156D01*
X133032398Y-113088102D01*
X133033082Y-113088100D01*
X133459531Y-113088100D01*
X133459547Y-113088101D01*
X133467143Y-113088101D01*
X133625254Y-113088101D01*
X133625257Y-113088101D01*
X133777985Y-113047177D01*
X133855894Y-113002196D01*
X133914916Y-112968120D01*
X134026720Y-112856316D01*
X134026720Y-112856314D01*
X134036924Y-112846111D01*
X134036928Y-112846106D01*
X134223958Y-112659075D01*
X134285279Y-112625592D01*
X134354970Y-112630576D01*
X134418017Y-112654091D01*
X134418016Y-112654091D01*
X134424944Y-112654835D01*
X134477627Y-112660500D01*
X135140903Y-112660499D01*
X135207941Y-112680183D01*
X135253696Y-112732987D01*
X135263640Y-112802146D01*
X135234615Y-112865702D01*
X135228583Y-112872180D01*
X134112582Y-113988181D01*
X134051259Y-114021666D01*
X134024901Y-114024500D01*
X133676662Y-114024500D01*
X133676644Y-114024501D01*
X133577292Y-114034650D01*
X133577289Y-114034651D01*
X133416305Y-114087996D01*
X133416294Y-114088001D01*
X133271959Y-114177029D01*
X133271955Y-114177032D01*
X133152032Y-114296955D01*
X133152029Y-114296959D01*
X133063001Y-114441294D01*
X133062996Y-114441305D01*
X133009651Y-114602290D01*
X132999500Y-114701647D01*
X132999500Y-115298337D01*
X132999501Y-115298355D01*
X133009650Y-115397707D01*
X133009651Y-115397710D01*
X133062996Y-115558694D01*
X133063001Y-115558705D01*
X133152029Y-115703040D01*
X133152032Y-115703044D01*
X133271955Y-115822967D01*
X133271959Y-115822970D01*
X133416294Y-115911998D01*
X133416297Y-115911999D01*
X133416303Y-115912003D01*
X133577292Y-115965349D01*
X133676655Y-115975500D01*
X134223344Y-115975499D01*
X134223352Y-115975498D01*
X134223355Y-115975498D01*
X134277760Y-115969940D01*
X134322708Y-115965349D01*
X134483697Y-115912003D01*
X134628044Y-115822968D01*
X134637668Y-115813343D01*
X134698987Y-115779856D01*
X134768679Y-115784835D01*
X134813034Y-115813339D01*
X134822267Y-115822572D01*
X134822271Y-115822575D01*
X134966507Y-115911542D01*
X134966518Y-115911547D01*
X135127393Y-115964855D01*
X135226683Y-115974999D01*
X135750000Y-115974999D01*
X135773308Y-115974999D01*
X135773322Y-115974998D01*
X135872607Y-115964855D01*
X136033481Y-115911547D01*
X136033492Y-115911542D01*
X136177728Y-115822575D01*
X136177732Y-115822572D01*
X136297572Y-115702732D01*
X136297575Y-115702728D01*
X136386542Y-115558492D01*
X136386547Y-115558481D01*
X136439855Y-115397606D01*
X136449999Y-115298322D01*
X136450000Y-115298309D01*
X136450000Y-115250000D01*
X135750000Y-115250000D01*
X135750000Y-115974999D01*
X135226683Y-115974999D01*
X135250000Y-115974998D01*
X135250000Y-115124000D01*
X135269685Y-115056961D01*
X135322489Y-115011206D01*
X135374000Y-115000000D01*
X135500000Y-115000000D01*
X135500000Y-114874000D01*
X135519685Y-114806961D01*
X135572489Y-114761206D01*
X135624000Y-114750000D01*
X136449999Y-114750000D01*
X136449999Y-114701692D01*
X136449998Y-114701677D01*
X136439855Y-114602392D01*
X136386547Y-114441518D01*
X136386542Y-114441507D01*
X136297575Y-114297271D01*
X136297572Y-114297267D01*
X136177732Y-114177427D01*
X136177728Y-114177424D01*
X136033492Y-114088457D01*
X136033481Y-114088452D01*
X135981927Y-114071369D01*
X135924482Y-114031596D01*
X135897659Y-113967080D01*
X135909974Y-113898304D01*
X135933244Y-113865989D01*
X136710706Y-113088528D01*
X136710711Y-113088524D01*
X136720914Y-113078320D01*
X136720916Y-113078320D01*
X136832720Y-112966516D01*
X136892749Y-112862542D01*
X136911777Y-112829585D01*
X136952701Y-112676857D01*
X136952701Y-112518743D01*
X136952701Y-112511148D01*
X136952700Y-112511130D01*
X136952700Y-109190945D01*
X136952700Y-109190943D01*
X136911777Y-109038216D01*
X136881409Y-108985616D01*
X136832724Y-108901290D01*
X136832718Y-108901282D01*
X136720917Y-108789481D01*
X136720916Y-108789480D01*
X136639348Y-108742387D01*
X136635160Y-108737995D01*
X136629424Y-108736010D01*
X136611329Y-108713002D01*
X136591133Y-108691821D01*
X136589984Y-108685861D01*
X136586232Y-108681090D01*
X136583448Y-108651955D01*
X136577909Y-108623214D01*
X136580165Y-108617578D01*
X136579588Y-108611537D01*
X136592998Y-108585521D01*
X136603877Y-108558349D01*
X136609531Y-108553448D01*
X136611602Y-108549433D01*
X136639345Y-108527615D01*
X136646532Y-108523465D01*
X136669172Y-108510394D01*
X136720916Y-108480520D01*
X136832720Y-108368716D01*
X136832721Y-108368714D01*
X137234420Y-107967016D01*
X137313477Y-107830084D01*
X137354401Y-107677357D01*
X137354401Y-107519242D01*
X137354401Y-107511639D01*
X137354400Y-107511629D01*
X137354400Y-103620959D01*
X137354401Y-103620946D01*
X137354401Y-103452845D01*
X137354401Y-103452843D01*
X137319929Y-103324194D01*
X137321592Y-103254347D01*
X137360754Y-103196485D01*
X137424982Y-103168980D01*
X137478705Y-103174396D01*
X137602292Y-103215349D01*
X137701655Y-103225500D01*
X138298344Y-103225499D01*
X138298352Y-103225498D01*
X138298355Y-103225498D01*
X138352760Y-103219940D01*
X138397708Y-103215349D01*
X138520884Y-103174532D01*
X138590706Y-103172131D01*
X138650748Y-103207862D01*
X138681942Y-103270382D01*
X138679658Y-103324332D01*
X138645599Y-103451443D01*
X138645599Y-103619546D01*
X138645600Y-103619559D01*
X138645600Y-107511630D01*
X138645599Y-107511648D01*
X138645599Y-107677354D01*
X138645598Y-107677354D01*
X138686523Y-107830085D01*
X138704188Y-107860680D01*
X138704189Y-107860684D01*
X138765575Y-107967009D01*
X138765579Y-107967014D01*
X138765580Y-107967016D01*
X138877384Y-108078820D01*
X138877385Y-108078821D01*
X139279084Y-108480520D01*
X139279085Y-108480521D01*
X139279087Y-108480522D01*
X139360651Y-108527613D01*
X139408867Y-108578180D01*
X139422090Y-108646787D01*
X139396122Y-108711652D01*
X139360651Y-108742387D01*
X139279087Y-108789477D01*
X139279082Y-108789481D01*
X138519481Y-109549082D01*
X138519479Y-109549085D01*
X138498098Y-109586119D01*
X138481713Y-109614500D01*
X138469771Y-109635184D01*
X138469769Y-109635186D01*
X138440425Y-109686009D01*
X138440424Y-109686010D01*
X138435172Y-109705612D01*
X138399499Y-109838743D01*
X138399499Y-109838745D01*
X138399499Y-110006846D01*
X138399500Y-110006859D01*
X138399500Y-112713834D01*
X138379815Y-112780873D01*
X138378602Y-112782725D01*
X138290609Y-112914414D01*
X138290602Y-112914427D01*
X138230264Y-113060098D01*
X138230261Y-113060110D01*
X138199500Y-113214753D01*
X138199500Y-113372446D01*
X138230261Y-113527089D01*
X138230264Y-113527101D01*
X138290602Y-113672772D01*
X138290609Y-113672785D01*
X138378602Y-113804474D01*
X138384252Y-113822520D01*
X138394477Y-113838430D01*
X138398928Y-113869389D01*
X138399480Y-113871151D01*
X138399500Y-113873365D01*
X138399500Y-114068942D01*
X138379815Y-114135981D01*
X138340598Y-114174479D01*
X138254209Y-114227764D01*
X138206342Y-114257289D01*
X138082289Y-114381342D01*
X137990187Y-114530663D01*
X137990185Y-114530668D01*
X137966452Y-114602290D01*
X137935001Y-114697203D01*
X137935001Y-114697204D01*
X137935000Y-114697204D01*
X137924500Y-114799983D01*
X137924500Y-116200001D01*
X137924501Y-116200018D01*
X137935000Y-116302796D01*
X137935001Y-116302799D01*
X137961063Y-116381447D01*
X137990186Y-116469334D01*
X138082288Y-116618656D01*
X138206344Y-116742712D01*
X138355666Y-116834814D01*
X138522203Y-116889999D01*
X138624991Y-116900500D01*
X139375008Y-116900499D01*
X139375016Y-116900498D01*
X139375019Y-116900498D01*
X139431302Y-116894748D01*
X139477797Y-116889999D01*
X139644334Y-116834814D01*
X139793656Y-116742712D01*
X139917712Y-116618656D01*
X140009814Y-116469334D01*
X140064999Y-116302797D01*
X140075500Y-116200009D01*
X140075500Y-116199986D01*
X140875001Y-116199986D01*
X140885494Y-116302697D01*
X140940641Y-116469119D01*
X140940643Y-116469124D01*
X141032684Y-116618345D01*
X141156654Y-116742315D01*
X141305875Y-116834356D01*
X141305880Y-116834358D01*
X141472302Y-116889505D01*
X141472309Y-116889506D01*
X141575019Y-116899999D01*
X141699999Y-116899999D01*
X142200000Y-116899999D01*
X142324972Y-116899999D01*
X142324986Y-116899998D01*
X142427697Y-116889505D01*
X142594119Y-116834358D01*
X142594124Y-116834356D01*
X142743345Y-116742315D01*
X142867315Y-116618345D01*
X142959356Y-116469124D01*
X142959358Y-116469119D01*
X143014505Y-116302697D01*
X143014506Y-116302690D01*
X143024999Y-116199986D01*
X143025000Y-116199973D01*
X143025000Y-115750000D01*
X142200000Y-115750000D01*
X142200000Y-116899999D01*
X141699999Y-116899999D01*
X141700000Y-116899998D01*
X141700000Y-115750000D01*
X140875001Y-115750000D01*
X140875001Y-116199986D01*
X140075500Y-116199986D01*
X140075499Y-115440099D01*
X140075499Y-114799998D01*
X140075498Y-114799981D01*
X140064999Y-114697203D01*
X140064998Y-114697200D01*
X140046011Y-114639901D01*
X140009814Y-114530666D01*
X139917712Y-114381344D01*
X139793656Y-114257288D01*
X139659402Y-114174480D01*
X139652578Y-114166893D01*
X139643297Y-114162655D01*
X139629608Y-114141355D01*
X139612679Y-114122533D01*
X139610034Y-114110897D01*
X139605523Y-114103877D01*
X139600500Y-114068942D01*
X139600500Y-113873365D01*
X139620185Y-113806326D01*
X139621398Y-113804474D01*
X139709390Y-113672785D01*
X139709390Y-113672784D01*
X139709394Y-113672779D01*
X139769737Y-113527097D01*
X139800500Y-113372442D01*
X139800500Y-113214758D01*
X139800500Y-113214755D01*
X139800499Y-113214753D01*
X139799065Y-113207544D01*
X139769737Y-113060103D01*
X139745754Y-113002203D01*
X139709397Y-112914427D01*
X139709395Y-112914423D01*
X139709394Y-112914421D01*
X139647001Y-112821044D01*
X139626124Y-112754368D01*
X139644608Y-112686988D01*
X139696587Y-112640297D01*
X139765557Y-112629121D01*
X139793437Y-112635972D01*
X139842017Y-112654091D01*
X139842016Y-112654091D01*
X139848944Y-112654835D01*
X139901627Y-112660500D01*
X141051700Y-112660499D01*
X141060385Y-112663049D01*
X141069347Y-112661761D01*
X141093387Y-112672739D01*
X141118739Y-112680184D01*
X141124666Y-112687024D01*
X141132903Y-112690786D01*
X141147190Y-112713018D01*
X141164494Y-112732987D01*
X141166781Y-112743502D01*
X141170677Y-112749564D01*
X141175700Y-112784499D01*
X141175700Y-112969130D01*
X141175699Y-112969148D01*
X141175699Y-113134854D01*
X141175698Y-113134854D01*
X141216623Y-113287585D01*
X141220209Y-113293797D01*
X141235800Y-113320800D01*
X141265618Y-113372446D01*
X141295679Y-113424514D01*
X141295681Y-113424517D01*
X141414549Y-113543385D01*
X141414555Y-113543390D01*
X141759484Y-113888319D01*
X141792969Y-113949642D01*
X141787985Y-114019334D01*
X141746113Y-114075267D01*
X141680649Y-114099684D01*
X141671804Y-114100000D01*
X141575029Y-114100000D01*
X141575012Y-114100001D01*
X141472302Y-114110494D01*
X141305880Y-114165641D01*
X141305875Y-114165643D01*
X141156654Y-114257684D01*
X141032684Y-114381654D01*
X140940643Y-114530875D01*
X140940641Y-114530880D01*
X140885494Y-114697302D01*
X140885493Y-114697309D01*
X140875000Y-114800013D01*
X140875000Y-115250000D01*
X143037460Y-115250000D01*
X143071327Y-115231506D01*
X143141019Y-115236489D01*
X143159689Y-115245286D01*
X143194309Y-115265274D01*
X143194312Y-115265276D01*
X143194314Y-115265276D01*
X143194315Y-115265277D01*
X143347043Y-115306201D01*
X143347046Y-115306201D01*
X143512753Y-115306201D01*
X143512769Y-115306200D01*
X144290599Y-115306200D01*
X144357638Y-115325885D01*
X144403393Y-115378689D01*
X144414599Y-115430200D01*
X144414599Y-115594154D01*
X144414598Y-115594154D01*
X144431145Y-115655908D01*
X144455523Y-115746885D01*
X144474559Y-115779856D01*
X144481831Y-115792450D01*
X144481832Y-115792454D01*
X144481833Y-115792454D01*
X144534579Y-115883814D01*
X144534581Y-115883817D01*
X144653449Y-116002685D01*
X144653455Y-116002690D01*
X145074171Y-116423407D01*
X145107656Y-116484730D01*
X145109848Y-116523689D01*
X145099500Y-116624979D01*
X145099500Y-117375001D01*
X145099501Y-117375019D01*
X145110000Y-117477796D01*
X145110001Y-117477799D01*
X145122055Y-117514174D01*
X145165186Y-117644334D01*
X145257288Y-117793656D01*
X145381344Y-117917712D01*
X145530666Y-118009814D01*
X145697203Y-118064999D01*
X145799991Y-118075500D01*
X147200008Y-118075499D01*
X147302797Y-118064999D01*
X147469334Y-118009814D01*
X147618656Y-117917712D01*
X147742712Y-117793656D01*
X147834814Y-117644334D01*
X147889999Y-117477797D01*
X147900500Y-117375009D01*
X147900499Y-116624992D01*
X147889999Y-116522203D01*
X147834814Y-116355666D01*
X147742712Y-116206344D01*
X147618656Y-116082288D01*
X147525888Y-116025069D01*
X147469336Y-115990187D01*
X147469331Y-115990185D01*
X147467862Y-115989698D01*
X147302797Y-115935001D01*
X147302795Y-115935000D01*
X147200016Y-115924500D01*
X147200009Y-115924500D01*
X146325098Y-115924500D01*
X146258059Y-115904815D01*
X146237417Y-115888181D01*
X145684189Y-115334953D01*
X145650704Y-115273630D01*
X145655688Y-115203938D01*
X145697560Y-115148005D01*
X145763024Y-115123588D01*
X145784476Y-115123914D01*
X145799991Y-115125500D01*
X147200008Y-115125499D01*
X147302797Y-115114999D01*
X147469334Y-115059814D01*
X147618656Y-114967712D01*
X147742712Y-114843656D01*
X147834814Y-114694334D01*
X147889999Y-114527797D01*
X147900500Y-114425009D01*
X147900499Y-113674992D01*
X147890150Y-113573686D01*
X147902919Y-113504996D01*
X147925821Y-113473412D01*
X148262418Y-113136816D01*
X148323739Y-113103334D01*
X148350097Y-113100500D01*
X149025501Y-113100500D01*
X149092540Y-113120185D01*
X149138295Y-113172989D01*
X149149501Y-113224500D01*
X149149501Y-113397876D01*
X149155908Y-113457483D01*
X149206202Y-113592328D01*
X149206206Y-113592335D01*
X149292452Y-113707544D01*
X149292455Y-113707547D01*
X149407664Y-113793793D01*
X149407671Y-113793797D01*
X149436298Y-113804474D01*
X149542517Y-113844091D01*
X149602127Y-113850500D01*
X149612685Y-113850499D01*
X149679723Y-113870179D01*
X149700372Y-113886818D01*
X150370591Y-114557037D01*
X150307007Y-114574075D01*
X150192993Y-114639901D01*
X150099901Y-114732993D01*
X150034075Y-114847007D01*
X150017037Y-114910591D01*
X149384728Y-114278282D01*
X149384727Y-114278282D01*
X149345380Y-114332439D01*
X149248904Y-114521782D01*
X149183242Y-114723869D01*
X149183242Y-114723872D01*
X149150000Y-114933753D01*
X149150000Y-115146246D01*
X149183242Y-115356127D01*
X149183242Y-115356130D01*
X149248904Y-115558217D01*
X149345375Y-115747550D01*
X149384728Y-115801716D01*
X150017037Y-115169408D01*
X150034075Y-115232993D01*
X150099901Y-115347007D01*
X150192993Y-115440099D01*
X150307007Y-115505925D01*
X150370591Y-115522962D01*
X149769971Y-116123581D01*
X149848711Y-116240895D01*
X149849920Y-116244729D01*
X149852844Y-116247491D01*
X149860343Y-116277778D01*
X149869727Y-116307529D01*
X149868671Y-116311408D01*
X149869638Y-116315312D01*
X149859573Y-116344844D01*
X149851383Y-116374947D01*
X149848397Y-116377640D01*
X149847100Y-116381447D01*
X149802051Y-116420483D01*
X149792440Y-116425380D01*
X149738282Y-116464727D01*
X149738282Y-116464728D01*
X150370591Y-117097037D01*
X150307007Y-117114075D01*
X150192993Y-117179901D01*
X150099901Y-117272993D01*
X150034075Y-117387007D01*
X150017037Y-117450591D01*
X149384728Y-116818282D01*
X149384727Y-116818282D01*
X149345380Y-116872439D01*
X149248904Y-117061782D01*
X149183242Y-117263869D01*
X149183242Y-117263872D01*
X149150000Y-117473753D01*
X149150000Y-117686246D01*
X149183242Y-117896127D01*
X149183242Y-117896130D01*
X149248904Y-118098217D01*
X149345375Y-118287550D01*
X149384728Y-118341716D01*
X150017037Y-117709408D01*
X150034075Y-117772993D01*
X150099901Y-117887007D01*
X150192993Y-117980099D01*
X150307007Y-118045925D01*
X150370590Y-118062962D01*
X149738282Y-118695269D01*
X149738282Y-118695270D01*
X149792449Y-118734624D01*
X149981782Y-118831095D01*
X150183870Y-118896757D01*
X150393754Y-118930000D01*
X150606246Y-118930000D01*
X150816127Y-118896757D01*
X150816130Y-118896757D01*
X151018217Y-118831095D01*
X151207554Y-118734622D01*
X151261716Y-118695270D01*
X151261717Y-118695270D01*
X150629408Y-118062962D01*
X150692993Y-118045925D01*
X150807007Y-117980099D01*
X150900099Y-117887007D01*
X150965925Y-117772993D01*
X150982962Y-117709409D01*
X151615270Y-118341717D01*
X151615270Y-118341716D01*
X151654622Y-118287554D01*
X151751095Y-118098217D01*
X151816757Y-117896130D01*
X151816757Y-117896127D01*
X151850000Y-117686246D01*
X151850000Y-117473753D01*
X151816757Y-117263872D01*
X151816757Y-117263869D01*
X151751095Y-117061782D01*
X151654624Y-116872449D01*
X151615270Y-116818282D01*
X151615269Y-116818282D01*
X150982962Y-117450590D01*
X150965925Y-117387007D01*
X150900099Y-117272993D01*
X150807007Y-117179901D01*
X150692993Y-117114075D01*
X150629409Y-117097037D01*
X151261716Y-116464728D01*
X151207550Y-116425375D01*
X151197954Y-116420486D01*
X151147157Y-116372512D01*
X151130361Y-116304692D01*
X151152897Y-116238556D01*
X151197954Y-116199514D01*
X151207554Y-116194622D01*
X151261716Y-116155270D01*
X151261717Y-116155270D01*
X150629408Y-115522962D01*
X150692993Y-115505925D01*
X150807007Y-115440099D01*
X150900099Y-115347007D01*
X150965925Y-115232993D01*
X150982962Y-115169409D01*
X151615270Y-115801717D01*
X151615270Y-115801716D01*
X151654622Y-115747554D01*
X151751095Y-115558217D01*
X151816757Y-115356130D01*
X151816757Y-115356127D01*
X151850000Y-115146246D01*
X151850000Y-114933753D01*
X151816757Y-114723872D01*
X151816757Y-114723869D01*
X151751095Y-114521782D01*
X151654624Y-114332449D01*
X151615270Y-114278282D01*
X151615269Y-114278282D01*
X150982962Y-114910590D01*
X150965925Y-114847007D01*
X150900099Y-114732993D01*
X150807007Y-114639901D01*
X150692993Y-114574075D01*
X150629409Y-114557037D01*
X151299627Y-113886818D01*
X151360950Y-113853333D01*
X151387307Y-113850499D01*
X151397872Y-113850499D01*
X151457483Y-113844091D01*
X151592331Y-113793796D01*
X151707546Y-113707546D01*
X151793796Y-113592331D01*
X151844091Y-113457483D01*
X151850500Y-113397873D01*
X151850499Y-111602128D01*
X151844091Y-111542517D01*
X151828501Y-111500719D01*
X151793797Y-111407671D01*
X151793793Y-111407664D01*
X151707547Y-111292455D01*
X151707544Y-111292452D01*
X151592335Y-111206206D01*
X151592328Y-111206202D01*
X151457482Y-111155908D01*
X151457483Y-111155908D01*
X151397883Y-111149501D01*
X151397881Y-111149500D01*
X151397873Y-111149500D01*
X151397864Y-111149500D01*
X149602129Y-111149500D01*
X149602123Y-111149501D01*
X149542516Y-111155908D01*
X149407671Y-111206202D01*
X149407664Y-111206206D01*
X149292455Y-111292452D01*
X149292452Y-111292455D01*
X149206206Y-111407664D01*
X149206202Y-111407671D01*
X149155908Y-111542517D01*
X149151053Y-111587681D01*
X149149501Y-111602123D01*
X149149500Y-111602135D01*
X149149500Y-111775500D01*
X149129815Y-111842539D01*
X149077011Y-111888294D01*
X149025500Y-111899500D01*
X148136669Y-111899500D01*
X148136653Y-111899499D01*
X148129057Y-111899499D01*
X147970943Y-111899499D01*
X147863587Y-111928265D01*
X147818210Y-111940424D01*
X147818209Y-111940425D01*
X147775378Y-111965154D01*
X147775372Y-111965158D01*
X147768095Y-111969360D01*
X147681284Y-112019480D01*
X147599030Y-112101733D01*
X147592827Y-112106538D01*
X147567310Y-112116534D01*
X147543258Y-112129668D01*
X147535248Y-112129095D01*
X147527772Y-112132024D01*
X147500903Y-112126639D01*
X147473566Y-112124684D01*
X147467137Y-112119871D01*
X147459265Y-112118294D01*
X147439569Y-112099233D01*
X147417633Y-112082812D01*
X147414827Y-112075290D01*
X147409056Y-112069705D01*
X147402792Y-112043023D01*
X147393216Y-112017348D01*
X147392900Y-112008502D01*
X147392900Y-111556459D01*
X147392901Y-111556446D01*
X147392901Y-111388345D01*
X147392901Y-111388343D01*
X147351977Y-111235615D01*
X147351975Y-111235611D01*
X147322602Y-111184735D01*
X147322602Y-111184736D01*
X147272922Y-111098687D01*
X147272921Y-111098686D01*
X147272920Y-111098684D01*
X147161116Y-110986880D01*
X147161115Y-110986879D01*
X147156785Y-110982549D01*
X147156774Y-110982539D01*
X147011819Y-110837584D01*
X146978334Y-110776261D01*
X146975500Y-110749903D01*
X146975500Y-110418386D01*
X146969086Y-110347807D01*
X146969086Y-110347804D01*
X146918478Y-110185394D01*
X146830472Y-110039815D01*
X146830470Y-110039813D01*
X146830469Y-110039811D01*
X146710188Y-109919530D01*
X146564606Y-109831522D01*
X146441659Y-109793211D01*
X146402196Y-109780914D01*
X146402194Y-109780913D01*
X146402192Y-109780913D01*
X146352778Y-109776423D01*
X146331616Y-109774500D01*
X145724500Y-109774500D01*
X145657461Y-109754815D01*
X145611706Y-109702011D01*
X145600500Y-109650500D01*
X145600500Y-109073297D01*
X145620185Y-109006258D01*
X145636819Y-108985616D01*
X145884440Y-108737995D01*
X146172120Y-108450316D01*
X146251177Y-108313384D01*
X146292101Y-108160657D01*
X146292101Y-108002542D01*
X146292101Y-107994947D01*
X146292100Y-107994929D01*
X146292100Y-106947197D01*
X146311785Y-106880158D01*
X146328419Y-106859516D01*
X147626350Y-105561585D01*
X149087621Y-104100313D01*
X149148942Y-104066830D01*
X149218634Y-104071814D01*
X149274567Y-104113686D01*
X149285785Y-104131701D01*
X149302837Y-104165166D01*
X149329612Y-104217716D01*
X149344951Y-104247819D01*
X149469890Y-104419786D01*
X149620213Y-104570109D01*
X149792182Y-104695050D01*
X149800946Y-104699516D01*
X149851742Y-104747491D01*
X149868536Y-104815312D01*
X149845998Y-104881447D01*
X149800946Y-104920484D01*
X149792182Y-104924949D01*
X149620213Y-105049890D01*
X149469890Y-105200213D01*
X149344951Y-105372179D01*
X149248444Y-105561585D01*
X149182753Y-105763760D01*
X149154590Y-105941575D01*
X149149500Y-105973713D01*
X149149500Y-106186287D01*
X149152012Y-106202147D01*
X149177216Y-106361282D01*
X149182754Y-106396243D01*
X149226577Y-106531117D01*
X149248444Y-106598414D01*
X149344951Y-106787820D01*
X149469890Y-106959786D01*
X149620213Y-107110109D01*
X149792179Y-107235048D01*
X149792181Y-107235049D01*
X149792184Y-107235051D01*
X149981588Y-107331557D01*
X150183757Y-107397246D01*
X150393713Y-107430500D01*
X150393714Y-107430500D01*
X150606286Y-107430500D01*
X150606287Y-107430500D01*
X150816243Y-107397246D01*
X151018412Y-107331557D01*
X151207816Y-107235051D01*
X151246875Y-107206673D01*
X151379786Y-107110109D01*
X151379788Y-107110106D01*
X151379792Y-107110104D01*
X151530104Y-106959792D01*
X151530106Y-106959788D01*
X151530109Y-106959786D01*
X151655048Y-106787820D01*
X151655047Y-106787820D01*
X151655051Y-106787816D01*
X151751557Y-106598412D01*
X151817246Y-106396243D01*
X151850500Y-106186287D01*
X151850500Y-105973713D01*
X151817246Y-105763757D01*
X151751557Y-105561588D01*
X151655051Y-105372184D01*
X151655049Y-105372181D01*
X151655048Y-105372179D01*
X151530109Y-105200213D01*
X151379786Y-105049890D01*
X151207820Y-104924951D01*
X151207205Y-104924637D01*
X151199054Y-104920484D01*
X151148259Y-104872512D01*
X151131463Y-104804692D01*
X151153999Y-104738556D01*
X151199054Y-104699515D01*
X151207816Y-104695051D01*
X151313698Y-104618124D01*
X151379786Y-104570109D01*
X151379788Y-104570106D01*
X151379792Y-104570104D01*
X151530104Y-104419792D01*
X151530106Y-104419788D01*
X151530109Y-104419786D01*
X151655048Y-104247820D01*
X151655049Y-104247819D01*
X151655051Y-104247816D01*
X151751557Y-104058412D01*
X151817246Y-103856243D01*
X151850500Y-103646287D01*
X151850500Y-103433713D01*
X151817246Y-103223757D01*
X151751557Y-103021588D01*
X151655051Y-102832184D01*
X151655049Y-102832181D01*
X151655048Y-102832179D01*
X151530109Y-102660213D01*
X151416569Y-102546673D01*
X151383084Y-102485350D01*
X151388068Y-102415658D01*
X151429940Y-102359725D01*
X151460915Y-102342810D01*
X151592331Y-102293796D01*
X151707546Y-102207546D01*
X151793796Y-102092331D01*
X151844091Y-101957483D01*
X151850500Y-101897873D01*
X151850499Y-100102128D01*
X151844091Y-100042517D01*
X151801165Y-99927427D01*
X151793797Y-99907671D01*
X151793793Y-99907664D01*
X151707547Y-99792455D01*
X151707544Y-99792452D01*
X151592335Y-99706206D01*
X151592328Y-99706202D01*
X151457482Y-99655908D01*
X151457483Y-99655908D01*
X151397883Y-99649501D01*
X151397881Y-99649500D01*
X151397873Y-99649500D01*
X151397864Y-99649500D01*
X149602129Y-99649500D01*
X149602123Y-99649501D01*
X149542516Y-99655908D01*
X149407671Y-99706202D01*
X149407664Y-99706206D01*
X149292455Y-99792452D01*
X149292452Y-99792455D01*
X149206206Y-99907664D01*
X149206202Y-99907671D01*
X149155908Y-100042517D01*
X149150165Y-100095938D01*
X149149501Y-100102123D01*
X149149500Y-100102135D01*
X149149500Y-101897870D01*
X149149501Y-101897876D01*
X149155908Y-101957483D01*
X149206202Y-102092328D01*
X149206204Y-102092331D01*
X149223551Y-102115503D01*
X149247969Y-102180967D01*
X149233118Y-102249240D01*
X149211966Y-102277496D01*
X145584148Y-105905315D01*
X145570669Y-105912675D01*
X145560258Y-105923967D01*
X145540627Y-105929079D01*
X145522825Y-105938800D01*
X145506506Y-105937965D01*
X145492644Y-105941575D01*
X145466279Y-105935906D01*
X145457880Y-105935477D01*
X145453382Y-105934004D01*
X145323397Y-105880163D01*
X145235640Y-105862706D01*
X145228553Y-105860386D01*
X145205656Y-105844652D01*
X145181037Y-105831775D01*
X145179459Y-105830224D01*
X145011819Y-105662584D01*
X144978334Y-105601261D01*
X144975500Y-105574903D01*
X144975500Y-105243386D01*
X144969086Y-105172807D01*
X144969086Y-105172804D01*
X144918478Y-105010394D01*
X144830472Y-104864815D01*
X144830470Y-104864813D01*
X144830469Y-104864811D01*
X144710188Y-104744530D01*
X144564606Y-104656522D01*
X144441378Y-104618123D01*
X144383231Y-104579386D01*
X144355257Y-104515361D01*
X144366338Y-104446376D01*
X144412957Y-104394332D01*
X144441379Y-104381353D01*
X144564395Y-104343019D01*
X144709877Y-104255072D01*
X144830072Y-104134877D01*
X144918019Y-103989395D01*
X144968590Y-103827106D01*
X144975000Y-103756572D01*
X144975000Y-103750000D01*
X143025001Y-103750000D01*
X143005381Y-103769619D01*
X143005316Y-103769843D01*
X143004132Y-103770868D01*
X142988682Y-103786319D01*
X142987576Y-103785213D01*
X142952512Y-103815598D01*
X142883354Y-103825542D01*
X142819798Y-103796517D01*
X142813320Y-103790485D01*
X142278749Y-103255914D01*
X142265405Y-103231477D01*
X142249250Y-103208790D01*
X142248889Y-103201231D01*
X142245264Y-103194591D01*
X142247250Y-103166816D01*
X142245925Y-103138999D01*
X142249960Y-103128919D01*
X142250248Y-103124899D01*
X142259043Y-103106233D01*
X142331678Y-102980425D01*
X142331678Y-102980424D01*
X142331679Y-102980423D01*
X142340477Y-102965185D01*
X142381400Y-102812458D01*
X142381400Y-102654343D01*
X142381400Y-101899459D01*
X142381401Y-101899446D01*
X142381401Y-101731345D01*
X142381401Y-101731343D01*
X142344435Y-101593386D01*
X143024500Y-101593386D01*
X143024500Y-102106613D01*
X143030913Y-102177192D01*
X143030913Y-102177194D01*
X143030914Y-102177196D01*
X143081522Y-102339606D01*
X143118091Y-102400099D01*
X143169530Y-102485188D01*
X143272015Y-102587673D01*
X143305500Y-102648996D01*
X143300516Y-102718688D01*
X143272015Y-102763035D01*
X143169928Y-102865121D01*
X143169927Y-102865122D01*
X143081980Y-103010604D01*
X143031409Y-103172893D01*
X143025000Y-103243427D01*
X143025000Y-103250000D01*
X144974999Y-103250000D01*
X144974999Y-103243417D01*
X144968591Y-103172897D01*
X144968590Y-103172892D01*
X144918018Y-103010603D01*
X144830072Y-102865122D01*
X144727984Y-102763034D01*
X144694499Y-102701711D01*
X144699483Y-102632019D01*
X144727983Y-102587673D01*
X144830472Y-102485185D01*
X144918478Y-102339606D01*
X144969086Y-102177196D01*
X144975500Y-102106616D01*
X144975500Y-101775097D01*
X144995185Y-101708058D01*
X145011819Y-101687416D01*
X145553718Y-101145517D01*
X146155520Y-100543716D01*
X146234577Y-100406784D01*
X146275501Y-100254057D01*
X146275501Y-100095942D01*
X146275501Y-100088347D01*
X146275500Y-100088329D01*
X146275500Y-96570365D01*
X146295185Y-96503326D01*
X146296398Y-96501474D01*
X146384390Y-96369785D01*
X146384390Y-96369784D01*
X146384394Y-96369779D01*
X146444737Y-96224097D01*
X146475500Y-96069442D01*
X146475500Y-95911758D01*
X146475500Y-95911755D01*
X146475499Y-95911753D01*
X146457161Y-95819564D01*
X146444737Y-95757103D01*
X146428722Y-95718439D01*
X146384397Y-95611427D01*
X146384390Y-95611414D01*
X146296789Y-95480311D01*
X146296786Y-95480307D01*
X146185292Y-95368813D01*
X146185288Y-95368810D01*
X146054185Y-95281209D01*
X146054172Y-95281202D01*
X145908501Y-95220864D01*
X145908489Y-95220861D01*
X145753845Y-95190100D01*
X145753842Y-95190100D01*
X145596158Y-95190100D01*
X145596155Y-95190100D01*
X145441510Y-95220861D01*
X145441498Y-95220864D01*
X145295827Y-95281202D01*
X145295814Y-95281209D01*
X145164711Y-95368810D01*
X145164707Y-95368813D01*
X145053213Y-95480307D01*
X145053210Y-95480311D01*
X144965609Y-95611414D01*
X144965602Y-95611427D01*
X144905264Y-95757098D01*
X144905261Y-95757110D01*
X144874500Y-95911753D01*
X144874500Y-96069446D01*
X144905261Y-96224089D01*
X144905264Y-96224101D01*
X144965602Y-96369772D01*
X144965609Y-96369785D01*
X145053602Y-96501474D01*
X145074480Y-96568151D01*
X145074500Y-96570365D01*
X145074500Y-99874902D01*
X145054815Y-99941941D01*
X145038181Y-99962583D01*
X144087584Y-100913181D01*
X144026261Y-100946666D01*
X143999903Y-100949500D01*
X143668384Y-100949500D01*
X143649145Y-100951248D01*
X143597807Y-100955913D01*
X143435393Y-101006522D01*
X143289811Y-101094530D01*
X143169530Y-101214811D01*
X143081522Y-101360393D01*
X143030913Y-101522807D01*
X143029080Y-101542980D01*
X143025051Y-101587327D01*
X143024500Y-101593386D01*
X142344435Y-101593386D01*
X142340477Y-101578615D01*
X142300063Y-101508616D01*
X142261420Y-101441684D01*
X142149616Y-101329880D01*
X142149615Y-101329879D01*
X142145285Y-101325549D01*
X142145274Y-101325539D01*
X142002117Y-101182382D01*
X141968632Y-101121059D01*
X141966440Y-101082098D01*
X141974999Y-100998321D01*
X141975000Y-100998309D01*
X141975000Y-100975000D01*
X141795398Y-100975000D01*
X141733397Y-100958386D01*
X141702285Y-100940423D01*
X141549557Y-100899499D01*
X141391443Y-100899499D01*
X141383847Y-100899499D01*
X141383831Y-100899500D01*
X141124000Y-100899500D01*
X141056961Y-100879815D01*
X141011206Y-100827011D01*
X141000000Y-100775500D01*
X141000000Y-100725000D01*
X140874000Y-100725000D01*
X140806961Y-100705315D01*
X140761206Y-100652511D01*
X140750000Y-100601000D01*
X140750000Y-100475000D01*
X141250000Y-100475000D01*
X141974999Y-100475000D01*
X141974999Y-100451692D01*
X141974998Y-100451677D01*
X141964855Y-100352392D01*
X141911547Y-100191518D01*
X141911542Y-100191507D01*
X141822575Y-100047271D01*
X141822572Y-100047267D01*
X141702732Y-99927427D01*
X141702728Y-99927424D01*
X141558492Y-99838457D01*
X141558481Y-99838452D01*
X141397606Y-99785144D01*
X141298322Y-99775000D01*
X141250000Y-99775000D01*
X141250000Y-100475000D01*
X140750000Y-100475000D01*
X140750000Y-99801251D01*
X140670310Y-99762532D01*
X140664715Y-99757445D01*
X140657462Y-99755316D01*
X140639221Y-99734266D01*
X140618613Y-99715529D01*
X140616656Y-99708226D01*
X140611706Y-99702513D01*
X140600500Y-99651000D01*
X140600500Y-99430424D01*
X140620185Y-99363385D01*
X140659402Y-99324886D01*
X140703044Y-99297968D01*
X140822968Y-99178044D01*
X140912003Y-99033697D01*
X140965349Y-98872708D01*
X140975500Y-98773345D01*
X140975499Y-98226656D01*
X140965349Y-98127292D01*
X140912003Y-97966303D01*
X140911999Y-97966297D01*
X140911998Y-97966294D01*
X140822970Y-97821959D01*
X140822967Y-97821955D01*
X140813339Y-97812327D01*
X140779854Y-97751004D01*
X140784838Y-97681312D01*
X140813345Y-97636959D01*
X140822573Y-97627731D01*
X140911542Y-97483492D01*
X140911547Y-97483481D01*
X140964855Y-97322606D01*
X140974999Y-97223322D01*
X140975000Y-97223309D01*
X140975000Y-97200000D01*
X139025001Y-97200000D01*
X139025001Y-97223322D01*
X139035144Y-97322607D01*
X139088452Y-97483481D01*
X139088457Y-97483492D01*
X139177424Y-97627728D01*
X139177427Y-97627732D01*
X139186660Y-97636965D01*
X139187012Y-97637611D01*
X139187656Y-97637972D01*
X139203738Y-97668241D01*
X139220145Y-97698288D01*
X139220092Y-97699022D01*
X139220438Y-97699673D01*
X139217606Y-97733780D01*
X139215161Y-97767980D01*
X139214698Y-97768815D01*
X139214658Y-97769304D01*
X139213120Y-97771667D01*
X139197391Y-97800085D01*
X139192425Y-97806562D01*
X139177032Y-97821956D01*
X139162231Y-97845951D01*
X139158408Y-97850939D01*
X139135076Y-97867992D01*
X139113588Y-97887321D01*
X139106396Y-97888955D01*
X139102000Y-97892169D01*
X139088755Y-97892964D01*
X139059996Y-97899500D01*
X137940004Y-97899500D01*
X137872965Y-97879815D01*
X137834465Y-97840596D01*
X137822968Y-97821956D01*
X137813339Y-97812327D01*
X137779854Y-97751004D01*
X137784838Y-97681312D01*
X137813345Y-97636959D01*
X137822573Y-97627731D01*
X137911542Y-97483492D01*
X137911547Y-97483481D01*
X137964855Y-97322606D01*
X137974999Y-97223322D01*
X137975000Y-97223309D01*
X137975000Y-97200000D01*
X137124000Y-97200000D01*
X137056961Y-97180315D01*
X137011206Y-97127511D01*
X137000000Y-97076000D01*
X137000000Y-96950000D01*
X136874000Y-96950000D01*
X136806961Y-96930315D01*
X136761206Y-96877511D01*
X136750000Y-96826000D01*
X136750000Y-96700000D01*
X137250000Y-96700000D01*
X137974999Y-96700000D01*
X137974999Y-96676693D01*
X137974998Y-96676677D01*
X139025000Y-96676677D01*
X139025000Y-96700000D01*
X139750000Y-96700000D01*
X140250000Y-96700000D01*
X140974999Y-96700000D01*
X140974999Y-96676693D01*
X140974998Y-96676677D01*
X142025000Y-96676677D01*
X142025000Y-96700000D01*
X142750000Y-96700000D01*
X142750000Y-96000000D01*
X142749999Y-95999999D01*
X142701693Y-96000000D01*
X142701675Y-96000001D01*
X142602392Y-96010144D01*
X142441518Y-96063452D01*
X142441507Y-96063457D01*
X142297271Y-96152424D01*
X142297267Y-96152427D01*
X142177427Y-96272267D01*
X142177424Y-96272271D01*
X142088457Y-96416507D01*
X142088452Y-96416518D01*
X142035144Y-96577393D01*
X142025000Y-96676677D01*
X140974998Y-96676677D01*
X140974998Y-96676676D01*
X140964855Y-96577392D01*
X140911547Y-96416518D01*
X140911542Y-96416507D01*
X140822575Y-96272271D01*
X140822572Y-96272267D01*
X140702732Y-96152427D01*
X140702728Y-96152424D01*
X140558492Y-96063457D01*
X140558481Y-96063452D01*
X140397606Y-96010144D01*
X140298322Y-96000000D01*
X140250000Y-96000000D01*
X140250000Y-96700000D01*
X139750000Y-96700000D01*
X139750000Y-96000000D01*
X139749999Y-95999999D01*
X139701693Y-96000000D01*
X139701675Y-96000001D01*
X139602392Y-96010144D01*
X139441518Y-96063452D01*
X139441507Y-96063457D01*
X139297271Y-96152424D01*
X139297267Y-96152427D01*
X139177427Y-96272267D01*
X139177424Y-96272271D01*
X139088457Y-96416507D01*
X139088452Y-96416518D01*
X139035144Y-96577393D01*
X139025000Y-96676677D01*
X137974998Y-96676677D01*
X137974998Y-96676676D01*
X137964855Y-96577392D01*
X137911547Y-96416518D01*
X137911542Y-96416507D01*
X137822575Y-96272271D01*
X137822572Y-96272267D01*
X137702732Y-96152427D01*
X137702728Y-96152424D01*
X137558492Y-96063457D01*
X137558481Y-96063452D01*
X137397606Y-96010144D01*
X137298322Y-96000000D01*
X137250000Y-96000000D01*
X137250000Y-96700000D01*
X136750000Y-96700000D01*
X136750000Y-96300298D01*
X136769685Y-96233259D01*
X136772927Y-96228463D01*
X136778955Y-96219980D01*
X136832720Y-96166216D01*
X136897121Y-96054669D01*
X136911777Y-96029285D01*
X136952701Y-95876557D01*
X136952701Y-95718443D01*
X136952701Y-95710848D01*
X136952700Y-95710830D01*
X136952700Y-93555945D01*
X136952700Y-93555943D01*
X136911777Y-93403216D01*
X136854528Y-93304057D01*
X136832724Y-93266290D01*
X136832718Y-93266282D01*
X136743617Y-93177181D01*
X136710132Y-93115858D01*
X136715116Y-93046166D01*
X136756988Y-92990233D01*
X136822452Y-92965816D01*
X136831298Y-92965500D01*
X138800024Y-92965500D01*
X138847476Y-92974939D01*
X138865168Y-92982267D01*
X138866303Y-92982737D01*
X138998340Y-93009001D01*
X139020953Y-93013499D01*
X139020956Y-93013500D01*
X139020958Y-93013500D01*
X139178644Y-93013500D01*
X139335660Y-92982267D01*
X139405252Y-92988494D01*
X139460429Y-93031357D01*
X139483674Y-93097246D01*
X139476034Y-93147216D01*
X139455410Y-93202511D01*
X139455409Y-93202515D01*
X139455409Y-93202517D01*
X139449000Y-93262127D01*
X139449000Y-93262134D01*
X139449000Y-93262135D01*
X139449000Y-94007870D01*
X139449001Y-94007876D01*
X139455408Y-94067483D01*
X139505702Y-94202328D01*
X139509954Y-94210114D01*
X139506780Y-94211846D01*
X139525159Y-94261302D01*
X139510225Y-94329557D01*
X139509617Y-94330502D01*
X139505702Y-94337671D01*
X139455410Y-94472513D01*
X139455409Y-94472517D01*
X139449000Y-94532127D01*
X139449000Y-94532134D01*
X139449000Y-94532135D01*
X139449000Y-95277870D01*
X139449001Y-95277876D01*
X139455408Y-95337483D01*
X139505702Y-95472328D01*
X139505706Y-95472335D01*
X139591952Y-95587544D01*
X139591955Y-95587547D01*
X139707164Y-95673793D01*
X139707171Y-95673797D01*
X139842017Y-95724091D01*
X139842016Y-95724091D01*
X139848944Y-95724835D01*
X139901627Y-95730500D01*
X141522372Y-95730499D01*
X141581983Y-95724091D01*
X141716831Y-95673796D01*
X141832046Y-95587546D01*
X141918296Y-95472331D01*
X141968591Y-95337483D01*
X141975000Y-95277873D01*
X141974999Y-94532128D01*
X141968591Y-94472517D01*
X141918297Y-94337671D01*
X141918297Y-94337670D01*
X141914047Y-94329888D01*
X141917257Y-94328134D01*
X141898861Y-94279001D01*
X141913627Y-94210709D01*
X141914252Y-94209736D01*
X141918297Y-94202329D01*
X141944444Y-94132224D01*
X141968591Y-94067483D01*
X141975000Y-94007873D01*
X141974999Y-93262128D01*
X141968591Y-93202517D01*
X141968589Y-93202511D01*
X141918297Y-93067670D01*
X141914047Y-93059888D01*
X141917257Y-93058134D01*
X141898861Y-93009001D01*
X141913627Y-92940709D01*
X141914252Y-92939736D01*
X141918297Y-92932329D01*
X141932886Y-92893214D01*
X141968591Y-92797483D01*
X141975000Y-92737873D01*
X141974999Y-92442394D01*
X141994683Y-92375357D01*
X142047487Y-92329602D01*
X142116646Y-92319658D01*
X142180201Y-92348683D01*
X142186680Y-92354715D01*
X143169381Y-93337416D01*
X143202866Y-93398739D01*
X143205700Y-93425097D01*
X143205700Y-96826000D01*
X143186015Y-96893039D01*
X143133211Y-96938794D01*
X143081700Y-96950000D01*
X143000000Y-96950000D01*
X143000000Y-97076000D01*
X142980315Y-97143039D01*
X142927511Y-97188794D01*
X142876000Y-97200000D01*
X142025001Y-97200000D01*
X142025001Y-97223322D01*
X142035144Y-97322607D01*
X142088452Y-97483481D01*
X142088457Y-97483492D01*
X142177424Y-97627728D01*
X142177427Y-97627732D01*
X142186660Y-97636965D01*
X142220145Y-97698288D01*
X142215161Y-97767980D01*
X142186663Y-97812324D01*
X142177033Y-97821953D01*
X142177029Y-97821959D01*
X142088001Y-97966294D01*
X142087996Y-97966305D01*
X142034651Y-98127290D01*
X142024500Y-98226647D01*
X142024500Y-98773337D01*
X142024501Y-98773355D01*
X142034650Y-98872707D01*
X142034651Y-98872710D01*
X142087996Y-99033694D01*
X142088001Y-99033705D01*
X142177029Y-99178040D01*
X142177032Y-99178044D01*
X142296955Y-99297967D01*
X142296959Y-99297970D01*
X142441294Y-99386998D01*
X142441297Y-99386999D01*
X142441303Y-99387003D01*
X142602292Y-99440349D01*
X142701655Y-99450500D01*
X143298344Y-99450499D01*
X143298352Y-99450498D01*
X143298355Y-99450498D01*
X143352760Y-99444940D01*
X143397708Y-99440349D01*
X143558697Y-99387003D01*
X143703044Y-99297968D01*
X143822968Y-99178044D01*
X143912003Y-99033697D01*
X143965349Y-98872708D01*
X143975500Y-98773345D01*
X143975499Y-98425095D01*
X143984145Y-98395649D01*
X143990667Y-98365669D01*
X143994419Y-98360655D01*
X143995183Y-98358057D01*
X144011813Y-98337420D01*
X144164706Y-98184528D01*
X144164711Y-98184524D01*
X144174914Y-98174320D01*
X144174916Y-98174320D01*
X144286720Y-98062516D01*
X144342268Y-97966303D01*
X144357209Y-97940425D01*
X144357210Y-97940424D01*
X144360686Y-97934402D01*
X144365777Y-97925585D01*
X144406701Y-97772857D01*
X144406701Y-97614743D01*
X144406701Y-97607148D01*
X144406700Y-97607130D01*
X144406700Y-93214060D01*
X144406701Y-93214047D01*
X144406701Y-93045944D01*
X144406701Y-93045943D01*
X144365777Y-92893216D01*
X144310506Y-92797483D01*
X144286724Y-92756290D01*
X144286718Y-92756282D01*
X143763598Y-92233162D01*
X143132571Y-91602135D01*
X149149500Y-91602135D01*
X149149500Y-93397870D01*
X149149501Y-93397876D01*
X149155908Y-93457483D01*
X149206202Y-93592328D01*
X149206206Y-93592335D01*
X149292452Y-93707544D01*
X149292455Y-93707547D01*
X149407664Y-93793793D01*
X149407671Y-93793797D01*
X149542517Y-93844091D01*
X149542516Y-93844091D01*
X149549444Y-93844835D01*
X149602127Y-93850500D01*
X151397872Y-93850499D01*
X151457483Y-93844091D01*
X151592331Y-93793796D01*
X151707546Y-93707546D01*
X151793796Y-93592331D01*
X151844091Y-93457483D01*
X151850500Y-93397873D01*
X151850499Y-91602128D01*
X151844091Y-91542517D01*
X151829579Y-91503609D01*
X151793797Y-91407671D01*
X151793793Y-91407664D01*
X151707547Y-91292455D01*
X151707544Y-91292452D01*
X151592335Y-91206206D01*
X151592328Y-91206202D01*
X151457482Y-91155908D01*
X151457483Y-91155908D01*
X151397883Y-91149501D01*
X151397881Y-91149500D01*
X151397873Y-91149500D01*
X151397864Y-91149500D01*
X149602129Y-91149500D01*
X149602123Y-91149501D01*
X149542516Y-91155908D01*
X149407671Y-91206202D01*
X149407664Y-91206206D01*
X149292455Y-91292452D01*
X149292452Y-91292455D01*
X149206206Y-91407664D01*
X149206202Y-91407671D01*
X149155908Y-91542517D01*
X149150673Y-91591213D01*
X149149501Y-91602123D01*
X149149500Y-91602135D01*
X143132571Y-91602135D01*
X142263789Y-90733354D01*
X142263788Y-90733352D01*
X142144917Y-90614481D01*
X142144916Y-90614480D01*
X142058104Y-90564360D01*
X142007985Y-90535423D01*
X141937052Y-90516415D01*
X141929904Y-90513510D01*
X141908352Y-90496376D01*
X141884844Y-90482047D01*
X141877332Y-90472948D01*
X141832050Y-90412458D01*
X141832047Y-90412455D01*
X141832046Y-90412454D01*
X141832042Y-90412451D01*
X141716835Y-90326206D01*
X141716828Y-90326202D01*
X141581982Y-90275908D01*
X141581983Y-90275908D01*
X141522383Y-90269501D01*
X141522381Y-90269500D01*
X141522373Y-90269500D01*
X141522364Y-90269500D01*
X139901629Y-90269500D01*
X139901623Y-90269501D01*
X139842016Y-90275908D01*
X139797177Y-90292632D01*
X139779393Y-90293903D01*
X139762692Y-90300133D01*
X139745271Y-90296343D01*
X139727485Y-90297615D01*
X139711836Y-90289070D01*
X139694419Y-90285281D01*
X139666165Y-90264130D01*
X139508590Y-90106555D01*
X139508588Y-90106552D01*
X139389717Y-89987681D01*
X139389716Y-89987680D01*
X139302904Y-89937560D01*
X139302904Y-89937559D01*
X139302900Y-89937558D01*
X139252785Y-89908623D01*
X139100057Y-89867699D01*
X138941943Y-89867699D01*
X138934347Y-89867699D01*
X138934331Y-89867700D01*
X134353657Y-89867700D01*
X134195543Y-89867700D01*
X134042815Y-89908623D01*
X134042814Y-89908623D01*
X134042812Y-89908624D01*
X134042809Y-89908625D01*
X133992696Y-89937559D01*
X133992695Y-89937560D01*
X133949289Y-89962620D01*
X133905885Y-89987679D01*
X133905882Y-89987681D01*
X133794078Y-90099486D01*
X132477225Y-91416338D01*
X132415902Y-91449823D01*
X132346210Y-91444839D01*
X132290278Y-91402969D01*
X132252521Y-91352533D01*
X132207546Y-91292454D01*
X132207544Y-91292453D01*
X132207544Y-91292452D01*
X132092335Y-91206206D01*
X132092328Y-91206202D01*
X131957482Y-91155908D01*
X131957483Y-91155908D01*
X131897883Y-91149501D01*
X131897881Y-91149500D01*
X131897873Y-91149500D01*
X131897864Y-91149500D01*
X130102129Y-91149500D01*
X130102123Y-91149501D01*
X130042516Y-91155908D01*
X129907671Y-91206202D01*
X129907664Y-91206206D01*
X129792455Y-91292452D01*
X129792452Y-91292455D01*
X129706206Y-91407664D01*
X129706202Y-91407671D01*
X129655908Y-91542517D01*
X129650673Y-91591213D01*
X129649501Y-91602123D01*
X129649500Y-91602135D01*
X129649500Y-93397870D01*
X129649501Y-93397876D01*
X129655908Y-93457483D01*
X129706202Y-93592328D01*
X129706206Y-93592335D01*
X129792452Y-93707544D01*
X129792455Y-93707547D01*
X129907664Y-93793793D01*
X129907671Y-93793797D01*
X130042517Y-93844091D01*
X130042516Y-93844091D01*
X130049444Y-93844835D01*
X130102127Y-93850500D01*
X130679203Y-93850499D01*
X130746241Y-93870183D01*
X130791996Y-93922987D01*
X130801940Y-93992146D01*
X130772915Y-94055702D01*
X130766883Y-94062180D01*
X130049784Y-94779281D01*
X129988461Y-94812766D01*
X129962103Y-94815600D01*
X129680197Y-94815600D01*
X129613158Y-94795915D01*
X129592516Y-94779281D01*
X128103290Y-93290055D01*
X128103288Y-93290052D01*
X127984417Y-93171181D01*
X127984416Y-93171180D01*
X127912500Y-93129660D01*
X127864284Y-93079093D01*
X127850499Y-93022272D01*
X127850499Y-91602129D01*
X127850498Y-91602123D01*
X127850497Y-91602116D01*
X127844091Y-91542517D01*
X127829579Y-91503609D01*
X127793797Y-91407671D01*
X127793793Y-91407664D01*
X127707547Y-91292455D01*
X127707544Y-91292452D01*
X127592335Y-91206206D01*
X127592328Y-91206202D01*
X127457482Y-91155908D01*
X127457483Y-91155908D01*
X127397883Y-91149501D01*
X127397881Y-91149500D01*
X127397873Y-91149500D01*
X127397864Y-91149500D01*
X125602129Y-91149500D01*
X125602123Y-91149501D01*
X125542516Y-91155908D01*
X125407671Y-91206202D01*
X125407664Y-91206206D01*
X125292455Y-91292452D01*
X125292452Y-91292455D01*
X125206206Y-91407664D01*
X125206202Y-91407671D01*
X125155908Y-91542517D01*
X125150673Y-91591213D01*
X125149501Y-91602123D01*
X125149500Y-91602135D01*
X124000500Y-91602135D01*
X124000500Y-89624500D01*
X124020185Y-89557461D01*
X124072989Y-89511706D01*
X124124500Y-89500500D01*
X152375500Y-89500500D01*
X152442539Y-89520185D01*
G37*
%TD.AperFunction*%
M02*
