%TF.GenerationSoftware,KiCad,Pcbnew,9.0.6*%
%TF.CreationDate,2025-11-23T22:05:43-07:00*%
%TF.ProjectId,ChuaCircuit,43687561-4369-4726-9375-69742e6b6963,rev?*%
%TF.SameCoordinates,Original*%
%TF.FileFunction,Legend,Top*%
%TF.FilePolarity,Positive*%
%FSLAX46Y46*%
G04 Gerber Fmt 4.6, Leading zero omitted, Abs format (unit mm)*
G04 Created by KiCad (PCBNEW 9.0.6) date 2025-11-23 22:05:43*
%MOMM*%
%LPD*%
G01*
G04 APERTURE LIST*
G04 Aperture macros list*
%AMRoundRect*
0 Rectangle with rounded corners*
0 $1 Rounding radius*
0 $2 $3 $4 $5 $6 $7 $8 $9 X,Y pos of 4 corners*
0 Add a 4 corners polygon primitive as box body*
4,1,4,$2,$3,$4,$5,$6,$7,$8,$9,$2,$3,0*
0 Add four circle primitives for the rounded corners*
1,1,$1+$1,$2,$3*
1,1,$1+$1,$4,$5*
1,1,$1+$1,$6,$7*
1,1,$1+$1,$8,$9*
0 Add four rect primitives between the rounded corners*
20,1,$1+$1,$2,$3,$4,$5,0*
20,1,$1+$1,$4,$5,$6,$7,0*
20,1,$1+$1,$6,$7,$8,$9,0*
20,1,$1+$1,$8,$9,$2,$3,0*%
G04 Aperture macros list end*
%ADD10C,0.100000*%
%ADD11C,0.150000*%
%ADD12C,0.300000*%
%ADD13C,0.400000*%
%ADD14C,0.254000*%
%ADD15C,0.200000*%
%ADD16C,0.120000*%
%ADD17R,1.525000X0.650000*%
%ADD18R,1.700000X1.700000*%
%ADD19R,1.525000X0.700000*%
%ADD20RoundRect,0.225000X0.250000X-0.225000X0.250000X0.225000X-0.250000X0.225000X-0.250000X-0.225000X0*%
%ADD21RoundRect,0.200000X-0.275000X0.200000X-0.275000X-0.200000X0.275000X-0.200000X0.275000X0.200000X0*%
%ADD22RoundRect,0.200000X0.275000X-0.200000X0.275000X0.200000X-0.275000X0.200000X-0.275000X-0.200000X0*%
%ADD23RoundRect,0.250000X-0.325000X-0.650000X0.325000X-0.650000X0.325000X0.650000X-0.325000X0.650000X0*%
%ADD24C,1.700000*%
%ADD25RoundRect,0.225000X-0.225000X-0.250000X0.225000X-0.250000X0.225000X0.250000X-0.225000X0.250000X0*%
%ADD26RoundRect,0.250000X0.650000X-0.325000X0.650000X0.325000X-0.650000X0.325000X-0.650000X-0.325000X0*%
G04 APERTURE END LIST*
D10*
D11*
X177002200Y-166007200D02*
X285002200Y-166007200D01*
X285002200Y-198007200D01*
X177002200Y-198007200D01*
X177002200Y-166007200D01*
D10*
D11*
X10000000Y-10000000D02*
X287002200Y-10000000D01*
X287002200Y-200007200D01*
X10000000Y-200007200D01*
X10000000Y-10000000D01*
D10*
D11*
X12000000Y-12000000D02*
X285002200Y-12000000D01*
X285002200Y-198007200D01*
X12000000Y-198007200D01*
X12000000Y-12000000D01*
D10*
D11*
X60000000Y-12000000D02*
X60000000Y-10000000D01*
D10*
D11*
X110000000Y-12000000D02*
X110000000Y-10000000D01*
D10*
D11*
X160000000Y-12000000D02*
X160000000Y-10000000D01*
D10*
D11*
X210000000Y-12000000D02*
X210000000Y-10000000D01*
D10*
D11*
X260000000Y-12000000D02*
X260000000Y-10000000D01*
D10*
D11*
X36089160Y-11593604D02*
X35346303Y-11593604D01*
X35717731Y-11593604D02*
X35717731Y-10293604D01*
X35717731Y-10293604D02*
X35593922Y-10479319D01*
X35593922Y-10479319D02*
X35470112Y-10603128D01*
X35470112Y-10603128D02*
X35346303Y-10665033D01*
D10*
D11*
X85346303Y-10417414D02*
X85408207Y-10355509D01*
X85408207Y-10355509D02*
X85532017Y-10293604D01*
X85532017Y-10293604D02*
X85841541Y-10293604D01*
X85841541Y-10293604D02*
X85965350Y-10355509D01*
X85965350Y-10355509D02*
X86027255Y-10417414D01*
X86027255Y-10417414D02*
X86089160Y-10541223D01*
X86089160Y-10541223D02*
X86089160Y-10665033D01*
X86089160Y-10665033D02*
X86027255Y-10850747D01*
X86027255Y-10850747D02*
X85284398Y-11593604D01*
X85284398Y-11593604D02*
X86089160Y-11593604D01*
D10*
D11*
X135284398Y-10293604D02*
X136089160Y-10293604D01*
X136089160Y-10293604D02*
X135655826Y-10788842D01*
X135655826Y-10788842D02*
X135841541Y-10788842D01*
X135841541Y-10788842D02*
X135965350Y-10850747D01*
X135965350Y-10850747D02*
X136027255Y-10912652D01*
X136027255Y-10912652D02*
X136089160Y-11036461D01*
X136089160Y-11036461D02*
X136089160Y-11345985D01*
X136089160Y-11345985D02*
X136027255Y-11469795D01*
X136027255Y-11469795D02*
X135965350Y-11531700D01*
X135965350Y-11531700D02*
X135841541Y-11593604D01*
X135841541Y-11593604D02*
X135470112Y-11593604D01*
X135470112Y-11593604D02*
X135346303Y-11531700D01*
X135346303Y-11531700D02*
X135284398Y-11469795D01*
D10*
D11*
X185965350Y-10726938D02*
X185965350Y-11593604D01*
X185655826Y-10231700D02*
X185346303Y-11160271D01*
X185346303Y-11160271D02*
X186151064Y-11160271D01*
D10*
D11*
X236027255Y-10293604D02*
X235408207Y-10293604D01*
X235408207Y-10293604D02*
X235346303Y-10912652D01*
X235346303Y-10912652D02*
X235408207Y-10850747D01*
X235408207Y-10850747D02*
X235532017Y-10788842D01*
X235532017Y-10788842D02*
X235841541Y-10788842D01*
X235841541Y-10788842D02*
X235965350Y-10850747D01*
X235965350Y-10850747D02*
X236027255Y-10912652D01*
X236027255Y-10912652D02*
X236089160Y-11036461D01*
X236089160Y-11036461D02*
X236089160Y-11345985D01*
X236089160Y-11345985D02*
X236027255Y-11469795D01*
X236027255Y-11469795D02*
X235965350Y-11531700D01*
X235965350Y-11531700D02*
X235841541Y-11593604D01*
X235841541Y-11593604D02*
X235532017Y-11593604D01*
X235532017Y-11593604D02*
X235408207Y-11531700D01*
X235408207Y-11531700D02*
X235346303Y-11469795D01*
D10*
D11*
X285965350Y-10293604D02*
X285717731Y-10293604D01*
X285717731Y-10293604D02*
X285593922Y-10355509D01*
X285593922Y-10355509D02*
X285532017Y-10417414D01*
X285532017Y-10417414D02*
X285408207Y-10603128D01*
X285408207Y-10603128D02*
X285346303Y-10850747D01*
X285346303Y-10850747D02*
X285346303Y-11345985D01*
X285346303Y-11345985D02*
X285408207Y-11469795D01*
X285408207Y-11469795D02*
X285470112Y-11531700D01*
X285470112Y-11531700D02*
X285593922Y-11593604D01*
X285593922Y-11593604D02*
X285841541Y-11593604D01*
X285841541Y-11593604D02*
X285965350Y-11531700D01*
X285965350Y-11531700D02*
X286027255Y-11469795D01*
X286027255Y-11469795D02*
X286089160Y-11345985D01*
X286089160Y-11345985D02*
X286089160Y-11036461D01*
X286089160Y-11036461D02*
X286027255Y-10912652D01*
X286027255Y-10912652D02*
X285965350Y-10850747D01*
X285965350Y-10850747D02*
X285841541Y-10788842D01*
X285841541Y-10788842D02*
X285593922Y-10788842D01*
X285593922Y-10788842D02*
X285470112Y-10850747D01*
X285470112Y-10850747D02*
X285408207Y-10912652D01*
X285408207Y-10912652D02*
X285346303Y-11036461D01*
D10*
D11*
X60000000Y-198007200D02*
X60000000Y-200007200D01*
D10*
D11*
X110000000Y-198007200D02*
X110000000Y-200007200D01*
D10*
D11*
X160000000Y-198007200D02*
X160000000Y-200007200D01*
D10*
D11*
X210000000Y-198007200D02*
X210000000Y-200007200D01*
D10*
D11*
X260000000Y-198007200D02*
X260000000Y-200007200D01*
D10*
D11*
X36089160Y-199600804D02*
X35346303Y-199600804D01*
X35717731Y-199600804D02*
X35717731Y-198300804D01*
X35717731Y-198300804D02*
X35593922Y-198486519D01*
X35593922Y-198486519D02*
X35470112Y-198610328D01*
X35470112Y-198610328D02*
X35346303Y-198672233D01*
D10*
D11*
X85346303Y-198424614D02*
X85408207Y-198362709D01*
X85408207Y-198362709D02*
X85532017Y-198300804D01*
X85532017Y-198300804D02*
X85841541Y-198300804D01*
X85841541Y-198300804D02*
X85965350Y-198362709D01*
X85965350Y-198362709D02*
X86027255Y-198424614D01*
X86027255Y-198424614D02*
X86089160Y-198548423D01*
X86089160Y-198548423D02*
X86089160Y-198672233D01*
X86089160Y-198672233D02*
X86027255Y-198857947D01*
X86027255Y-198857947D02*
X85284398Y-199600804D01*
X85284398Y-199600804D02*
X86089160Y-199600804D01*
D10*
D11*
X135284398Y-198300804D02*
X136089160Y-198300804D01*
X136089160Y-198300804D02*
X135655826Y-198796042D01*
X135655826Y-198796042D02*
X135841541Y-198796042D01*
X135841541Y-198796042D02*
X135965350Y-198857947D01*
X135965350Y-198857947D02*
X136027255Y-198919852D01*
X136027255Y-198919852D02*
X136089160Y-199043661D01*
X136089160Y-199043661D02*
X136089160Y-199353185D01*
X136089160Y-199353185D02*
X136027255Y-199476995D01*
X136027255Y-199476995D02*
X135965350Y-199538900D01*
X135965350Y-199538900D02*
X135841541Y-199600804D01*
X135841541Y-199600804D02*
X135470112Y-199600804D01*
X135470112Y-199600804D02*
X135346303Y-199538900D01*
X135346303Y-199538900D02*
X135284398Y-199476995D01*
D10*
D11*
X185965350Y-198734138D02*
X185965350Y-199600804D01*
X185655826Y-198238900D02*
X185346303Y-199167471D01*
X185346303Y-199167471D02*
X186151064Y-199167471D01*
D10*
D11*
X236027255Y-198300804D02*
X235408207Y-198300804D01*
X235408207Y-198300804D02*
X235346303Y-198919852D01*
X235346303Y-198919852D02*
X235408207Y-198857947D01*
X235408207Y-198857947D02*
X235532017Y-198796042D01*
X235532017Y-198796042D02*
X235841541Y-198796042D01*
X235841541Y-198796042D02*
X235965350Y-198857947D01*
X235965350Y-198857947D02*
X236027255Y-198919852D01*
X236027255Y-198919852D02*
X236089160Y-199043661D01*
X236089160Y-199043661D02*
X236089160Y-199353185D01*
X236089160Y-199353185D02*
X236027255Y-199476995D01*
X236027255Y-199476995D02*
X235965350Y-199538900D01*
X235965350Y-199538900D02*
X235841541Y-199600804D01*
X235841541Y-199600804D02*
X235532017Y-199600804D01*
X235532017Y-199600804D02*
X235408207Y-199538900D01*
X235408207Y-199538900D02*
X235346303Y-199476995D01*
D10*
D11*
X285965350Y-198300804D02*
X285717731Y-198300804D01*
X285717731Y-198300804D02*
X285593922Y-198362709D01*
X285593922Y-198362709D02*
X285532017Y-198424614D01*
X285532017Y-198424614D02*
X285408207Y-198610328D01*
X285408207Y-198610328D02*
X285346303Y-198857947D01*
X285346303Y-198857947D02*
X285346303Y-199353185D01*
X285346303Y-199353185D02*
X285408207Y-199476995D01*
X285408207Y-199476995D02*
X285470112Y-199538900D01*
X285470112Y-199538900D02*
X285593922Y-199600804D01*
X285593922Y-199600804D02*
X285841541Y-199600804D01*
X285841541Y-199600804D02*
X285965350Y-199538900D01*
X285965350Y-199538900D02*
X286027255Y-199476995D01*
X286027255Y-199476995D02*
X286089160Y-199353185D01*
X286089160Y-199353185D02*
X286089160Y-199043661D01*
X286089160Y-199043661D02*
X286027255Y-198919852D01*
X286027255Y-198919852D02*
X285965350Y-198857947D01*
X285965350Y-198857947D02*
X285841541Y-198796042D01*
X285841541Y-198796042D02*
X285593922Y-198796042D01*
X285593922Y-198796042D02*
X285470112Y-198857947D01*
X285470112Y-198857947D02*
X285408207Y-198919852D01*
X285408207Y-198919852D02*
X285346303Y-199043661D01*
D10*
D11*
X10000000Y-60000000D02*
X12000000Y-60000000D01*
D10*
D11*
X10000000Y-110000000D02*
X12000000Y-110000000D01*
D10*
D11*
X10000000Y-160000000D02*
X12000000Y-160000000D01*
D10*
D11*
X10690476Y-35222176D02*
X11309523Y-35222176D01*
X10566666Y-35593604D02*
X10999999Y-34293604D01*
X10999999Y-34293604D02*
X11433333Y-35593604D01*
D10*
D11*
X11092857Y-84912652D02*
X11278571Y-84974557D01*
X11278571Y-84974557D02*
X11340476Y-85036461D01*
X11340476Y-85036461D02*
X11402380Y-85160271D01*
X11402380Y-85160271D02*
X11402380Y-85345985D01*
X11402380Y-85345985D02*
X11340476Y-85469795D01*
X11340476Y-85469795D02*
X11278571Y-85531700D01*
X11278571Y-85531700D02*
X11154761Y-85593604D01*
X11154761Y-85593604D02*
X10659523Y-85593604D01*
X10659523Y-85593604D02*
X10659523Y-84293604D01*
X10659523Y-84293604D02*
X11092857Y-84293604D01*
X11092857Y-84293604D02*
X11216666Y-84355509D01*
X11216666Y-84355509D02*
X11278571Y-84417414D01*
X11278571Y-84417414D02*
X11340476Y-84541223D01*
X11340476Y-84541223D02*
X11340476Y-84665033D01*
X11340476Y-84665033D02*
X11278571Y-84788842D01*
X11278571Y-84788842D02*
X11216666Y-84850747D01*
X11216666Y-84850747D02*
X11092857Y-84912652D01*
X11092857Y-84912652D02*
X10659523Y-84912652D01*
D10*
D11*
X11402380Y-135469795D02*
X11340476Y-135531700D01*
X11340476Y-135531700D02*
X11154761Y-135593604D01*
X11154761Y-135593604D02*
X11030952Y-135593604D01*
X11030952Y-135593604D02*
X10845238Y-135531700D01*
X10845238Y-135531700D02*
X10721428Y-135407890D01*
X10721428Y-135407890D02*
X10659523Y-135284080D01*
X10659523Y-135284080D02*
X10597619Y-135036461D01*
X10597619Y-135036461D02*
X10597619Y-134850747D01*
X10597619Y-134850747D02*
X10659523Y-134603128D01*
X10659523Y-134603128D02*
X10721428Y-134479319D01*
X10721428Y-134479319D02*
X10845238Y-134355509D01*
X10845238Y-134355509D02*
X11030952Y-134293604D01*
X11030952Y-134293604D02*
X11154761Y-134293604D01*
X11154761Y-134293604D02*
X11340476Y-134355509D01*
X11340476Y-134355509D02*
X11402380Y-134417414D01*
D10*
D11*
X10659523Y-185593604D02*
X10659523Y-184293604D01*
X10659523Y-184293604D02*
X10969047Y-184293604D01*
X10969047Y-184293604D02*
X11154761Y-184355509D01*
X11154761Y-184355509D02*
X11278571Y-184479319D01*
X11278571Y-184479319D02*
X11340476Y-184603128D01*
X11340476Y-184603128D02*
X11402380Y-184850747D01*
X11402380Y-184850747D02*
X11402380Y-185036461D01*
X11402380Y-185036461D02*
X11340476Y-185284080D01*
X11340476Y-185284080D02*
X11278571Y-185407890D01*
X11278571Y-185407890D02*
X11154761Y-185531700D01*
X11154761Y-185531700D02*
X10969047Y-185593604D01*
X10969047Y-185593604D02*
X10659523Y-185593604D01*
D10*
D11*
X287002200Y-60000000D02*
X285002200Y-60000000D01*
D10*
D11*
X287002200Y-110000000D02*
X285002200Y-110000000D01*
D10*
D11*
X287002200Y-160000000D02*
X285002200Y-160000000D01*
D10*
D11*
X285692676Y-35222176D02*
X286311723Y-35222176D01*
X285568866Y-35593604D02*
X286002199Y-34293604D01*
X286002199Y-34293604D02*
X286435533Y-35593604D01*
D10*
D11*
X286095057Y-84912652D02*
X286280771Y-84974557D01*
X286280771Y-84974557D02*
X286342676Y-85036461D01*
X286342676Y-85036461D02*
X286404580Y-85160271D01*
X286404580Y-85160271D02*
X286404580Y-85345985D01*
X286404580Y-85345985D02*
X286342676Y-85469795D01*
X286342676Y-85469795D02*
X286280771Y-85531700D01*
X286280771Y-85531700D02*
X286156961Y-85593604D01*
X286156961Y-85593604D02*
X285661723Y-85593604D01*
X285661723Y-85593604D02*
X285661723Y-84293604D01*
X285661723Y-84293604D02*
X286095057Y-84293604D01*
X286095057Y-84293604D02*
X286218866Y-84355509D01*
X286218866Y-84355509D02*
X286280771Y-84417414D01*
X286280771Y-84417414D02*
X286342676Y-84541223D01*
X286342676Y-84541223D02*
X286342676Y-84665033D01*
X286342676Y-84665033D02*
X286280771Y-84788842D01*
X286280771Y-84788842D02*
X286218866Y-84850747D01*
X286218866Y-84850747D02*
X286095057Y-84912652D01*
X286095057Y-84912652D02*
X285661723Y-84912652D01*
D10*
D11*
X286404580Y-135469795D02*
X286342676Y-135531700D01*
X286342676Y-135531700D02*
X286156961Y-135593604D01*
X286156961Y-135593604D02*
X286033152Y-135593604D01*
X286033152Y-135593604D02*
X285847438Y-135531700D01*
X285847438Y-135531700D02*
X285723628Y-135407890D01*
X285723628Y-135407890D02*
X285661723Y-135284080D01*
X285661723Y-135284080D02*
X285599819Y-135036461D01*
X285599819Y-135036461D02*
X285599819Y-134850747D01*
X285599819Y-134850747D02*
X285661723Y-134603128D01*
X285661723Y-134603128D02*
X285723628Y-134479319D01*
X285723628Y-134479319D02*
X285847438Y-134355509D01*
X285847438Y-134355509D02*
X286033152Y-134293604D01*
X286033152Y-134293604D02*
X286156961Y-134293604D01*
X286156961Y-134293604D02*
X286342676Y-134355509D01*
X286342676Y-134355509D02*
X286404580Y-134417414D01*
D10*
D11*
X285661723Y-185593604D02*
X285661723Y-184293604D01*
X285661723Y-184293604D02*
X285971247Y-184293604D01*
X285971247Y-184293604D02*
X286156961Y-184355509D01*
X286156961Y-184355509D02*
X286280771Y-184479319D01*
X286280771Y-184479319D02*
X286342676Y-184603128D01*
X286342676Y-184603128D02*
X286404580Y-184850747D01*
X286404580Y-184850747D02*
X286404580Y-185036461D01*
X286404580Y-185036461D02*
X286342676Y-185284080D01*
X286342676Y-185284080D02*
X286280771Y-185407890D01*
X286280771Y-185407890D02*
X286156961Y-185531700D01*
X286156961Y-185531700D02*
X285971247Y-185593604D01*
X285971247Y-185593604D02*
X285661723Y-185593604D01*
D10*
D11*
X200458026Y-193793328D02*
X200458026Y-192293328D01*
X200458026Y-192293328D02*
X200815169Y-192293328D01*
X200815169Y-192293328D02*
X201029455Y-192364757D01*
X201029455Y-192364757D02*
X201172312Y-192507614D01*
X201172312Y-192507614D02*
X201243741Y-192650471D01*
X201243741Y-192650471D02*
X201315169Y-192936185D01*
X201315169Y-192936185D02*
X201315169Y-193150471D01*
X201315169Y-193150471D02*
X201243741Y-193436185D01*
X201243741Y-193436185D02*
X201172312Y-193579042D01*
X201172312Y-193579042D02*
X201029455Y-193721900D01*
X201029455Y-193721900D02*
X200815169Y-193793328D01*
X200815169Y-193793328D02*
X200458026Y-193793328D01*
X202600884Y-193793328D02*
X202600884Y-193007614D01*
X202600884Y-193007614D02*
X202529455Y-192864757D01*
X202529455Y-192864757D02*
X202386598Y-192793328D01*
X202386598Y-192793328D02*
X202100884Y-192793328D01*
X202100884Y-192793328D02*
X201958026Y-192864757D01*
X202600884Y-193721900D02*
X202458026Y-193793328D01*
X202458026Y-193793328D02*
X202100884Y-193793328D01*
X202100884Y-193793328D02*
X201958026Y-193721900D01*
X201958026Y-193721900D02*
X201886598Y-193579042D01*
X201886598Y-193579042D02*
X201886598Y-193436185D01*
X201886598Y-193436185D02*
X201958026Y-193293328D01*
X201958026Y-193293328D02*
X202100884Y-193221900D01*
X202100884Y-193221900D02*
X202458026Y-193221900D01*
X202458026Y-193221900D02*
X202600884Y-193150471D01*
X203100884Y-192793328D02*
X203672312Y-192793328D01*
X203315169Y-192293328D02*
X203315169Y-193579042D01*
X203315169Y-193579042D02*
X203386598Y-193721900D01*
X203386598Y-193721900D02*
X203529455Y-193793328D01*
X203529455Y-193793328D02*
X203672312Y-193793328D01*
X204743741Y-193721900D02*
X204600884Y-193793328D01*
X204600884Y-193793328D02*
X204315170Y-193793328D01*
X204315170Y-193793328D02*
X204172312Y-193721900D01*
X204172312Y-193721900D02*
X204100884Y-193579042D01*
X204100884Y-193579042D02*
X204100884Y-193007614D01*
X204100884Y-193007614D02*
X204172312Y-192864757D01*
X204172312Y-192864757D02*
X204315170Y-192793328D01*
X204315170Y-192793328D02*
X204600884Y-192793328D01*
X204600884Y-192793328D02*
X204743741Y-192864757D01*
X204743741Y-192864757D02*
X204815170Y-193007614D01*
X204815170Y-193007614D02*
X204815170Y-193150471D01*
X204815170Y-193150471D02*
X204100884Y-193293328D01*
X205458026Y-193650471D02*
X205529455Y-193721900D01*
X205529455Y-193721900D02*
X205458026Y-193793328D01*
X205458026Y-193793328D02*
X205386598Y-193721900D01*
X205386598Y-193721900D02*
X205458026Y-193650471D01*
X205458026Y-193650471D02*
X205458026Y-193793328D01*
X205458026Y-192864757D02*
X205529455Y-192936185D01*
X205529455Y-192936185D02*
X205458026Y-193007614D01*
X205458026Y-193007614D02*
X205386598Y-192936185D01*
X205386598Y-192936185D02*
X205458026Y-192864757D01*
X205458026Y-192864757D02*
X205458026Y-193007614D01*
D10*
D11*
X177002200Y-194507200D02*
X285002200Y-194507200D01*
D10*
D11*
X178458026Y-196593328D02*
X178458026Y-195093328D01*
X179315169Y-196593328D02*
X178672312Y-195736185D01*
X179315169Y-195093328D02*
X178458026Y-195950471D01*
X179958026Y-196593328D02*
X179958026Y-195593328D01*
X179958026Y-195093328D02*
X179886598Y-195164757D01*
X179886598Y-195164757D02*
X179958026Y-195236185D01*
X179958026Y-195236185D02*
X180029455Y-195164757D01*
X180029455Y-195164757D02*
X179958026Y-195093328D01*
X179958026Y-195093328D02*
X179958026Y-195236185D01*
X181529455Y-196450471D02*
X181458027Y-196521900D01*
X181458027Y-196521900D02*
X181243741Y-196593328D01*
X181243741Y-196593328D02*
X181100884Y-196593328D01*
X181100884Y-196593328D02*
X180886598Y-196521900D01*
X180886598Y-196521900D02*
X180743741Y-196379042D01*
X180743741Y-196379042D02*
X180672312Y-196236185D01*
X180672312Y-196236185D02*
X180600884Y-195950471D01*
X180600884Y-195950471D02*
X180600884Y-195736185D01*
X180600884Y-195736185D02*
X180672312Y-195450471D01*
X180672312Y-195450471D02*
X180743741Y-195307614D01*
X180743741Y-195307614D02*
X180886598Y-195164757D01*
X180886598Y-195164757D02*
X181100884Y-195093328D01*
X181100884Y-195093328D02*
X181243741Y-195093328D01*
X181243741Y-195093328D02*
X181458027Y-195164757D01*
X181458027Y-195164757D02*
X181529455Y-195236185D01*
X182815170Y-196593328D02*
X182815170Y-195807614D01*
X182815170Y-195807614D02*
X182743741Y-195664757D01*
X182743741Y-195664757D02*
X182600884Y-195593328D01*
X182600884Y-195593328D02*
X182315170Y-195593328D01*
X182315170Y-195593328D02*
X182172312Y-195664757D01*
X182815170Y-196521900D02*
X182672312Y-196593328D01*
X182672312Y-196593328D02*
X182315170Y-196593328D01*
X182315170Y-196593328D02*
X182172312Y-196521900D01*
X182172312Y-196521900D02*
X182100884Y-196379042D01*
X182100884Y-196379042D02*
X182100884Y-196236185D01*
X182100884Y-196236185D02*
X182172312Y-196093328D01*
X182172312Y-196093328D02*
X182315170Y-196021900D01*
X182315170Y-196021900D02*
X182672312Y-196021900D01*
X182672312Y-196021900D02*
X182815170Y-195950471D01*
X184172313Y-196593328D02*
X184172313Y-195093328D01*
X184172313Y-196521900D02*
X184029455Y-196593328D01*
X184029455Y-196593328D02*
X183743741Y-196593328D01*
X183743741Y-196593328D02*
X183600884Y-196521900D01*
X183600884Y-196521900D02*
X183529455Y-196450471D01*
X183529455Y-196450471D02*
X183458027Y-196307614D01*
X183458027Y-196307614D02*
X183458027Y-195879042D01*
X183458027Y-195879042D02*
X183529455Y-195736185D01*
X183529455Y-195736185D02*
X183600884Y-195664757D01*
X183600884Y-195664757D02*
X183743741Y-195593328D01*
X183743741Y-195593328D02*
X184029455Y-195593328D01*
X184029455Y-195593328D02*
X184172313Y-195664757D01*
X186029455Y-195807614D02*
X186529455Y-195807614D01*
X186743741Y-196593328D02*
X186029455Y-196593328D01*
X186029455Y-196593328D02*
X186029455Y-195093328D01*
X186029455Y-195093328D02*
X186743741Y-195093328D01*
X187386598Y-196450471D02*
X187458027Y-196521900D01*
X187458027Y-196521900D02*
X187386598Y-196593328D01*
X187386598Y-196593328D02*
X187315170Y-196521900D01*
X187315170Y-196521900D02*
X187386598Y-196450471D01*
X187386598Y-196450471D02*
X187386598Y-196593328D01*
X188100884Y-196593328D02*
X188100884Y-195093328D01*
X188100884Y-195093328D02*
X188458027Y-195093328D01*
X188458027Y-195093328D02*
X188672313Y-195164757D01*
X188672313Y-195164757D02*
X188815170Y-195307614D01*
X188815170Y-195307614D02*
X188886599Y-195450471D01*
X188886599Y-195450471D02*
X188958027Y-195736185D01*
X188958027Y-195736185D02*
X188958027Y-195950471D01*
X188958027Y-195950471D02*
X188886599Y-196236185D01*
X188886599Y-196236185D02*
X188815170Y-196379042D01*
X188815170Y-196379042D02*
X188672313Y-196521900D01*
X188672313Y-196521900D02*
X188458027Y-196593328D01*
X188458027Y-196593328D02*
X188100884Y-196593328D01*
X189600884Y-196450471D02*
X189672313Y-196521900D01*
X189672313Y-196521900D02*
X189600884Y-196593328D01*
X189600884Y-196593328D02*
X189529456Y-196521900D01*
X189529456Y-196521900D02*
X189600884Y-196450471D01*
X189600884Y-196450471D02*
X189600884Y-196593328D01*
X190243742Y-196164757D02*
X190958028Y-196164757D01*
X190100885Y-196593328D02*
X190600885Y-195093328D01*
X190600885Y-195093328D02*
X191100885Y-196593328D01*
X191600884Y-196450471D02*
X191672313Y-196521900D01*
X191672313Y-196521900D02*
X191600884Y-196593328D01*
X191600884Y-196593328D02*
X191529456Y-196521900D01*
X191529456Y-196521900D02*
X191600884Y-196450471D01*
X191600884Y-196450471D02*
X191600884Y-196593328D01*
X193529456Y-196593328D02*
X193815170Y-196593328D01*
X193815170Y-196593328D02*
X193958027Y-196521900D01*
X193958027Y-196521900D02*
X194029456Y-196450471D01*
X194029456Y-196450471D02*
X194172313Y-196236185D01*
X194172313Y-196236185D02*
X194243742Y-195950471D01*
X194243742Y-195950471D02*
X194243742Y-195379042D01*
X194243742Y-195379042D02*
X194172313Y-195236185D01*
X194172313Y-195236185D02*
X194100885Y-195164757D01*
X194100885Y-195164757D02*
X193958027Y-195093328D01*
X193958027Y-195093328D02*
X193672313Y-195093328D01*
X193672313Y-195093328D02*
X193529456Y-195164757D01*
X193529456Y-195164757D02*
X193458027Y-195236185D01*
X193458027Y-195236185D02*
X193386599Y-195379042D01*
X193386599Y-195379042D02*
X193386599Y-195736185D01*
X193386599Y-195736185D02*
X193458027Y-195879042D01*
X193458027Y-195879042D02*
X193529456Y-195950471D01*
X193529456Y-195950471D02*
X193672313Y-196021900D01*
X193672313Y-196021900D02*
X193958027Y-196021900D01*
X193958027Y-196021900D02*
X194100885Y-195950471D01*
X194100885Y-195950471D02*
X194172313Y-195879042D01*
X194172313Y-195879042D02*
X194243742Y-195736185D01*
X194886598Y-196450471D02*
X194958027Y-196521900D01*
X194958027Y-196521900D02*
X194886598Y-196593328D01*
X194886598Y-196593328D02*
X194815170Y-196521900D01*
X194815170Y-196521900D02*
X194886598Y-196450471D01*
X194886598Y-196450471D02*
X194886598Y-196593328D01*
X195886599Y-195093328D02*
X196029456Y-195093328D01*
X196029456Y-195093328D02*
X196172313Y-195164757D01*
X196172313Y-195164757D02*
X196243742Y-195236185D01*
X196243742Y-195236185D02*
X196315170Y-195379042D01*
X196315170Y-195379042D02*
X196386599Y-195664757D01*
X196386599Y-195664757D02*
X196386599Y-196021900D01*
X196386599Y-196021900D02*
X196315170Y-196307614D01*
X196315170Y-196307614D02*
X196243742Y-196450471D01*
X196243742Y-196450471D02*
X196172313Y-196521900D01*
X196172313Y-196521900D02*
X196029456Y-196593328D01*
X196029456Y-196593328D02*
X195886599Y-196593328D01*
X195886599Y-196593328D02*
X195743742Y-196521900D01*
X195743742Y-196521900D02*
X195672313Y-196450471D01*
X195672313Y-196450471D02*
X195600884Y-196307614D01*
X195600884Y-196307614D02*
X195529456Y-196021900D01*
X195529456Y-196021900D02*
X195529456Y-195664757D01*
X195529456Y-195664757D02*
X195600884Y-195379042D01*
X195600884Y-195379042D02*
X195672313Y-195236185D01*
X195672313Y-195236185D02*
X195743742Y-195164757D01*
X195743742Y-195164757D02*
X195886599Y-195093328D01*
X197029455Y-196450471D02*
X197100884Y-196521900D01*
X197100884Y-196521900D02*
X197029455Y-196593328D01*
X197029455Y-196593328D02*
X196958027Y-196521900D01*
X196958027Y-196521900D02*
X197029455Y-196450471D01*
X197029455Y-196450471D02*
X197029455Y-196593328D01*
X198386599Y-195093328D02*
X198100884Y-195093328D01*
X198100884Y-195093328D02*
X197958027Y-195164757D01*
X197958027Y-195164757D02*
X197886599Y-195236185D01*
X197886599Y-195236185D02*
X197743741Y-195450471D01*
X197743741Y-195450471D02*
X197672313Y-195736185D01*
X197672313Y-195736185D02*
X197672313Y-196307614D01*
X197672313Y-196307614D02*
X197743741Y-196450471D01*
X197743741Y-196450471D02*
X197815170Y-196521900D01*
X197815170Y-196521900D02*
X197958027Y-196593328D01*
X197958027Y-196593328D02*
X198243741Y-196593328D01*
X198243741Y-196593328D02*
X198386599Y-196521900D01*
X198386599Y-196521900D02*
X198458027Y-196450471D01*
X198458027Y-196450471D02*
X198529456Y-196307614D01*
X198529456Y-196307614D02*
X198529456Y-195950471D01*
X198529456Y-195950471D02*
X198458027Y-195807614D01*
X198458027Y-195807614D02*
X198386599Y-195736185D01*
X198386599Y-195736185D02*
X198243741Y-195664757D01*
X198243741Y-195664757D02*
X197958027Y-195664757D01*
X197958027Y-195664757D02*
X197815170Y-195736185D01*
X197815170Y-195736185D02*
X197743741Y-195807614D01*
X197743741Y-195807614D02*
X197672313Y-195950471D01*
D10*
D11*
X177002200Y-191507200D02*
X285002200Y-191507200D01*
D10*
D12*
X264413853Y-193785528D02*
X263913853Y-193071242D01*
X263556710Y-193785528D02*
X263556710Y-192285528D01*
X263556710Y-192285528D02*
X264128139Y-192285528D01*
X264128139Y-192285528D02*
X264270996Y-192356957D01*
X264270996Y-192356957D02*
X264342425Y-192428385D01*
X264342425Y-192428385D02*
X264413853Y-192571242D01*
X264413853Y-192571242D02*
X264413853Y-192785528D01*
X264413853Y-192785528D02*
X264342425Y-192928385D01*
X264342425Y-192928385D02*
X264270996Y-192999814D01*
X264270996Y-192999814D02*
X264128139Y-193071242D01*
X264128139Y-193071242D02*
X263556710Y-193071242D01*
X265628139Y-193714100D02*
X265485282Y-193785528D01*
X265485282Y-193785528D02*
X265199568Y-193785528D01*
X265199568Y-193785528D02*
X265056710Y-193714100D01*
X265056710Y-193714100D02*
X264985282Y-193571242D01*
X264985282Y-193571242D02*
X264985282Y-192999814D01*
X264985282Y-192999814D02*
X265056710Y-192856957D01*
X265056710Y-192856957D02*
X265199568Y-192785528D01*
X265199568Y-192785528D02*
X265485282Y-192785528D01*
X265485282Y-192785528D02*
X265628139Y-192856957D01*
X265628139Y-192856957D02*
X265699568Y-192999814D01*
X265699568Y-192999814D02*
X265699568Y-193142671D01*
X265699568Y-193142671D02*
X264985282Y-193285528D01*
X266199567Y-192785528D02*
X266556710Y-193785528D01*
X266556710Y-193785528D02*
X266913853Y-192785528D01*
X267485281Y-193642671D02*
X267556710Y-193714100D01*
X267556710Y-193714100D02*
X267485281Y-193785528D01*
X267485281Y-193785528D02*
X267413853Y-193714100D01*
X267413853Y-193714100D02*
X267485281Y-193642671D01*
X267485281Y-193642671D02*
X267485281Y-193785528D01*
X267485281Y-192856957D02*
X267556710Y-192928385D01*
X267556710Y-192928385D02*
X267485281Y-192999814D01*
X267485281Y-192999814D02*
X267413853Y-192928385D01*
X267413853Y-192928385D02*
X267485281Y-192856957D01*
X267485281Y-192856957D02*
X267485281Y-192999814D01*
D10*
D11*
X178386598Y-193721900D02*
X178600884Y-193793328D01*
X178600884Y-193793328D02*
X178958026Y-193793328D01*
X178958026Y-193793328D02*
X179100884Y-193721900D01*
X179100884Y-193721900D02*
X179172312Y-193650471D01*
X179172312Y-193650471D02*
X179243741Y-193507614D01*
X179243741Y-193507614D02*
X179243741Y-193364757D01*
X179243741Y-193364757D02*
X179172312Y-193221900D01*
X179172312Y-193221900D02*
X179100884Y-193150471D01*
X179100884Y-193150471D02*
X178958026Y-193079042D01*
X178958026Y-193079042D02*
X178672312Y-193007614D01*
X178672312Y-193007614D02*
X178529455Y-192936185D01*
X178529455Y-192936185D02*
X178458026Y-192864757D01*
X178458026Y-192864757D02*
X178386598Y-192721900D01*
X178386598Y-192721900D02*
X178386598Y-192579042D01*
X178386598Y-192579042D02*
X178458026Y-192436185D01*
X178458026Y-192436185D02*
X178529455Y-192364757D01*
X178529455Y-192364757D02*
X178672312Y-192293328D01*
X178672312Y-192293328D02*
X179029455Y-192293328D01*
X179029455Y-192293328D02*
X179243741Y-192364757D01*
X179886597Y-193793328D02*
X179886597Y-192793328D01*
X179886597Y-192293328D02*
X179815169Y-192364757D01*
X179815169Y-192364757D02*
X179886597Y-192436185D01*
X179886597Y-192436185D02*
X179958026Y-192364757D01*
X179958026Y-192364757D02*
X179886597Y-192293328D01*
X179886597Y-192293328D02*
X179886597Y-192436185D01*
X180458026Y-192793328D02*
X181243741Y-192793328D01*
X181243741Y-192793328D02*
X180458026Y-193793328D01*
X180458026Y-193793328D02*
X181243741Y-193793328D01*
X182386598Y-193721900D02*
X182243741Y-193793328D01*
X182243741Y-193793328D02*
X181958027Y-193793328D01*
X181958027Y-193793328D02*
X181815169Y-193721900D01*
X181815169Y-193721900D02*
X181743741Y-193579042D01*
X181743741Y-193579042D02*
X181743741Y-193007614D01*
X181743741Y-193007614D02*
X181815169Y-192864757D01*
X181815169Y-192864757D02*
X181958027Y-192793328D01*
X181958027Y-192793328D02*
X182243741Y-192793328D01*
X182243741Y-192793328D02*
X182386598Y-192864757D01*
X182386598Y-192864757D02*
X182458027Y-193007614D01*
X182458027Y-193007614D02*
X182458027Y-193150471D01*
X182458027Y-193150471D02*
X181743741Y-193293328D01*
X183100883Y-193650471D02*
X183172312Y-193721900D01*
X183172312Y-193721900D02*
X183100883Y-193793328D01*
X183100883Y-193793328D02*
X183029455Y-193721900D01*
X183029455Y-193721900D02*
X183100883Y-193650471D01*
X183100883Y-193650471D02*
X183100883Y-193793328D01*
X183100883Y-192864757D02*
X183172312Y-192936185D01*
X183172312Y-192936185D02*
X183100883Y-193007614D01*
X183100883Y-193007614D02*
X183029455Y-192936185D01*
X183029455Y-192936185D02*
X183100883Y-192864757D01*
X183100883Y-192864757D02*
X183100883Y-193007614D01*
X184886598Y-193364757D02*
X185600884Y-193364757D01*
X184743741Y-193793328D02*
X185243741Y-192293328D01*
X185243741Y-192293328D02*
X185743741Y-193793328D01*
X186886598Y-192793328D02*
X186886598Y-193793328D01*
X186529455Y-192221900D02*
X186172312Y-193293328D01*
X186172312Y-193293328D02*
X187100883Y-193293328D01*
D10*
D11*
X263458026Y-196593328D02*
X263458026Y-195093328D01*
X264815170Y-196593328D02*
X264815170Y-195093328D01*
X264815170Y-196521900D02*
X264672312Y-196593328D01*
X264672312Y-196593328D02*
X264386598Y-196593328D01*
X264386598Y-196593328D02*
X264243741Y-196521900D01*
X264243741Y-196521900D02*
X264172312Y-196450471D01*
X264172312Y-196450471D02*
X264100884Y-196307614D01*
X264100884Y-196307614D02*
X264100884Y-195879042D01*
X264100884Y-195879042D02*
X264172312Y-195736185D01*
X264172312Y-195736185D02*
X264243741Y-195664757D01*
X264243741Y-195664757D02*
X264386598Y-195593328D01*
X264386598Y-195593328D02*
X264672312Y-195593328D01*
X264672312Y-195593328D02*
X264815170Y-195664757D01*
X265529455Y-196450471D02*
X265600884Y-196521900D01*
X265600884Y-196521900D02*
X265529455Y-196593328D01*
X265529455Y-196593328D02*
X265458027Y-196521900D01*
X265458027Y-196521900D02*
X265529455Y-196450471D01*
X265529455Y-196450471D02*
X265529455Y-196593328D01*
X265529455Y-195664757D02*
X265600884Y-195736185D01*
X265600884Y-195736185D02*
X265529455Y-195807614D01*
X265529455Y-195807614D02*
X265458027Y-195736185D01*
X265458027Y-195736185D02*
X265529455Y-195664757D01*
X265529455Y-195664757D02*
X265529455Y-195807614D01*
X268100884Y-195093328D02*
X267386598Y-195093328D01*
X267386598Y-195093328D02*
X267315170Y-195807614D01*
X267315170Y-195807614D02*
X267386598Y-195736185D01*
X267386598Y-195736185D02*
X267529456Y-195664757D01*
X267529456Y-195664757D02*
X267886598Y-195664757D01*
X267886598Y-195664757D02*
X268029456Y-195736185D01*
X268029456Y-195736185D02*
X268100884Y-195807614D01*
X268100884Y-195807614D02*
X268172313Y-195950471D01*
X268172313Y-195950471D02*
X268172313Y-196307614D01*
X268172313Y-196307614D02*
X268100884Y-196450471D01*
X268100884Y-196450471D02*
X268029456Y-196521900D01*
X268029456Y-196521900D02*
X267886598Y-196593328D01*
X267886598Y-196593328D02*
X267529456Y-196593328D01*
X267529456Y-196593328D02*
X267386598Y-196521900D01*
X267386598Y-196521900D02*
X267315170Y-196450471D01*
X269886598Y-195021900D02*
X268600884Y-196950471D01*
X270458027Y-196593328D02*
X270743741Y-196593328D01*
X270743741Y-196593328D02*
X270886598Y-196521900D01*
X270886598Y-196521900D02*
X270958027Y-196450471D01*
X270958027Y-196450471D02*
X271100884Y-196236185D01*
X271100884Y-196236185D02*
X271172313Y-195950471D01*
X271172313Y-195950471D02*
X271172313Y-195379042D01*
X271172313Y-195379042D02*
X271100884Y-195236185D01*
X271100884Y-195236185D02*
X271029456Y-195164757D01*
X271029456Y-195164757D02*
X270886598Y-195093328D01*
X270886598Y-195093328D02*
X270600884Y-195093328D01*
X270600884Y-195093328D02*
X270458027Y-195164757D01*
X270458027Y-195164757D02*
X270386598Y-195236185D01*
X270386598Y-195236185D02*
X270315170Y-195379042D01*
X270315170Y-195379042D02*
X270315170Y-195736185D01*
X270315170Y-195736185D02*
X270386598Y-195879042D01*
X270386598Y-195879042D02*
X270458027Y-195950471D01*
X270458027Y-195950471D02*
X270600884Y-196021900D01*
X270600884Y-196021900D02*
X270886598Y-196021900D01*
X270886598Y-196021900D02*
X271029456Y-195950471D01*
X271029456Y-195950471D02*
X271100884Y-195879042D01*
X271100884Y-195879042D02*
X271172313Y-195736185D01*
D10*
D11*
X177002200Y-187507200D02*
X285002200Y-187507200D01*
D10*
D13*
X178693928Y-188211638D02*
X179836785Y-188211638D01*
X179015357Y-190211638D02*
X179265357Y-188211638D01*
X180253452Y-190211638D02*
X180420119Y-188878304D01*
X180503452Y-188211638D02*
X180396309Y-188306876D01*
X180396309Y-188306876D02*
X180479643Y-188402114D01*
X180479643Y-188402114D02*
X180586786Y-188306876D01*
X180586786Y-188306876D02*
X180503452Y-188211638D01*
X180503452Y-188211638D02*
X180479643Y-188402114D01*
X181086786Y-188878304D02*
X181848690Y-188878304D01*
X181455833Y-188211638D02*
X181241548Y-189925923D01*
X181241548Y-189925923D02*
X181312976Y-190116400D01*
X181312976Y-190116400D02*
X181491548Y-190211638D01*
X181491548Y-190211638D02*
X181682024Y-190211638D01*
X182634405Y-190211638D02*
X182455833Y-190116400D01*
X182455833Y-190116400D02*
X182384405Y-189925923D01*
X182384405Y-189925923D02*
X182598690Y-188211638D01*
X184170119Y-190116400D02*
X183967738Y-190211638D01*
X183967738Y-190211638D02*
X183586785Y-190211638D01*
X183586785Y-190211638D02*
X183408214Y-190116400D01*
X183408214Y-190116400D02*
X183336785Y-189925923D01*
X183336785Y-189925923D02*
X183432024Y-189164019D01*
X183432024Y-189164019D02*
X183551071Y-188973542D01*
X183551071Y-188973542D02*
X183753452Y-188878304D01*
X183753452Y-188878304D02*
X184134404Y-188878304D01*
X184134404Y-188878304D02*
X184312976Y-188973542D01*
X184312976Y-188973542D02*
X184384404Y-189164019D01*
X184384404Y-189164019D02*
X184360595Y-189354495D01*
X184360595Y-189354495D02*
X183384404Y-189544971D01*
X185134405Y-190021161D02*
X185217738Y-190116400D01*
X185217738Y-190116400D02*
X185110595Y-190211638D01*
X185110595Y-190211638D02*
X185027262Y-190116400D01*
X185027262Y-190116400D02*
X185134405Y-190021161D01*
X185134405Y-190021161D02*
X185110595Y-190211638D01*
X185265357Y-188973542D02*
X185348690Y-189068780D01*
X185348690Y-189068780D02*
X185241548Y-189164019D01*
X185241548Y-189164019D02*
X185158214Y-189068780D01*
X185158214Y-189068780D02*
X185265357Y-188973542D01*
X185265357Y-188973542D02*
X185241548Y-189164019D01*
D10*
D11*
X178958026Y-185607614D02*
X178458026Y-185607614D01*
X178458026Y-186393328D02*
X178458026Y-184893328D01*
X178458026Y-184893328D02*
X179172312Y-184893328D01*
X179743740Y-186393328D02*
X179743740Y-185393328D01*
X179743740Y-184893328D02*
X179672312Y-184964757D01*
X179672312Y-184964757D02*
X179743740Y-185036185D01*
X179743740Y-185036185D02*
X179815169Y-184964757D01*
X179815169Y-184964757D02*
X179743740Y-184893328D01*
X179743740Y-184893328D02*
X179743740Y-185036185D01*
X180672312Y-186393328D02*
X180529455Y-186321900D01*
X180529455Y-186321900D02*
X180458026Y-186179042D01*
X180458026Y-186179042D02*
X180458026Y-184893328D01*
X181815169Y-186321900D02*
X181672312Y-186393328D01*
X181672312Y-186393328D02*
X181386598Y-186393328D01*
X181386598Y-186393328D02*
X181243740Y-186321900D01*
X181243740Y-186321900D02*
X181172312Y-186179042D01*
X181172312Y-186179042D02*
X181172312Y-185607614D01*
X181172312Y-185607614D02*
X181243740Y-185464757D01*
X181243740Y-185464757D02*
X181386598Y-185393328D01*
X181386598Y-185393328D02*
X181672312Y-185393328D01*
X181672312Y-185393328D02*
X181815169Y-185464757D01*
X181815169Y-185464757D02*
X181886598Y-185607614D01*
X181886598Y-185607614D02*
X181886598Y-185750471D01*
X181886598Y-185750471D02*
X181172312Y-185893328D01*
X182529454Y-186250471D02*
X182600883Y-186321900D01*
X182600883Y-186321900D02*
X182529454Y-186393328D01*
X182529454Y-186393328D02*
X182458026Y-186321900D01*
X182458026Y-186321900D02*
X182529454Y-186250471D01*
X182529454Y-186250471D02*
X182529454Y-186393328D01*
X182529454Y-185464757D02*
X182600883Y-185536185D01*
X182600883Y-185536185D02*
X182529454Y-185607614D01*
X182529454Y-185607614D02*
X182458026Y-185536185D01*
X182458026Y-185536185D02*
X182529454Y-185464757D01*
X182529454Y-185464757D02*
X182529454Y-185607614D01*
X185243740Y-186250471D02*
X185172312Y-186321900D01*
X185172312Y-186321900D02*
X184958026Y-186393328D01*
X184958026Y-186393328D02*
X184815169Y-186393328D01*
X184815169Y-186393328D02*
X184600883Y-186321900D01*
X184600883Y-186321900D02*
X184458026Y-186179042D01*
X184458026Y-186179042D02*
X184386597Y-186036185D01*
X184386597Y-186036185D02*
X184315169Y-185750471D01*
X184315169Y-185750471D02*
X184315169Y-185536185D01*
X184315169Y-185536185D02*
X184386597Y-185250471D01*
X184386597Y-185250471D02*
X184458026Y-185107614D01*
X184458026Y-185107614D02*
X184600883Y-184964757D01*
X184600883Y-184964757D02*
X184815169Y-184893328D01*
X184815169Y-184893328D02*
X184958026Y-184893328D01*
X184958026Y-184893328D02*
X185172312Y-184964757D01*
X185172312Y-184964757D02*
X185243740Y-185036185D01*
X185886597Y-186393328D02*
X185886597Y-184893328D01*
X186529455Y-186393328D02*
X186529455Y-185607614D01*
X186529455Y-185607614D02*
X186458026Y-185464757D01*
X186458026Y-185464757D02*
X186315169Y-185393328D01*
X186315169Y-185393328D02*
X186100883Y-185393328D01*
X186100883Y-185393328D02*
X185958026Y-185464757D01*
X185958026Y-185464757D02*
X185886597Y-185536185D01*
X187886598Y-185393328D02*
X187886598Y-186393328D01*
X187243740Y-185393328D02*
X187243740Y-186179042D01*
X187243740Y-186179042D02*
X187315169Y-186321900D01*
X187315169Y-186321900D02*
X187458026Y-186393328D01*
X187458026Y-186393328D02*
X187672312Y-186393328D01*
X187672312Y-186393328D02*
X187815169Y-186321900D01*
X187815169Y-186321900D02*
X187886598Y-186250471D01*
X189243741Y-186393328D02*
X189243741Y-185607614D01*
X189243741Y-185607614D02*
X189172312Y-185464757D01*
X189172312Y-185464757D02*
X189029455Y-185393328D01*
X189029455Y-185393328D02*
X188743741Y-185393328D01*
X188743741Y-185393328D02*
X188600883Y-185464757D01*
X189243741Y-186321900D02*
X189100883Y-186393328D01*
X189100883Y-186393328D02*
X188743741Y-186393328D01*
X188743741Y-186393328D02*
X188600883Y-186321900D01*
X188600883Y-186321900D02*
X188529455Y-186179042D01*
X188529455Y-186179042D02*
X188529455Y-186036185D01*
X188529455Y-186036185D02*
X188600883Y-185893328D01*
X188600883Y-185893328D02*
X188743741Y-185821900D01*
X188743741Y-185821900D02*
X189100883Y-185821900D01*
X189100883Y-185821900D02*
X189243741Y-185750471D01*
X190815169Y-186250471D02*
X190743741Y-186321900D01*
X190743741Y-186321900D02*
X190529455Y-186393328D01*
X190529455Y-186393328D02*
X190386598Y-186393328D01*
X190386598Y-186393328D02*
X190172312Y-186321900D01*
X190172312Y-186321900D02*
X190029455Y-186179042D01*
X190029455Y-186179042D02*
X189958026Y-186036185D01*
X189958026Y-186036185D02*
X189886598Y-185750471D01*
X189886598Y-185750471D02*
X189886598Y-185536185D01*
X189886598Y-185536185D02*
X189958026Y-185250471D01*
X189958026Y-185250471D02*
X190029455Y-185107614D01*
X190029455Y-185107614D02*
X190172312Y-184964757D01*
X190172312Y-184964757D02*
X190386598Y-184893328D01*
X190386598Y-184893328D02*
X190529455Y-184893328D01*
X190529455Y-184893328D02*
X190743741Y-184964757D01*
X190743741Y-184964757D02*
X190815169Y-185036185D01*
X191458026Y-186393328D02*
X191458026Y-185393328D01*
X191458026Y-184893328D02*
X191386598Y-184964757D01*
X191386598Y-184964757D02*
X191458026Y-185036185D01*
X191458026Y-185036185D02*
X191529455Y-184964757D01*
X191529455Y-184964757D02*
X191458026Y-184893328D01*
X191458026Y-184893328D02*
X191458026Y-185036185D01*
X192172312Y-186393328D02*
X192172312Y-185393328D01*
X192172312Y-185679042D02*
X192243741Y-185536185D01*
X192243741Y-185536185D02*
X192315170Y-185464757D01*
X192315170Y-185464757D02*
X192458027Y-185393328D01*
X192458027Y-185393328D02*
X192600884Y-185393328D01*
X193743741Y-186321900D02*
X193600883Y-186393328D01*
X193600883Y-186393328D02*
X193315169Y-186393328D01*
X193315169Y-186393328D02*
X193172312Y-186321900D01*
X193172312Y-186321900D02*
X193100883Y-186250471D01*
X193100883Y-186250471D02*
X193029455Y-186107614D01*
X193029455Y-186107614D02*
X193029455Y-185679042D01*
X193029455Y-185679042D02*
X193100883Y-185536185D01*
X193100883Y-185536185D02*
X193172312Y-185464757D01*
X193172312Y-185464757D02*
X193315169Y-185393328D01*
X193315169Y-185393328D02*
X193600883Y-185393328D01*
X193600883Y-185393328D02*
X193743741Y-185464757D01*
X195029455Y-185393328D02*
X195029455Y-186393328D01*
X194386597Y-185393328D02*
X194386597Y-186179042D01*
X194386597Y-186179042D02*
X194458026Y-186321900D01*
X194458026Y-186321900D02*
X194600883Y-186393328D01*
X194600883Y-186393328D02*
X194815169Y-186393328D01*
X194815169Y-186393328D02*
X194958026Y-186321900D01*
X194958026Y-186321900D02*
X195029455Y-186250471D01*
X195743740Y-186393328D02*
X195743740Y-185393328D01*
X195743740Y-184893328D02*
X195672312Y-184964757D01*
X195672312Y-184964757D02*
X195743740Y-185036185D01*
X195743740Y-185036185D02*
X195815169Y-184964757D01*
X195815169Y-184964757D02*
X195743740Y-184893328D01*
X195743740Y-184893328D02*
X195743740Y-185036185D01*
X196243741Y-185393328D02*
X196815169Y-185393328D01*
X196458026Y-184893328D02*
X196458026Y-186179042D01*
X196458026Y-186179042D02*
X196529455Y-186321900D01*
X196529455Y-186321900D02*
X196672312Y-186393328D01*
X196672312Y-186393328D02*
X196815169Y-186393328D01*
X197315169Y-186250471D02*
X197386598Y-186321900D01*
X197386598Y-186321900D02*
X197315169Y-186393328D01*
X197315169Y-186393328D02*
X197243741Y-186321900D01*
X197243741Y-186321900D02*
X197315169Y-186250471D01*
X197315169Y-186250471D02*
X197315169Y-186393328D01*
X198029455Y-186393328D02*
X198029455Y-184893328D01*
X198172313Y-185821900D02*
X198600884Y-186393328D01*
X198600884Y-185393328D02*
X198029455Y-185964757D01*
X199243741Y-186393328D02*
X199243741Y-185393328D01*
X199243741Y-184893328D02*
X199172313Y-184964757D01*
X199172313Y-184964757D02*
X199243741Y-185036185D01*
X199243741Y-185036185D02*
X199315170Y-184964757D01*
X199315170Y-184964757D02*
X199243741Y-184893328D01*
X199243741Y-184893328D02*
X199243741Y-185036185D01*
X200600885Y-186321900D02*
X200458027Y-186393328D01*
X200458027Y-186393328D02*
X200172313Y-186393328D01*
X200172313Y-186393328D02*
X200029456Y-186321900D01*
X200029456Y-186321900D02*
X199958027Y-186250471D01*
X199958027Y-186250471D02*
X199886599Y-186107614D01*
X199886599Y-186107614D02*
X199886599Y-185679042D01*
X199886599Y-185679042D02*
X199958027Y-185536185D01*
X199958027Y-185536185D02*
X200029456Y-185464757D01*
X200029456Y-185464757D02*
X200172313Y-185393328D01*
X200172313Y-185393328D02*
X200458027Y-185393328D01*
X200458027Y-185393328D02*
X200600885Y-185464757D01*
X201886599Y-186393328D02*
X201886599Y-185607614D01*
X201886599Y-185607614D02*
X201815170Y-185464757D01*
X201815170Y-185464757D02*
X201672313Y-185393328D01*
X201672313Y-185393328D02*
X201386599Y-185393328D01*
X201386599Y-185393328D02*
X201243741Y-185464757D01*
X201886599Y-186321900D02*
X201743741Y-186393328D01*
X201743741Y-186393328D02*
X201386599Y-186393328D01*
X201386599Y-186393328D02*
X201243741Y-186321900D01*
X201243741Y-186321900D02*
X201172313Y-186179042D01*
X201172313Y-186179042D02*
X201172313Y-186036185D01*
X201172313Y-186036185D02*
X201243741Y-185893328D01*
X201243741Y-185893328D02*
X201386599Y-185821900D01*
X201386599Y-185821900D02*
X201743741Y-185821900D01*
X201743741Y-185821900D02*
X201886599Y-185750471D01*
X203243742Y-186393328D02*
X203243742Y-184893328D01*
X203243742Y-186321900D02*
X203100884Y-186393328D01*
X203100884Y-186393328D02*
X202815170Y-186393328D01*
X202815170Y-186393328D02*
X202672313Y-186321900D01*
X202672313Y-186321900D02*
X202600884Y-186250471D01*
X202600884Y-186250471D02*
X202529456Y-186107614D01*
X202529456Y-186107614D02*
X202529456Y-185679042D01*
X202529456Y-185679042D02*
X202600884Y-185536185D01*
X202600884Y-185536185D02*
X202672313Y-185464757D01*
X202672313Y-185464757D02*
X202815170Y-185393328D01*
X202815170Y-185393328D02*
X203100884Y-185393328D01*
X203100884Y-185393328D02*
X203243742Y-185464757D01*
X203600885Y-186536185D02*
X204743742Y-186536185D01*
X205100884Y-185393328D02*
X205100884Y-186893328D01*
X205100884Y-185464757D02*
X205243742Y-185393328D01*
X205243742Y-185393328D02*
X205529456Y-185393328D01*
X205529456Y-185393328D02*
X205672313Y-185464757D01*
X205672313Y-185464757D02*
X205743742Y-185536185D01*
X205743742Y-185536185D02*
X205815170Y-185679042D01*
X205815170Y-185679042D02*
X205815170Y-186107614D01*
X205815170Y-186107614D02*
X205743742Y-186250471D01*
X205743742Y-186250471D02*
X205672313Y-186321900D01*
X205672313Y-186321900D02*
X205529456Y-186393328D01*
X205529456Y-186393328D02*
X205243742Y-186393328D01*
X205243742Y-186393328D02*
X205100884Y-186321900D01*
X207100885Y-186321900D02*
X206958027Y-186393328D01*
X206958027Y-186393328D02*
X206672313Y-186393328D01*
X206672313Y-186393328D02*
X206529456Y-186321900D01*
X206529456Y-186321900D02*
X206458027Y-186250471D01*
X206458027Y-186250471D02*
X206386599Y-186107614D01*
X206386599Y-186107614D02*
X206386599Y-185679042D01*
X206386599Y-185679042D02*
X206458027Y-185536185D01*
X206458027Y-185536185D02*
X206529456Y-185464757D01*
X206529456Y-185464757D02*
X206672313Y-185393328D01*
X206672313Y-185393328D02*
X206958027Y-185393328D01*
X206958027Y-185393328D02*
X207100885Y-185464757D01*
X207743741Y-186393328D02*
X207743741Y-184893328D01*
X207743741Y-185464757D02*
X207886599Y-185393328D01*
X207886599Y-185393328D02*
X208172313Y-185393328D01*
X208172313Y-185393328D02*
X208315170Y-185464757D01*
X208315170Y-185464757D02*
X208386599Y-185536185D01*
X208386599Y-185536185D02*
X208458027Y-185679042D01*
X208458027Y-185679042D02*
X208458027Y-186107614D01*
X208458027Y-186107614D02*
X208386599Y-186250471D01*
X208386599Y-186250471D02*
X208315170Y-186321900D01*
X208315170Y-186321900D02*
X208172313Y-186393328D01*
X208172313Y-186393328D02*
X207886599Y-186393328D01*
X207886599Y-186393328D02*
X207743741Y-186321900D01*
D10*
D11*
X177002200Y-181507200D02*
X285002200Y-181507200D01*
D10*
D11*
X178386598Y-183621900D02*
X178600884Y-183693328D01*
X178600884Y-183693328D02*
X178958026Y-183693328D01*
X178958026Y-183693328D02*
X179100884Y-183621900D01*
X179100884Y-183621900D02*
X179172312Y-183550471D01*
X179172312Y-183550471D02*
X179243741Y-183407614D01*
X179243741Y-183407614D02*
X179243741Y-183264757D01*
X179243741Y-183264757D02*
X179172312Y-183121900D01*
X179172312Y-183121900D02*
X179100884Y-183050471D01*
X179100884Y-183050471D02*
X178958026Y-182979042D01*
X178958026Y-182979042D02*
X178672312Y-182907614D01*
X178672312Y-182907614D02*
X178529455Y-182836185D01*
X178529455Y-182836185D02*
X178458026Y-182764757D01*
X178458026Y-182764757D02*
X178386598Y-182621900D01*
X178386598Y-182621900D02*
X178386598Y-182479042D01*
X178386598Y-182479042D02*
X178458026Y-182336185D01*
X178458026Y-182336185D02*
X178529455Y-182264757D01*
X178529455Y-182264757D02*
X178672312Y-182193328D01*
X178672312Y-182193328D02*
X179029455Y-182193328D01*
X179029455Y-182193328D02*
X179243741Y-182264757D01*
X179886597Y-183693328D02*
X179886597Y-182193328D01*
X180529455Y-183693328D02*
X180529455Y-182907614D01*
X180529455Y-182907614D02*
X180458026Y-182764757D01*
X180458026Y-182764757D02*
X180315169Y-182693328D01*
X180315169Y-182693328D02*
X180100883Y-182693328D01*
X180100883Y-182693328D02*
X179958026Y-182764757D01*
X179958026Y-182764757D02*
X179886597Y-182836185D01*
X181815169Y-183621900D02*
X181672312Y-183693328D01*
X181672312Y-183693328D02*
X181386598Y-183693328D01*
X181386598Y-183693328D02*
X181243740Y-183621900D01*
X181243740Y-183621900D02*
X181172312Y-183479042D01*
X181172312Y-183479042D02*
X181172312Y-182907614D01*
X181172312Y-182907614D02*
X181243740Y-182764757D01*
X181243740Y-182764757D02*
X181386598Y-182693328D01*
X181386598Y-182693328D02*
X181672312Y-182693328D01*
X181672312Y-182693328D02*
X181815169Y-182764757D01*
X181815169Y-182764757D02*
X181886598Y-182907614D01*
X181886598Y-182907614D02*
X181886598Y-183050471D01*
X181886598Y-183050471D02*
X181172312Y-183193328D01*
X183100883Y-183621900D02*
X182958026Y-183693328D01*
X182958026Y-183693328D02*
X182672312Y-183693328D01*
X182672312Y-183693328D02*
X182529454Y-183621900D01*
X182529454Y-183621900D02*
X182458026Y-183479042D01*
X182458026Y-183479042D02*
X182458026Y-182907614D01*
X182458026Y-182907614D02*
X182529454Y-182764757D01*
X182529454Y-182764757D02*
X182672312Y-182693328D01*
X182672312Y-182693328D02*
X182958026Y-182693328D01*
X182958026Y-182693328D02*
X183100883Y-182764757D01*
X183100883Y-182764757D02*
X183172312Y-182907614D01*
X183172312Y-182907614D02*
X183172312Y-183050471D01*
X183172312Y-183050471D02*
X182458026Y-183193328D01*
X183600883Y-182693328D02*
X184172311Y-182693328D01*
X183815168Y-182193328D02*
X183815168Y-183479042D01*
X183815168Y-183479042D02*
X183886597Y-183621900D01*
X183886597Y-183621900D02*
X184029454Y-183693328D01*
X184029454Y-183693328D02*
X184172311Y-183693328D01*
X184672311Y-183550471D02*
X184743740Y-183621900D01*
X184743740Y-183621900D02*
X184672311Y-183693328D01*
X184672311Y-183693328D02*
X184600883Y-183621900D01*
X184600883Y-183621900D02*
X184672311Y-183550471D01*
X184672311Y-183550471D02*
X184672311Y-183693328D01*
X184672311Y-182764757D02*
X184743740Y-182836185D01*
X184743740Y-182836185D02*
X184672311Y-182907614D01*
X184672311Y-182907614D02*
X184600883Y-182836185D01*
X184600883Y-182836185D02*
X184672311Y-182764757D01*
X184672311Y-182764757D02*
X184672311Y-182907614D01*
D10*
D11*
X197002200Y-191507200D02*
X197002200Y-194507200D01*
D10*
D11*
X261002200Y-191507200D02*
X261002200Y-198007200D01*
X132908207Y-119274580D02*
X132860588Y-119322200D01*
X132860588Y-119322200D02*
X132717731Y-119369819D01*
X132717731Y-119369819D02*
X132622493Y-119369819D01*
X132622493Y-119369819D02*
X132479636Y-119322200D01*
X132479636Y-119322200D02*
X132384398Y-119226961D01*
X132384398Y-119226961D02*
X132336779Y-119131723D01*
X132336779Y-119131723D02*
X132289160Y-118941247D01*
X132289160Y-118941247D02*
X132289160Y-118798390D01*
X132289160Y-118798390D02*
X132336779Y-118607914D01*
X132336779Y-118607914D02*
X132384398Y-118512676D01*
X132384398Y-118512676D02*
X132479636Y-118417438D01*
X132479636Y-118417438D02*
X132622493Y-118369819D01*
X132622493Y-118369819D02*
X132717731Y-118369819D01*
X132717731Y-118369819D02*
X132860588Y-118417438D01*
X132860588Y-118417438D02*
X132908207Y-118465057D01*
X133336779Y-119369819D02*
X133336779Y-118369819D01*
X133765350Y-119369819D02*
X133765350Y-118846009D01*
X133765350Y-118846009D02*
X133717731Y-118750771D01*
X133717731Y-118750771D02*
X133622493Y-118703152D01*
X133622493Y-118703152D02*
X133479636Y-118703152D01*
X133479636Y-118703152D02*
X133384398Y-118750771D01*
X133384398Y-118750771D02*
X133336779Y-118798390D01*
X134670112Y-118703152D02*
X134670112Y-119369819D01*
X134241541Y-118703152D02*
X134241541Y-119226961D01*
X134241541Y-119226961D02*
X134289160Y-119322200D01*
X134289160Y-119322200D02*
X134384398Y-119369819D01*
X134384398Y-119369819D02*
X134527255Y-119369819D01*
X134527255Y-119369819D02*
X134622493Y-119322200D01*
X134622493Y-119322200D02*
X134670112Y-119274580D01*
X135574874Y-119369819D02*
X135574874Y-118846009D01*
X135574874Y-118846009D02*
X135527255Y-118750771D01*
X135527255Y-118750771D02*
X135432017Y-118703152D01*
X135432017Y-118703152D02*
X135241541Y-118703152D01*
X135241541Y-118703152D02*
X135146303Y-118750771D01*
X135574874Y-119322200D02*
X135479636Y-119369819D01*
X135479636Y-119369819D02*
X135241541Y-119369819D01*
X135241541Y-119369819D02*
X135146303Y-119322200D01*
X135146303Y-119322200D02*
X135098684Y-119226961D01*
X135098684Y-119226961D02*
X135098684Y-119131723D01*
X135098684Y-119131723D02*
X135146303Y-119036485D01*
X135146303Y-119036485D02*
X135241541Y-118988866D01*
X135241541Y-118988866D02*
X135479636Y-118988866D01*
X135479636Y-118988866D02*
X135574874Y-118941247D01*
X137384398Y-119274580D02*
X137336779Y-119322200D01*
X137336779Y-119322200D02*
X137193922Y-119369819D01*
X137193922Y-119369819D02*
X137098684Y-119369819D01*
X137098684Y-119369819D02*
X136955827Y-119322200D01*
X136955827Y-119322200D02*
X136860589Y-119226961D01*
X136860589Y-119226961D02*
X136812970Y-119131723D01*
X136812970Y-119131723D02*
X136765351Y-118941247D01*
X136765351Y-118941247D02*
X136765351Y-118798390D01*
X136765351Y-118798390D02*
X136812970Y-118607914D01*
X136812970Y-118607914D02*
X136860589Y-118512676D01*
X136860589Y-118512676D02*
X136955827Y-118417438D01*
X136955827Y-118417438D02*
X137098684Y-118369819D01*
X137098684Y-118369819D02*
X137193922Y-118369819D01*
X137193922Y-118369819D02*
X137336779Y-118417438D01*
X137336779Y-118417438D02*
X137384398Y-118465057D01*
X137812970Y-119369819D02*
X137812970Y-118703152D01*
X137812970Y-118369819D02*
X137765351Y-118417438D01*
X137765351Y-118417438D02*
X137812970Y-118465057D01*
X137812970Y-118465057D02*
X137860589Y-118417438D01*
X137860589Y-118417438D02*
X137812970Y-118369819D01*
X137812970Y-118369819D02*
X137812970Y-118465057D01*
X138289160Y-119369819D02*
X138289160Y-118703152D01*
X138289160Y-118893628D02*
X138336779Y-118798390D01*
X138336779Y-118798390D02*
X138384398Y-118750771D01*
X138384398Y-118750771D02*
X138479636Y-118703152D01*
X138479636Y-118703152D02*
X138574874Y-118703152D01*
X139336779Y-119322200D02*
X139241541Y-119369819D01*
X139241541Y-119369819D02*
X139051065Y-119369819D01*
X139051065Y-119369819D02*
X138955827Y-119322200D01*
X138955827Y-119322200D02*
X138908208Y-119274580D01*
X138908208Y-119274580D02*
X138860589Y-119179342D01*
X138860589Y-119179342D02*
X138860589Y-118893628D01*
X138860589Y-118893628D02*
X138908208Y-118798390D01*
X138908208Y-118798390D02*
X138955827Y-118750771D01*
X138955827Y-118750771D02*
X139051065Y-118703152D01*
X139051065Y-118703152D02*
X139241541Y-118703152D01*
X139241541Y-118703152D02*
X139336779Y-118750771D01*
X140193922Y-118703152D02*
X140193922Y-119369819D01*
X139765351Y-118703152D02*
X139765351Y-119226961D01*
X139765351Y-119226961D02*
X139812970Y-119322200D01*
X139812970Y-119322200D02*
X139908208Y-119369819D01*
X139908208Y-119369819D02*
X140051065Y-119369819D01*
X140051065Y-119369819D02*
X140146303Y-119322200D01*
X140146303Y-119322200D02*
X140193922Y-119274580D01*
X140670113Y-119369819D02*
X140670113Y-118703152D01*
X140670113Y-118369819D02*
X140622494Y-118417438D01*
X140622494Y-118417438D02*
X140670113Y-118465057D01*
X140670113Y-118465057D02*
X140717732Y-118417438D01*
X140717732Y-118417438D02*
X140670113Y-118369819D01*
X140670113Y-118369819D02*
X140670113Y-118465057D01*
X141003446Y-118703152D02*
X141384398Y-118703152D01*
X141146303Y-118369819D02*
X141146303Y-119226961D01*
X141146303Y-119226961D02*
X141193922Y-119322200D01*
X141193922Y-119322200D02*
X141289160Y-119369819D01*
X141289160Y-119369819D02*
X141384398Y-119369819D01*
X142336780Y-118369819D02*
X142670113Y-119369819D01*
X142670113Y-119369819D02*
X143003446Y-118369819D01*
X143860589Y-119369819D02*
X143289161Y-119369819D01*
X143574875Y-119369819D02*
X143574875Y-118369819D01*
X143574875Y-118369819D02*
X143479637Y-118512676D01*
X143479637Y-118512676D02*
X143384399Y-118607914D01*
X143384399Y-118607914D02*
X143289161Y-118655533D01*
X144289161Y-119274580D02*
X144336780Y-119322200D01*
X144336780Y-119322200D02*
X144289161Y-119369819D01*
X144289161Y-119369819D02*
X144241542Y-119322200D01*
X144241542Y-119322200D02*
X144289161Y-119274580D01*
X144289161Y-119274580D02*
X144289161Y-119369819D01*
X144955827Y-118369819D02*
X145051065Y-118369819D01*
X145051065Y-118369819D02*
X145146303Y-118417438D01*
X145146303Y-118417438D02*
X145193922Y-118465057D01*
X145193922Y-118465057D02*
X145241541Y-118560295D01*
X145241541Y-118560295D02*
X145289160Y-118750771D01*
X145289160Y-118750771D02*
X145289160Y-118988866D01*
X145289160Y-118988866D02*
X145241541Y-119179342D01*
X145241541Y-119179342D02*
X145193922Y-119274580D01*
X145193922Y-119274580D02*
X145146303Y-119322200D01*
X145146303Y-119322200D02*
X145051065Y-119369819D01*
X145051065Y-119369819D02*
X144955827Y-119369819D01*
X144955827Y-119369819D02*
X144860589Y-119322200D01*
X144860589Y-119322200D02*
X144812970Y-119274580D01*
X144812970Y-119274580D02*
X144765351Y-119179342D01*
X144765351Y-119179342D02*
X144717732Y-118988866D01*
X144717732Y-118988866D02*
X144717732Y-118750771D01*
X144717732Y-118750771D02*
X144765351Y-118560295D01*
X144765351Y-118560295D02*
X144812970Y-118465057D01*
X144812970Y-118465057D02*
X144860589Y-118417438D01*
X144860589Y-118417438D02*
X144955827Y-118369819D01*
X133622493Y-116869819D02*
X133622493Y-117584104D01*
X133622493Y-117584104D02*
X133574874Y-117726961D01*
X133574874Y-117726961D02*
X133479636Y-117822200D01*
X133479636Y-117822200D02*
X133336779Y-117869819D01*
X133336779Y-117869819D02*
X133241541Y-117869819D01*
X134527255Y-117203152D02*
X134527255Y-117869819D01*
X134098684Y-117203152D02*
X134098684Y-117726961D01*
X134098684Y-117726961D02*
X134146303Y-117822200D01*
X134146303Y-117822200D02*
X134241541Y-117869819D01*
X134241541Y-117869819D02*
X134384398Y-117869819D01*
X134384398Y-117869819D02*
X134479636Y-117822200D01*
X134479636Y-117822200D02*
X134527255Y-117774580D01*
X134955827Y-117822200D02*
X135051065Y-117869819D01*
X135051065Y-117869819D02*
X135241541Y-117869819D01*
X135241541Y-117869819D02*
X135336779Y-117822200D01*
X135336779Y-117822200D02*
X135384398Y-117726961D01*
X135384398Y-117726961D02*
X135384398Y-117679342D01*
X135384398Y-117679342D02*
X135336779Y-117584104D01*
X135336779Y-117584104D02*
X135241541Y-117536485D01*
X135241541Y-117536485D02*
X135098684Y-117536485D01*
X135098684Y-117536485D02*
X135003446Y-117488866D01*
X135003446Y-117488866D02*
X134955827Y-117393628D01*
X134955827Y-117393628D02*
X134955827Y-117346009D01*
X134955827Y-117346009D02*
X135003446Y-117250771D01*
X135003446Y-117250771D02*
X135098684Y-117203152D01*
X135098684Y-117203152D02*
X135241541Y-117203152D01*
X135241541Y-117203152D02*
X135336779Y-117250771D01*
X135670113Y-117203152D02*
X136051065Y-117203152D01*
X135812970Y-116869819D02*
X135812970Y-117726961D01*
X135812970Y-117726961D02*
X135860589Y-117822200D01*
X135860589Y-117822200D02*
X135955827Y-117869819D01*
X135955827Y-117869819D02*
X136051065Y-117869819D01*
X136384399Y-117869819D02*
X136384399Y-117203152D01*
X136384399Y-116869819D02*
X136336780Y-116917438D01*
X136336780Y-116917438D02*
X136384399Y-116965057D01*
X136384399Y-116965057D02*
X136432018Y-116917438D01*
X136432018Y-116917438D02*
X136384399Y-116869819D01*
X136384399Y-116869819D02*
X136384399Y-116965057D01*
X136860589Y-117203152D02*
X136860589Y-117869819D01*
X136860589Y-117298390D02*
X136908208Y-117250771D01*
X136908208Y-117250771D02*
X137003446Y-117203152D01*
X137003446Y-117203152D02*
X137146303Y-117203152D01*
X137146303Y-117203152D02*
X137241541Y-117250771D01*
X137241541Y-117250771D02*
X137289160Y-117346009D01*
X137289160Y-117346009D02*
X137289160Y-117869819D01*
X138527256Y-117869819D02*
X138527256Y-116869819D01*
X138527256Y-116869819D02*
X139098684Y-117869819D01*
X139098684Y-117869819D02*
X139098684Y-116869819D01*
X140003446Y-117203152D02*
X140003446Y-118012676D01*
X140003446Y-118012676D02*
X139955827Y-118107914D01*
X139955827Y-118107914D02*
X139908208Y-118155533D01*
X139908208Y-118155533D02*
X139812970Y-118203152D01*
X139812970Y-118203152D02*
X139670113Y-118203152D01*
X139670113Y-118203152D02*
X139574875Y-118155533D01*
X140003446Y-117822200D02*
X139908208Y-117869819D01*
X139908208Y-117869819D02*
X139717732Y-117869819D01*
X139717732Y-117869819D02*
X139622494Y-117822200D01*
X139622494Y-117822200D02*
X139574875Y-117774580D01*
X139574875Y-117774580D02*
X139527256Y-117679342D01*
X139527256Y-117679342D02*
X139527256Y-117393628D01*
X139527256Y-117393628D02*
X139574875Y-117298390D01*
X139574875Y-117298390D02*
X139622494Y-117250771D01*
X139622494Y-117250771D02*
X139717732Y-117203152D01*
X139717732Y-117203152D02*
X139908208Y-117203152D01*
X139908208Y-117203152D02*
X140003446Y-117250771D01*
X140908208Y-117203152D02*
X140908208Y-117869819D01*
X140479637Y-117203152D02*
X140479637Y-117726961D01*
X140479637Y-117726961D02*
X140527256Y-117822200D01*
X140527256Y-117822200D02*
X140622494Y-117869819D01*
X140622494Y-117869819D02*
X140765351Y-117869819D01*
X140765351Y-117869819D02*
X140860589Y-117822200D01*
X140860589Y-117822200D02*
X140908208Y-117774580D01*
X141289161Y-117203152D02*
X141527256Y-117869819D01*
X141765351Y-117203152D02*
X141527256Y-117869819D01*
X141527256Y-117869819D02*
X141432018Y-118107914D01*
X141432018Y-118107914D02*
X141384399Y-118155533D01*
X141384399Y-118155533D02*
X141289161Y-118203152D01*
X142527256Y-117822200D02*
X142432018Y-117869819D01*
X142432018Y-117869819D02*
X142241542Y-117869819D01*
X142241542Y-117869819D02*
X142146304Y-117822200D01*
X142146304Y-117822200D02*
X142098685Y-117726961D01*
X142098685Y-117726961D02*
X142098685Y-117346009D01*
X142098685Y-117346009D02*
X142146304Y-117250771D01*
X142146304Y-117250771D02*
X142241542Y-117203152D01*
X142241542Y-117203152D02*
X142432018Y-117203152D01*
X142432018Y-117203152D02*
X142527256Y-117250771D01*
X142527256Y-117250771D02*
X142574875Y-117346009D01*
X142574875Y-117346009D02*
X142574875Y-117441247D01*
X142574875Y-117441247D02*
X142098685Y-117536485D01*
X143003447Y-117203152D02*
X143003447Y-117869819D01*
X143003447Y-117298390D02*
X143051066Y-117250771D01*
X143051066Y-117250771D02*
X143146304Y-117203152D01*
X143146304Y-117203152D02*
X143289161Y-117203152D01*
X143289161Y-117203152D02*
X143384399Y-117250771D01*
X143384399Y-117250771D02*
X143432018Y-117346009D01*
X143432018Y-117346009D02*
X143432018Y-117869819D01*
X143955828Y-116869819D02*
X143860590Y-117060295D01*
X144336780Y-117822200D02*
X144432018Y-117869819D01*
X144432018Y-117869819D02*
X144622494Y-117869819D01*
X144622494Y-117869819D02*
X144717732Y-117822200D01*
X144717732Y-117822200D02*
X144765351Y-117726961D01*
X144765351Y-117726961D02*
X144765351Y-117679342D01*
X144765351Y-117679342D02*
X144717732Y-117584104D01*
X144717732Y-117584104D02*
X144622494Y-117536485D01*
X144622494Y-117536485D02*
X144479637Y-117536485D01*
X144479637Y-117536485D02*
X144384399Y-117488866D01*
X144384399Y-117488866D02*
X144336780Y-117393628D01*
X144336780Y-117393628D02*
X144336780Y-117346009D01*
X144336780Y-117346009D02*
X144384399Y-117250771D01*
X144384399Y-117250771D02*
X144479637Y-117203152D01*
X144479637Y-117203152D02*
X144622494Y-117203152D01*
X144622494Y-117203152D02*
X144717732Y-117250771D01*
D14*
X137304318Y-94904999D02*
X137304318Y-94663094D01*
X137304318Y-94663094D02*
X137364794Y-94542142D01*
X137364794Y-94542142D02*
X137485746Y-94421189D01*
X137485746Y-94421189D02*
X137727651Y-94360713D01*
X137727651Y-94360713D02*
X138150984Y-94360713D01*
X138150984Y-94360713D02*
X138392889Y-94421189D01*
X138392889Y-94421189D02*
X138513842Y-94542142D01*
X138513842Y-94542142D02*
X138574318Y-94663094D01*
X138574318Y-94663094D02*
X138574318Y-94904999D01*
X138574318Y-94904999D02*
X138513842Y-95025951D01*
X138513842Y-95025951D02*
X138392889Y-95146904D01*
X138392889Y-95146904D02*
X138150984Y-95207380D01*
X138150984Y-95207380D02*
X137727651Y-95207380D01*
X137727651Y-95207380D02*
X137485746Y-95146904D01*
X137485746Y-95146904D02*
X137364794Y-95025951D01*
X137364794Y-95025951D02*
X137304318Y-94904999D01*
X138574318Y-93816428D02*
X137304318Y-93816428D01*
X137304318Y-93816428D02*
X137304318Y-93332618D01*
X137304318Y-93332618D02*
X137364794Y-93211666D01*
X137364794Y-93211666D02*
X137425270Y-93151189D01*
X137425270Y-93151189D02*
X137546222Y-93090713D01*
X137546222Y-93090713D02*
X137727651Y-93090713D01*
X137727651Y-93090713D02*
X137848603Y-93151189D01*
X137848603Y-93151189D02*
X137909080Y-93211666D01*
X137909080Y-93211666D02*
X137969556Y-93332618D01*
X137969556Y-93332618D02*
X137969556Y-93816428D01*
X138211461Y-92606904D02*
X138211461Y-92002142D01*
X138574318Y-92727856D02*
X137304318Y-92304523D01*
X137304318Y-92304523D02*
X138574318Y-91881189D01*
X137425270Y-91518333D02*
X137364794Y-91457857D01*
X137364794Y-91457857D02*
X137304318Y-91336904D01*
X137304318Y-91336904D02*
X137304318Y-91034523D01*
X137304318Y-91034523D02*
X137364794Y-90913571D01*
X137364794Y-90913571D02*
X137425270Y-90853095D01*
X137425270Y-90853095D02*
X137546222Y-90792618D01*
X137546222Y-90792618D02*
X137667175Y-90792618D01*
X137667175Y-90792618D02*
X137848603Y-90853095D01*
X137848603Y-90853095D02*
X138574318Y-91578809D01*
X138574318Y-91578809D02*
X138574318Y-90792618D01*
D11*
X125738095Y-99122438D02*
X125642857Y-99074819D01*
X125642857Y-99074819D02*
X125500000Y-99074819D01*
X125500000Y-99074819D02*
X125357143Y-99122438D01*
X125357143Y-99122438D02*
X125261905Y-99217676D01*
X125261905Y-99217676D02*
X125214286Y-99312914D01*
X125214286Y-99312914D02*
X125166667Y-99503390D01*
X125166667Y-99503390D02*
X125166667Y-99646247D01*
X125166667Y-99646247D02*
X125214286Y-99836723D01*
X125214286Y-99836723D02*
X125261905Y-99931961D01*
X125261905Y-99931961D02*
X125357143Y-100027200D01*
X125357143Y-100027200D02*
X125500000Y-100074819D01*
X125500000Y-100074819D02*
X125595238Y-100074819D01*
X125595238Y-100074819D02*
X125738095Y-100027200D01*
X125738095Y-100027200D02*
X125785714Y-99979580D01*
X125785714Y-99979580D02*
X125785714Y-99646247D01*
X125785714Y-99646247D02*
X125595238Y-99646247D01*
X126214286Y-100074819D02*
X126214286Y-99074819D01*
X126214286Y-99074819D02*
X126785714Y-100074819D01*
X126785714Y-100074819D02*
X126785714Y-99074819D01*
X127261905Y-100074819D02*
X127261905Y-99074819D01*
X127261905Y-99074819D02*
X127500000Y-99074819D01*
X127500000Y-99074819D02*
X127642857Y-99122438D01*
X127642857Y-99122438D02*
X127738095Y-99217676D01*
X127738095Y-99217676D02*
X127785714Y-99312914D01*
X127785714Y-99312914D02*
X127833333Y-99503390D01*
X127833333Y-99503390D02*
X127833333Y-99646247D01*
X127833333Y-99646247D02*
X127785714Y-99836723D01*
X127785714Y-99836723D02*
X127738095Y-99931961D01*
X127738095Y-99931961D02*
X127642857Y-100027200D01*
X127642857Y-100027200D02*
X127500000Y-100074819D01*
X127500000Y-100074819D02*
X127261905Y-100074819D01*
D14*
X137304318Y-109904999D02*
X137304318Y-109663094D01*
X137304318Y-109663094D02*
X137364794Y-109542142D01*
X137364794Y-109542142D02*
X137485746Y-109421189D01*
X137485746Y-109421189D02*
X137727651Y-109360713D01*
X137727651Y-109360713D02*
X138150984Y-109360713D01*
X138150984Y-109360713D02*
X138392889Y-109421189D01*
X138392889Y-109421189D02*
X138513842Y-109542142D01*
X138513842Y-109542142D02*
X138574318Y-109663094D01*
X138574318Y-109663094D02*
X138574318Y-109904999D01*
X138574318Y-109904999D02*
X138513842Y-110025951D01*
X138513842Y-110025951D02*
X138392889Y-110146904D01*
X138392889Y-110146904D02*
X138150984Y-110207380D01*
X138150984Y-110207380D02*
X137727651Y-110207380D01*
X137727651Y-110207380D02*
X137485746Y-110146904D01*
X137485746Y-110146904D02*
X137364794Y-110025951D01*
X137364794Y-110025951D02*
X137304318Y-109904999D01*
X138574318Y-108816428D02*
X137304318Y-108816428D01*
X137304318Y-108816428D02*
X137304318Y-108332618D01*
X137304318Y-108332618D02*
X137364794Y-108211666D01*
X137364794Y-108211666D02*
X137425270Y-108151189D01*
X137425270Y-108151189D02*
X137546222Y-108090713D01*
X137546222Y-108090713D02*
X137727651Y-108090713D01*
X137727651Y-108090713D02*
X137848603Y-108151189D01*
X137848603Y-108151189D02*
X137909080Y-108211666D01*
X137909080Y-108211666D02*
X137969556Y-108332618D01*
X137969556Y-108332618D02*
X137969556Y-108816428D01*
X138211461Y-107606904D02*
X138211461Y-107002142D01*
X138574318Y-107727856D02*
X137304318Y-107304523D01*
X137304318Y-107304523D02*
X138574318Y-106881189D01*
X138574318Y-105792618D02*
X138574318Y-106518333D01*
X138574318Y-106155476D02*
X137304318Y-106155476D01*
X137304318Y-106155476D02*
X137485746Y-106276428D01*
X137485746Y-106276428D02*
X137606699Y-106397380D01*
X137606699Y-106397380D02*
X137667175Y-106518333D01*
D11*
X139929580Y-102142857D02*
X139977200Y-102190476D01*
X139977200Y-102190476D02*
X140024819Y-102333333D01*
X140024819Y-102333333D02*
X140024819Y-102428571D01*
X140024819Y-102428571D02*
X139977200Y-102571428D01*
X139977200Y-102571428D02*
X139881961Y-102666666D01*
X139881961Y-102666666D02*
X139786723Y-102714285D01*
X139786723Y-102714285D02*
X139596247Y-102761904D01*
X139596247Y-102761904D02*
X139453390Y-102761904D01*
X139453390Y-102761904D02*
X139262914Y-102714285D01*
X139262914Y-102714285D02*
X139167676Y-102666666D01*
X139167676Y-102666666D02*
X139072438Y-102571428D01*
X139072438Y-102571428D02*
X139024819Y-102428571D01*
X139024819Y-102428571D02*
X139024819Y-102333333D01*
X139024819Y-102333333D02*
X139072438Y-102190476D01*
X139072438Y-102190476D02*
X139120057Y-102142857D01*
X140024819Y-101190476D02*
X140024819Y-101761904D01*
X140024819Y-101476190D02*
X139024819Y-101476190D01*
X139024819Y-101476190D02*
X139167676Y-101571428D01*
X139167676Y-101571428D02*
X139262914Y-101666666D01*
X139262914Y-101666666D02*
X139310533Y-101761904D01*
X140024819Y-100238095D02*
X140024819Y-100809523D01*
X140024819Y-100523809D02*
X139024819Y-100523809D01*
X139024819Y-100523809D02*
X139167676Y-100619047D01*
X139167676Y-100619047D02*
X139262914Y-100714285D01*
X139262914Y-100714285D02*
X139310533Y-100809523D01*
X136929580Y-102142857D02*
X136977200Y-102190476D01*
X136977200Y-102190476D02*
X137024819Y-102333333D01*
X137024819Y-102333333D02*
X137024819Y-102428571D01*
X137024819Y-102428571D02*
X136977200Y-102571428D01*
X136977200Y-102571428D02*
X136881961Y-102666666D01*
X136881961Y-102666666D02*
X136786723Y-102714285D01*
X136786723Y-102714285D02*
X136596247Y-102761904D01*
X136596247Y-102761904D02*
X136453390Y-102761904D01*
X136453390Y-102761904D02*
X136262914Y-102714285D01*
X136262914Y-102714285D02*
X136167676Y-102666666D01*
X136167676Y-102666666D02*
X136072438Y-102571428D01*
X136072438Y-102571428D02*
X136024819Y-102428571D01*
X136024819Y-102428571D02*
X136024819Y-102333333D01*
X136024819Y-102333333D02*
X136072438Y-102190476D01*
X136072438Y-102190476D02*
X136120057Y-102142857D01*
X137024819Y-101190476D02*
X137024819Y-101761904D01*
X137024819Y-101476190D02*
X136024819Y-101476190D01*
X136024819Y-101476190D02*
X136167676Y-101571428D01*
X136167676Y-101571428D02*
X136262914Y-101666666D01*
X136262914Y-101666666D02*
X136310533Y-101761904D01*
X136024819Y-100571428D02*
X136024819Y-100476190D01*
X136024819Y-100476190D02*
X136072438Y-100380952D01*
X136072438Y-100380952D02*
X136120057Y-100333333D01*
X136120057Y-100333333D02*
X136215295Y-100285714D01*
X136215295Y-100285714D02*
X136405771Y-100238095D01*
X136405771Y-100238095D02*
X136643866Y-100238095D01*
X136643866Y-100238095D02*
X136834342Y-100285714D01*
X136834342Y-100285714D02*
X136929580Y-100333333D01*
X136929580Y-100333333D02*
X136977200Y-100380952D01*
X136977200Y-100380952D02*
X137024819Y-100476190D01*
X137024819Y-100476190D02*
X137024819Y-100571428D01*
X137024819Y-100571428D02*
X136977200Y-100666666D01*
X136977200Y-100666666D02*
X136929580Y-100714285D01*
X136929580Y-100714285D02*
X136834342Y-100761904D01*
X136834342Y-100761904D02*
X136643866Y-100809523D01*
X136643866Y-100809523D02*
X136405771Y-100809523D01*
X136405771Y-100809523D02*
X136215295Y-100761904D01*
X136215295Y-100761904D02*
X136120057Y-100714285D01*
X136120057Y-100714285D02*
X136072438Y-100666666D01*
X136072438Y-100666666D02*
X136024819Y-100571428D01*
X133859580Y-101666666D02*
X133907200Y-101714285D01*
X133907200Y-101714285D02*
X133954819Y-101857142D01*
X133954819Y-101857142D02*
X133954819Y-101952380D01*
X133954819Y-101952380D02*
X133907200Y-102095237D01*
X133907200Y-102095237D02*
X133811961Y-102190475D01*
X133811961Y-102190475D02*
X133716723Y-102238094D01*
X133716723Y-102238094D02*
X133526247Y-102285713D01*
X133526247Y-102285713D02*
X133383390Y-102285713D01*
X133383390Y-102285713D02*
X133192914Y-102238094D01*
X133192914Y-102238094D02*
X133097676Y-102190475D01*
X133097676Y-102190475D02*
X133002438Y-102095237D01*
X133002438Y-102095237D02*
X132954819Y-101952380D01*
X132954819Y-101952380D02*
X132954819Y-101857142D01*
X132954819Y-101857142D02*
X133002438Y-101714285D01*
X133002438Y-101714285D02*
X133050057Y-101666666D01*
X133954819Y-101190475D02*
X133954819Y-100999999D01*
X133954819Y-100999999D02*
X133907200Y-100904761D01*
X133907200Y-100904761D02*
X133859580Y-100857142D01*
X133859580Y-100857142D02*
X133716723Y-100761904D01*
X133716723Y-100761904D02*
X133526247Y-100714285D01*
X133526247Y-100714285D02*
X133145295Y-100714285D01*
X133145295Y-100714285D02*
X133050057Y-100761904D01*
X133050057Y-100761904D02*
X133002438Y-100809523D01*
X133002438Y-100809523D02*
X132954819Y-100904761D01*
X132954819Y-100904761D02*
X132954819Y-101095237D01*
X132954819Y-101095237D02*
X133002438Y-101190475D01*
X133002438Y-101190475D02*
X133050057Y-101238094D01*
X133050057Y-101238094D02*
X133145295Y-101285713D01*
X133145295Y-101285713D02*
X133383390Y-101285713D01*
X133383390Y-101285713D02*
X133478628Y-101238094D01*
X133478628Y-101238094D02*
X133526247Y-101190475D01*
X133526247Y-101190475D02*
X133573866Y-101095237D01*
X133573866Y-101095237D02*
X133573866Y-100904761D01*
X133573866Y-100904761D02*
X133526247Y-100809523D01*
X133526247Y-100809523D02*
X133478628Y-100761904D01*
X133478628Y-100761904D02*
X133383390Y-100714285D01*
X141929580Y-97891666D02*
X141977200Y-97939285D01*
X141977200Y-97939285D02*
X142024819Y-98082142D01*
X142024819Y-98082142D02*
X142024819Y-98177380D01*
X142024819Y-98177380D02*
X141977200Y-98320237D01*
X141977200Y-98320237D02*
X141881961Y-98415475D01*
X141881961Y-98415475D02*
X141786723Y-98463094D01*
X141786723Y-98463094D02*
X141596247Y-98510713D01*
X141596247Y-98510713D02*
X141453390Y-98510713D01*
X141453390Y-98510713D02*
X141262914Y-98463094D01*
X141262914Y-98463094D02*
X141167676Y-98415475D01*
X141167676Y-98415475D02*
X141072438Y-98320237D01*
X141072438Y-98320237D02*
X141024819Y-98177380D01*
X141024819Y-98177380D02*
X141024819Y-98082142D01*
X141024819Y-98082142D02*
X141072438Y-97939285D01*
X141072438Y-97939285D02*
X141120057Y-97891666D01*
X141453390Y-97320237D02*
X141405771Y-97415475D01*
X141405771Y-97415475D02*
X141358152Y-97463094D01*
X141358152Y-97463094D02*
X141262914Y-97510713D01*
X141262914Y-97510713D02*
X141215295Y-97510713D01*
X141215295Y-97510713D02*
X141120057Y-97463094D01*
X141120057Y-97463094D02*
X141072438Y-97415475D01*
X141072438Y-97415475D02*
X141024819Y-97320237D01*
X141024819Y-97320237D02*
X141024819Y-97129761D01*
X141024819Y-97129761D02*
X141072438Y-97034523D01*
X141072438Y-97034523D02*
X141120057Y-96986904D01*
X141120057Y-96986904D02*
X141215295Y-96939285D01*
X141215295Y-96939285D02*
X141262914Y-96939285D01*
X141262914Y-96939285D02*
X141358152Y-96986904D01*
X141358152Y-96986904D02*
X141405771Y-97034523D01*
X141405771Y-97034523D02*
X141453390Y-97129761D01*
X141453390Y-97129761D02*
X141453390Y-97320237D01*
X141453390Y-97320237D02*
X141501009Y-97415475D01*
X141501009Y-97415475D02*
X141548628Y-97463094D01*
X141548628Y-97463094D02*
X141643866Y-97510713D01*
X141643866Y-97510713D02*
X141834342Y-97510713D01*
X141834342Y-97510713D02*
X141929580Y-97463094D01*
X141929580Y-97463094D02*
X141977200Y-97415475D01*
X141977200Y-97415475D02*
X142024819Y-97320237D01*
X142024819Y-97320237D02*
X142024819Y-97129761D01*
X142024819Y-97129761D02*
X141977200Y-97034523D01*
X141977200Y-97034523D02*
X141929580Y-96986904D01*
X141929580Y-96986904D02*
X141834342Y-96939285D01*
X141834342Y-96939285D02*
X141643866Y-96939285D01*
X141643866Y-96939285D02*
X141548628Y-96986904D01*
X141548628Y-96986904D02*
X141501009Y-97034523D01*
X141501009Y-97034523D02*
X141453390Y-97129761D01*
X138929580Y-97891666D02*
X138977200Y-97939285D01*
X138977200Y-97939285D02*
X139024819Y-98082142D01*
X139024819Y-98082142D02*
X139024819Y-98177380D01*
X139024819Y-98177380D02*
X138977200Y-98320237D01*
X138977200Y-98320237D02*
X138881961Y-98415475D01*
X138881961Y-98415475D02*
X138786723Y-98463094D01*
X138786723Y-98463094D02*
X138596247Y-98510713D01*
X138596247Y-98510713D02*
X138453390Y-98510713D01*
X138453390Y-98510713D02*
X138262914Y-98463094D01*
X138262914Y-98463094D02*
X138167676Y-98415475D01*
X138167676Y-98415475D02*
X138072438Y-98320237D01*
X138072438Y-98320237D02*
X138024819Y-98177380D01*
X138024819Y-98177380D02*
X138024819Y-98082142D01*
X138024819Y-98082142D02*
X138072438Y-97939285D01*
X138072438Y-97939285D02*
X138120057Y-97891666D01*
X138024819Y-97558332D02*
X138024819Y-96891666D01*
X138024819Y-96891666D02*
X139024819Y-97320237D01*
X135929580Y-97891666D02*
X135977200Y-97939285D01*
X135977200Y-97939285D02*
X136024819Y-98082142D01*
X136024819Y-98082142D02*
X136024819Y-98177380D01*
X136024819Y-98177380D02*
X135977200Y-98320237D01*
X135977200Y-98320237D02*
X135881961Y-98415475D01*
X135881961Y-98415475D02*
X135786723Y-98463094D01*
X135786723Y-98463094D02*
X135596247Y-98510713D01*
X135596247Y-98510713D02*
X135453390Y-98510713D01*
X135453390Y-98510713D02*
X135262914Y-98463094D01*
X135262914Y-98463094D02*
X135167676Y-98415475D01*
X135167676Y-98415475D02*
X135072438Y-98320237D01*
X135072438Y-98320237D02*
X135024819Y-98177380D01*
X135024819Y-98177380D02*
X135024819Y-98082142D01*
X135024819Y-98082142D02*
X135072438Y-97939285D01*
X135072438Y-97939285D02*
X135120057Y-97891666D01*
X135024819Y-97034523D02*
X135024819Y-97224999D01*
X135024819Y-97224999D02*
X135072438Y-97320237D01*
X135072438Y-97320237D02*
X135120057Y-97367856D01*
X135120057Y-97367856D02*
X135262914Y-97463094D01*
X135262914Y-97463094D02*
X135453390Y-97510713D01*
X135453390Y-97510713D02*
X135834342Y-97510713D01*
X135834342Y-97510713D02*
X135929580Y-97463094D01*
X135929580Y-97463094D02*
X135977200Y-97415475D01*
X135977200Y-97415475D02*
X136024819Y-97320237D01*
X136024819Y-97320237D02*
X136024819Y-97129761D01*
X136024819Y-97129761D02*
X135977200Y-97034523D01*
X135977200Y-97034523D02*
X135929580Y-96986904D01*
X135929580Y-96986904D02*
X135834342Y-96939285D01*
X135834342Y-96939285D02*
X135596247Y-96939285D01*
X135596247Y-96939285D02*
X135501009Y-96986904D01*
X135501009Y-96986904D02*
X135453390Y-97034523D01*
X135453390Y-97034523D02*
X135405771Y-97129761D01*
X135405771Y-97129761D02*
X135405771Y-97320237D01*
X135405771Y-97320237D02*
X135453390Y-97415475D01*
X135453390Y-97415475D02*
X135501009Y-97463094D01*
X135501009Y-97463094D02*
X135596247Y-97510713D01*
X132929580Y-97891666D02*
X132977200Y-97939285D01*
X132977200Y-97939285D02*
X133024819Y-98082142D01*
X133024819Y-98082142D02*
X133024819Y-98177380D01*
X133024819Y-98177380D02*
X132977200Y-98320237D01*
X132977200Y-98320237D02*
X132881961Y-98415475D01*
X132881961Y-98415475D02*
X132786723Y-98463094D01*
X132786723Y-98463094D02*
X132596247Y-98510713D01*
X132596247Y-98510713D02*
X132453390Y-98510713D01*
X132453390Y-98510713D02*
X132262914Y-98463094D01*
X132262914Y-98463094D02*
X132167676Y-98415475D01*
X132167676Y-98415475D02*
X132072438Y-98320237D01*
X132072438Y-98320237D02*
X132024819Y-98177380D01*
X132024819Y-98177380D02*
X132024819Y-98082142D01*
X132024819Y-98082142D02*
X132072438Y-97939285D01*
X132072438Y-97939285D02*
X132120057Y-97891666D01*
X132024819Y-96986904D02*
X132024819Y-97463094D01*
X132024819Y-97463094D02*
X132501009Y-97510713D01*
X132501009Y-97510713D02*
X132453390Y-97463094D01*
X132453390Y-97463094D02*
X132405771Y-97367856D01*
X132405771Y-97367856D02*
X132405771Y-97129761D01*
X132405771Y-97129761D02*
X132453390Y-97034523D01*
X132453390Y-97034523D02*
X132501009Y-96986904D01*
X132501009Y-96986904D02*
X132596247Y-96939285D01*
X132596247Y-96939285D02*
X132834342Y-96939285D01*
X132834342Y-96939285D02*
X132929580Y-96986904D01*
X132929580Y-96986904D02*
X132977200Y-97034523D01*
X132977200Y-97034523D02*
X133024819Y-97129761D01*
X133024819Y-97129761D02*
X133024819Y-97367856D01*
X133024819Y-97367856D02*
X132977200Y-97463094D01*
X132977200Y-97463094D02*
X132929580Y-97510713D01*
X129929580Y-97891666D02*
X129977200Y-97939285D01*
X129977200Y-97939285D02*
X130024819Y-98082142D01*
X130024819Y-98082142D02*
X130024819Y-98177380D01*
X130024819Y-98177380D02*
X129977200Y-98320237D01*
X129977200Y-98320237D02*
X129881961Y-98415475D01*
X129881961Y-98415475D02*
X129786723Y-98463094D01*
X129786723Y-98463094D02*
X129596247Y-98510713D01*
X129596247Y-98510713D02*
X129453390Y-98510713D01*
X129453390Y-98510713D02*
X129262914Y-98463094D01*
X129262914Y-98463094D02*
X129167676Y-98415475D01*
X129167676Y-98415475D02*
X129072438Y-98320237D01*
X129072438Y-98320237D02*
X129024819Y-98177380D01*
X129024819Y-98177380D02*
X129024819Y-98082142D01*
X129024819Y-98082142D02*
X129072438Y-97939285D01*
X129072438Y-97939285D02*
X129120057Y-97891666D01*
X129358152Y-97034523D02*
X130024819Y-97034523D01*
X128977200Y-97272618D02*
X129691485Y-97510713D01*
X129691485Y-97510713D02*
X129691485Y-96891666D01*
X144523809Y-90859580D02*
X144476190Y-90907200D01*
X144476190Y-90907200D02*
X144333333Y-90954819D01*
X144333333Y-90954819D02*
X144238095Y-90954819D01*
X144238095Y-90954819D02*
X144095238Y-90907200D01*
X144095238Y-90907200D02*
X144000000Y-90811961D01*
X144000000Y-90811961D02*
X143952381Y-90716723D01*
X143952381Y-90716723D02*
X143904762Y-90526247D01*
X143904762Y-90526247D02*
X143904762Y-90383390D01*
X143904762Y-90383390D02*
X143952381Y-90192914D01*
X143952381Y-90192914D02*
X144000000Y-90097676D01*
X144000000Y-90097676D02*
X144095238Y-90002438D01*
X144095238Y-90002438D02*
X144238095Y-89954819D01*
X144238095Y-89954819D02*
X144333333Y-89954819D01*
X144333333Y-89954819D02*
X144476190Y-90002438D01*
X144476190Y-90002438D02*
X144523809Y-90050057D01*
X144952381Y-90954819D02*
X144952381Y-89954819D01*
X144952381Y-90431009D02*
X145523809Y-90431009D01*
X145523809Y-90954819D02*
X145523809Y-89954819D01*
X146000000Y-89954819D02*
X146000000Y-90764342D01*
X146000000Y-90764342D02*
X146047619Y-90859580D01*
X146047619Y-90859580D02*
X146095238Y-90907200D01*
X146095238Y-90907200D02*
X146190476Y-90954819D01*
X146190476Y-90954819D02*
X146380952Y-90954819D01*
X146380952Y-90954819D02*
X146476190Y-90907200D01*
X146476190Y-90907200D02*
X146523809Y-90859580D01*
X146523809Y-90859580D02*
X146571428Y-90764342D01*
X146571428Y-90764342D02*
X146571428Y-89954819D01*
X147000000Y-90669104D02*
X147476190Y-90669104D01*
X146904762Y-90954819D02*
X147238095Y-89954819D01*
X147238095Y-89954819D02*
X147571428Y-90954819D01*
X147666667Y-91050057D02*
X148428571Y-91050057D01*
X148857143Y-89954819D02*
X149047619Y-89954819D01*
X149047619Y-89954819D02*
X149142857Y-90002438D01*
X149142857Y-90002438D02*
X149238095Y-90097676D01*
X149238095Y-90097676D02*
X149285714Y-90288152D01*
X149285714Y-90288152D02*
X149285714Y-90621485D01*
X149285714Y-90621485D02*
X149238095Y-90811961D01*
X149238095Y-90811961D02*
X149142857Y-90907200D01*
X149142857Y-90907200D02*
X149047619Y-90954819D01*
X149047619Y-90954819D02*
X148857143Y-90954819D01*
X148857143Y-90954819D02*
X148761905Y-90907200D01*
X148761905Y-90907200D02*
X148666667Y-90811961D01*
X148666667Y-90811961D02*
X148619048Y-90621485D01*
X148619048Y-90621485D02*
X148619048Y-90288152D01*
X148619048Y-90288152D02*
X148666667Y-90097676D01*
X148666667Y-90097676D02*
X148761905Y-90002438D01*
X148761905Y-90002438D02*
X148857143Y-89954819D01*
X149714286Y-89954819D02*
X149714286Y-90764342D01*
X149714286Y-90764342D02*
X149761905Y-90859580D01*
X149761905Y-90859580D02*
X149809524Y-90907200D01*
X149809524Y-90907200D02*
X149904762Y-90954819D01*
X149904762Y-90954819D02*
X150095238Y-90954819D01*
X150095238Y-90954819D02*
X150190476Y-90907200D01*
X150190476Y-90907200D02*
X150238095Y-90859580D01*
X150238095Y-90859580D02*
X150285714Y-90764342D01*
X150285714Y-90764342D02*
X150285714Y-89954819D01*
X150619048Y-89954819D02*
X151190476Y-89954819D01*
X150904762Y-90954819D02*
X150904762Y-89954819D01*
X130954819Y-112016666D02*
X130478628Y-112349999D01*
X130954819Y-112588094D02*
X129954819Y-112588094D01*
X129954819Y-112588094D02*
X129954819Y-112207142D01*
X129954819Y-112207142D02*
X130002438Y-112111904D01*
X130002438Y-112111904D02*
X130050057Y-112064285D01*
X130050057Y-112064285D02*
X130145295Y-112016666D01*
X130145295Y-112016666D02*
X130288152Y-112016666D01*
X130288152Y-112016666D02*
X130383390Y-112064285D01*
X130383390Y-112064285D02*
X130431009Y-112111904D01*
X130431009Y-112111904D02*
X130478628Y-112207142D01*
X130478628Y-112207142D02*
X130478628Y-112588094D01*
X129954819Y-111111904D02*
X129954819Y-111588094D01*
X129954819Y-111588094D02*
X130431009Y-111635713D01*
X130431009Y-111635713D02*
X130383390Y-111588094D01*
X130383390Y-111588094D02*
X130335771Y-111492856D01*
X130335771Y-111492856D02*
X130335771Y-111254761D01*
X130335771Y-111254761D02*
X130383390Y-111159523D01*
X130383390Y-111159523D02*
X130431009Y-111111904D01*
X130431009Y-111111904D02*
X130526247Y-111064285D01*
X130526247Y-111064285D02*
X130764342Y-111064285D01*
X130764342Y-111064285D02*
X130859580Y-111111904D01*
X130859580Y-111111904D02*
X130907200Y-111159523D01*
X130907200Y-111159523D02*
X130954819Y-111254761D01*
X130954819Y-111254761D02*
X130954819Y-111492856D01*
X130954819Y-111492856D02*
X130907200Y-111588094D01*
X130907200Y-111588094D02*
X130859580Y-111635713D01*
X130954819Y-108166666D02*
X130478628Y-108499999D01*
X130954819Y-108738094D02*
X129954819Y-108738094D01*
X129954819Y-108738094D02*
X129954819Y-108357142D01*
X129954819Y-108357142D02*
X130002438Y-108261904D01*
X130002438Y-108261904D02*
X130050057Y-108214285D01*
X130050057Y-108214285D02*
X130145295Y-108166666D01*
X130145295Y-108166666D02*
X130288152Y-108166666D01*
X130288152Y-108166666D02*
X130383390Y-108214285D01*
X130383390Y-108214285D02*
X130431009Y-108261904D01*
X130431009Y-108261904D02*
X130478628Y-108357142D01*
X130478628Y-108357142D02*
X130478628Y-108738094D01*
X130288152Y-107309523D02*
X130954819Y-107309523D01*
X129907200Y-107547618D02*
X130621485Y-107785713D01*
X130621485Y-107785713D02*
X130621485Y-107166666D01*
X143024819Y-106491666D02*
X142548628Y-106824999D01*
X143024819Y-107063094D02*
X142024819Y-107063094D01*
X142024819Y-107063094D02*
X142024819Y-106682142D01*
X142024819Y-106682142D02*
X142072438Y-106586904D01*
X142072438Y-106586904D02*
X142120057Y-106539285D01*
X142120057Y-106539285D02*
X142215295Y-106491666D01*
X142215295Y-106491666D02*
X142358152Y-106491666D01*
X142358152Y-106491666D02*
X142453390Y-106539285D01*
X142453390Y-106539285D02*
X142501009Y-106586904D01*
X142501009Y-106586904D02*
X142548628Y-106682142D01*
X142548628Y-106682142D02*
X142548628Y-107063094D01*
X142024819Y-105634523D02*
X142024819Y-105824999D01*
X142024819Y-105824999D02*
X142072438Y-105920237D01*
X142072438Y-105920237D02*
X142120057Y-105967856D01*
X142120057Y-105967856D02*
X142262914Y-106063094D01*
X142262914Y-106063094D02*
X142453390Y-106110713D01*
X142453390Y-106110713D02*
X142834342Y-106110713D01*
X142834342Y-106110713D02*
X142929580Y-106063094D01*
X142929580Y-106063094D02*
X142977200Y-106015475D01*
X142977200Y-106015475D02*
X143024819Y-105920237D01*
X143024819Y-105920237D02*
X143024819Y-105729761D01*
X143024819Y-105729761D02*
X142977200Y-105634523D01*
X142977200Y-105634523D02*
X142929580Y-105586904D01*
X142929580Y-105586904D02*
X142834342Y-105539285D01*
X142834342Y-105539285D02*
X142596247Y-105539285D01*
X142596247Y-105539285D02*
X142501009Y-105586904D01*
X142501009Y-105586904D02*
X142453390Y-105634523D01*
X142453390Y-105634523D02*
X142405771Y-105729761D01*
X142405771Y-105729761D02*
X142405771Y-105920237D01*
X142405771Y-105920237D02*
X142453390Y-106015475D01*
X142453390Y-106015475D02*
X142501009Y-106063094D01*
X142501009Y-106063094D02*
X142596247Y-106110713D01*
X140308333Y-114009580D02*
X140260714Y-114057200D01*
X140260714Y-114057200D02*
X140117857Y-114104819D01*
X140117857Y-114104819D02*
X140022619Y-114104819D01*
X140022619Y-114104819D02*
X139879762Y-114057200D01*
X139879762Y-114057200D02*
X139784524Y-113961961D01*
X139784524Y-113961961D02*
X139736905Y-113866723D01*
X139736905Y-113866723D02*
X139689286Y-113676247D01*
X139689286Y-113676247D02*
X139689286Y-113533390D01*
X139689286Y-113533390D02*
X139736905Y-113342914D01*
X139736905Y-113342914D02*
X139784524Y-113247676D01*
X139784524Y-113247676D02*
X139879762Y-113152438D01*
X139879762Y-113152438D02*
X140022619Y-113104819D01*
X140022619Y-113104819D02*
X140117857Y-113104819D01*
X140117857Y-113104819D02*
X140260714Y-113152438D01*
X140260714Y-113152438D02*
X140308333Y-113200057D01*
X140689286Y-113200057D02*
X140736905Y-113152438D01*
X140736905Y-113152438D02*
X140832143Y-113104819D01*
X140832143Y-113104819D02*
X141070238Y-113104819D01*
X141070238Y-113104819D02*
X141165476Y-113152438D01*
X141165476Y-113152438D02*
X141213095Y-113200057D01*
X141213095Y-113200057D02*
X141260714Y-113295295D01*
X141260714Y-113295295D02*
X141260714Y-113390533D01*
X141260714Y-113390533D02*
X141213095Y-113533390D01*
X141213095Y-113533390D02*
X140641667Y-114104819D01*
X140641667Y-114104819D02*
X141260714Y-114104819D01*
X128690476Y-90073866D02*
X129452381Y-90073866D01*
X129785714Y-89454819D02*
X130119047Y-90454819D01*
X130119047Y-90454819D02*
X130452380Y-89454819D01*
X131357142Y-90359580D02*
X131309523Y-90407200D01*
X131309523Y-90407200D02*
X131166666Y-90454819D01*
X131166666Y-90454819D02*
X131071428Y-90454819D01*
X131071428Y-90454819D02*
X130928571Y-90407200D01*
X130928571Y-90407200D02*
X130833333Y-90311961D01*
X130833333Y-90311961D02*
X130785714Y-90216723D01*
X130785714Y-90216723D02*
X130738095Y-90026247D01*
X130738095Y-90026247D02*
X130738095Y-89883390D01*
X130738095Y-89883390D02*
X130785714Y-89692914D01*
X130785714Y-89692914D02*
X130833333Y-89597676D01*
X130833333Y-89597676D02*
X130928571Y-89502438D01*
X130928571Y-89502438D02*
X131071428Y-89454819D01*
X131071428Y-89454819D02*
X131166666Y-89454819D01*
X131166666Y-89454819D02*
X131309523Y-89502438D01*
X131309523Y-89502438D02*
X131357142Y-89550057D01*
X132357142Y-90359580D02*
X132309523Y-90407200D01*
X132309523Y-90407200D02*
X132166666Y-90454819D01*
X132166666Y-90454819D02*
X132071428Y-90454819D01*
X132071428Y-90454819D02*
X131928571Y-90407200D01*
X131928571Y-90407200D02*
X131833333Y-90311961D01*
X131833333Y-90311961D02*
X131785714Y-90216723D01*
X131785714Y-90216723D02*
X131738095Y-90026247D01*
X131738095Y-90026247D02*
X131738095Y-89883390D01*
X131738095Y-89883390D02*
X131785714Y-89692914D01*
X131785714Y-89692914D02*
X131833333Y-89597676D01*
X131833333Y-89597676D02*
X131928571Y-89502438D01*
X131928571Y-89502438D02*
X132071428Y-89454819D01*
X132071428Y-89454819D02*
X132166666Y-89454819D01*
X132166666Y-89454819D02*
X132309523Y-89502438D01*
X132309523Y-89502438D02*
X132357142Y-89550057D01*
X147884819Y-111666666D02*
X147408628Y-111999999D01*
X147884819Y-112238094D02*
X146884819Y-112238094D01*
X146884819Y-112238094D02*
X146884819Y-111857142D01*
X146884819Y-111857142D02*
X146932438Y-111761904D01*
X146932438Y-111761904D02*
X146980057Y-111714285D01*
X146980057Y-111714285D02*
X147075295Y-111666666D01*
X147075295Y-111666666D02*
X147218152Y-111666666D01*
X147218152Y-111666666D02*
X147313390Y-111714285D01*
X147313390Y-111714285D02*
X147361009Y-111761904D01*
X147361009Y-111761904D02*
X147408628Y-111857142D01*
X147408628Y-111857142D02*
X147408628Y-112238094D01*
X147884819Y-111190475D02*
X147884819Y-110999999D01*
X147884819Y-110999999D02*
X147837200Y-110904761D01*
X147837200Y-110904761D02*
X147789580Y-110857142D01*
X147789580Y-110857142D02*
X147646723Y-110761904D01*
X147646723Y-110761904D02*
X147456247Y-110714285D01*
X147456247Y-110714285D02*
X147075295Y-110714285D01*
X147075295Y-110714285D02*
X146980057Y-110761904D01*
X146980057Y-110761904D02*
X146932438Y-110809523D01*
X146932438Y-110809523D02*
X146884819Y-110904761D01*
X146884819Y-110904761D02*
X146884819Y-111095237D01*
X146884819Y-111095237D02*
X146932438Y-111190475D01*
X146932438Y-111190475D02*
X146980057Y-111238094D01*
X146980057Y-111238094D02*
X147075295Y-111285713D01*
X147075295Y-111285713D02*
X147313390Y-111285713D01*
X147313390Y-111285713D02*
X147408628Y-111238094D01*
X147408628Y-111238094D02*
X147456247Y-111190475D01*
X147456247Y-111190475D02*
X147503866Y-111095237D01*
X147503866Y-111095237D02*
X147503866Y-110904761D01*
X147503866Y-110904761D02*
X147456247Y-110809523D01*
X147456247Y-110809523D02*
X147408628Y-110761904D01*
X147408628Y-110761904D02*
X147313390Y-110714285D01*
X149904761Y-99074819D02*
X149571428Y-98598628D01*
X149333333Y-99074819D02*
X149333333Y-98074819D01*
X149333333Y-98074819D02*
X149714285Y-98074819D01*
X149714285Y-98074819D02*
X149809523Y-98122438D01*
X149809523Y-98122438D02*
X149857142Y-98170057D01*
X149857142Y-98170057D02*
X149904761Y-98265295D01*
X149904761Y-98265295D02*
X149904761Y-98408152D01*
X149904761Y-98408152D02*
X149857142Y-98503390D01*
X149857142Y-98503390D02*
X149809523Y-98551009D01*
X149809523Y-98551009D02*
X149714285Y-98598628D01*
X149714285Y-98598628D02*
X149333333Y-98598628D01*
X150190476Y-98074819D02*
X150523809Y-99074819D01*
X150523809Y-99074819D02*
X150857142Y-98074819D01*
X151714285Y-99074819D02*
X151142857Y-99074819D01*
X151428571Y-99074819D02*
X151428571Y-98074819D01*
X151428571Y-98074819D02*
X151333333Y-98217676D01*
X151333333Y-98217676D02*
X151238095Y-98312914D01*
X151238095Y-98312914D02*
X151142857Y-98360533D01*
X126500000Y-109598628D02*
X126500000Y-110074819D01*
X126166667Y-109074819D02*
X126500000Y-109598628D01*
X126500000Y-109598628D02*
X126833333Y-109074819D01*
X134558333Y-113929580D02*
X134510714Y-113977200D01*
X134510714Y-113977200D02*
X134367857Y-114024819D01*
X134367857Y-114024819D02*
X134272619Y-114024819D01*
X134272619Y-114024819D02*
X134129762Y-113977200D01*
X134129762Y-113977200D02*
X134034524Y-113881961D01*
X134034524Y-113881961D02*
X133986905Y-113786723D01*
X133986905Y-113786723D02*
X133939286Y-113596247D01*
X133939286Y-113596247D02*
X133939286Y-113453390D01*
X133939286Y-113453390D02*
X133986905Y-113262914D01*
X133986905Y-113262914D02*
X134034524Y-113167676D01*
X134034524Y-113167676D02*
X134129762Y-113072438D01*
X134129762Y-113072438D02*
X134272619Y-113024819D01*
X134272619Y-113024819D02*
X134367857Y-113024819D01*
X134367857Y-113024819D02*
X134510714Y-113072438D01*
X134510714Y-113072438D02*
X134558333Y-113120057D01*
X135510714Y-114024819D02*
X134939286Y-114024819D01*
X135225000Y-114024819D02*
X135225000Y-113024819D01*
X135225000Y-113024819D02*
X135129762Y-113167676D01*
X135129762Y-113167676D02*
X135034524Y-113262914D01*
X135034524Y-113262914D02*
X134939286Y-113310533D01*
X143024819Y-109841666D02*
X142548628Y-110174999D01*
X143024819Y-110413094D02*
X142024819Y-110413094D01*
X142024819Y-110413094D02*
X142024819Y-110032142D01*
X142024819Y-110032142D02*
X142072438Y-109936904D01*
X142072438Y-109936904D02*
X142120057Y-109889285D01*
X142120057Y-109889285D02*
X142215295Y-109841666D01*
X142215295Y-109841666D02*
X142358152Y-109841666D01*
X142358152Y-109841666D02*
X142453390Y-109889285D01*
X142453390Y-109889285D02*
X142501009Y-109936904D01*
X142501009Y-109936904D02*
X142548628Y-110032142D01*
X142548628Y-110032142D02*
X142548628Y-110413094D01*
X142024819Y-109508332D02*
X142024819Y-108841666D01*
X142024819Y-108841666D02*
X143024819Y-109270237D01*
X143024819Y-113341666D02*
X142548628Y-113674999D01*
X143024819Y-113913094D02*
X142024819Y-113913094D01*
X142024819Y-113913094D02*
X142024819Y-113532142D01*
X142024819Y-113532142D02*
X142072438Y-113436904D01*
X142072438Y-113436904D02*
X142120057Y-113389285D01*
X142120057Y-113389285D02*
X142215295Y-113341666D01*
X142215295Y-113341666D02*
X142358152Y-113341666D01*
X142358152Y-113341666D02*
X142453390Y-113389285D01*
X142453390Y-113389285D02*
X142501009Y-113436904D01*
X142501009Y-113436904D02*
X142548628Y-113532142D01*
X142548628Y-113532142D02*
X142548628Y-113913094D01*
X142453390Y-112770237D02*
X142405771Y-112865475D01*
X142405771Y-112865475D02*
X142358152Y-112913094D01*
X142358152Y-112913094D02*
X142262914Y-112960713D01*
X142262914Y-112960713D02*
X142215295Y-112960713D01*
X142215295Y-112960713D02*
X142120057Y-112913094D01*
X142120057Y-112913094D02*
X142072438Y-112865475D01*
X142072438Y-112865475D02*
X142024819Y-112770237D01*
X142024819Y-112770237D02*
X142024819Y-112579761D01*
X142024819Y-112579761D02*
X142072438Y-112484523D01*
X142072438Y-112484523D02*
X142120057Y-112436904D01*
X142120057Y-112436904D02*
X142215295Y-112389285D01*
X142215295Y-112389285D02*
X142262914Y-112389285D01*
X142262914Y-112389285D02*
X142358152Y-112436904D01*
X142358152Y-112436904D02*
X142405771Y-112484523D01*
X142405771Y-112484523D02*
X142453390Y-112579761D01*
X142453390Y-112579761D02*
X142453390Y-112770237D01*
X142453390Y-112770237D02*
X142501009Y-112865475D01*
X142501009Y-112865475D02*
X142548628Y-112913094D01*
X142548628Y-112913094D02*
X142643866Y-112960713D01*
X142643866Y-112960713D02*
X142834342Y-112960713D01*
X142834342Y-112960713D02*
X142929580Y-112913094D01*
X142929580Y-112913094D02*
X142977200Y-112865475D01*
X142977200Y-112865475D02*
X143024819Y-112770237D01*
X143024819Y-112770237D02*
X143024819Y-112579761D01*
X143024819Y-112579761D02*
X142977200Y-112484523D01*
X142977200Y-112484523D02*
X142929580Y-112436904D01*
X142929580Y-112436904D02*
X142834342Y-112389285D01*
X142834342Y-112389285D02*
X142643866Y-112389285D01*
X142643866Y-112389285D02*
X142548628Y-112436904D01*
X142548628Y-112436904D02*
X142501009Y-112484523D01*
X142501009Y-112484523D02*
X142453390Y-112579761D01*
X149904761Y-110574819D02*
X149571428Y-110098628D01*
X149333333Y-110574819D02*
X149333333Y-109574819D01*
X149333333Y-109574819D02*
X149714285Y-109574819D01*
X149714285Y-109574819D02*
X149809523Y-109622438D01*
X149809523Y-109622438D02*
X149857142Y-109670057D01*
X149857142Y-109670057D02*
X149904761Y-109765295D01*
X149904761Y-109765295D02*
X149904761Y-109908152D01*
X149904761Y-109908152D02*
X149857142Y-110003390D01*
X149857142Y-110003390D02*
X149809523Y-110051009D01*
X149809523Y-110051009D02*
X149714285Y-110098628D01*
X149714285Y-110098628D02*
X149333333Y-110098628D01*
X150190476Y-109574819D02*
X150523809Y-110574819D01*
X150523809Y-110574819D02*
X150857142Y-109574819D01*
X151142857Y-109670057D02*
X151190476Y-109622438D01*
X151190476Y-109622438D02*
X151285714Y-109574819D01*
X151285714Y-109574819D02*
X151523809Y-109574819D01*
X151523809Y-109574819D02*
X151619047Y-109622438D01*
X151619047Y-109622438D02*
X151666666Y-109670057D01*
X151666666Y-109670057D02*
X151714285Y-109765295D01*
X151714285Y-109765295D02*
X151714285Y-109860533D01*
X151714285Y-109860533D02*
X151666666Y-110003390D01*
X151666666Y-110003390D02*
X151095238Y-110574819D01*
X151095238Y-110574819D02*
X151714285Y-110574819D01*
X124690476Y-95573866D02*
X125452381Y-95573866D01*
X125071428Y-95954819D02*
X125071428Y-95192914D01*
X125785714Y-94954819D02*
X126119047Y-95954819D01*
X126119047Y-95954819D02*
X126452380Y-94954819D01*
X127357142Y-95859580D02*
X127309523Y-95907200D01*
X127309523Y-95907200D02*
X127166666Y-95954819D01*
X127166666Y-95954819D02*
X127071428Y-95954819D01*
X127071428Y-95954819D02*
X126928571Y-95907200D01*
X126928571Y-95907200D02*
X126833333Y-95811961D01*
X126833333Y-95811961D02*
X126785714Y-95716723D01*
X126785714Y-95716723D02*
X126738095Y-95526247D01*
X126738095Y-95526247D02*
X126738095Y-95383390D01*
X126738095Y-95383390D02*
X126785714Y-95192914D01*
X126785714Y-95192914D02*
X126833333Y-95097676D01*
X126833333Y-95097676D02*
X126928571Y-95002438D01*
X126928571Y-95002438D02*
X127071428Y-94954819D01*
X127071428Y-94954819D02*
X127166666Y-94954819D01*
X127166666Y-94954819D02*
X127309523Y-95002438D01*
X127309523Y-95002438D02*
X127357142Y-95050057D01*
X128357142Y-95859580D02*
X128309523Y-95907200D01*
X128309523Y-95907200D02*
X128166666Y-95954819D01*
X128166666Y-95954819D02*
X128071428Y-95954819D01*
X128071428Y-95954819D02*
X127928571Y-95907200D01*
X127928571Y-95907200D02*
X127833333Y-95811961D01*
X127833333Y-95811961D02*
X127785714Y-95716723D01*
X127785714Y-95716723D02*
X127738095Y-95526247D01*
X127738095Y-95526247D02*
X127738095Y-95383390D01*
X127738095Y-95383390D02*
X127785714Y-95192914D01*
X127785714Y-95192914D02*
X127833333Y-95097676D01*
X127833333Y-95097676D02*
X127928571Y-95002438D01*
X127928571Y-95002438D02*
X128071428Y-94954819D01*
X128071428Y-94954819D02*
X128166666Y-94954819D01*
X128166666Y-94954819D02*
X128309523Y-95002438D01*
X128309523Y-95002438D02*
X128357142Y-95050057D01*
X130954819Y-104666666D02*
X130478628Y-104999999D01*
X130954819Y-105238094D02*
X129954819Y-105238094D01*
X129954819Y-105238094D02*
X129954819Y-104857142D01*
X129954819Y-104857142D02*
X130002438Y-104761904D01*
X130002438Y-104761904D02*
X130050057Y-104714285D01*
X130050057Y-104714285D02*
X130145295Y-104666666D01*
X130145295Y-104666666D02*
X130288152Y-104666666D01*
X130288152Y-104666666D02*
X130383390Y-104714285D01*
X130383390Y-104714285D02*
X130431009Y-104761904D01*
X130431009Y-104761904D02*
X130478628Y-104857142D01*
X130478628Y-104857142D02*
X130478628Y-105238094D01*
X130050057Y-104285713D02*
X130002438Y-104238094D01*
X130002438Y-104238094D02*
X129954819Y-104142856D01*
X129954819Y-104142856D02*
X129954819Y-103904761D01*
X129954819Y-103904761D02*
X130002438Y-103809523D01*
X130002438Y-103809523D02*
X130050057Y-103761904D01*
X130050057Y-103761904D02*
X130145295Y-103714285D01*
X130145295Y-103714285D02*
X130240533Y-103714285D01*
X130240533Y-103714285D02*
X130383390Y-103761904D01*
X130383390Y-103761904D02*
X130954819Y-104333332D01*
X130954819Y-104333332D02*
X130954819Y-103714285D01*
X145009580Y-117966666D02*
X145057200Y-118014285D01*
X145057200Y-118014285D02*
X145104819Y-118157142D01*
X145104819Y-118157142D02*
X145104819Y-118252380D01*
X145104819Y-118252380D02*
X145057200Y-118395237D01*
X145057200Y-118395237D02*
X144961961Y-118490475D01*
X144961961Y-118490475D02*
X144866723Y-118538094D01*
X144866723Y-118538094D02*
X144676247Y-118585713D01*
X144676247Y-118585713D02*
X144533390Y-118585713D01*
X144533390Y-118585713D02*
X144342914Y-118538094D01*
X144342914Y-118538094D02*
X144247676Y-118490475D01*
X144247676Y-118490475D02*
X144152438Y-118395237D01*
X144152438Y-118395237D02*
X144104819Y-118252380D01*
X144104819Y-118252380D02*
X144104819Y-118157142D01*
X144104819Y-118157142D02*
X144152438Y-118014285D01*
X144152438Y-118014285D02*
X144200057Y-117966666D01*
X144104819Y-117633332D02*
X144104819Y-117014285D01*
X144104819Y-117014285D02*
X144485771Y-117347618D01*
X144485771Y-117347618D02*
X144485771Y-117204761D01*
X144485771Y-117204761D02*
X144533390Y-117109523D01*
X144533390Y-117109523D02*
X144581009Y-117061904D01*
X144581009Y-117061904D02*
X144676247Y-117014285D01*
X144676247Y-117014285D02*
X144914342Y-117014285D01*
X144914342Y-117014285D02*
X145009580Y-117061904D01*
X145009580Y-117061904D02*
X145057200Y-117109523D01*
X145057200Y-117109523D02*
X145104819Y-117204761D01*
X145104819Y-117204761D02*
X145104819Y-117490475D01*
X145104819Y-117490475D02*
X145057200Y-117585713D01*
X145057200Y-117585713D02*
X145009580Y-117633332D01*
X143024819Y-102841666D02*
X142548628Y-103174999D01*
X143024819Y-103413094D02*
X142024819Y-103413094D01*
X142024819Y-103413094D02*
X142024819Y-103032142D01*
X142024819Y-103032142D02*
X142072438Y-102936904D01*
X142072438Y-102936904D02*
X142120057Y-102889285D01*
X142120057Y-102889285D02*
X142215295Y-102841666D01*
X142215295Y-102841666D02*
X142358152Y-102841666D01*
X142358152Y-102841666D02*
X142453390Y-102889285D01*
X142453390Y-102889285D02*
X142501009Y-102936904D01*
X142501009Y-102936904D02*
X142548628Y-103032142D01*
X142548628Y-103032142D02*
X142548628Y-103413094D01*
X142024819Y-102508332D02*
X142024819Y-101889285D01*
X142024819Y-101889285D02*
X142405771Y-102222618D01*
X142405771Y-102222618D02*
X142405771Y-102079761D01*
X142405771Y-102079761D02*
X142453390Y-101984523D01*
X142453390Y-101984523D02*
X142501009Y-101936904D01*
X142501009Y-101936904D02*
X142596247Y-101889285D01*
X142596247Y-101889285D02*
X142834342Y-101889285D01*
X142834342Y-101889285D02*
X142929580Y-101936904D01*
X142929580Y-101936904D02*
X142977200Y-101984523D01*
X142977200Y-101984523D02*
X143024819Y-102079761D01*
X143024819Y-102079761D02*
X143024819Y-102365475D01*
X143024819Y-102365475D02*
X142977200Y-102460713D01*
X142977200Y-102460713D02*
X142929580Y-102508332D01*
X126166667Y-114074819D02*
X126833333Y-114074819D01*
X126833333Y-114074819D02*
X126166667Y-115074819D01*
X126166667Y-115074819D02*
X126833333Y-115074819D01*
X130954819Y-101166666D02*
X130478628Y-101499999D01*
X130954819Y-101738094D02*
X129954819Y-101738094D01*
X129954819Y-101738094D02*
X129954819Y-101357142D01*
X129954819Y-101357142D02*
X130002438Y-101261904D01*
X130002438Y-101261904D02*
X130050057Y-101214285D01*
X130050057Y-101214285D02*
X130145295Y-101166666D01*
X130145295Y-101166666D02*
X130288152Y-101166666D01*
X130288152Y-101166666D02*
X130383390Y-101214285D01*
X130383390Y-101214285D02*
X130431009Y-101261904D01*
X130431009Y-101261904D02*
X130478628Y-101357142D01*
X130478628Y-101357142D02*
X130478628Y-101738094D01*
X130954819Y-100214285D02*
X130954819Y-100785713D01*
X130954819Y-100499999D02*
X129954819Y-100499999D01*
X129954819Y-100499999D02*
X130097676Y-100595237D01*
X130097676Y-100595237D02*
X130192914Y-100690475D01*
X130192914Y-100690475D02*
X130240533Y-100785713D01*
X126166667Y-104074819D02*
X126833333Y-105074819D01*
X126833333Y-104074819D02*
X126166667Y-105074819D01*
D15*
X134525000Y-90420000D02*
X136050000Y-90420000D01*
X136400000Y-95450000D02*
X136400000Y-90550000D01*
X139600000Y-95450000D02*
X136400000Y-95450000D01*
X139600000Y-90550000D02*
X139600000Y-95450000D01*
X136400000Y-90550000D02*
X139600000Y-90550000D01*
D16*
X127880000Y-103270000D02*
X127880000Y-103380000D01*
X125120000Y-103380000D02*
X127880000Y-103380000D01*
X125120000Y-103270000D02*
X127880000Y-103270000D01*
X125120000Y-103270000D02*
X125120000Y-103380000D01*
X125120000Y-102000000D02*
X125120000Y-100620000D01*
X125120000Y-100620000D02*
X126500000Y-100620000D01*
D15*
X136400000Y-103675000D02*
X139600000Y-103675000D01*
X139600000Y-103675000D02*
X139600000Y-112325000D01*
X139600000Y-112325000D02*
X136400000Y-112325000D01*
X136400000Y-112325000D02*
X136400000Y-103675000D01*
X134525000Y-103490000D02*
X136050000Y-103490000D01*
D16*
X140490000Y-101640580D02*
X140490000Y-101359420D01*
X141510000Y-101640580D02*
X141510000Y-101359420D01*
X137490000Y-101640580D02*
X137490000Y-101359420D01*
X138510000Y-101640580D02*
X138510000Y-101359420D01*
X134490000Y-101640580D02*
X134490000Y-101359420D01*
X135510000Y-101640580D02*
X135510000Y-101359420D01*
X142490000Y-97865580D02*
X142490000Y-97584420D01*
X143510000Y-97865580D02*
X143510000Y-97584420D01*
X139490000Y-97865580D02*
X139490000Y-97584420D01*
X140510000Y-97865580D02*
X140510000Y-97584420D01*
X136490000Y-97865580D02*
X136490000Y-97584420D01*
X137510000Y-97865580D02*
X137510000Y-97584420D01*
X133490000Y-97865580D02*
X133490000Y-97584420D01*
X134510000Y-97865580D02*
X134510000Y-97584420D01*
X130490000Y-97865580D02*
X130490000Y-97584420D01*
X131510000Y-97865580D02*
X131510000Y-97584420D01*
X149120000Y-91120000D02*
X150500000Y-91120000D01*
X149120000Y-92500000D02*
X149120000Y-91120000D01*
X149120000Y-93770000D02*
X149120000Y-93880000D01*
X149120000Y-93770000D02*
X151880000Y-93770000D01*
X149120000Y-93880000D02*
X151880000Y-93880000D01*
X151880000Y-93770000D02*
X151880000Y-93880000D01*
X132522500Y-111612742D02*
X132522500Y-112087258D01*
X131477500Y-111612742D02*
X131477500Y-112087258D01*
X132522500Y-107937742D02*
X132522500Y-108412258D01*
X131477500Y-107937742D02*
X131477500Y-108412258D01*
X143477500Y-106562258D02*
X143477500Y-106087742D01*
X144522500Y-106562258D02*
X144522500Y-106087742D01*
X139763748Y-114590000D02*
X141186252Y-114590000D01*
X139763748Y-116410000D02*
X141186252Y-116410000D01*
X129620000Y-91120000D02*
X131000000Y-91120000D01*
X129620000Y-92500000D02*
X129620000Y-91120000D01*
X129620000Y-93770000D02*
X129620000Y-93880000D01*
X129620000Y-93770000D02*
X132380000Y-93770000D01*
X129620000Y-93880000D02*
X132380000Y-93880000D01*
X132380000Y-93770000D02*
X132380000Y-93880000D01*
X146522500Y-111262742D02*
X146522500Y-111737258D01*
X145477500Y-111262742D02*
X145477500Y-111737258D01*
X149120000Y-99620000D02*
X150500000Y-99620000D01*
X149120000Y-101000000D02*
X149120000Y-99620000D01*
X149120000Y-102270000D02*
X149120000Y-107460000D01*
X149120000Y-102270000D02*
X151880000Y-102270000D01*
X149120000Y-107460000D02*
X151880000Y-107460000D01*
X151880000Y-102270000D02*
X151880000Y-107460000D01*
X125120000Y-110620000D02*
X126500000Y-110620000D01*
X125120000Y-112000000D02*
X125120000Y-110620000D01*
X125120000Y-113270000D02*
X125120000Y-113380000D01*
X125120000Y-113270000D02*
X127880000Y-113270000D01*
X125120000Y-113380000D02*
X127880000Y-113380000D01*
X127880000Y-113270000D02*
X127880000Y-113380000D01*
X134584420Y-114490000D02*
X134865580Y-114490000D01*
X134584420Y-115510000D02*
X134865580Y-115510000D01*
X143477500Y-109912258D02*
X143477500Y-109437742D01*
X144522500Y-109912258D02*
X144522500Y-109437742D01*
X143477500Y-113412258D02*
X143477500Y-112937742D01*
X144522500Y-113412258D02*
X144522500Y-112937742D01*
X149120000Y-111120000D02*
X150500000Y-111120000D01*
X149120000Y-112500000D02*
X149120000Y-111120000D01*
X149120000Y-113770000D02*
X149120000Y-118960000D01*
X149120000Y-113770000D02*
X151880000Y-113770000D01*
X149120000Y-118960000D02*
X151880000Y-118960000D01*
X151880000Y-113770000D02*
X151880000Y-118960000D01*
X125120000Y-91120000D02*
X126500000Y-91120000D01*
X125120000Y-92500000D02*
X125120000Y-91120000D01*
X125120000Y-93770000D02*
X125120000Y-93880000D01*
X125120000Y-93770000D02*
X127880000Y-93770000D01*
X125120000Y-93880000D02*
X127880000Y-93880000D01*
X127880000Y-93770000D02*
X127880000Y-93880000D01*
X132522500Y-104437742D02*
X132522500Y-104912258D01*
X131477500Y-104437742D02*
X131477500Y-104912258D01*
X145590000Y-116236252D02*
X145590000Y-114813748D01*
X147410000Y-116236252D02*
X147410000Y-114813748D01*
X143477500Y-102912258D02*
X143477500Y-102437742D01*
X144522500Y-102912258D02*
X144522500Y-102437742D01*
X125120000Y-115620000D02*
X126500000Y-115620000D01*
X125120000Y-117000000D02*
X125120000Y-115620000D01*
X125120000Y-118270000D02*
X125120000Y-118380000D01*
X125120000Y-118270000D02*
X127880000Y-118270000D01*
X125120000Y-118380000D02*
X127880000Y-118380000D01*
X127880000Y-118270000D02*
X127880000Y-118380000D01*
X132522500Y-100937742D02*
X132522500Y-101412258D01*
X131477500Y-100937742D02*
X131477500Y-101412258D01*
X125120000Y-105620000D02*
X126500000Y-105620000D01*
X125120000Y-107000000D02*
X125120000Y-105620000D01*
X125120000Y-108270000D02*
X125120000Y-108380000D01*
X125120000Y-108270000D02*
X127880000Y-108270000D01*
X125120000Y-108380000D02*
X127880000Y-108380000D01*
X127880000Y-108270000D02*
X127880000Y-108380000D01*
%LPC*%
D17*
X140712000Y-91095000D03*
X140712000Y-92365000D03*
X140712000Y-93635000D03*
X140712000Y-94905000D03*
X135288000Y-94905000D03*
X135288000Y-93635000D03*
X135288000Y-92365000D03*
X135288000Y-91095000D03*
D18*
X126500000Y-102000000D03*
D19*
X135288000Y-104190000D03*
X135288000Y-105460000D03*
X135288000Y-106730000D03*
X135288000Y-108000000D03*
X135288000Y-109270000D03*
X135288000Y-110540000D03*
X135288000Y-111810000D03*
X140712000Y-111810000D03*
X140712000Y-110540000D03*
X140712000Y-109270000D03*
X140712000Y-108000000D03*
X140712000Y-106730000D03*
X140712000Y-105460000D03*
X140712000Y-104190000D03*
D20*
X141000000Y-102275000D03*
X141000000Y-100725000D03*
X138000000Y-102275000D03*
X138000000Y-100725000D03*
X135000000Y-102275000D03*
X135000000Y-100725000D03*
X143000000Y-98500000D03*
X143000000Y-96950000D03*
X140000000Y-98500000D03*
X140000000Y-96950000D03*
X137000000Y-98500000D03*
X137000000Y-96950000D03*
X134000000Y-98500000D03*
X134000000Y-96950000D03*
X131000000Y-98500000D03*
X131000000Y-96950000D03*
D18*
X150500000Y-92500000D03*
D21*
X132000000Y-111025000D03*
X132000000Y-112675000D03*
X132000000Y-107350000D03*
X132000000Y-109000000D03*
D22*
X144000000Y-107150000D03*
X144000000Y-105500000D03*
D23*
X139000000Y-115500000D03*
X141950000Y-115500000D03*
D18*
X131000000Y-92500000D03*
D21*
X146000000Y-110675000D03*
X146000000Y-112325000D03*
D18*
X150500000Y-101000000D03*
D24*
X150500000Y-103540000D03*
X150500000Y-106080000D03*
D18*
X126500000Y-112000000D03*
D25*
X133950000Y-115000000D03*
X135500000Y-115000000D03*
D22*
X144000000Y-110500000D03*
X144000000Y-108850000D03*
X144000000Y-114000000D03*
X144000000Y-112350000D03*
D18*
X150500000Y-112500000D03*
D24*
X150500000Y-115040000D03*
X150500000Y-117580000D03*
D18*
X126500000Y-92500000D03*
D21*
X132000000Y-103850000D03*
X132000000Y-105500000D03*
D26*
X146500000Y-117000000D03*
X146500000Y-114050000D03*
D22*
X144000000Y-103500000D03*
X144000000Y-101850000D03*
D18*
X126500000Y-117000000D03*
D21*
X132000000Y-100350000D03*
X132000000Y-102000000D03*
D18*
X126500000Y-107000000D03*
%LPD*%
M02*
